<?xml version="1.0" encoding="utf-8"?>
<!-- Generator: Adobe Illustrator 20.1.0, SVG Export Plug-In . SVG Version: 6.00 Build 0)  -->
<svg version="1.1" id="Layer_1" xmlns="http://www.w3.org/2000/svg" xmlns:xlink="http://www.w3.org/1999/xlink" x="0px" y="0px"
	 viewBox="0 0 1080 144" style="enable-background:new 0 0 1080 144;" xml:space="preserve">
<g>
	<path d="M42.8,55.3c0.2,0.7,0.2,1.3,0,1.8S42.3,58,42,58.4c-0.3,0.4-0.6,0.8-0.9,1.2c-0.3,0.4-0.5,0.9-0.5,1.4
		c-1.5,1.8-2.9,3.7-4.3,5.7c-1.4,2-2.6,4-3.7,5.8c-0.3,0.7-0.8,1.5-1.4,2.2c-0.6,0.7-1.1,1.4-1.5,2.2c-0.4,0.5-0.7,1.1-0.9,1.6
		c-0.2,0.5-0.5,1.1-0.7,1.6c-0.2,0.5-0.5,1.1-0.8,1.6c-0.3,0.5-0.7,1.1-1.2,1.6c0,0.6-0.1,1.1-0.4,1.7c-0.2,0.5-0.5,1.1-0.8,1.6
		c-0.3,0.5-0.6,1.1-1,1.6c-0.3,0.5-0.6,1.1-0.7,1.7c-0.2,0-0.4,0-0.7,0.1c-0.3,0.1-0.5,0.1-0.8,0.2c-0.3,0.1-0.5,0.1-0.8,0.1
		c-0.3,0-0.5-0.1-0.6-0.3c-0.4,0-0.7-0.3-1-0.8c-0.2-0.5-0.2-1,0.2-1.4c0.4,0,0.8-0.2,1-0.5s0.4-0.6,0.4-1s0.1-0.7,0.3-1
		c0.2-0.3,0.5-0.6,0.8-0.8c0.3-0.3,0.5-0.5,0.8-0.8c0.2-0.3,0.3-0.6,0.3-1l1.5-1.4c0-0.6,0.1-1,0.2-1.4c0.2-0.4,0.3-0.7,0.5-1
		c0.2-0.3,0.3-0.6,0.5-0.9c0.1-0.3,0.2-0.6,0.2-1c0.4,0,0.6,0,0.8-0.1s0.2-0.2,0.3-0.3c0-0.1,0.1-0.2,0.1-0.3c0-0.1,0.1-0.1,0.3-0.1
		v-1.4c0.2,0,0.3,0,0.4,0.1c0.1,0.1,0.1,0.2,0.2,0.3l0.1,0.3c0.2,0,0.3,0,0.3-0.1c0-0.1,0.1-0.1,0.1-0.2s0-0.2,0-0.3
		c0-0.1,0.1-0.1,0.2-0.2h-0.6c0-0.2,0-0.3,0.1-0.4c0.1-0.1,0.2-0.2,0.3-0.3c0.1-0.1,0.2-0.2,0.3-0.3c0.1-0.1,0.1-0.3,0.1-0.4
		c0.3-0.2,0.6-0.4,0.8-0.7c0.2-0.3,0.4-0.7,0.5-1c0.1-0.4,0.2-0.7,0.3-1c0.1-0.3,0.2-0.6,0.4-0.8v-1.5c0.6-0.2,0.9-0.4,1.1-0.8
		s0.3-0.7,0.4-1c0.1-0.4,0.2-0.7,0.4-1.1c0.2-0.3,0.5-0.6,1-0.8c0-0.3,0.1-0.7,0.4-1c0.2-0.4,0.4-0.7,0.4-1.1
		c0.3-0.7,0.8-1.4,1.4-2.1c0.6-0.7,1.1-1.4,1.5-2.2c0.2-0.2,0.3-0.4,0.3-0.5c0-0.2,0-0.3,0-0.5c0-0.2-0.1-0.4-0.2-0.6
		c-0.1-0.2-0.1-0.4-0.1-0.6c0.4-0.3,0.6-0.7,0.8-1s0.6-0.7,1.3-1.1c0.2,0.2,0.4,0.3,0.7,0.3c0.3,0,0.5,0.1,0.8,0.1
		c0.3,0,0.5,0.1,0.8,0.3C42.4,54.6,42.6,54.9,42.8,55.3z"/>
	<path d="M67.6,55.3c0.2,0.7,0.2,1.3,0,1.8s-0.5,0.9-0.8,1.3c-0.3,0.4-0.6,0.8-0.9,1.2s-0.5,0.9-0.5,1.4c-1.5,1.8-2.9,3.7-4.3,5.7
		c-1.4,2-2.6,4-3.7,5.8c-0.3,0.7-0.8,1.5-1.4,2.2c-0.6,0.7-1.1,1.4-1.5,2.2c-0.4,0.5-0.7,1.1-0.9,1.6c-0.2,0.5-0.5,1.1-0.7,1.6
		c-0.2,0.5-0.5,1.1-0.8,1.6c-0.3,0.5-0.7,1.1-1.2,1.6c0,0.6-0.1,1.1-0.4,1.7c-0.2,0.5-0.5,1.1-0.8,1.6c-0.3,0.5-0.6,1.1-1,1.6
		c-0.3,0.5-0.6,1.1-0.7,1.7c-0.2,0-0.4,0-0.7,0.1s-0.5,0.1-0.8,0.2c-0.3,0.1-0.5,0.1-0.8,0.1c-0.3,0-0.5-0.1-0.6-0.3
		c-0.4,0-0.7-0.3-1-0.8c-0.2-0.5-0.2-1,0.2-1.4c0.4,0,0.8-0.2,1-0.5s0.4-0.6,0.4-1s0.1-0.7,0.3-1s0.5-0.6,0.8-0.8
		c0.3-0.3,0.5-0.5,0.8-0.8c0.2-0.3,0.3-0.6,0.3-1l1.5-1.4c0-0.6,0.1-1,0.2-1.4c0.2-0.4,0.3-0.7,0.5-1c0.2-0.3,0.3-0.6,0.5-0.9
		c0.1-0.3,0.2-0.6,0.2-1c0.4,0,0.6,0,0.8-0.1s0.2-0.2,0.3-0.3c0-0.1,0.1-0.2,0.1-0.3c0-0.1,0.1-0.1,0.3-0.1v-1.4
		c0.2,0,0.3,0,0.4,0.1c0.1,0.1,0.1,0.2,0.2,0.3l0.1,0.3c0.2,0,0.3,0,0.3-0.1c0-0.1,0.1-0.1,0.1-0.2s0-0.2,0-0.3
		c0-0.1,0.1-0.1,0.2-0.2h-0.6c0-0.2,0-0.3,0.1-0.4c0.1-0.1,0.2-0.2,0.3-0.3c0.1-0.1,0.2-0.2,0.3-0.3c0.1-0.1,0.1-0.3,0.1-0.4
		c0.3-0.2,0.6-0.4,0.8-0.7c0.2-0.3,0.4-0.7,0.5-1c0.1-0.4,0.2-0.7,0.3-1c0.1-0.3,0.2-0.6,0.4-0.8v-1.5c0.6-0.2,0.9-0.4,1.1-0.8
		c0.2-0.3,0.3-0.7,0.4-1c0.1-0.4,0.2-0.7,0.4-1.1c0.2-0.3,0.5-0.6,1-0.8c0-0.3,0.1-0.7,0.4-1c0.2-0.4,0.4-0.7,0.4-1.1
		c0.3-0.7,0.8-1.4,1.4-2.1c0.6-0.7,1.1-1.4,1.5-2.2c0.2-0.2,0.3-0.4,0.3-0.5c0-0.2,0-0.3,0-0.5c0-0.2-0.1-0.4-0.2-0.6
		c-0.1-0.2-0.1-0.4-0.1-0.6c0.4-0.3,0.6-0.7,0.8-1c0.2-0.4,0.6-0.7,1.3-1.1c0.2,0.2,0.4,0.3,0.7,0.3c0.3,0,0.5,0.1,0.8,0.1
		c0.3,0,0.5,0.1,0.8,0.3C67.2,54.6,67.4,54.9,67.6,55.3z"/>
	<path d="M92.4,55.3c0.2,0.7,0.2,1.3,0,1.8s-0.5,0.9-0.8,1.3c-0.3,0.4-0.6,0.8-0.9,1.2s-0.5,0.9-0.5,1.4c-1.5,1.8-2.9,3.7-4.3,5.7
		c-1.4,2-2.6,4-3.7,5.8c-0.3,0.7-0.8,1.5-1.4,2.2s-1.1,1.4-1.5,2.2c-0.4,0.5-0.7,1.1-0.9,1.6c-0.2,0.5-0.5,1.1-0.7,1.6
		c-0.2,0.5-0.5,1.1-0.8,1.6c-0.3,0.5-0.7,1.1-1.2,1.6c0,0.6-0.1,1.1-0.4,1.7c-0.2,0.5-0.5,1.1-0.8,1.6c-0.3,0.5-0.6,1.1-1,1.6
		c-0.3,0.5-0.6,1.1-0.7,1.7c-0.2,0-0.4,0-0.7,0.1c-0.3,0.1-0.5,0.1-0.8,0.2c-0.3,0.1-0.5,0.1-0.8,0.1c-0.3,0-0.5-0.1-0.6-0.3
		c-0.4,0-0.7-0.3-1-0.8c-0.2-0.5-0.2-1,0.2-1.4c0.4,0,0.8-0.2,1-0.5c0.3-0.3,0.4-0.6,0.4-1s0.1-0.7,0.3-1c0.2-0.3,0.5-0.6,0.8-0.8
		c0.3-0.3,0.5-0.5,0.8-0.8c0.2-0.3,0.3-0.6,0.3-1l1.5-1.4c0-0.6,0.1-1,0.2-1.4c0.2-0.4,0.3-0.7,0.5-1c0.2-0.3,0.3-0.6,0.5-0.9
		c0.1-0.3,0.2-0.6,0.2-1c0.4,0,0.6,0,0.8-0.1c0.1-0.1,0.2-0.2,0.3-0.3c0-0.1,0.1-0.2,0.1-0.3c0-0.1,0.1-0.1,0.3-0.1v-1.4
		c0.2,0,0.3,0,0.4,0.1c0.1,0.1,0.1,0.2,0.2,0.3l0.1,0.3c0.2,0,0.3,0,0.3-0.1c0-0.1,0.1-0.1,0.1-0.2s0-0.2,0-0.3
		c0-0.1,0.1-0.1,0.2-0.2H78c0-0.2,0-0.3,0.1-0.4c0.1-0.1,0.2-0.2,0.3-0.3c0.1-0.1,0.2-0.2,0.3-0.3c0.1-0.1,0.1-0.3,0.1-0.4
		c0.3-0.2,0.6-0.4,0.8-0.7c0.2-0.3,0.4-0.7,0.5-1c0.1-0.4,0.2-0.7,0.3-1c0.1-0.3,0.2-0.6,0.4-0.8v-1.5c0.6-0.2,0.9-0.4,1.1-0.8
		c0.2-0.3,0.3-0.7,0.4-1c0.1-0.4,0.2-0.7,0.4-1.1c0.2-0.3,0.5-0.6,1-0.8c0-0.3,0.1-0.7,0.4-1c0.2-0.4,0.4-0.7,0.4-1.1
		c0.3-0.7,0.8-1.4,1.4-2.1c0.6-0.7,1.1-1.4,1.5-2.2c0.2-0.2,0.3-0.4,0.3-0.5c0-0.2,0-0.3,0-0.5c0-0.2-0.1-0.4-0.2-0.6
		c-0.1-0.2-0.1-0.4-0.1-0.6c0.4-0.3,0.6-0.7,0.8-1c0.2-0.4,0.6-0.7,1.3-1.1c0.2,0.2,0.4,0.3,0.7,0.3c0.3,0,0.5,0.1,0.8,0.1
		c0.3,0,0.5,0.1,0.8,0.3C92,54.6,92.2,54.9,92.4,55.3z"/>
	<path d="M117.2,55.3c0.2,0.7,0.2,1.3,0,1.8s-0.5,0.9-0.8,1.3c-0.3,0.4-0.6,0.8-0.9,1.2s-0.5,0.9-0.5,1.4c-1.5,1.8-2.9,3.7-4.3,5.7
		c-1.4,2-2.6,4-3.7,5.8c-0.3,0.7-0.8,1.5-1.4,2.2s-1.1,1.4-1.5,2.2c-0.4,0.5-0.7,1.1-0.9,1.6c-0.2,0.5-0.5,1.1-0.7,1.6
		c-0.2,0.5-0.5,1.1-0.8,1.6c-0.3,0.5-0.7,1.1-1.2,1.6c0,0.6-0.1,1.1-0.4,1.7c-0.2,0.5-0.5,1.1-0.8,1.6c-0.3,0.5-0.6,1.1-1,1.6
		c-0.3,0.5-0.6,1.1-0.7,1.7c-0.2,0-0.4,0-0.7,0.1c-0.3,0.1-0.5,0.1-0.8,0.2c-0.3,0.1-0.5,0.1-0.8,0.1c-0.3,0-0.5-0.1-0.6-0.3
		c-0.4,0-0.7-0.3-1-0.8c-0.2-0.5-0.2-1,0.2-1.4c0.4,0,0.8-0.2,1-0.5s0.4-0.6,0.4-1s0.1-0.7,0.3-1c0.2-0.3,0.5-0.6,0.8-0.8
		c0.3-0.3,0.5-0.5,0.8-0.8c0.2-0.3,0.3-0.6,0.3-1l1.5-1.4c0-0.6,0.1-1,0.2-1.4c0.2-0.4,0.3-0.7,0.5-1c0.2-0.3,0.3-0.6,0.5-0.9
		c0.1-0.3,0.2-0.6,0.2-1c0.4,0,0.6,0,0.8-0.1c0.1-0.1,0.2-0.2,0.3-0.3c0-0.1,0.1-0.2,0.1-0.3c0-0.1,0.1-0.1,0.3-0.1v-1.4
		c0.2,0,0.3,0,0.4,0.1c0.1,0.1,0.1,0.2,0.2,0.3l0.1,0.3c0.2,0,0.3,0,0.3-0.1c0-0.1,0.1-0.1,0.1-0.2s0-0.2,0-0.3
		c0-0.1,0.1-0.1,0.2-0.2h-0.6c0-0.2,0-0.3,0.1-0.4c0.1-0.1,0.2-0.2,0.3-0.3c0.1-0.1,0.2-0.2,0.3-0.3c0.1-0.1,0.1-0.3,0.1-0.4
		c0.3-0.2,0.6-0.4,0.8-0.7c0.2-0.3,0.4-0.7,0.5-1c0.1-0.4,0.2-0.7,0.3-1c0.1-0.3,0.2-0.6,0.4-0.8v-1.5c0.6-0.2,0.9-0.4,1.1-0.8
		c0.2-0.3,0.3-0.7,0.4-1c0.1-0.4,0.2-0.7,0.4-1.1c0.2-0.3,0.5-0.6,1-0.8c0-0.3,0.1-0.7,0.4-1c0.2-0.4,0.4-0.7,0.4-1.1
		c0.3-0.7,0.8-1.4,1.4-2.1c0.6-0.7,1.1-1.4,1.5-2.2c0.2-0.2,0.3-0.4,0.3-0.5c0-0.2,0-0.3,0-0.5c0-0.2-0.1-0.4-0.2-0.6
		c-0.1-0.2-0.1-0.4-0.1-0.6c0.4-0.3,0.6-0.7,0.8-1c0.2-0.4,0.6-0.7,1.3-1.1c0.2,0.2,0.4,0.3,0.7,0.3c0.3,0,0.5,0.1,0.8,0.1
		c0.3,0,0.5,0.1,0.8,0.3C116.8,54.6,117,54.9,117.2,55.3z"/>
	<path d="M142.1,55.3c0.2,0.7,0.2,1.3,0,1.8c-0.2,0.5-0.5,0.9-0.8,1.3c-0.3,0.4-0.6,0.8-0.9,1.2s-0.5,0.9-0.5,1.4
		c-1.5,1.8-2.9,3.7-4.3,5.7c-1.4,2-2.6,4-3.7,5.8c-0.3,0.7-0.8,1.5-1.4,2.2s-1.1,1.4-1.5,2.2c-0.4,0.5-0.7,1.1-0.9,1.6
		c-0.2,0.5-0.5,1.1-0.7,1.6c-0.2,0.5-0.5,1.1-0.8,1.6c-0.3,0.5-0.7,1.1-1.2,1.6c0,0.6-0.1,1.1-0.4,1.7c-0.2,0.5-0.5,1.1-0.8,1.6
		c-0.3,0.5-0.6,1.1-1,1.6c-0.3,0.5-0.6,1.1-0.7,1.7c-0.2,0-0.4,0-0.7,0.1c-0.3,0.1-0.5,0.1-0.8,0.2c-0.3,0.1-0.5,0.1-0.8,0.1
		c-0.3,0-0.5-0.1-0.6-0.3c-0.4,0-0.7-0.3-1-0.8c-0.2-0.5-0.2-1,0.2-1.4c0.4,0,0.8-0.2,1-0.5s0.4-0.6,0.4-1s0.1-0.7,0.3-1
		c0.2-0.3,0.5-0.6,0.8-0.8c0.3-0.3,0.5-0.5,0.8-0.8c0.2-0.3,0.3-0.6,0.3-1l1.5-1.4c0-0.6,0.1-1,0.2-1.4c0.2-0.4,0.3-0.7,0.5-1
		c0.2-0.3,0.3-0.6,0.5-0.9c0.1-0.3,0.2-0.6,0.2-1c0.4,0,0.6,0,0.8-0.1c0.1-0.1,0.2-0.2,0.3-0.3c0-0.1,0.1-0.2,0.1-0.3
		c0-0.1,0.1-0.1,0.3-0.1v-1.4c0.2,0,0.3,0,0.4,0.1c0.1,0.1,0.1,0.2,0.2,0.3l0.1,0.3c0.2,0,0.3,0,0.3-0.1c0-0.1,0.1-0.1,0.1-0.2
		s0-0.2,0-0.3c0-0.1,0.1-0.1,0.2-0.2h-0.6c0-0.2,0-0.3,0.1-0.4c0.1-0.1,0.2-0.2,0.3-0.3c0.1-0.1,0.2-0.2,0.3-0.3
		c0.1-0.1,0.1-0.3,0.1-0.4c0.3-0.2,0.6-0.4,0.8-0.7c0.2-0.3,0.4-0.7,0.5-1c0.1-0.4,0.2-0.7,0.3-1c0.1-0.3,0.2-0.6,0.4-0.8v-1.5
		c0.6-0.2,0.9-0.4,1.1-0.8s0.3-0.7,0.4-1c0.1-0.4,0.2-0.7,0.4-1.1c0.2-0.3,0.5-0.6,1-0.8c0-0.3,0.1-0.7,0.4-1
		c0.2-0.4,0.4-0.7,0.4-1.1c0.3-0.7,0.8-1.4,1.4-2.1c0.6-0.7,1.1-1.4,1.5-2.2c0.2-0.2,0.3-0.4,0.3-0.5c0-0.2,0-0.3,0-0.5
		c0-0.2-0.1-0.4-0.2-0.6c-0.1-0.2-0.1-0.4-0.1-0.6c0.4-0.3,0.6-0.7,0.8-1s0.6-0.7,1.3-1.1c0.2,0.2,0.4,0.3,0.7,0.3
		c0.3,0,0.5,0.1,0.8,0.1c0.3,0,0.5,0.1,0.8,0.3C141.7,54.6,141.9,54.9,142.1,55.3z"/>
	<path d="M166.9,55.3c0.2,0.7,0.2,1.3,0,1.8s-0.5,0.9-0.8,1.3c-0.3,0.4-0.6,0.8-0.9,1.2c-0.3,0.4-0.5,0.9-0.5,1.4
		c-1.5,1.8-2.9,3.7-4.3,5.7c-1.4,2-2.6,4-3.7,5.8c-0.3,0.7-0.8,1.5-1.4,2.2c-0.6,0.7-1.1,1.4-1.5,2.2c-0.4,0.5-0.7,1.1-0.9,1.6
		c-0.2,0.5-0.5,1.1-0.7,1.6c-0.2,0.5-0.5,1.1-0.8,1.6c-0.3,0.5-0.7,1.1-1.2,1.6c0,0.6-0.1,1.1-0.4,1.7c-0.2,0.5-0.5,1.1-0.8,1.6
		c-0.3,0.5-0.6,1.1-1,1.6c-0.3,0.5-0.6,1.1-0.7,1.7c-0.2,0-0.4,0-0.7,0.1s-0.5,0.1-0.8,0.2c-0.3,0.1-0.5,0.1-0.8,0.1
		c-0.3,0-0.5-0.1-0.6-0.3c-0.4,0-0.7-0.3-1-0.8c-0.2-0.5-0.2-1,0.2-1.4c0.4,0,0.8-0.2,1-0.5s0.4-0.6,0.4-1s0.1-0.7,0.3-1
		s0.5-0.6,0.8-0.8c0.3-0.3,0.5-0.5,0.8-0.8c0.2-0.3,0.3-0.6,0.3-1l1.5-1.4c0-0.6,0.1-1,0.2-1.4c0.2-0.4,0.3-0.7,0.5-1
		c0.2-0.3,0.3-0.6,0.5-0.9c0.1-0.3,0.2-0.6,0.2-1c0.4,0,0.6,0,0.8-0.1c0.1-0.1,0.2-0.2,0.3-0.3c0-0.1,0.1-0.2,0.1-0.3
		c0-0.1,0.1-0.1,0.3-0.1v-1.4c0.2,0,0.3,0,0.4,0.1c0.1,0.1,0.1,0.2,0.2,0.3l0.1,0.3c0.2,0,0.3,0,0.3-0.1c0-0.1,0.1-0.1,0.1-0.2
		s0-0.2,0-0.3c0-0.1,0.1-0.1,0.2-0.2h-0.6c0-0.2,0-0.3,0.1-0.4c0.1-0.1,0.2-0.2,0.3-0.3c0.1-0.1,0.2-0.2,0.3-0.3
		c0.1-0.1,0.1-0.3,0.1-0.4c0.3-0.2,0.6-0.4,0.8-0.7c0.2-0.3,0.4-0.7,0.5-1c0.1-0.4,0.2-0.7,0.3-1c0.1-0.3,0.2-0.6,0.4-0.8v-1.5
		c0.6-0.2,0.9-0.4,1.1-0.8s0.3-0.7,0.4-1c0.1-0.4,0.2-0.7,0.4-1.1c0.2-0.3,0.5-0.6,1-0.8c0-0.3,0.1-0.7,0.4-1
		c0.2-0.4,0.4-0.7,0.4-1.1c0.3-0.7,0.8-1.4,1.4-2.1c0.6-0.7,1.1-1.4,1.5-2.2c0.2-0.2,0.3-0.4,0.3-0.5c0-0.2,0-0.3,0-0.5
		c0-0.2-0.1-0.4-0.2-0.6c-0.1-0.2-0.1-0.4-0.1-0.6c0.4-0.3,0.6-0.7,0.8-1c0.2-0.4,0.6-0.7,1.3-1.1c0.2,0.2,0.4,0.3,0.7,0.3
		c0.3,0,0.5,0.1,0.8,0.1c0.3,0,0.5,0.1,0.8,0.3C166.5,54.6,166.7,54.9,166.9,55.3z"/>
	<path d="M191.7,55.3c0.2,0.7,0.2,1.3,0,1.8c-0.2,0.5-0.5,0.9-0.8,1.3c-0.3,0.4-0.6,0.8-0.9,1.2c-0.3,0.4-0.5,0.9-0.5,1.4
		c-1.5,1.8-2.9,3.7-4.3,5.7c-1.4,2-2.6,4-3.7,5.8c-0.3,0.7-0.8,1.5-1.4,2.2s-1.1,1.4-1.5,2.2c-0.4,0.5-0.7,1.1-0.9,1.6
		c-0.2,0.5-0.5,1.1-0.7,1.6c-0.2,0.5-0.5,1.1-0.8,1.6c-0.3,0.5-0.7,1.1-1.2,1.6c0,0.6-0.1,1.1-0.4,1.7c-0.2,0.5-0.5,1.1-0.8,1.6
		c-0.3,0.5-0.6,1.1-1,1.6c-0.3,0.5-0.6,1.1-0.7,1.7c-0.2,0-0.4,0-0.7,0.1c-0.3,0.1-0.5,0.1-0.8,0.2c-0.3,0.1-0.5,0.1-0.8,0.1
		c-0.3,0-0.5-0.1-0.6-0.3c-0.4,0-0.7-0.3-1-0.8c-0.2-0.5-0.2-1,0.2-1.4c0.4,0,0.8-0.2,1-0.5c0.3-0.3,0.4-0.6,0.4-1s0.1-0.7,0.3-1
		c0.2-0.3,0.5-0.6,0.8-0.8c0.3-0.3,0.5-0.5,0.8-0.8c0.2-0.3,0.3-0.6,0.3-1l1.5-1.4c0-0.6,0.1-1,0.2-1.4c0.2-0.4,0.3-0.7,0.5-1
		c0.2-0.3,0.3-0.6,0.5-0.9c0.1-0.3,0.2-0.6,0.2-1c0.4,0,0.6,0,0.8-0.1s0.2-0.2,0.3-0.3c0-0.1,0.1-0.2,0.1-0.3c0-0.1,0.1-0.1,0.3-0.1
		v-1.4c0.2,0,0.3,0,0.4,0.1c0.1,0.1,0.1,0.2,0.2,0.3l0.1,0.3c0.2,0,0.3,0,0.3-0.1c0-0.1,0.1-0.1,0.1-0.2s0-0.2,0-0.3
		c0-0.1,0.1-0.1,0.2-0.2h-0.6c0-0.2,0-0.3,0.1-0.4c0.1-0.1,0.2-0.2,0.3-0.3c0.1-0.1,0.2-0.2,0.3-0.3c0.1-0.1,0.1-0.3,0.1-0.4
		c0.3-0.2,0.6-0.4,0.8-0.7c0.2-0.3,0.4-0.7,0.5-1c0.1-0.4,0.2-0.7,0.3-1c0.1-0.3,0.2-0.6,0.4-0.8v-1.5c0.6-0.2,0.9-0.4,1.1-0.8
		c0.2-0.3,0.3-0.7,0.4-1c0.1-0.4,0.2-0.7,0.4-1.1c0.2-0.3,0.5-0.6,1-0.8c0-0.3,0.1-0.7,0.4-1c0.2-0.4,0.4-0.7,0.4-1.1
		c0.3-0.7,0.8-1.4,1.4-2.1c0.6-0.7,1.1-1.4,1.5-2.2c0.2-0.2,0.3-0.4,0.3-0.5c0-0.2,0-0.3,0-0.5c0-0.2-0.1-0.4-0.2-0.6
		c-0.1-0.2-0.1-0.4-0.1-0.6c0.4-0.3,0.6-0.7,0.8-1s0.6-0.7,1.3-1.1c0.2,0.2,0.4,0.3,0.7,0.3c0.3,0,0.5,0.1,0.8,0.1
		c0.3,0,0.5,0.1,0.8,0.3C191.3,54.6,191.5,54.9,191.7,55.3z"/>
	<path d="M216.5,55.3c0.2,0.7,0.2,1.3,0,1.8s-0.5,0.9-0.8,1.3c-0.3,0.4-0.6,0.8-0.9,1.2c-0.3,0.4-0.5,0.9-0.5,1.4
		c-1.5,1.8-2.9,3.7-4.3,5.7c-1.4,2-2.6,4-3.7,5.8c-0.3,0.7-0.8,1.5-1.4,2.2s-1.1,1.4-1.5,2.2c-0.4,0.5-0.7,1.1-0.9,1.6
		c-0.2,0.5-0.5,1.1-0.7,1.6c-0.2,0.5-0.5,1.1-0.8,1.6c-0.3,0.5-0.7,1.1-1.2,1.6c0,0.6-0.1,1.1-0.4,1.7c-0.2,0.5-0.5,1.1-0.8,1.6
		c-0.3,0.5-0.6,1.1-1,1.6c-0.3,0.5-0.6,1.1-0.7,1.7c-0.2,0-0.4,0-0.7,0.1s-0.5,0.1-0.8,0.2c-0.3,0.1-0.5,0.1-0.8,0.1
		c-0.3,0-0.5-0.1-0.6-0.3c-0.4,0-0.7-0.3-1-0.8c-0.2-0.5-0.2-1,0.2-1.4c0.4,0,0.8-0.2,1-0.5s0.4-0.6,0.4-1s0.1-0.7,0.3-1
		s0.5-0.6,0.8-0.8c0.3-0.3,0.5-0.5,0.8-0.8c0.2-0.3,0.3-0.6,0.3-1l1.5-1.4c0-0.6,0.1-1,0.2-1.4c0.2-0.4,0.3-0.7,0.5-1
		c0.2-0.3,0.3-0.6,0.5-0.9c0.1-0.3,0.2-0.6,0.2-1c0.4,0,0.6,0,0.8-0.1s0.2-0.2,0.3-0.3c0-0.1,0.1-0.2,0.1-0.3c0-0.1,0.1-0.1,0.3-0.1
		v-1.4c0.2,0,0.3,0,0.4,0.1c0.1,0.1,0.1,0.2,0.2,0.3l0.1,0.3c0.2,0,0.3,0,0.3-0.1c0-0.1,0.1-0.1,0.1-0.2s0-0.2,0-0.3
		c0-0.1,0.1-0.1,0.2-0.2h-0.6c0-0.2,0-0.3,0.1-0.4c0.1-0.1,0.2-0.2,0.3-0.3c0.1-0.1,0.2-0.2,0.3-0.3c0.1-0.1,0.1-0.3,0.1-0.4
		c0.3-0.2,0.6-0.4,0.8-0.7c0.2-0.3,0.4-0.7,0.5-1c0.1-0.4,0.2-0.7,0.3-1c0.1-0.3,0.2-0.6,0.4-0.8v-1.5c0.6-0.2,0.9-0.4,1.1-0.8
		s0.3-0.7,0.4-1c0.1-0.4,0.2-0.7,0.4-1.1c0.2-0.3,0.5-0.6,1-0.8c0-0.3,0.1-0.7,0.4-1c0.2-0.4,0.4-0.7,0.4-1.1
		c0.3-0.7,0.8-1.4,1.4-2.1c0.6-0.7,1.1-1.4,1.5-2.2c0.2-0.2,0.3-0.4,0.3-0.5c0-0.2,0-0.3,0-0.5c0-0.2-0.1-0.4-0.2-0.6
		c-0.1-0.2-0.1-0.4-0.1-0.6c0.4-0.3,0.6-0.7,0.8-1c0.2-0.4,0.6-0.7,1.3-1.1c0.2,0.2,0.4,0.3,0.7,0.3c0.3,0,0.5,0.1,0.8,0.1
		c0.3,0,0.5,0.1,0.8,0.3C216.1,54.6,216.3,54.9,216.5,55.3z"/>
	<path d="M241.3,55.3c0.2,0.7,0.2,1.3,0,1.8s-0.5,0.9-0.8,1.3c-0.3,0.4-0.6,0.8-0.9,1.2c-0.3,0.4-0.5,0.9-0.5,1.4
		c-1.5,1.8-2.9,3.7-4.3,5.7c-1.4,2-2.6,4-3.7,5.8c-0.3,0.7-0.8,1.5-1.4,2.2s-1.1,1.4-1.5,2.2c-0.4,0.5-0.7,1.1-0.9,1.6
		c-0.2,0.5-0.5,1.1-0.7,1.6c-0.2,0.5-0.5,1.1-0.8,1.6c-0.3,0.5-0.7,1.1-1.2,1.6c0,0.6-0.1,1.1-0.4,1.7c-0.2,0.5-0.5,1.1-0.8,1.6
		c-0.3,0.5-0.6,1.1-1,1.6c-0.3,0.5-0.6,1.1-0.7,1.7c-0.2,0-0.4,0-0.7,0.1c-0.3,0.1-0.5,0.1-0.8,0.2c-0.3,0.1-0.5,0.1-0.8,0.1
		c-0.3,0-0.5-0.1-0.6-0.3c-0.4,0-0.7-0.3-1-0.8c-0.2-0.5-0.2-1,0.2-1.4c0.4,0,0.8-0.2,1-0.5c0.3-0.3,0.4-0.6,0.4-1s0.1-0.7,0.3-1
		c0.2-0.3,0.5-0.6,0.8-0.8c0.3-0.3,0.5-0.5,0.8-0.8c0.2-0.3,0.3-0.6,0.3-1l1.5-1.4c0-0.6,0.1-1,0.2-1.4c0.2-0.4,0.3-0.7,0.5-1
		c0.2-0.3,0.3-0.6,0.5-0.9c0.1-0.3,0.2-0.6,0.2-1c0.4,0,0.6,0,0.8-0.1c0.1-0.1,0.2-0.2,0.3-0.3c0-0.1,0.1-0.2,0.1-0.3
		c0-0.1,0.1-0.1,0.3-0.1v-1.4c0.2,0,0.3,0,0.4,0.1c0.1,0.1,0.1,0.2,0.2,0.3l0.1,0.3c0.2,0,0.3,0,0.3-0.1c0-0.1,0.1-0.1,0.1-0.2
		s0-0.2,0-0.3c0-0.1,0.1-0.1,0.2-0.2h-0.6c0-0.2,0-0.3,0.1-0.4c0.1-0.1,0.2-0.2,0.3-0.3c0.1-0.1,0.2-0.2,0.3-0.3
		c0.1-0.1,0.1-0.3,0.1-0.4c0.3-0.2,0.6-0.4,0.8-0.7c0.2-0.3,0.4-0.7,0.5-1c0.1-0.4,0.2-0.7,0.3-1c0.1-0.3,0.2-0.6,0.4-0.8v-1.5
		c0.6-0.2,0.9-0.4,1.1-0.8c0.2-0.3,0.3-0.7,0.4-1c0.1-0.4,0.2-0.7,0.4-1.1c0.2-0.3,0.5-0.6,1-0.8c0-0.3,0.1-0.7,0.4-1
		c0.2-0.4,0.4-0.7,0.4-1.1c0.3-0.7,0.8-1.4,1.4-2.1c0.6-0.7,1.1-1.4,1.5-2.2c0.2-0.2,0.3-0.4,0.3-0.5c0-0.2,0-0.3,0-0.5
		c0-0.2-0.1-0.4-0.2-0.6c-0.1-0.2-0.1-0.4-0.1-0.6c0.4-0.3,0.6-0.7,0.8-1s0.6-0.7,1.3-1.1c0.2,0.2,0.4,0.3,0.7,0.3
		c0.3,0,0.5,0.1,0.8,0.1c0.3,0,0.5,0.1,0.8,0.3C240.9,54.6,241.2,54.9,241.3,55.3z"/>
	<path d="M266.2,55.3c0.2,0.7,0.2,1.3,0,1.8c-0.2,0.5-0.5,0.9-0.8,1.3c-0.3,0.4-0.6,0.8-0.9,1.2s-0.5,0.9-0.5,1.4
		c-1.5,1.8-2.9,3.7-4.3,5.7c-1.4,2-2.6,4-3.7,5.8c-0.3,0.7-0.8,1.5-1.4,2.2s-1.1,1.4-1.5,2.2c-0.4,0.5-0.7,1.1-0.9,1.6
		c-0.2,0.5-0.5,1.1-0.7,1.6c-0.2,0.5-0.5,1.1-0.8,1.6c-0.3,0.5-0.7,1.1-1.2,1.6c0,0.6-0.1,1.1-0.4,1.7c-0.2,0.5-0.5,1.1-0.8,1.6
		c-0.3,0.5-0.6,1.1-1,1.6c-0.3,0.5-0.6,1.1-0.7,1.7c-0.2,0-0.4,0-0.7,0.1s-0.5,0.1-0.8,0.2c-0.3,0.1-0.5,0.1-0.8,0.1
		c-0.3,0-0.5-0.1-0.6-0.3c-0.4,0-0.7-0.3-1-0.8c-0.2-0.5-0.2-1,0.2-1.4c0.4,0,0.8-0.2,1-0.5c0.3-0.3,0.4-0.6,0.4-1s0.1-0.7,0.3-1
		s0.5-0.6,0.8-0.8c0.3-0.3,0.5-0.5,0.8-0.8c0.2-0.3,0.3-0.6,0.3-1l1.5-1.4c0-0.6,0.1-1,0.2-1.4c0.2-0.4,0.3-0.7,0.5-1
		c0.2-0.3,0.3-0.6,0.5-0.9c0.1-0.3,0.2-0.6,0.2-1c0.4,0,0.6,0,0.8-0.1s0.2-0.2,0.3-0.3c0-0.1,0.1-0.2,0.1-0.3c0-0.1,0.1-0.1,0.3-0.1
		v-1.4c0.2,0,0.3,0,0.4,0.1c0.1,0.1,0.1,0.2,0.2,0.3l0.1,0.3c0.2,0,0.3,0,0.3-0.1c0-0.1,0.1-0.1,0.1-0.2s0-0.2,0-0.3
		c0-0.1,0.1-0.1,0.2-0.2h-0.6c0-0.2,0-0.3,0.1-0.4c0.1-0.1,0.2-0.2,0.3-0.3c0.1-0.1,0.2-0.2,0.3-0.3c0.1-0.1,0.1-0.3,0.1-0.4
		c0.3-0.2,0.6-0.4,0.8-0.7c0.2-0.3,0.4-0.7,0.5-1c0.1-0.4,0.2-0.7,0.3-1c0.1-0.3,0.2-0.6,0.4-0.8v-1.5c0.6-0.2,0.9-0.4,1.1-0.8
		s0.3-0.7,0.4-1c0.1-0.4,0.2-0.7,0.4-1.1c0.2-0.3,0.5-0.6,1-0.8c0-0.3,0.1-0.7,0.4-1c0.2-0.4,0.4-0.7,0.4-1.1
		c0.3-0.7,0.8-1.4,1.4-2.1c0.6-0.7,1.1-1.4,1.5-2.2c0.2-0.2,0.3-0.4,0.3-0.5c0-0.2,0-0.3,0-0.5c0-0.2-0.1-0.4-0.2-0.6
		c-0.1-0.2-0.1-0.4-0.1-0.6c0.4-0.3,0.6-0.7,0.8-1c0.2-0.4,0.6-0.7,1.3-1.1c0.2,0.2,0.4,0.3,0.7,0.3c0.3,0,0.5,0.1,0.8,0.1
		c0.3,0,0.5,0.1,0.8,0.3C265.8,54.6,266,54.9,266.2,55.3z"/>
	<path d="M291,55.3c0.2,0.7,0.2,1.3,0,1.8c-0.2,0.5-0.5,0.9-0.8,1.3c-0.3,0.4-0.6,0.8-0.9,1.2s-0.5,0.9-0.5,1.4
		c-1.5,1.8-2.9,3.7-4.3,5.7c-1.4,2-2.6,4-3.7,5.8c-0.3,0.7-0.8,1.5-1.4,2.2c-0.6,0.7-1.1,1.4-1.5,2.2c-0.4,0.5-0.7,1.1-0.9,1.6
		c-0.2,0.5-0.5,1.1-0.7,1.6c-0.2,0.5-0.5,1.1-0.8,1.6c-0.3,0.5-0.7,1.1-1.2,1.6c0,0.6-0.1,1.1-0.4,1.7c-0.2,0.5-0.5,1.1-0.8,1.6
		c-0.3,0.5-0.6,1.1-1,1.6c-0.3,0.5-0.6,1.1-0.7,1.7c-0.2,0-0.4,0-0.7,0.1c-0.3,0.1-0.5,0.1-0.8,0.2c-0.3,0.1-0.5,0.1-0.8,0.1
		c-0.3,0-0.5-0.1-0.6-0.3c-0.4,0-0.7-0.3-1-0.8c-0.2-0.5-0.2-1,0.2-1.4c0.4,0,0.8-0.2,1-0.5s0.4-0.6,0.4-1s0.1-0.7,0.3-1
		c0.2-0.3,0.5-0.6,0.8-0.8c0.3-0.3,0.5-0.5,0.8-0.8c0.2-0.3,0.3-0.6,0.3-1l1.5-1.4c0-0.6,0.1-1,0.2-1.4c0.2-0.4,0.3-0.7,0.5-1
		c0.2-0.3,0.3-0.6,0.5-0.9c0.1-0.3,0.2-0.6,0.2-1c0.4,0,0.6,0,0.8-0.1c0.1-0.1,0.2-0.2,0.3-0.3c0-0.1,0.1-0.2,0.1-0.3
		c0-0.1,0.1-0.1,0.3-0.1v-1.4c0.2,0,0.3,0,0.4,0.1c0.1,0.1,0.1,0.2,0.2,0.3l0.1,0.3c0.2,0,0.3,0,0.3-0.1c0-0.1,0.1-0.1,0.1-0.2
		s0-0.2,0-0.3c0-0.1,0.1-0.1,0.2-0.2h-0.6c0-0.2,0-0.3,0.1-0.4c0.1-0.1,0.2-0.2,0.3-0.3c0.1-0.1,0.2-0.2,0.3-0.3
		c0.1-0.1,0.1-0.3,0.1-0.4c0.3-0.2,0.6-0.4,0.8-0.7c0.2-0.3,0.4-0.7,0.5-1c0.1-0.4,0.2-0.7,0.3-1c0.1-0.3,0.2-0.6,0.4-0.8v-1.5
		c0.6-0.2,0.9-0.4,1.1-0.8c0.2-0.3,0.3-0.7,0.4-1c0.1-0.4,0.2-0.7,0.4-1.1c0.2-0.3,0.5-0.6,1-0.8c0-0.3,0.1-0.7,0.4-1
		c0.2-0.4,0.4-0.7,0.4-1.1c0.3-0.7,0.8-1.4,1.4-2.1c0.6-0.7,1.1-1.4,1.5-2.2c0.2-0.2,0.3-0.4,0.3-0.5c0-0.2,0-0.3,0-0.5
		c0-0.2-0.1-0.4-0.2-0.6c-0.1-0.2-0.1-0.4-0.1-0.6c0.4-0.3,0.6-0.7,0.8-1c0.2-0.4,0.6-0.7,1.3-1.1c0.2,0.2,0.4,0.3,0.7,0.3
		c0.3,0,0.5,0.1,0.8,0.1c0.3,0,0.5,0.1,0.8,0.3C290.6,54.6,290.8,54.9,291,55.3z"/>
	<path d="M315.8,55.3c0.2,0.7,0.2,1.3,0,1.8c-0.2,0.5-0.5,0.9-0.8,1.3c-0.3,0.4-0.6,0.8-0.9,1.2c-0.3,0.4-0.5,0.9-0.5,1.4
		c-1.5,1.8-2.9,3.7-4.3,5.7c-1.4,2-2.6,4-3.7,5.8c-0.3,0.7-0.8,1.5-1.4,2.2c-0.6,0.7-1.1,1.4-1.5,2.2c-0.4,0.5-0.7,1.1-0.9,1.6
		c-0.2,0.5-0.5,1.1-0.7,1.6c-0.2,0.5-0.5,1.1-0.8,1.6c-0.3,0.5-0.7,1.1-1.2,1.6c0,0.6-0.1,1.1-0.4,1.7c-0.2,0.5-0.5,1.1-0.8,1.6
		c-0.3,0.5-0.6,1.1-1,1.6c-0.3,0.5-0.6,1.1-0.7,1.7c-0.2,0-0.4,0-0.7,0.1c-0.3,0.1-0.5,0.1-0.8,0.2c-0.3,0.1-0.5,0.1-0.8,0.1
		c-0.3,0-0.5-0.1-0.6-0.3c-0.4,0-0.7-0.3-1-0.8c-0.2-0.5-0.2-1,0.2-1.4c0.4,0,0.8-0.2,1-0.5s0.4-0.6,0.4-1s0.1-0.7,0.3-1
		c0.2-0.3,0.5-0.6,0.8-0.8c0.3-0.3,0.5-0.5,0.8-0.8c0.2-0.3,0.3-0.6,0.3-1l1.5-1.4c0-0.6,0.1-1,0.2-1.4c0.2-0.4,0.3-0.7,0.5-1
		c0.2-0.3,0.3-0.6,0.5-0.9c0.1-0.3,0.2-0.6,0.2-1c0.4,0,0.6,0,0.8-0.1s0.2-0.2,0.3-0.3c0-0.1,0.1-0.2,0.1-0.3c0-0.1,0.1-0.1,0.3-0.1
		v-1.4c0.2,0,0.3,0,0.4,0.1c0.1,0.1,0.1,0.2,0.2,0.3l0.1,0.3c0.2,0,0.3,0,0.3-0.1c0-0.1,0.1-0.1,0.1-0.2s0-0.2,0-0.3
		c0-0.1,0.1-0.1,0.2-0.2h-0.6c0-0.2,0-0.3,0.1-0.4c0.1-0.1,0.2-0.2,0.3-0.3c0.1-0.1,0.2-0.2,0.3-0.3c0.1-0.1,0.1-0.3,0.1-0.4
		c0.3-0.2,0.6-0.4,0.8-0.7c0.2-0.3,0.4-0.7,0.5-1c0.1-0.4,0.2-0.7,0.3-1c0.1-0.3,0.2-0.6,0.4-0.8v-1.5c0.6-0.2,0.9-0.4,1.1-0.8
		c0.2-0.3,0.3-0.7,0.4-1c0.1-0.4,0.2-0.7,0.4-1.1c0.2-0.3,0.5-0.6,1-0.8c0-0.3,0.1-0.7,0.4-1c0.2-0.4,0.4-0.7,0.4-1.1
		c0.3-0.7,0.8-1.4,1.4-2.1c0.6-0.7,1.1-1.4,1.5-2.2c0.2-0.2,0.3-0.4,0.3-0.5c0-0.2,0-0.3,0-0.5c0-0.2-0.1-0.4-0.2-0.6
		c-0.1-0.2-0.1-0.4-0.1-0.6c0.4-0.3,0.6-0.7,0.8-1c0.2-0.4,0.6-0.7,1.3-1.1c0.2,0.2,0.4,0.3,0.7,0.3c0.3,0,0.5,0.1,0.8,0.1
		c0.3,0,0.5,0.1,0.8,0.3C315.4,54.6,315.6,54.9,315.8,55.3z"/>
	<path d="M340.6,55.3c0.2,0.7,0.2,1.3,0,1.8c-0.2,0.5-0.5,0.9-0.8,1.3c-0.3,0.4-0.6,0.8-0.9,1.2c-0.3,0.4-0.5,0.9-0.5,1.4
		c-1.5,1.8-2.9,3.7-4.3,5.7c-1.4,2-2.6,4-3.7,5.8c-0.3,0.7-0.8,1.5-1.4,2.2c-0.6,0.7-1.1,1.4-1.5,2.2c-0.4,0.5-0.7,1.1-0.9,1.6
		c-0.2,0.5-0.5,1.1-0.7,1.6c-0.2,0.5-0.5,1.1-0.8,1.6c-0.3,0.5-0.7,1.1-1.2,1.6c0,0.6-0.1,1.1-0.4,1.7c-0.2,0.5-0.5,1.1-0.8,1.6
		c-0.3,0.5-0.6,1.1-1,1.6c-0.3,0.5-0.6,1.1-0.7,1.7c-0.2,0-0.4,0-0.7,0.1c-0.3,0.1-0.5,0.1-0.8,0.2c-0.3,0.1-0.5,0.1-0.8,0.1
		c-0.3,0-0.5-0.1-0.6-0.3c-0.4,0-0.7-0.3-1-0.8c-0.2-0.5-0.2-1,0.2-1.4c0.4,0,0.8-0.2,1-0.5c0.3-0.3,0.4-0.6,0.4-1s0.1-0.7,0.3-1
		c0.2-0.3,0.5-0.6,0.8-0.8c0.3-0.3,0.5-0.5,0.8-0.8c0.2-0.3,0.3-0.6,0.3-1l1.5-1.4c0-0.6,0.1-1,0.2-1.4c0.2-0.4,0.3-0.7,0.5-1
		c0.2-0.3,0.3-0.6,0.5-0.9c0.1-0.3,0.2-0.6,0.2-1c0.4,0,0.6,0,0.8-0.1c0.1-0.1,0.2-0.2,0.3-0.3c0-0.1,0.1-0.2,0.1-0.3
		c0-0.1,0.1-0.1,0.3-0.1v-1.4c0.2,0,0.3,0,0.4,0.1c0.1,0.1,0.1,0.2,0.2,0.3l0.1,0.3c0.2,0,0.3,0,0.3-0.1c0-0.1,0.1-0.1,0.1-0.2
		s0-0.2,0-0.3c0-0.1,0.1-0.1,0.2-0.2h-0.6c0-0.2,0-0.3,0.1-0.4c0.1-0.1,0.2-0.2,0.3-0.3c0.1-0.1,0.2-0.2,0.3-0.3
		c0.1-0.1,0.1-0.3,0.1-0.4c0.3-0.2,0.6-0.4,0.8-0.7c0.2-0.3,0.4-0.7,0.5-1c0.1-0.4,0.2-0.7,0.3-1c0.1-0.3,0.2-0.6,0.4-0.8v-1.5
		c0.6-0.2,0.9-0.4,1.1-0.8c0.2-0.3,0.3-0.7,0.4-1c0.1-0.4,0.2-0.7,0.4-1.1c0.2-0.3,0.5-0.6,1-0.8c0-0.3,0.1-0.7,0.4-1
		c0.2-0.4,0.4-0.7,0.4-1.1c0.3-0.7,0.8-1.4,1.4-2.1c0.6-0.7,1.1-1.4,1.5-2.2c0.2-0.2,0.3-0.4,0.3-0.5c0-0.2,0-0.3,0-0.5
		c0-0.2-0.1-0.4-0.2-0.6c-0.1-0.2-0.1-0.4-0.1-0.6c0.4-0.3,0.6-0.7,0.8-1c0.2-0.4,0.6-0.7,1.3-1.1c0.2,0.2,0.4,0.3,0.7,0.3
		c0.3,0,0.5,0.1,0.8,0.1c0.3,0,0.5,0.1,0.8,0.3C340.2,54.6,340.4,54.9,340.6,55.3z"/>
	<path d="M365.5,55.3c0.2,0.7,0.2,1.3,0,1.8c-0.2,0.5-0.5,0.9-0.8,1.3c-0.3,0.4-0.6,0.8-0.9,1.2s-0.5,0.9-0.5,1.4
		c-1.5,1.8-2.9,3.7-4.3,5.7c-1.4,2-2.6,4-3.7,5.8c-0.3,0.7-0.8,1.5-1.4,2.2s-1.1,1.4-1.5,2.2c-0.4,0.5-0.7,1.1-0.9,1.6
		c-0.2,0.5-0.5,1.1-0.7,1.6c-0.2,0.5-0.5,1.1-0.8,1.6c-0.3,0.5-0.7,1.1-1.2,1.6c0,0.6-0.1,1.1-0.4,1.7c-0.2,0.5-0.5,1.1-0.8,1.6
		c-0.3,0.5-0.6,1.1-1,1.6c-0.3,0.5-0.6,1.1-0.7,1.7c-0.2,0-0.4,0-0.7,0.1s-0.5,0.1-0.8,0.2c-0.3,0.1-0.5,0.1-0.8,0.1
		c-0.3,0-0.5-0.1-0.6-0.3c-0.4,0-0.7-0.3-1-0.8c-0.2-0.5-0.2-1,0.2-1.4c0.4,0,0.8-0.2,1-0.5c0.3-0.3,0.4-0.6,0.4-1s0.1-0.7,0.3-1
		s0.5-0.6,0.8-0.8c0.3-0.3,0.5-0.5,0.8-0.8c0.2-0.3,0.3-0.6,0.3-1l1.5-1.4c0-0.6,0.1-1,0.2-1.4c0.2-0.4,0.3-0.7,0.5-1
		c0.2-0.3,0.3-0.6,0.5-0.9c0.1-0.3,0.2-0.6,0.2-1c0.4,0,0.6,0,0.8-0.1c0.1-0.1,0.2-0.2,0.3-0.3c0-0.1,0.1-0.2,0.1-0.3
		c0-0.1,0.1-0.1,0.3-0.1v-1.4c0.2,0,0.3,0,0.4,0.1c0.1,0.1,0.1,0.2,0.2,0.3l0.1,0.3c0.2,0,0.3,0,0.3-0.1c0-0.1,0.1-0.1,0.1-0.2
		s0-0.2,0-0.3c0-0.1,0.1-0.1,0.2-0.2H351c0-0.2,0-0.3,0.1-0.4c0.1-0.1,0.2-0.2,0.3-0.3c0.1-0.1,0.2-0.2,0.3-0.3
		c0.1-0.1,0.1-0.3,0.1-0.4c0.3-0.2,0.6-0.4,0.8-0.7c0.2-0.3,0.4-0.7,0.5-1c0.1-0.4,0.2-0.7,0.3-1c0.1-0.3,0.2-0.6,0.4-0.8v-1.5
		c0.6-0.2,0.9-0.4,1.1-0.8s0.3-0.7,0.4-1c0.1-0.4,0.2-0.7,0.4-1.1c0.2-0.3,0.5-0.6,1-0.8c0-0.3,0.1-0.7,0.4-1
		c0.2-0.4,0.4-0.7,0.4-1.1c0.3-0.7,0.8-1.4,1.4-2.1c0.6-0.7,1.1-1.4,1.5-2.2c0.2-0.2,0.3-0.4,0.3-0.5c0-0.2,0-0.3,0-0.5
		c0-0.2-0.1-0.4-0.2-0.6c-0.1-0.2-0.1-0.4-0.1-0.6c0.4-0.3,0.6-0.7,0.8-1s0.6-0.7,1.3-1.1c0.2,0.2,0.4,0.3,0.7,0.3
		c0.3,0,0.5,0.1,0.8,0.1c0.3,0,0.5,0.1,0.8,0.3C365.1,54.6,365.3,54.9,365.5,55.3z"/>
	<path d="M390.3,55.3c0.2,0.7,0.2,1.3,0,1.8c-0.2,0.5-0.5,0.9-0.8,1.3c-0.3,0.4-0.6,0.8-0.9,1.2s-0.5,0.9-0.5,1.4
		c-1.5,1.8-2.9,3.7-4.3,5.7c-1.4,2-2.6,4-3.7,5.8c-0.3,0.7-0.8,1.5-1.4,2.2c-0.6,0.7-1.1,1.4-1.5,2.2c-0.4,0.5-0.7,1.1-0.9,1.6
		c-0.2,0.5-0.5,1.1-0.7,1.6c-0.2,0.5-0.5,1.1-0.8,1.6c-0.3,0.5-0.7,1.1-1.2,1.6c0,0.6-0.1,1.1-0.4,1.7c-0.2,0.5-0.5,1.1-0.8,1.6
		c-0.3,0.5-0.6,1.1-1,1.6c-0.3,0.5-0.6,1.1-0.7,1.7c-0.2,0-0.4,0-0.7,0.1c-0.3,0.1-0.5,0.1-0.8,0.2c-0.3,0.1-0.5,0.1-0.8,0.1
		c-0.3,0-0.5-0.1-0.6-0.3c-0.4,0-0.7-0.3-1-0.8c-0.2-0.5-0.2-1,0.2-1.4c0.4,0,0.8-0.2,1-0.5s0.4-0.6,0.4-1s0.1-0.7,0.3-1
		c0.2-0.3,0.5-0.6,0.8-0.8c0.3-0.3,0.5-0.5,0.8-0.8c0.2-0.3,0.3-0.6,0.3-1l1.5-1.4c0-0.6,0.1-1,0.2-1.4c0.2-0.4,0.3-0.7,0.5-1
		c0.2-0.3,0.3-0.6,0.5-0.9c0.1-0.3,0.2-0.6,0.2-1c0.4,0,0.6,0,0.8-0.1c0.1-0.1,0.2-0.2,0.3-0.3c0-0.1,0.1-0.2,0.1-0.3
		c0-0.1,0.1-0.1,0.3-0.1v-1.4c0.2,0,0.3,0,0.4,0.1c0.1,0.1,0.1,0.2,0.2,0.3l0.1,0.3c0.2,0,0.3,0,0.3-0.1c0-0.1,0.1-0.1,0.1-0.2
		s0-0.2,0-0.3c0-0.1,0.1-0.1,0.2-0.2h-0.6c0-0.2,0-0.3,0.1-0.4c0.1-0.1,0.2-0.2,0.3-0.3c0.1-0.1,0.2-0.2,0.3-0.3
		c0.1-0.1,0.1-0.3,0.1-0.4c0.3-0.2,0.6-0.4,0.8-0.7c0.2-0.3,0.4-0.7,0.5-1c0.1-0.4,0.2-0.7,0.3-1c0.1-0.3,0.2-0.6,0.4-0.8v-1.5
		c0.6-0.2,0.9-0.4,1.1-0.8c0.2-0.3,0.3-0.7,0.4-1c0.1-0.4,0.2-0.7,0.4-1.1c0.2-0.3,0.5-0.6,1-0.8c0-0.3,0.1-0.7,0.4-1
		c0.2-0.4,0.4-0.7,0.4-1.1c0.3-0.7,0.8-1.4,1.4-2.1c0.6-0.7,1.1-1.4,1.5-2.2c0.2-0.2,0.3-0.4,0.3-0.5c0-0.2,0-0.3,0-0.5
		c0-0.2-0.1-0.4-0.2-0.6c-0.1-0.2-0.1-0.4-0.1-0.6c0.4-0.3,0.6-0.7,0.8-1c0.2-0.4,0.6-0.7,1.3-1.1c0.2,0.2,0.4,0.3,0.7,0.3
		c0.3,0,0.5,0.1,0.8,0.1c0.3,0,0.5,0.1,0.8,0.3C389.9,54.6,390.1,54.9,390.3,55.3z"/>
	<path d="M415.1,55.3c0.2,0.7,0.2,1.3,0,1.8c-0.2,0.5-0.5,0.9-0.8,1.3c-0.3,0.4-0.6,0.8-0.9,1.2c-0.3,0.4-0.5,0.9-0.5,1.4
		c-1.5,1.8-2.9,3.7-4.3,5.7c-1.4,2-2.6,4-3.7,5.8c-0.3,0.7-0.8,1.5-1.4,2.2c-0.6,0.7-1.1,1.4-1.5,2.2c-0.4,0.5-0.7,1.1-0.9,1.6
		c-0.2,0.5-0.5,1.1-0.7,1.6c-0.2,0.5-0.5,1.1-0.8,1.6c-0.3,0.5-0.7,1.1-1.2,1.6c0,0.6-0.1,1.1-0.4,1.7c-0.2,0.5-0.5,1.1-0.8,1.6
		c-0.3,0.5-0.6,1.1-1,1.6c-0.3,0.5-0.6,1.1-0.7,1.7c-0.2,0-0.4,0-0.7,0.1c-0.3,0.1-0.5,0.1-0.8,0.2c-0.3,0.1-0.5,0.1-0.8,0.1
		c-0.3,0-0.5-0.1-0.6-0.3c-0.4,0-0.7-0.3-1-0.8c-0.2-0.5-0.2-1,0.2-1.4c0.4,0,0.8-0.2,1-0.5s0.4-0.6,0.4-1s0.1-0.7,0.3-1
		c0.2-0.3,0.5-0.6,0.8-0.8c0.3-0.3,0.5-0.5,0.8-0.8c0.2-0.3,0.3-0.6,0.3-1l1.5-1.4c0-0.6,0.1-1,0.2-1.4c0.2-0.4,0.3-0.7,0.5-1
		c0.2-0.3,0.3-0.6,0.5-0.9c0.1-0.3,0.2-0.6,0.2-1c0.4,0,0.6,0,0.8-0.1s0.2-0.2,0.3-0.3c0-0.1,0.1-0.2,0.1-0.3c0-0.1,0.1-0.1,0.3-0.1
		v-1.4c0.2,0,0.3,0,0.4,0.1c0.1,0.1,0.1,0.2,0.2,0.3l0.1,0.3c0.2,0,0.3,0,0.3-0.1c0-0.1,0.1-0.1,0.1-0.2s0-0.2,0-0.3
		c0-0.1,0.1-0.1,0.2-0.2h-0.6c0-0.2,0-0.3,0.1-0.4c0.1-0.1,0.2-0.2,0.3-0.3c0.1-0.1,0.2-0.2,0.3-0.3c0.1-0.1,0.1-0.3,0.1-0.4
		c0.3-0.2,0.6-0.4,0.8-0.7c0.2-0.3,0.4-0.7,0.5-1c0.1-0.4,0.2-0.7,0.3-1c0.1-0.3,0.2-0.6,0.4-0.8v-1.5c0.6-0.2,0.9-0.4,1.1-0.8
		c0.2-0.3,0.3-0.7,0.4-1c0.1-0.4,0.2-0.7,0.4-1.1c0.2-0.3,0.5-0.6,1-0.8c0-0.3,0.1-0.7,0.4-1c0.2-0.4,0.4-0.7,0.4-1.1
		c0.3-0.7,0.8-1.4,1.4-2.1c0.6-0.7,1.1-1.4,1.5-2.2c0.2-0.2,0.3-0.4,0.3-0.5c0-0.2,0-0.3,0-0.5c0-0.2-0.1-0.4-0.2-0.6
		c-0.1-0.2-0.1-0.4-0.1-0.6c0.4-0.3,0.6-0.7,0.8-1c0.2-0.4,0.6-0.7,1.3-1.1c0.2,0.2,0.4,0.3,0.7,0.3c0.3,0,0.5,0.1,0.8,0.1
		c0.3,0,0.5,0.1,0.8,0.3C414.7,54.6,414.9,54.9,415.1,55.3z"/>
	<path d="M439.9,55.3c0.2,0.7,0.2,1.3,0,1.8c-0.2,0.5-0.5,0.9-0.8,1.3c-0.3,0.4-0.6,0.8-0.9,1.2s-0.5,0.9-0.5,1.4
		c-1.5,1.8-2.9,3.7-4.3,5.7c-1.4,2-2.6,4-3.7,5.8c-0.3,0.7-0.8,1.5-1.4,2.2c-0.6,0.7-1.1,1.4-1.5,2.2c-0.4,0.5-0.7,1.1-0.9,1.6
		c-0.2,0.5-0.5,1.1-0.7,1.6c-0.2,0.5-0.5,1.1-0.8,1.6c-0.3,0.5-0.7,1.1-1.2,1.6c0,0.6-0.1,1.1-0.4,1.7c-0.2,0.5-0.5,1.1-0.8,1.6
		c-0.3,0.5-0.6,1.1-1,1.6c-0.3,0.5-0.6,1.1-0.7,1.7c-0.2,0-0.4,0-0.7,0.1s-0.5,0.1-0.8,0.2c-0.3,0.1-0.5,0.1-0.8,0.1
		c-0.3,0-0.5-0.1-0.6-0.3c-0.4,0-0.7-0.3-1-0.8c-0.2-0.5-0.2-1,0.2-1.4c0.4,0,0.8-0.2,1-0.5c0.3-0.3,0.4-0.6,0.4-1s0.1-0.7,0.3-1
		c0.2-0.3,0.5-0.6,0.8-0.8c0.3-0.3,0.5-0.5,0.8-0.8c0.2-0.3,0.3-0.6,0.3-1l1.5-1.4c0-0.6,0.1-1,0.2-1.4c0.2-0.4,0.3-0.7,0.5-1
		c0.2-0.3,0.3-0.6,0.5-0.9c0.1-0.3,0.2-0.6,0.2-1c0.4,0,0.6,0,0.8-0.1c0.1-0.1,0.2-0.2,0.3-0.3c0-0.1,0.1-0.2,0.1-0.3
		c0-0.1,0.1-0.1,0.3-0.1v-1.4c0.2,0,0.3,0,0.4,0.1c0.1,0.1,0.1,0.2,0.2,0.3l0.1,0.3c0.2,0,0.3,0,0.3-0.1c0-0.1,0.1-0.1,0.1-0.2
		s0-0.2,0-0.3c0-0.1,0.1-0.1,0.2-0.2h-0.6c0-0.2,0-0.3,0.1-0.4c0.1-0.1,0.2-0.2,0.3-0.3c0.1-0.1,0.2-0.2,0.3-0.3
		c0.1-0.1,0.1-0.3,0.1-0.4c0.3-0.2,0.6-0.4,0.8-0.7c0.2-0.3,0.4-0.7,0.5-1c0.1-0.4,0.2-0.7,0.3-1c0.1-0.3,0.2-0.6,0.4-0.8v-1.5
		c0.6-0.2,0.9-0.4,1.1-0.8c0.2-0.3,0.3-0.7,0.4-1c0.1-0.4,0.2-0.7,0.4-1.1c0.2-0.3,0.5-0.6,1-0.8c0-0.3,0.1-0.7,0.4-1
		c0.2-0.4,0.4-0.7,0.4-1.1c0.3-0.7,0.8-1.4,1.4-2.1c0.6-0.7,1.1-1.4,1.5-2.2c0.2-0.2,0.3-0.4,0.3-0.5c0-0.2,0-0.3,0-0.5
		c0-0.2-0.1-0.4-0.2-0.6c-0.1-0.2-0.1-0.4-0.1-0.6c0.4-0.3,0.6-0.7,0.8-1c0.2-0.4,0.6-0.7,1.3-1.1c0.2,0.2,0.4,0.3,0.7,0.3
		c0.3,0,0.5,0.1,0.8,0.1c0.3,0,0.5,0.1,0.8,0.3C439.5,54.6,439.7,54.9,439.9,55.3z"/>
	<path d="M464.7,55.3c0.2,0.7,0.2,1.3,0,1.8c-0.2,0.5-0.5,0.9-0.8,1.3c-0.3,0.4-0.6,0.8-0.9,1.2s-0.5,0.9-0.5,1.4
		c-1.5,1.8-2.9,3.7-4.3,5.7c-1.4,2-2.6,4-3.7,5.8c-0.3,0.7-0.8,1.5-1.4,2.2c-0.6,0.7-1.1,1.4-1.5,2.2c-0.4,0.5-0.7,1.1-0.9,1.6
		c-0.2,0.5-0.5,1.1-0.7,1.6c-0.2,0.5-0.5,1.1-0.8,1.6c-0.3,0.5-0.7,1.1-1.2,1.6c0,0.6-0.1,1.1-0.4,1.7c-0.2,0.5-0.5,1.1-0.8,1.6
		c-0.3,0.5-0.6,1.1-1,1.6c-0.3,0.5-0.6,1.1-0.7,1.7c-0.2,0-0.4,0-0.7,0.1c-0.3,0.1-0.5,0.1-0.8,0.2c-0.3,0.1-0.5,0.1-0.8,0.1
		c-0.3,0-0.5-0.1-0.6-0.3c-0.4,0-0.7-0.3-1-0.8c-0.2-0.5-0.2-1,0.2-1.4c0.4,0,0.8-0.2,1-0.5c0.3-0.3,0.4-0.6,0.4-1s0.1-0.7,0.3-1
		c0.2-0.3,0.5-0.6,0.8-0.8c0.3-0.3,0.5-0.5,0.8-0.8c0.2-0.3,0.3-0.6,0.3-1l1.5-1.4c0-0.6,0.1-1,0.2-1.4c0.2-0.4,0.3-0.7,0.5-1
		c0.2-0.3,0.3-0.6,0.5-0.9c0.1-0.3,0.2-0.6,0.2-1c0.4,0,0.6,0,0.8-0.1c0.1-0.1,0.2-0.2,0.3-0.3c0-0.1,0.1-0.2,0.1-0.3
		c0-0.1,0.1-0.1,0.3-0.1v-1.4c0.2,0,0.3,0,0.4,0.1c0.1,0.1,0.1,0.2,0.2,0.3l0.1,0.3c0.2,0,0.3,0,0.3-0.1c0-0.1,0.1-0.1,0.1-0.2
		s0-0.2,0-0.3c0-0.1,0.1-0.1,0.2-0.2h-0.6c0-0.2,0-0.3,0.1-0.4c0.1-0.1,0.2-0.2,0.3-0.3c0.1-0.1,0.2-0.2,0.3-0.3
		c0.1-0.1,0.1-0.3,0.1-0.4c0.3-0.2,0.6-0.4,0.8-0.7c0.2-0.3,0.4-0.7,0.5-1c0.1-0.4,0.2-0.7,0.3-1c0.1-0.3,0.2-0.6,0.4-0.8v-1.5
		c0.6-0.2,0.9-0.4,1.1-0.8c0.2-0.3,0.3-0.7,0.4-1c0.1-0.4,0.2-0.7,0.4-1.1c0.2-0.3,0.5-0.6,1-0.8c0-0.3,0.1-0.7,0.4-1
		c0.2-0.4,0.4-0.7,0.4-1.1c0.3-0.7,0.8-1.4,1.4-2.1c0.6-0.7,1.1-1.4,1.5-2.2c0.2-0.2,0.3-0.4,0.3-0.5c0-0.2,0-0.3,0-0.5
		c0-0.2-0.1-0.4-0.2-0.6c-0.1-0.2-0.1-0.4-0.1-0.6c0.4-0.3,0.6-0.7,0.8-1s0.6-0.7,1.3-1.1c0.2,0.2,0.4,0.3,0.7,0.3
		c0.3,0,0.5,0.1,0.8,0.1c0.3,0,0.5,0.1,0.8,0.3C464.3,54.6,464.6,54.9,464.7,55.3z"/>
	<path d="M489.6,55.3c0.2,0.7,0.2,1.3,0,1.8c-0.2,0.5-0.5,0.9-0.8,1.3c-0.3,0.4-0.6,0.8-0.9,1.2c-0.3,0.4-0.5,0.9-0.5,1.4
		c-1.5,1.8-2.9,3.7-4.3,5.7c-1.4,2-2.6,4-3.7,5.8c-0.3,0.7-0.8,1.5-1.4,2.2c-0.6,0.7-1.1,1.4-1.5,2.2c-0.4,0.5-0.7,1.1-0.9,1.6
		c-0.2,0.5-0.5,1.1-0.7,1.6c-0.2,0.5-0.5,1.1-0.8,1.6c-0.3,0.5-0.7,1.1-1.2,1.6c0,0.6-0.1,1.1-0.4,1.7c-0.2,0.5-0.5,1.1-0.8,1.6
		c-0.3,0.5-0.6,1.1-1,1.6c-0.3,0.5-0.6,1.1-0.7,1.7c-0.2,0-0.4,0-0.7,0.1c-0.3,0.1-0.5,0.1-0.8,0.2c-0.3,0.1-0.5,0.1-0.8,0.1
		c-0.3,0-0.5-0.1-0.6-0.3c-0.4,0-0.7-0.3-1-0.8c-0.2-0.5-0.2-1,0.2-1.4c0.4,0,0.8-0.2,1-0.5s0.4-0.6,0.4-1s0.1-0.7,0.3-1
		c0.2-0.3,0.5-0.6,0.8-0.8c0.3-0.3,0.5-0.5,0.8-0.8c0.2-0.3,0.3-0.6,0.3-1l1.5-1.4c0-0.6,0.1-1,0.2-1.4c0.2-0.4,0.3-0.7,0.5-1
		c0.2-0.3,0.3-0.6,0.5-0.9c0.1-0.3,0.2-0.6,0.2-1c0.4,0,0.6,0,0.8-0.1s0.2-0.2,0.3-0.3c0-0.1,0.1-0.2,0.1-0.3c0-0.1,0.1-0.1,0.3-0.1
		v-1.4c0.2,0,0.3,0,0.4,0.1c0.1,0.1,0.1,0.2,0.2,0.3l0.1,0.3c0.2,0,0.3,0,0.3-0.1c0-0.1,0.1-0.1,0.1-0.2s0-0.2,0-0.3
		c0-0.1,0.1-0.1,0.2-0.2h-0.6c0-0.2,0-0.3,0.1-0.4c0.1-0.1,0.2-0.2,0.3-0.3c0.1-0.1,0.2-0.2,0.3-0.3c0.1-0.1,0.1-0.3,0.1-0.4
		c0.3-0.2,0.6-0.4,0.8-0.7c0.2-0.3,0.4-0.7,0.5-1c0.1-0.4,0.2-0.7,0.3-1c0.1-0.3,0.2-0.6,0.4-0.8v-1.5c0.6-0.2,0.9-0.4,1.1-0.8
		c0.2-0.3,0.3-0.7,0.4-1c0.1-0.4,0.2-0.7,0.4-1.1c0.2-0.3,0.5-0.6,1-0.8c0-0.3,0.1-0.7,0.4-1c0.2-0.4,0.4-0.7,0.4-1.1
		c0.3-0.7,0.8-1.4,1.4-2.1c0.6-0.7,1.1-1.4,1.5-2.2c0.2-0.2,0.3-0.4,0.3-0.5c0-0.2,0-0.3,0-0.5c0-0.2-0.1-0.4-0.2-0.6
		c-0.1-0.2-0.1-0.4-0.1-0.6c0.4-0.3,0.6-0.7,0.8-1c0.2-0.4,0.6-0.7,1.3-1.1c0.2,0.2,0.4,0.3,0.7,0.3c0.3,0,0.5,0.1,0.8,0.1
		c0.3,0,0.5,0.1,0.8,0.3C489.2,54.6,489.4,54.9,489.6,55.3z"/>
	<path d="M514.4,55.3c0.2,0.7,0.2,1.3,0,1.8s-0.5,0.9-0.8,1.3c-0.3,0.4-0.6,0.8-0.9,1.2s-0.5,0.9-0.5,1.4c-1.5,1.8-2.9,3.7-4.3,5.7
		c-1.4,2-2.6,4-3.7,5.8c-0.3,0.7-0.8,1.5-1.4,2.2c-0.6,0.7-1.1,1.4-1.5,2.2c-0.4,0.5-0.7,1.1-0.9,1.6c-0.2,0.5-0.5,1.1-0.7,1.6
		c-0.2,0.5-0.5,1.1-0.8,1.6c-0.3,0.5-0.7,1.1-1.2,1.6c0,0.6-0.1,1.1-0.4,1.7c-0.2,0.5-0.5,1.1-0.8,1.6c-0.3,0.5-0.6,1.1-1,1.6
		c-0.3,0.5-0.6,1.1-0.7,1.7c-0.2,0-0.4,0-0.7,0.1c-0.3,0.1-0.5,0.1-0.8,0.2c-0.3,0.1-0.5,0.1-0.8,0.1c-0.3,0-0.5-0.1-0.6-0.3
		c-0.4,0-0.7-0.3-1-0.8c-0.2-0.5-0.2-1,0.2-1.4c0.4,0,0.8-0.2,1-0.5c0.3-0.3,0.4-0.6,0.4-1s0.1-0.7,0.3-1c0.2-0.3,0.5-0.6,0.8-0.8
		c0.3-0.3,0.5-0.5,0.8-0.8c0.2-0.3,0.3-0.6,0.3-1l1.5-1.4c0-0.6,0.1-1,0.2-1.4c0.2-0.4,0.3-0.7,0.5-1c0.2-0.3,0.3-0.6,0.5-0.9
		c0.1-0.3,0.2-0.6,0.2-1c0.4,0,0.6,0,0.8-0.1c0.1-0.1,0.2-0.2,0.3-0.3c0-0.1,0.1-0.2,0.1-0.3c0-0.1,0.1-0.1,0.3-0.1v-1.4
		c0.2,0,0.3,0,0.4,0.1c0.1,0.1,0.1,0.2,0.2,0.3l0.1,0.3c0.2,0,0.3,0,0.3-0.1c0-0.1,0.1-0.1,0.1-0.2s0-0.2,0-0.3
		c0-0.1,0.1-0.1,0.2-0.2H500c0-0.2,0-0.3,0.1-0.4c0.1-0.1,0.2-0.2,0.3-0.3c0.1-0.1,0.2-0.2,0.3-0.3c0.1-0.1,0.1-0.3,0.1-0.4
		c0.3-0.2,0.6-0.4,0.8-0.7c0.2-0.3,0.4-0.7,0.5-1c0.1-0.4,0.2-0.7,0.3-1c0.1-0.3,0.2-0.6,0.4-0.8v-1.5c0.6-0.2,0.9-0.4,1.1-0.8
		c0.2-0.3,0.3-0.7,0.4-1c0.1-0.4,0.2-0.7,0.4-1.1c0.2-0.3,0.5-0.6,1-0.8c0-0.3,0.1-0.7,0.4-1c0.2-0.4,0.4-0.7,0.4-1.1
		c0.3-0.7,0.8-1.4,1.4-2.1c0.6-0.7,1.1-1.4,1.5-2.2c0.2-0.2,0.3-0.4,0.3-0.5c0-0.2,0-0.3,0-0.5c0-0.2-0.1-0.4-0.2-0.6
		c-0.1-0.2-0.1-0.4-0.1-0.6c0.4-0.3,0.6-0.7,0.8-1c0.2-0.4,0.6-0.7,1.3-1.1c0.2,0.2,0.4,0.3,0.7,0.3c0.3,0,0.5,0.1,0.8,0.1
		c0.3,0,0.5,0.1,0.8,0.3C514,54.6,514.2,54.9,514.4,55.3z"/>
	<path d="M539.2,55.3c0.2,0.7,0.2,1.3,0,1.8s-0.5,0.9-0.8,1.3c-0.3,0.4-0.6,0.8-0.9,1.2c-0.3,0.4-0.5,0.9-0.5,1.4
		c-1.5,1.8-2.9,3.7-4.3,5.7c-1.4,2-2.6,4-3.7,5.8c-0.3,0.7-0.8,1.5-1.4,2.2s-1.1,1.4-1.5,2.2c-0.4,0.5-0.7,1.1-0.9,1.6
		c-0.2,0.5-0.5,1.1-0.7,1.6c-0.2,0.5-0.5,1.1-0.8,1.6c-0.3,0.5-0.7,1.1-1.2,1.6c0,0.6-0.1,1.1-0.4,1.7c-0.2,0.5-0.5,1.1-0.8,1.6
		c-0.3,0.5-0.6,1.1-1,1.6c-0.3,0.5-0.6,1.1-0.7,1.7c-0.2,0-0.4,0-0.7,0.1c-0.3,0.1-0.5,0.1-0.8,0.2c-0.3,0.1-0.5,0.1-0.8,0.1
		c-0.3,0-0.5-0.1-0.6-0.3c-0.4,0-0.7-0.3-1-0.8c-0.2-0.5-0.2-1,0.2-1.4c0.4,0,0.8-0.2,1-0.5c0.3-0.3,0.4-0.6,0.4-1s0.1-0.7,0.3-1
		c0.2-0.3,0.5-0.6,0.8-0.8c0.3-0.3,0.5-0.5,0.8-0.8c0.2-0.3,0.3-0.6,0.3-1l1.5-1.4c0-0.6,0.1-1,0.2-1.4c0.2-0.4,0.3-0.7,0.5-1
		c0.2-0.3,0.3-0.6,0.5-0.9c0.1-0.3,0.2-0.6,0.2-1c0.4,0,0.6,0,0.8-0.1s0.2-0.2,0.3-0.3c0-0.1,0.1-0.2,0.1-0.3c0-0.1,0.1-0.1,0.3-0.1
		v-1.4c0.2,0,0.3,0,0.4,0.1c0.1,0.1,0.1,0.2,0.2,0.3l0.1,0.3c0.2,0,0.3,0,0.3-0.1c0-0.1,0.1-0.1,0.1-0.2s0-0.2,0-0.3
		c0-0.1,0.1-0.1,0.2-0.2h-0.6c0-0.2,0-0.3,0.1-0.4c0.1-0.1,0.2-0.2,0.3-0.3c0.1-0.1,0.2-0.2,0.3-0.3c0.1-0.1,0.1-0.3,0.1-0.4
		c0.3-0.2,0.6-0.4,0.8-0.7c0.2-0.3,0.4-0.7,0.5-1c0.1-0.4,0.2-0.7,0.3-1c0.1-0.3,0.2-0.6,0.4-0.8v-1.5c0.6-0.2,0.9-0.4,1.1-0.8
		s0.3-0.7,0.4-1c0.1-0.4,0.2-0.7,0.4-1.1c0.2-0.3,0.5-0.6,1-0.8c0-0.3,0.1-0.7,0.4-1c0.2-0.4,0.4-0.7,0.4-1.1
		c0.3-0.7,0.8-1.4,1.4-2.1c0.6-0.7,1.1-1.4,1.5-2.2c0.2-0.2,0.3-0.4,0.3-0.5c0-0.2,0-0.3,0-0.5c0-0.2-0.1-0.4-0.2-0.6
		c-0.1-0.2-0.1-0.4-0.1-0.6c0.4-0.3,0.6-0.7,0.8-1c0.2-0.4,0.6-0.7,1.3-1.1c0.2,0.2,0.4,0.3,0.7,0.3c0.3,0,0.5,0.1,0.8,0.1
		c0.3,0,0.5,0.1,0.8,0.3C538.8,54.6,539,54.9,539.2,55.3z"/>
	<path d="M564,55.3c0.2,0.7,0.2,1.3,0,1.8c-0.2,0.5-0.5,0.9-0.8,1.3c-0.3,0.4-0.6,0.8-0.9,1.2s-0.5,0.9-0.5,1.4
		c-1.5,1.8-2.9,3.7-4.3,5.7c-1.4,2-2.6,4-3.7,5.8c-0.3,0.7-0.8,1.5-1.4,2.2c-0.6,0.7-1.1,1.4-1.5,2.2c-0.4,0.5-0.7,1.1-0.9,1.6
		c-0.2,0.5-0.5,1.1-0.7,1.6c-0.2,0.5-0.5,1.1-0.8,1.6c-0.3,0.5-0.7,1.1-1.2,1.6c0,0.6-0.1,1.1-0.4,1.7c-0.2,0.5-0.5,1.1-0.8,1.6
		c-0.3,0.5-0.6,1.1-1,1.6c-0.3,0.5-0.6,1.1-0.7,1.7c-0.2,0-0.4,0-0.7,0.1s-0.5,0.1-0.8,0.2c-0.3,0.1-0.5,0.1-0.8,0.1
		c-0.3,0-0.5-0.1-0.6-0.3c-0.4,0-0.7-0.3-1-0.8c-0.2-0.5-0.2-1,0.2-1.4c0.4,0,0.8-0.2,1-0.5c0.3-0.3,0.4-0.6,0.4-1s0.1-0.7,0.3-1
		s0.5-0.6,0.8-0.8c0.3-0.3,0.5-0.5,0.8-0.8c0.2-0.3,0.3-0.6,0.3-1l1.5-1.4c0-0.6,0.1-1,0.2-1.4c0.2-0.4,0.3-0.7,0.5-1
		c0.2-0.3,0.3-0.6,0.5-0.9c0.1-0.3,0.2-0.6,0.2-1c0.4,0,0.6,0,0.8-0.1s0.2-0.2,0.3-0.3c0-0.1,0.1-0.2,0.1-0.3c0-0.1,0.1-0.1,0.3-0.1
		v-1.4c0.2,0,0.3,0,0.4,0.1c0.1,0.1,0.1,0.2,0.2,0.3l0.1,0.3c0.2,0,0.3,0,0.3-0.1c0-0.1,0.1-0.1,0.1-0.2s0-0.2,0-0.3
		c0-0.1,0.1-0.1,0.2-0.2h-0.6c0-0.2,0-0.3,0.1-0.4c0.1-0.1,0.2-0.2,0.3-0.3c0.1-0.1,0.2-0.2,0.3-0.3c0.1-0.1,0.1-0.3,0.1-0.4
		c0.3-0.2,0.6-0.4,0.8-0.7c0.2-0.3,0.4-0.7,0.5-1c0.1-0.4,0.2-0.7,0.3-1c0.1-0.3,0.2-0.6,0.4-0.8v-1.5c0.6-0.2,0.9-0.4,1.1-0.8
		c0.2-0.3,0.3-0.7,0.4-1c0.1-0.4,0.2-0.7,0.4-1.1c0.2-0.3,0.5-0.6,1-0.8c0-0.3,0.1-0.7,0.4-1c0.2-0.4,0.4-0.7,0.4-1.1
		c0.3-0.7,0.8-1.4,1.4-2.1c0.6-0.7,1.1-1.4,1.5-2.2c0.2-0.2,0.3-0.4,0.3-0.5c0-0.2,0-0.3,0-0.5c0-0.2-0.1-0.4-0.2-0.6
		c-0.1-0.2-0.1-0.4-0.1-0.6c0.4-0.3,0.6-0.7,0.8-1s0.6-0.7,1.3-1.1c0.2,0.2,0.4,0.3,0.7,0.3c0.3,0,0.5,0.1,0.8,0.1
		c0.3,0,0.5,0.1,0.8,0.3C563.6,54.6,563.8,54.9,564,55.3z"/>
	<path d="M588.9,55.3c0.2,0.7,0.2,1.3,0,1.8s-0.5,0.9-0.8,1.3c-0.3,0.4-0.6,0.8-0.9,1.2s-0.5,0.9-0.5,1.4c-1.5,1.8-2.9,3.7-4.3,5.7
		c-1.4,2-2.6,4-3.7,5.8c-0.3,0.7-0.8,1.5-1.4,2.2s-1.1,1.4-1.5,2.2c-0.4,0.5-0.7,1.1-0.9,1.6c-0.2,0.5-0.5,1.1-0.7,1.6
		c-0.2,0.5-0.5,1.1-0.8,1.6c-0.3,0.5-0.7,1.1-1.2,1.6c0,0.6-0.1,1.1-0.4,1.7c-0.2,0.5-0.5,1.1-0.8,1.6c-0.3,0.5-0.6,1.1-1,1.6
		c-0.3,0.5-0.6,1.1-0.7,1.7c-0.2,0-0.4,0-0.7,0.1s-0.5,0.1-0.8,0.2c-0.3,0.1-0.5,0.1-0.8,0.1c-0.3,0-0.5-0.1-0.6-0.3
		c-0.4,0-0.7-0.3-1-0.8c-0.2-0.5-0.2-1,0.2-1.4c0.4,0,0.8-0.2,1-0.5s0.4-0.6,0.4-1s0.1-0.7,0.3-1c0.2-0.3,0.5-0.6,0.8-0.8
		c0.3-0.3,0.5-0.5,0.8-0.8c0.2-0.3,0.3-0.6,0.3-1l1.5-1.4c0-0.6,0.1-1,0.2-1.4c0.2-0.4,0.3-0.7,0.5-1c0.2-0.3,0.3-0.6,0.5-0.9
		c0.1-0.3,0.2-0.6,0.2-1c0.4,0,0.6,0,0.8-0.1c0.1-0.1,0.2-0.2,0.3-0.3c0-0.1,0.1-0.2,0.1-0.3c0-0.1,0.1-0.1,0.3-0.1v-1.4
		c0.2,0,0.3,0,0.4,0.1c0.1,0.1,0.1,0.2,0.2,0.3l0.1,0.3c0.2,0,0.3,0,0.3-0.1c0-0.1,0.1-0.1,0.1-0.2s0-0.2,0-0.3
		c0-0.1,0.1-0.1,0.2-0.2h-0.6c0-0.2,0-0.3,0.1-0.4c0.1-0.1,0.2-0.2,0.3-0.3c0.1-0.1,0.2-0.2,0.3-0.3c0.1-0.1,0.1-0.3,0.1-0.4
		c0.3-0.2,0.6-0.4,0.8-0.7c0.2-0.3,0.4-0.7,0.5-1c0.1-0.4,0.2-0.7,0.3-1c0.1-0.3,0.2-0.6,0.4-0.8v-1.5c0.6-0.2,0.9-0.4,1.1-0.8
		c0.2-0.3,0.3-0.7,0.4-1c0.1-0.4,0.2-0.7,0.4-1.1c0.2-0.3,0.5-0.6,1-0.8c0-0.3,0.1-0.7,0.4-1c0.2-0.4,0.4-0.7,0.4-1.1
		c0.3-0.7,0.8-1.4,1.4-2.1c0.6-0.7,1.1-1.4,1.5-2.2c0.2-0.2,0.3-0.4,0.3-0.5c0-0.2,0-0.3,0-0.5c0-0.2-0.1-0.4-0.2-0.6
		c-0.1-0.2-0.1-0.4-0.1-0.6c0.4-0.3,0.6-0.7,0.8-1c0.2-0.4,0.6-0.7,1.3-1.1c0.2,0.2,0.4,0.3,0.7,0.3c0.3,0,0.5,0.1,0.8,0.1
		c0.3,0,0.5,0.1,0.8,0.3C588.5,54.6,588.7,54.9,588.9,55.3z"/>
	<path d="M613.7,55.3c0.2,0.7,0.2,1.3,0,1.8c-0.2,0.5-0.5,0.9-0.8,1.3c-0.3,0.4-0.6,0.8-0.9,1.2s-0.5,0.9-0.5,1.4
		c-1.5,1.8-2.9,3.7-4.3,5.7c-1.4,2-2.6,4-3.7,5.8c-0.3,0.7-0.8,1.5-1.4,2.2s-1.1,1.4-1.5,2.2c-0.4,0.5-0.7,1.1-0.9,1.6
		c-0.2,0.5-0.5,1.1-0.7,1.6c-0.2,0.5-0.5,1.1-0.8,1.6c-0.3,0.5-0.7,1.1-1.2,1.6c0,0.6-0.1,1.1-0.4,1.7c-0.2,0.5-0.5,1.1-0.8,1.6
		c-0.3,0.5-0.6,1.1-1,1.6c-0.3,0.5-0.6,1.1-0.7,1.7c-0.2,0-0.4,0-0.7,0.1c-0.3,0.1-0.5,0.1-0.8,0.2c-0.3,0.1-0.5,0.1-0.8,0.1
		c-0.3,0-0.5-0.1-0.6-0.3c-0.4,0-0.7-0.3-1-0.8c-0.2-0.5-0.2-1,0.2-1.4c0.4,0,0.8-0.2,1-0.5c0.3-0.3,0.4-0.6,0.4-1s0.1-0.7,0.3-1
		c0.2-0.3,0.5-0.6,0.8-0.8c0.3-0.3,0.5-0.5,0.8-0.8c0.2-0.3,0.3-0.6,0.3-1l1.5-1.4c0-0.6,0.1-1,0.2-1.4c0.2-0.4,0.3-0.7,0.5-1
		c0.2-0.3,0.3-0.6,0.5-0.9c0.1-0.3,0.2-0.6,0.2-1c0.4,0,0.6,0,0.8-0.1s0.2-0.2,0.3-0.3c0-0.1,0.1-0.2,0.1-0.3c0-0.1,0.1-0.1,0.3-0.1
		v-1.4c0.2,0,0.3,0,0.4,0.1c0.1,0.1,0.1,0.2,0.2,0.3l0.1,0.3c0.2,0,0.3,0,0.3-0.1c0-0.1,0.1-0.1,0.1-0.2s0-0.2,0-0.3
		c0-0.1,0.1-0.1,0.2-0.2h-0.6c0-0.2,0-0.3,0.1-0.4c0.1-0.1,0.2-0.2,0.3-0.3c0.1-0.1,0.2-0.2,0.3-0.3c0.1-0.1,0.1-0.3,0.1-0.4
		c0.3-0.2,0.6-0.4,0.8-0.7c0.2-0.3,0.4-0.7,0.5-1c0.1-0.4,0.2-0.7,0.3-1c0.1-0.3,0.2-0.6,0.4-0.8v-1.5c0.6-0.2,0.9-0.4,1.1-0.8
		s0.3-0.7,0.4-1c0.1-0.4,0.2-0.7,0.4-1.1c0.2-0.3,0.5-0.6,1-0.8c0-0.3,0.1-0.7,0.4-1c0.2-0.4,0.4-0.7,0.4-1.1
		c0.3-0.7,0.8-1.4,1.4-2.1c0.6-0.7,1.1-1.4,1.5-2.2c0.2-0.2,0.3-0.4,0.3-0.5c0-0.2,0-0.3,0-0.5c0-0.2-0.1-0.4-0.2-0.6
		c-0.1-0.2-0.1-0.4-0.1-0.6c0.4-0.3,0.6-0.7,0.8-1c0.2-0.4,0.6-0.7,1.3-1.1c0.2,0.2,0.4,0.3,0.7,0.3c0.3,0,0.5,0.1,0.8,0.1
		c0.3,0,0.5,0.1,0.8,0.3C613.3,54.6,613.5,54.9,613.7,55.3z"/>
	<path d="M638.5,55.3c0.2,0.7,0.2,1.3,0,1.8c-0.2,0.5-0.5,0.9-0.8,1.3c-0.3,0.4-0.6,0.8-0.9,1.2s-0.5,0.9-0.5,1.4
		c-1.5,1.8-2.9,3.7-4.3,5.7c-1.4,2-2.6,4-3.7,5.8c-0.3,0.7-0.8,1.5-1.4,2.2c-0.6,0.7-1.1,1.4-1.5,2.2c-0.4,0.5-0.7,1.1-0.9,1.6
		c-0.2,0.5-0.5,1.1-0.7,1.6c-0.2,0.5-0.5,1.1-0.8,1.6c-0.3,0.5-0.7,1.1-1.2,1.6c0,0.6-0.1,1.1-0.4,1.7c-0.2,0.5-0.5,1.1-0.8,1.6
		c-0.3,0.5-0.6,1.1-1,1.6c-0.3,0.5-0.6,1.1-0.7,1.7c-0.2,0-0.4,0-0.7,0.1s-0.5,0.1-0.8,0.2c-0.3,0.1-0.5,0.1-0.8,0.1
		c-0.3,0-0.5-0.1-0.6-0.3c-0.4,0-0.7-0.3-1-0.8c-0.2-0.5-0.2-1,0.2-1.4c0.4,0,0.8-0.2,1-0.5c0.3-0.3,0.4-0.6,0.4-1s0.1-0.7,0.3-1
		s0.5-0.6,0.8-0.8c0.3-0.3,0.5-0.5,0.8-0.8c0.2-0.3,0.3-0.6,0.3-1l1.5-1.4c0-0.6,0.1-1,0.2-1.4c0.2-0.4,0.3-0.7,0.5-1
		c0.2-0.3,0.3-0.6,0.5-0.9c0.1-0.3,0.2-0.6,0.2-1c0.4,0,0.6,0,0.8-0.1s0.2-0.2,0.3-0.3c0-0.1,0.1-0.2,0.1-0.3c0-0.1,0.1-0.1,0.3-0.1
		v-1.4c0.2,0,0.3,0,0.4,0.1c0.1,0.1,0.1,0.2,0.2,0.3l0.1,0.3c0.2,0,0.3,0,0.3-0.1c0-0.1,0.1-0.1,0.1-0.2s0-0.2,0-0.3
		c0-0.1,0.1-0.1,0.2-0.2h-0.6c0-0.2,0-0.3,0.1-0.4c0.1-0.1,0.2-0.2,0.3-0.3c0.1-0.1,0.2-0.2,0.3-0.3c0.1-0.1,0.1-0.3,0.1-0.4
		c0.3-0.2,0.6-0.4,0.8-0.7c0.2-0.3,0.4-0.7,0.5-1c0.1-0.4,0.2-0.7,0.3-1c0.1-0.3,0.2-0.6,0.4-0.8v-1.5c0.6-0.2,0.9-0.4,1.1-0.8
		c0.2-0.3,0.3-0.7,0.4-1c0.1-0.4,0.2-0.7,0.4-1.1c0.2-0.3,0.5-0.6,1-0.8c0-0.3,0.1-0.7,0.4-1c0.2-0.4,0.4-0.7,0.4-1.1
		c0.3-0.7,0.8-1.4,1.4-2.1c0.6-0.7,1.1-1.4,1.5-2.2c0.2-0.2,0.3-0.4,0.3-0.5c0-0.2,0-0.3,0-0.5c0-0.2-0.1-0.4-0.2-0.6
		c-0.1-0.2-0.1-0.4-0.1-0.6c0.4-0.3,0.6-0.7,0.8-1s0.6-0.7,1.3-1.1c0.2,0.2,0.4,0.3,0.7,0.3c0.3,0,0.5,0.1,0.8,0.1
		c0.3,0,0.5,0.1,0.8,0.3C638.1,54.6,638.3,54.9,638.5,55.3z"/>
	<path d="M663.3,55.3c0.2,0.7,0.2,1.3,0,1.8s-0.5,0.9-0.8,1.3c-0.3,0.4-0.6,0.8-0.9,1.2s-0.5,0.9-0.5,1.4c-1.5,1.8-2.9,3.7-4.3,5.7
		c-1.4,2-2.6,4-3.7,5.8c-0.3,0.7-0.8,1.5-1.4,2.2s-1.1,1.4-1.5,2.2c-0.4,0.5-0.7,1.1-0.9,1.6c-0.2,0.5-0.5,1.1-0.7,1.6
		c-0.2,0.5-0.5,1.1-0.8,1.6c-0.3,0.5-0.7,1.1-1.2,1.6c0,0.6-0.1,1.1-0.4,1.7c-0.2,0.5-0.5,1.1-0.8,1.6c-0.3,0.5-0.6,1.1-1,1.6
		c-0.3,0.5-0.6,1.1-0.7,1.7c-0.2,0-0.4,0-0.7,0.1c-0.3,0.1-0.5,0.1-0.8,0.2c-0.3,0.1-0.5,0.1-0.8,0.1c-0.3,0-0.5-0.1-0.6-0.3
		c-0.4,0-0.7-0.3-1-0.8c-0.2-0.5-0.2-1,0.2-1.4c0.4,0,0.8-0.2,1-0.5s0.4-0.6,0.4-1s0.1-0.7,0.3-1c0.2-0.3,0.5-0.6,0.8-0.8
		c0.3-0.3,0.5-0.5,0.8-0.8c0.2-0.3,0.3-0.6,0.3-1l1.5-1.4c0-0.6,0.1-1,0.2-1.4c0.2-0.4,0.3-0.7,0.5-1c0.2-0.3,0.3-0.6,0.5-0.9
		c0.1-0.3,0.2-0.6,0.2-1c0.4,0,0.6,0,0.8-0.1c0.1-0.1,0.2-0.2,0.3-0.3c0-0.1,0.1-0.2,0.1-0.3c0-0.1,0.1-0.1,0.3-0.1v-1.4
		c0.2,0,0.3,0,0.4,0.1c0.1,0.1,0.1,0.2,0.2,0.3l0.1,0.3c0.2,0,0.3,0,0.3-0.1c0-0.1,0.1-0.1,0.1-0.2s0-0.2,0-0.3
		c0-0.1,0.1-0.1,0.2-0.2h-0.6c0-0.2,0-0.3,0.1-0.4c0.1-0.1,0.2-0.2,0.3-0.3c0.1-0.1,0.2-0.2,0.3-0.3c0.1-0.1,0.1-0.3,0.1-0.4
		c0.3-0.2,0.6-0.4,0.8-0.7c0.2-0.3,0.4-0.7,0.5-1c0.1-0.4,0.2-0.7,0.3-1c0.1-0.3,0.2-0.6,0.4-0.8v-1.5c0.6-0.2,0.9-0.4,1.1-0.8
		s0.3-0.7,0.4-1c0.1-0.4,0.2-0.7,0.4-1.1c0.2-0.3,0.5-0.6,1-0.8c0-0.3,0.1-0.7,0.4-1c0.2-0.4,0.4-0.7,0.4-1.1
		c0.3-0.7,0.8-1.4,1.4-2.1c0.6-0.7,1.1-1.4,1.5-2.2c0.2-0.2,0.3-0.4,0.3-0.5c0-0.2,0-0.3,0-0.5c0-0.2-0.1-0.4-0.2-0.6
		c-0.1-0.2-0.1-0.4-0.1-0.6c0.4-0.3,0.6-0.7,0.8-1c0.2-0.4,0.6-0.7,1.3-1.1c0.2,0.2,0.4,0.3,0.7,0.3c0.3,0,0.5,0.1,0.8,0.1
		c0.3,0,0.5,0.1,0.8,0.3C662.9,54.6,663.1,54.9,663.3,55.3z"/>
	<path d="M688.1,55.3c0.2,0.7,0.2,1.3,0,1.8c-0.2,0.5-0.5,0.9-0.8,1.3c-0.3,0.4-0.6,0.8-0.9,1.2s-0.5,0.9-0.5,1.4
		c-1.5,1.8-2.9,3.7-4.3,5.7c-1.4,2-2.6,4-3.7,5.8c-0.3,0.7-0.8,1.5-1.4,2.2s-1.1,1.4-1.5,2.2c-0.4,0.5-0.7,1.1-0.9,1.6
		c-0.2,0.5-0.5,1.1-0.7,1.6c-0.2,0.5-0.5,1.1-0.8,1.6c-0.3,0.5-0.7,1.1-1.2,1.6c0,0.6-0.1,1.1-0.4,1.7c-0.2,0.5-0.5,1.1-0.8,1.6
		c-0.3,0.5-0.6,1.1-1,1.6c-0.3,0.5-0.6,1.1-0.7,1.7c-0.2,0-0.4,0-0.7,0.1s-0.5,0.1-0.8,0.2c-0.3,0.1-0.5,0.1-0.8,0.1
		c-0.3,0-0.5-0.1-0.6-0.3c-0.4,0-0.7-0.3-1-0.8c-0.2-0.5-0.2-1,0.2-1.4c0.4,0,0.8-0.2,1-0.5c0.3-0.3,0.4-0.6,0.4-1s0.1-0.7,0.3-1
		c0.2-0.3,0.5-0.6,0.8-0.8c0.3-0.3,0.5-0.5,0.8-0.8c0.2-0.3,0.3-0.6,0.3-1l1.5-1.4c0-0.6,0.1-1,0.2-1.4c0.2-0.4,0.3-0.7,0.5-1
		c0.2-0.3,0.3-0.6,0.5-0.9c0.1-0.3,0.2-0.6,0.2-1c0.4,0,0.6,0,0.8-0.1s0.2-0.2,0.3-0.3c0-0.1,0.1-0.2,0.1-0.3c0-0.1,0.1-0.1,0.3-0.1
		v-1.4c0.2,0,0.3,0,0.4,0.1c0.1,0.1,0.1,0.2,0.2,0.3l0.1,0.3c0.2,0,0.3,0,0.3-0.1c0-0.1,0.1-0.1,0.1-0.2s0-0.2,0-0.3
		c0-0.1,0.1-0.1,0.2-0.2h-0.6c0-0.2,0-0.3,0.1-0.4c0.1-0.1,0.2-0.2,0.3-0.3c0.1-0.1,0.2-0.2,0.3-0.3c0.1-0.1,0.1-0.3,0.1-0.4
		c0.3-0.2,0.6-0.4,0.8-0.7c0.2-0.3,0.4-0.7,0.5-1c0.1-0.4,0.2-0.7,0.3-1c0.1-0.3,0.2-0.6,0.4-0.8v-1.5c0.6-0.2,0.9-0.4,1.1-0.8
		s0.3-0.7,0.4-1c0.1-0.4,0.2-0.7,0.4-1.1c0.2-0.3,0.5-0.6,1-0.8c0-0.3,0.1-0.7,0.4-1c0.2-0.4,0.4-0.7,0.4-1.1
		c0.3-0.7,0.8-1.4,1.4-2.1c0.6-0.7,1.1-1.4,1.5-2.2c0.2-0.2,0.3-0.4,0.3-0.5c0-0.2,0-0.3,0-0.5c0-0.2-0.1-0.4-0.2-0.6
		c-0.1-0.2-0.1-0.4-0.1-0.6c0.4-0.3,0.6-0.7,0.8-1c0.2-0.4,0.6-0.7,1.3-1.1c0.2,0.2,0.4,0.3,0.7,0.3c0.3,0,0.5,0.1,0.8,0.1
		c0.3,0,0.5,0.1,0.8,0.3C687.7,54.6,688,54.9,688.1,55.3z"/>
	<path d="M713,55.3c0.2,0.7,0.2,1.3,0,1.8s-0.5,0.9-0.8,1.3c-0.3,0.4-0.6,0.8-0.9,1.2s-0.5,0.9-0.5,1.4c-1.5,1.8-2.9,3.7-4.3,5.7
		c-1.4,2-2.6,4-3.7,5.8c-0.3,0.7-0.8,1.5-1.4,2.2c-0.6,0.7-1.1,1.4-1.5,2.2c-0.4,0.5-0.7,1.1-0.9,1.6c-0.2,0.5-0.5,1.1-0.7,1.6
		c-0.2,0.5-0.5,1.1-0.8,1.6c-0.3,0.5-0.7,1.1-1.2,1.6c0,0.6-0.1,1.1-0.4,1.7c-0.2,0.5-0.5,1.1-0.8,1.6c-0.3,0.5-0.6,1.1-1,1.6
		c-0.3,0.5-0.6,1.1-0.7,1.7c-0.2,0-0.4,0-0.7,0.1s-0.5,0.1-0.8,0.2c-0.3,0.1-0.5,0.1-0.8,0.1c-0.3,0-0.5-0.1-0.6-0.3
		c-0.4,0-0.7-0.3-1-0.8c-0.2-0.5-0.2-1,0.2-1.4c0.4,0,0.8-0.2,1-0.5c0.3-0.3,0.4-0.6,0.4-1s0.1-0.7,0.3-1s0.5-0.6,0.8-0.8
		c0.3-0.3,0.5-0.5,0.8-0.8c0.2-0.3,0.3-0.6,0.3-1l1.5-1.4c0-0.6,0.1-1,0.2-1.4c0.2-0.4,0.3-0.7,0.5-1c0.2-0.3,0.3-0.6,0.5-0.9
		c0.1-0.3,0.2-0.6,0.2-1c0.4,0,0.6,0,0.8-0.1c0.1-0.1,0.2-0.2,0.3-0.3c0-0.1,0.1-0.2,0.1-0.3c0-0.1,0.1-0.1,0.3-0.1v-1.4
		c0.2,0,0.3,0,0.4,0.1c0.1,0.1,0.1,0.2,0.2,0.3l0.1,0.3c0.2,0,0.3,0,0.3-0.1c0-0.1,0.1-0.1,0.1-0.2s0-0.2,0-0.3
		c0-0.1,0.1-0.1,0.2-0.2h-0.6c0-0.2,0-0.3,0.1-0.4c0.1-0.1,0.2-0.2,0.3-0.3c0.1-0.1,0.2-0.2,0.3-0.3c0.1-0.1,0.1-0.3,0.1-0.4
		c0.3-0.2,0.6-0.4,0.8-0.7c0.2-0.3,0.4-0.7,0.5-1c0.1-0.4,0.2-0.7,0.3-1c0.1-0.3,0.2-0.6,0.4-0.8v-1.5c0.6-0.2,0.9-0.4,1.1-0.8
		c0.2-0.3,0.3-0.7,0.4-1c0.1-0.4,0.2-0.7,0.4-1.1c0.2-0.3,0.5-0.6,1-0.8c0-0.3,0.1-0.7,0.4-1c0.2-0.4,0.4-0.7,0.4-1.1
		c0.3-0.7,0.8-1.4,1.4-2.1c0.6-0.7,1.1-1.4,1.5-2.2c0.2-0.2,0.3-0.4,0.3-0.5c0-0.2,0-0.3,0-0.5c0-0.2-0.1-0.4-0.2-0.6
		c-0.1-0.2-0.1-0.4-0.1-0.6c0.4-0.3,0.6-0.7,0.8-1s0.6-0.7,1.3-1.1c0.2,0.2,0.4,0.3,0.7,0.3c0.3,0,0.5,0.1,0.8,0.1
		c0.3,0,0.5,0.1,0.8,0.3C712.6,54.6,712.8,54.9,713,55.3z"/>
	<path d="M737.8,55.3c0.2,0.7,0.2,1.3,0,1.8s-0.5,0.9-0.8,1.3c-0.3,0.4-0.6,0.8-0.9,1.2c-0.3,0.4-0.5,0.9-0.5,1.4
		c-1.5,1.8-2.9,3.7-4.3,5.7c-1.4,2-2.6,4-3.7,5.8c-0.3,0.7-0.8,1.5-1.4,2.2s-1.1,1.4-1.5,2.2c-0.4,0.5-0.7,1.1-0.9,1.6
		c-0.2,0.5-0.5,1.1-0.7,1.6c-0.2,0.5-0.5,1.1-0.8,1.6c-0.3,0.5-0.7,1.1-1.2,1.6c0,0.6-0.1,1.1-0.4,1.7c-0.2,0.5-0.5,1.1-0.8,1.6
		c-0.3,0.5-0.6,1.1-1,1.6c-0.3,0.5-0.6,1.1-0.7,1.7c-0.2,0-0.4,0-0.7,0.1c-0.3,0.1-0.5,0.1-0.8,0.2c-0.3,0.1-0.5,0.1-0.8,0.1
		c-0.3,0-0.5-0.1-0.6-0.3c-0.4,0-0.7-0.3-1-0.8c-0.2-0.5-0.2-1,0.2-1.4c0.4,0,0.8-0.2,1-0.5s0.4-0.6,0.4-1s0.1-0.7,0.3-1
		c0.2-0.3,0.5-0.6,0.8-0.8c0.3-0.3,0.5-0.5,0.8-0.8c0.2-0.3,0.3-0.6,0.3-1l1.5-1.4c0-0.6,0.1-1,0.2-1.4c0.2-0.4,0.3-0.7,0.5-1
		c0.2-0.3,0.3-0.6,0.5-0.9c0.1-0.3,0.2-0.6,0.2-1c0.4,0,0.6,0,0.8-0.1s0.2-0.2,0.3-0.3c0-0.1,0.1-0.2,0.1-0.3c0-0.1,0.1-0.1,0.3-0.1
		v-1.4c0.2,0,0.3,0,0.4,0.1c0.1,0.1,0.1,0.2,0.2,0.3l0.1,0.3c0.2,0,0.3,0,0.3-0.1c0-0.1,0.1-0.1,0.1-0.2s0-0.2,0-0.3
		c0-0.1,0.1-0.1,0.2-0.2h-0.6c0-0.2,0-0.3,0.1-0.4c0.1-0.1,0.2-0.2,0.3-0.3c0.1-0.1,0.2-0.2,0.3-0.3c0.1-0.1,0.1-0.3,0.1-0.4
		c0.3-0.2,0.6-0.4,0.8-0.7c0.2-0.3,0.4-0.7,0.5-1c0.1-0.4,0.2-0.7,0.3-1c0.1-0.3,0.2-0.6,0.4-0.8v-1.5c0.6-0.2,0.9-0.4,1.1-0.8
		s0.3-0.7,0.4-1c0.1-0.4,0.2-0.7,0.4-1.1c0.2-0.3,0.5-0.6,1-0.8c0-0.3,0.1-0.7,0.4-1c0.2-0.4,0.4-0.7,0.4-1.1
		c0.3-0.7,0.8-1.4,1.4-2.1c0.6-0.7,1.1-1.4,1.5-2.2c0.2-0.2,0.3-0.4,0.3-0.5c0-0.2,0-0.3,0-0.5c0-0.2-0.1-0.4-0.2-0.6
		c-0.1-0.2-0.1-0.4-0.1-0.6c0.4-0.3,0.6-0.7,0.8-1c0.2-0.4,0.6-0.7,1.3-1.1c0.2,0.2,0.4,0.3,0.7,0.3c0.3,0,0.5,0.1,0.8,0.1
		c0.3,0,0.5,0.1,0.8,0.3C737.4,54.6,737.6,54.9,737.8,55.3z"/>
	<path d="M762.6,55.3c0.2,0.7,0.2,1.3,0,1.8c-0.2,0.5-0.5,0.9-0.8,1.3c-0.3,0.4-0.6,0.8-0.9,1.2s-0.5,0.9-0.5,1.4
		c-1.5,1.8-2.9,3.7-4.3,5.7c-1.4,2-2.6,4-3.7,5.8c-0.3,0.7-0.8,1.5-1.4,2.2c-0.6,0.7-1.1,1.4-1.5,2.2c-0.4,0.5-0.7,1.1-0.9,1.6
		c-0.2,0.5-0.5,1.1-0.7,1.6c-0.2,0.5-0.5,1.1-0.8,1.6c-0.3,0.5-0.7,1.1-1.2,1.6c0,0.6-0.1,1.1-0.4,1.7c-0.2,0.5-0.5,1.1-0.8,1.6
		c-0.3,0.5-0.6,1.1-1,1.6c-0.3,0.5-0.6,1.1-0.7,1.7c-0.2,0-0.4,0-0.7,0.1s-0.5,0.1-0.8,0.2c-0.3,0.1-0.5,0.1-0.8,0.1
		c-0.3,0-0.5-0.1-0.6-0.3c-0.4,0-0.7-0.3-1-0.8c-0.2-0.5-0.2-1,0.2-1.4c0.4,0,0.8-0.2,1-0.5c0.3-0.3,0.4-0.6,0.4-1s0.1-0.7,0.3-1
		c0.2-0.3,0.5-0.6,0.8-0.8c0.3-0.3,0.5-0.5,0.8-0.8c0.2-0.3,0.3-0.6,0.3-1l1.5-1.4c0-0.6,0.1-1,0.2-1.4c0.2-0.4,0.3-0.7,0.5-1
		c0.2-0.3,0.3-0.6,0.5-0.9c0.1-0.3,0.2-0.6,0.2-1c0.4,0,0.6,0,0.8-0.1s0.2-0.2,0.3-0.3c0-0.1,0.1-0.2,0.1-0.3c0-0.1,0.1-0.1,0.3-0.1
		v-1.4c0.2,0,0.3,0,0.4,0.1c0.1,0.1,0.1,0.2,0.2,0.3l0.1,0.3c0.2,0,0.3,0,0.3-0.1c0-0.1,0.1-0.1,0.1-0.2s0-0.2,0-0.3
		c0-0.1,0.1-0.1,0.2-0.2h-0.6c0-0.2,0-0.3,0.1-0.4c0.1-0.1,0.2-0.2,0.3-0.3c0.1-0.1,0.2-0.2,0.3-0.3c0.1-0.1,0.1-0.3,0.1-0.4
		c0.3-0.2,0.6-0.4,0.8-0.7c0.2-0.3,0.4-0.7,0.5-1c0.1-0.4,0.2-0.7,0.3-1c0.1-0.3,0.2-0.6,0.4-0.8v-1.5c0.6-0.2,0.9-0.4,1.1-0.8
		c0.2-0.3,0.3-0.7,0.4-1c0.1-0.4,0.2-0.7,0.4-1.1c0.2-0.3,0.5-0.6,1-0.8c0-0.3,0.1-0.7,0.4-1c0.2-0.4,0.4-0.7,0.4-1.1
		c0.3-0.7,0.8-1.4,1.4-2.1c0.6-0.7,1.1-1.4,1.5-2.2c0.2-0.2,0.3-0.4,0.3-0.5c0-0.2,0-0.3,0-0.5c0-0.2-0.1-0.4-0.2-0.6
		c-0.1-0.2-0.1-0.4-0.1-0.6c0.4-0.3,0.6-0.7,0.8-1s0.6-0.7,1.3-1.1c0.2,0.2,0.4,0.3,0.7,0.3c0.3,0,0.5,0.1,0.8,0.1
		c0.3,0,0.5,0.1,0.8,0.3C762.2,54.6,762.4,54.9,762.6,55.3z"/>
	<path d="M787.4,55.3c0.2,0.7,0.2,1.3,0,1.8s-0.5,0.9-0.8,1.3c-0.3,0.4-0.6,0.8-0.9,1.2s-0.5,0.9-0.5,1.4c-1.5,1.8-2.9,3.7-4.3,5.7
		c-1.4,2-2.6,4-3.7,5.8c-0.3,0.7-0.8,1.5-1.4,2.2c-0.6,0.7-1.1,1.4-1.5,2.2c-0.4,0.5-0.7,1.1-0.9,1.6c-0.2,0.5-0.5,1.1-0.7,1.6
		c-0.2,0.5-0.5,1.1-0.8,1.6c-0.3,0.5-0.7,1.1-1.2,1.6c0,0.6-0.1,1.1-0.4,1.7c-0.2,0.5-0.5,1.1-0.8,1.6c-0.3,0.5-0.6,1.1-1,1.6
		c-0.3,0.5-0.6,1.1-0.7,1.7c-0.2,0-0.4,0-0.7,0.1s-0.5,0.1-0.8,0.2c-0.3,0.1-0.5,0.1-0.8,0.1c-0.3,0-0.5-0.1-0.6-0.3
		c-0.4,0-0.7-0.3-1-0.8c-0.2-0.5-0.2-1,0.2-1.4c0.4,0,0.8-0.2,1-0.5s0.4-0.6,0.4-1s0.1-0.7,0.3-1s0.5-0.6,0.8-0.8
		c0.3-0.3,0.5-0.5,0.8-0.8c0.2-0.3,0.3-0.6,0.3-1l1.5-1.4c0-0.6,0.1-1,0.2-1.4c0.2-0.4,0.3-0.7,0.5-1c0.2-0.3,0.3-0.6,0.5-0.9
		c0.1-0.3,0.2-0.6,0.2-1c0.4,0,0.6,0,0.8-0.1c0.1-0.1,0.2-0.2,0.3-0.3c0-0.1,0.1-0.2,0.1-0.3c0-0.1,0.1-0.1,0.3-0.1v-1.4
		c0.2,0,0.3,0,0.4,0.1c0.1,0.1,0.1,0.2,0.2,0.3l0.1,0.3c0.2,0,0.3,0,0.3-0.1c0-0.1,0.1-0.1,0.1-0.2s0-0.2,0-0.3
		c0-0.1,0.1-0.1,0.2-0.2H773c0-0.2,0-0.3,0.1-0.4c0.1-0.1,0.2-0.2,0.3-0.3c0.1-0.1,0.2-0.2,0.3-0.3c0.1-0.1,0.1-0.3,0.1-0.4
		c0.3-0.2,0.6-0.4,0.8-0.7c0.2-0.3,0.4-0.7,0.5-1c0.1-0.4,0.2-0.7,0.3-1c0.1-0.3,0.2-0.6,0.4-0.8v-1.5c0.6-0.2,0.9-0.4,1.1-0.8
		c0.2-0.3,0.3-0.7,0.4-1c0.1-0.4,0.2-0.7,0.4-1.1c0.2-0.3,0.5-0.6,1-0.8c0-0.3,0.1-0.7,0.4-1c0.2-0.4,0.4-0.7,0.4-1.1
		c0.3-0.7,0.8-1.4,1.4-2.1c0.6-0.7,1.1-1.4,1.5-2.2c0.2-0.2,0.3-0.4,0.3-0.5c0-0.2,0-0.3,0-0.5c0-0.2-0.1-0.4-0.2-0.6
		c-0.1-0.2-0.1-0.4-0.1-0.6c0.4-0.3,0.6-0.7,0.8-1c0.2-0.4,0.6-0.7,1.3-1.1c0.2,0.2,0.4,0.3,0.7,0.3c0.3,0,0.5,0.1,0.8,0.1
		c0.3,0,0.5,0.1,0.8,0.3C787,54.6,787.3,54.9,787.4,55.3z"/>
	<path d="M812.3,55.3c0.2,0.7,0.2,1.3,0,1.8s-0.5,0.9-0.8,1.3c-0.3,0.4-0.6,0.8-0.9,1.2c-0.3,0.4-0.5,0.9-0.5,1.4
		c-1.5,1.8-2.9,3.7-4.3,5.7c-1.4,2-2.6,4-3.7,5.8c-0.3,0.7-0.8,1.5-1.4,2.2s-1.1,1.4-1.5,2.2c-0.4,0.5-0.7,1.1-0.9,1.6
		c-0.2,0.5-0.5,1.1-0.7,1.6c-0.2,0.5-0.5,1.1-0.8,1.6c-0.3,0.5-0.7,1.1-1.2,1.6c0,0.6-0.1,1.1-0.4,1.7c-0.2,0.5-0.5,1.1-0.8,1.6
		c-0.3,0.5-0.6,1.1-1,1.6c-0.3,0.5-0.6,1.1-0.7,1.7c-0.2,0-0.4,0-0.7,0.1c-0.3,0.1-0.5,0.1-0.8,0.2c-0.3,0.1-0.5,0.1-0.8,0.1
		c-0.3,0-0.5-0.1-0.6-0.3c-0.4,0-0.7-0.3-1-0.8c-0.2-0.5-0.2-1,0.2-1.4c0.4,0,0.8-0.2,1-0.5c0.3-0.3,0.4-0.6,0.4-1s0.1-0.7,0.3-1
		c0.2-0.3,0.5-0.6,0.8-0.8c0.3-0.3,0.5-0.5,0.8-0.8c0.2-0.3,0.3-0.6,0.3-1l1.5-1.4c0-0.6,0.1-1,0.2-1.4c0.2-0.4,0.3-0.7,0.5-1
		c0.2-0.3,0.3-0.6,0.5-0.9c0.1-0.3,0.2-0.6,0.2-1c0.4,0,0.6,0,0.8-0.1s0.2-0.2,0.3-0.3c0-0.1,0.1-0.2,0.1-0.3c0-0.1,0.1-0.1,0.3-0.1
		v-1.4c0.2,0,0.3,0,0.4,0.1c0.1,0.1,0.1,0.2,0.2,0.3l0.1,0.3c0.2,0,0.3,0,0.3-0.1c0-0.1,0.1-0.1,0.1-0.2s0-0.2,0-0.3
		c0-0.1,0.1-0.1,0.2-0.2h-0.6c0-0.2,0-0.3,0.1-0.4c0.1-0.1,0.2-0.2,0.3-0.3c0.1-0.1,0.2-0.2,0.3-0.3c0.1-0.1,0.1-0.3,0.1-0.4
		c0.3-0.2,0.6-0.4,0.8-0.7c0.2-0.3,0.4-0.7,0.5-1c0.1-0.4,0.2-0.7,0.3-1c0.1-0.3,0.2-0.6,0.4-0.8v-1.5c0.6-0.2,0.9-0.4,1.1-0.8
		s0.3-0.7,0.4-1c0.1-0.4,0.2-0.7,0.4-1.1c0.2-0.3,0.5-0.6,1-0.8c0-0.3,0.1-0.7,0.4-1c0.2-0.4,0.4-0.7,0.4-1.1
		c0.3-0.7,0.8-1.4,1.4-2.1c0.6-0.7,1.1-1.4,1.5-2.2c0.2-0.2,0.3-0.4,0.3-0.5c0-0.2,0-0.3,0-0.5c0-0.2-0.1-0.4-0.2-0.6
		c-0.1-0.2-0.1-0.4-0.1-0.6c0.4-0.3,0.6-0.7,0.8-1c0.2-0.4,0.6-0.7,1.3-1.1c0.2,0.2,0.4,0.3,0.7,0.3c0.3,0,0.5,0.1,0.8,0.1
		c0.3,0,0.5,0.1,0.8,0.3C811.9,54.6,812.1,54.9,812.3,55.3z"/>
	<path d="M837.1,55.3c0.2,0.7,0.2,1.3,0,1.8c-0.2,0.5-0.5,0.9-0.8,1.3c-0.3,0.4-0.6,0.8-0.9,1.2s-0.5,0.9-0.5,1.4
		c-1.5,1.8-2.9,3.7-4.3,5.7c-1.4,2-2.6,4-3.7,5.8c-0.3,0.7-0.8,1.5-1.4,2.2c-0.6,0.7-1.1,1.4-1.5,2.2c-0.4,0.5-0.7,1.1-0.9,1.6
		c-0.2,0.5-0.5,1.1-0.7,1.6c-0.2,0.5-0.5,1.1-0.8,1.6c-0.3,0.5-0.7,1.1-1.2,1.6c0,0.6-0.1,1.1-0.4,1.7c-0.2,0.5-0.5,1.1-0.8,1.6
		c-0.3,0.5-0.6,1.1-1,1.6c-0.3,0.5-0.6,1.1-0.7,1.7c-0.2,0-0.4,0-0.7,0.1s-0.5,0.1-0.8,0.2c-0.3,0.1-0.5,0.1-0.8,0.1
		c-0.3,0-0.5-0.1-0.6-0.3c-0.4,0-0.7-0.3-1-0.8c-0.2-0.5-0.2-1,0.2-1.4c0.4,0,0.8-0.2,1-0.5c0.3-0.3,0.4-0.6,0.4-1s0.1-0.7,0.3-1
		s0.5-0.6,0.8-0.8c0.3-0.3,0.5-0.5,0.8-0.8c0.2-0.3,0.3-0.6,0.3-1l1.5-1.4c0-0.6,0.1-1,0.2-1.4c0.2-0.4,0.3-0.7,0.5-1
		c0.2-0.3,0.3-0.6,0.5-0.9c0.1-0.3,0.2-0.6,0.2-1c0.4,0,0.6,0,0.8-0.1s0.2-0.2,0.3-0.3c0-0.1,0.1-0.2,0.1-0.3c0-0.1,0.1-0.1,0.3-0.1
		v-1.4c0.2,0,0.3,0,0.4,0.1c0.1,0.1,0.1,0.2,0.2,0.3l0.1,0.3c0.2,0,0.3,0,0.3-0.1c0-0.1,0.1-0.1,0.1-0.2s0-0.2,0-0.3
		c0-0.1,0.1-0.1,0.2-0.2h-0.6c0-0.2,0-0.3,0.1-0.4c0.1-0.1,0.2-0.2,0.3-0.3c0.1-0.1,0.2-0.2,0.3-0.3c0.1-0.1,0.1-0.3,0.1-0.4
		c0.3-0.2,0.6-0.4,0.8-0.7c0.2-0.3,0.4-0.7,0.5-1c0.1-0.4,0.2-0.7,0.3-1c0.1-0.3,0.2-0.6,0.4-0.8v-1.5c0.6-0.2,0.9-0.4,1.1-0.8
		c0.2-0.3,0.3-0.7,0.4-1c0.1-0.4,0.2-0.7,0.4-1.1c0.2-0.3,0.5-0.6,1-0.8c0-0.3,0.1-0.7,0.4-1c0.2-0.4,0.4-0.7,0.4-1.1
		c0.3-0.7,0.8-1.4,1.4-2.1c0.6-0.7,1.1-1.4,1.5-2.2c0.2-0.2,0.3-0.4,0.3-0.5c0-0.2,0-0.3,0-0.5c0-0.2-0.1-0.4-0.2-0.6
		c-0.1-0.2-0.1-0.4-0.1-0.6c0.4-0.3,0.6-0.7,0.8-1s0.6-0.7,1.3-1.1c0.2,0.2,0.4,0.3,0.7,0.3c0.3,0,0.5,0.1,0.8,0.1
		c0.3,0,0.5,0.1,0.8,0.3C836.7,54.6,836.9,54.9,837.1,55.3z"/>
	<path d="M861.9,55.3c0.2,0.7,0.2,1.3,0,1.8s-0.5,0.9-0.8,1.3c-0.3,0.4-0.6,0.8-0.9,1.2s-0.5,0.9-0.5,1.4c-1.5,1.8-2.9,3.7-4.3,5.7
		c-1.4,2-2.6,4-3.7,5.8c-0.3,0.7-0.8,1.5-1.4,2.2s-1.1,1.4-1.5,2.2c-0.4,0.5-0.7,1.1-0.9,1.6c-0.2,0.5-0.5,1.1-0.7,1.6
		c-0.2,0.5-0.5,1.1-0.8,1.6c-0.3,0.5-0.7,1.1-1.2,1.6c0,0.6-0.1,1.1-0.4,1.7c-0.2,0.5-0.5,1.1-0.8,1.6c-0.3,0.5-0.6,1.1-1,1.6
		c-0.3,0.5-0.6,1.1-0.7,1.7c-0.2,0-0.4,0-0.7,0.1s-0.5,0.1-0.8,0.2c-0.3,0.1-0.5,0.1-0.8,0.1c-0.3,0-0.5-0.1-0.6-0.3
		c-0.4,0-0.7-0.3-1-0.8c-0.2-0.5-0.2-1,0.2-1.4c0.4,0,0.8-0.2,1-0.5s0.4-0.6,0.4-1s0.1-0.7,0.3-1c0.2-0.3,0.5-0.6,0.8-0.8
		c0.3-0.3,0.5-0.5,0.8-0.8c0.2-0.3,0.3-0.6,0.3-1l1.5-1.4c0-0.6,0.1-1,0.2-1.4c0.2-0.4,0.3-0.7,0.5-1c0.2-0.3,0.3-0.6,0.5-0.9
		c0.1-0.3,0.2-0.6,0.2-1c0.4,0,0.6,0,0.8-0.1c0.1-0.1,0.2-0.2,0.3-0.3c0-0.1,0.1-0.2,0.1-0.3c0-0.1,0.1-0.1,0.3-0.1v-1.4
		c0.2,0,0.3,0,0.4,0.1c0.1,0.1,0.1,0.2,0.2,0.3l0.1,0.3c0.2,0,0.3,0,0.3-0.1c0-0.1,0.1-0.1,0.1-0.2s0-0.2,0-0.3
		c0-0.1,0.1-0.1,0.2-0.2h-0.6c0-0.2,0-0.3,0.1-0.4c0.1-0.1,0.2-0.2,0.3-0.3c0.1-0.1,0.2-0.2,0.3-0.3c0.1-0.1,0.1-0.3,0.1-0.4
		c0.3-0.2,0.6-0.4,0.8-0.7c0.2-0.3,0.4-0.7,0.5-1c0.1-0.4,0.2-0.7,0.3-1c0.1-0.3,0.2-0.6,0.4-0.8v-1.5c0.6-0.2,0.9-0.4,1.1-0.8
		c0.2-0.3,0.3-0.7,0.4-1c0.1-0.4,0.2-0.7,0.4-1.1c0.2-0.3,0.5-0.6,1-0.8c0-0.3,0.1-0.7,0.4-1c0.2-0.4,0.4-0.7,0.4-1.1
		c0.3-0.7,0.8-1.4,1.4-2.1c0.6-0.7,1.1-1.4,1.5-2.2c0.2-0.2,0.3-0.4,0.3-0.5c0-0.2,0-0.3,0-0.5c0-0.2-0.1-0.4-0.2-0.6
		c-0.1-0.2-0.1-0.4-0.1-0.6c0.4-0.3,0.6-0.7,0.8-1c0.2-0.4,0.6-0.7,1.3-1.1c0.2,0.2,0.4,0.3,0.7,0.3c0.3,0,0.5,0.1,0.8,0.1
		c0.3,0,0.5,0.1,0.8,0.3C861.5,54.6,861.7,54.9,861.9,55.3z"/>
	<path d="M886.7,55.3c0.2,0.7,0.2,1.3,0,1.8c-0.2,0.5-0.5,0.9-0.8,1.3c-0.3,0.4-0.6,0.8-0.9,1.2s-0.5,0.9-0.5,1.4
		c-1.5,1.8-2.9,3.7-4.3,5.7c-1.4,2-2.6,4-3.7,5.8c-0.3,0.7-0.8,1.5-1.4,2.2s-1.1,1.4-1.5,2.2c-0.4,0.5-0.7,1.1-0.9,1.6
		c-0.2,0.5-0.5,1.1-0.7,1.6c-0.2,0.5-0.5,1.1-0.8,1.6c-0.3,0.5-0.7,1.1-1.2,1.6c0,0.6-0.1,1.1-0.4,1.7c-0.2,0.5-0.5,1.1-0.8,1.6
		c-0.3,0.5-0.6,1.1-1,1.6c-0.3,0.5-0.6,1.1-0.7,1.7c-0.2,0-0.4,0-0.7,0.1c-0.3,0.1-0.5,0.1-0.8,0.2c-0.3,0.1-0.5,0.1-0.8,0.1
		c-0.3,0-0.5-0.1-0.6-0.3c-0.4,0-0.7-0.3-1-0.8c-0.2-0.5-0.2-1,0.2-1.4c0.4,0,0.8-0.2,1-0.5c0.3-0.3,0.4-0.6,0.4-1s0.1-0.7,0.3-1
		c0.2-0.3,0.5-0.6,0.8-0.8c0.3-0.3,0.5-0.5,0.8-0.8c0.2-0.3,0.3-0.6,0.3-1l1.5-1.4c0-0.6,0.1-1,0.2-1.4c0.2-0.4,0.3-0.7,0.5-1
		c0.2-0.3,0.3-0.6,0.5-0.9c0.1-0.3,0.2-0.6,0.2-1c0.4,0,0.6,0,0.8-0.1s0.2-0.2,0.3-0.3c0-0.1,0.1-0.2,0.1-0.3c0-0.1,0.1-0.1,0.3-0.1
		v-1.4c0.2,0,0.3,0,0.4,0.1c0.1,0.1,0.1,0.2,0.2,0.3l0.1,0.3c0.2,0,0.3,0,0.3-0.1c0-0.1,0.1-0.1,0.1-0.2s0-0.2,0-0.3
		c0-0.1,0.1-0.1,0.2-0.2h-0.6c0-0.2,0-0.3,0.1-0.4c0.1-0.1,0.2-0.2,0.3-0.3c0.1-0.1,0.2-0.2,0.3-0.3c0.1-0.1,0.1-0.3,0.1-0.4
		c0.3-0.2,0.6-0.4,0.8-0.7c0.2-0.3,0.4-0.7,0.5-1c0.1-0.4,0.2-0.7,0.3-1c0.1-0.3,0.2-0.6,0.4-0.8v-1.5c0.6-0.2,0.9-0.4,1.1-0.8
		s0.3-0.7,0.4-1c0.1-0.4,0.2-0.7,0.4-1.1c0.2-0.3,0.5-0.6,1-0.8c0-0.3,0.1-0.7,0.4-1c0.2-0.4,0.4-0.7,0.4-1.1
		c0.3-0.7,0.8-1.4,1.4-2.1c0.6-0.7,1.1-1.4,1.5-2.2c0.2-0.2,0.3-0.4,0.3-0.5c0-0.2,0-0.3,0-0.5c0-0.2-0.1-0.4-0.2-0.6
		c-0.1-0.2-0.1-0.4-0.1-0.6c0.4-0.3,0.6-0.7,0.8-1c0.2-0.4,0.6-0.7,1.3-1.1c0.2,0.2,0.4,0.3,0.7,0.3c0.3,0,0.5,0.1,0.8,0.1
		c0.3,0,0.5,0.1,0.8,0.3C886.3,54.6,886.5,54.9,886.7,55.3z"/>
	<path d="M911.6,55.3c0.2,0.7,0.2,1.3,0,1.8c-0.2,0.5-0.5,0.9-0.8,1.3c-0.3,0.4-0.6,0.8-0.9,1.2s-0.5,0.9-0.5,1.4
		c-1.5,1.8-2.9,3.7-4.3,5.7c-1.4,2-2.6,4-3.7,5.8c-0.3,0.7-0.8,1.5-1.4,2.2c-0.6,0.7-1.1,1.4-1.5,2.2c-0.4,0.5-0.7,1.1-0.9,1.6
		c-0.2,0.5-0.5,1.1-0.7,1.6c-0.2,0.5-0.5,1.1-0.8,1.6c-0.3,0.5-0.7,1.1-1.2,1.6c0,0.6-0.1,1.1-0.4,1.7c-0.2,0.5-0.5,1.1-0.8,1.6
		c-0.3,0.5-0.6,1.1-1,1.6c-0.3,0.5-0.6,1.1-0.7,1.7c-0.2,0-0.4,0-0.7,0.1s-0.5,0.1-0.8,0.2c-0.3,0.1-0.5,0.1-0.8,0.1
		c-0.3,0-0.5-0.1-0.6-0.3c-0.4,0-0.7-0.3-1-0.8c-0.2-0.5-0.2-1,0.2-1.4c0.4,0,0.8-0.2,1-0.5c0.3-0.3,0.4-0.6,0.4-1s0.1-0.7,0.3-1
		s0.5-0.6,0.8-0.8c0.3-0.3,0.5-0.5,0.8-0.8c0.2-0.3,0.3-0.6,0.3-1l1.5-1.4c0-0.6,0.1-1,0.2-1.4c0.2-0.4,0.3-0.7,0.5-1
		c0.2-0.3,0.3-0.6,0.5-0.9c0.1-0.3,0.2-0.6,0.2-1c0.4,0,0.6,0,0.8-0.1s0.2-0.2,0.3-0.3c0-0.1,0.1-0.2,0.1-0.3c0-0.1,0.1-0.1,0.3-0.1
		v-1.4c0.2,0,0.3,0,0.4,0.1c0.1,0.1,0.1,0.2,0.2,0.3l0.1,0.3c0.2,0,0.3,0,0.3-0.1c0-0.1,0.1-0.1,0.1-0.2s0-0.2,0-0.3
		c0-0.1,0.1-0.1,0.2-0.2h-0.6c0-0.2,0-0.3,0.1-0.4c0.1-0.1,0.2-0.2,0.3-0.3c0.1-0.1,0.2-0.2,0.3-0.3c0.1-0.1,0.1-0.3,0.1-0.4
		c0.3-0.2,0.6-0.4,0.8-0.7c0.2-0.3,0.4-0.7,0.5-1c0.1-0.4,0.2-0.7,0.3-1c0.1-0.3,0.2-0.6,0.4-0.8v-1.5c0.6-0.2,0.9-0.4,1.1-0.8
		c0.2-0.3,0.3-0.7,0.4-1c0.1-0.4,0.2-0.7,0.4-1.1c0.2-0.3,0.5-0.6,1-0.8c0-0.3,0.1-0.7,0.4-1c0.2-0.4,0.4-0.7,0.4-1.1
		c0.3-0.7,0.8-1.4,1.4-2.1c0.6-0.7,1.1-1.4,1.5-2.2c0.2-0.2,0.3-0.4,0.3-0.5c0-0.2,0-0.3,0-0.5c0-0.2-0.1-0.4-0.2-0.6
		c-0.1-0.2-0.1-0.4-0.1-0.6c0.4-0.3,0.6-0.7,0.8-1s0.6-0.7,1.3-1.1c0.2,0.2,0.4,0.3,0.7,0.3c0.3,0,0.5,0.1,0.8,0.1
		c0.3,0,0.5,0.1,0.8,0.3C911.2,54.6,911.4,54.9,911.6,55.3z"/>
	<path d="M936.4,55.3c0.2,0.7,0.2,1.3,0,1.8s-0.5,0.9-0.8,1.3c-0.3,0.4-0.6,0.8-0.9,1.2s-0.5,0.9-0.5,1.4c-1.5,1.8-2.9,3.7-4.3,5.7
		c-1.4,2-2.6,4-3.7,5.8c-0.3,0.7-0.8,1.5-1.4,2.2s-1.1,1.4-1.5,2.2c-0.4,0.5-0.7,1.1-0.9,1.6c-0.2,0.5-0.5,1.1-0.7,1.6
		c-0.2,0.5-0.5,1.1-0.8,1.6c-0.3,0.5-0.7,1.1-1.2,1.6c0,0.6-0.1,1.1-0.4,1.7c-0.2,0.5-0.5,1.1-0.8,1.6c-0.3,0.5-0.6,1.1-1,1.6
		c-0.3,0.5-0.6,1.1-0.7,1.7c-0.2,0-0.4,0-0.7,0.1c-0.3,0.1-0.5,0.1-0.8,0.2c-0.3,0.1-0.5,0.1-0.8,0.1c-0.3,0-0.5-0.1-0.6-0.3
		c-0.4,0-0.7-0.3-1-0.8c-0.2-0.5-0.2-1,0.2-1.4c0.4,0,0.8-0.2,1-0.5s0.4-0.6,0.4-1s0.1-0.7,0.3-1c0.2-0.3,0.5-0.6,0.8-0.8
		c0.3-0.3,0.5-0.5,0.8-0.8c0.2-0.3,0.3-0.6,0.3-1l1.5-1.4c0-0.6,0.1-1,0.2-1.4c0.2-0.4,0.3-0.7,0.5-1c0.2-0.3,0.3-0.6,0.5-0.9
		c0.1-0.3,0.2-0.6,0.2-1c0.4,0,0.6,0,0.8-0.1c0.1-0.1,0.2-0.2,0.3-0.3c0-0.1,0.1-0.2,0.1-0.3c0-0.1,0.1-0.1,0.3-0.1v-1.4
		c0.2,0,0.3,0,0.4,0.1c0.1,0.1,0.1,0.2,0.2,0.3l0.1,0.3c0.2,0,0.3,0,0.3-0.1c0-0.1,0.1-0.1,0.1-0.2s0-0.2,0-0.3
		c0-0.1,0.1-0.1,0.2-0.2h-0.6c0-0.2,0-0.3,0.1-0.4c0.1-0.1,0.2-0.2,0.3-0.3c0.1-0.1,0.2-0.2,0.3-0.3c0.1-0.1,0.1-0.3,0.1-0.4
		c0.3-0.2,0.6-0.4,0.8-0.7c0.2-0.3,0.4-0.7,0.5-1c0.1-0.4,0.2-0.7,0.3-1c0.1-0.3,0.2-0.6,0.4-0.8v-1.5c0.6-0.2,0.9-0.4,1.1-0.8
		s0.3-0.7,0.4-1c0.1-0.4,0.2-0.7,0.4-1.1c0.2-0.3,0.5-0.6,1-0.8c0-0.3,0.1-0.7,0.4-1c0.2-0.4,0.4-0.7,0.4-1.1
		c0.3-0.7,0.8-1.4,1.4-2.1c0.6-0.7,1.1-1.4,1.5-2.2c0.2-0.2,0.3-0.4,0.3-0.5c0-0.2,0-0.3,0-0.5c0-0.2-0.1-0.4-0.2-0.6
		c-0.1-0.2-0.1-0.4-0.1-0.6c0.4-0.3,0.6-0.7,0.8-1c0.2-0.4,0.6-0.7,1.3-1.1c0.2,0.2,0.4,0.3,0.7,0.3c0.3,0,0.5,0.1,0.8,0.1
		c0.3,0,0.5,0.1,0.8,0.3C936,54.6,936.2,54.9,936.4,55.3z"/>
	<path d="M961.2,55.3c0.2,0.7,0.2,1.3,0,1.8c-0.2,0.5-0.5,0.9-0.8,1.3c-0.3,0.4-0.6,0.8-0.9,1.2s-0.5,0.9-0.5,1.4
		c-1.5,1.8-2.9,3.7-4.3,5.7c-1.4,2-2.6,4-3.7,5.8c-0.3,0.7-0.8,1.5-1.4,2.2s-1.1,1.4-1.5,2.2c-0.4,0.5-0.7,1.1-0.9,1.6
		c-0.2,0.5-0.5,1.1-0.7,1.6c-0.2,0.5-0.5,1.1-0.8,1.6c-0.3,0.5-0.7,1.1-1.2,1.6c0,0.6-0.1,1.1-0.4,1.7c-0.2,0.5-0.5,1.1-0.8,1.6
		c-0.3,0.5-0.6,1.1-1,1.6c-0.3,0.5-0.6,1.1-0.7,1.7c-0.2,0-0.4,0-0.7,0.1s-0.5,0.1-0.8,0.2c-0.3,0.1-0.5,0.1-0.8,0.1
		c-0.3,0-0.5-0.1-0.6-0.3c-0.4,0-0.7-0.3-1-0.8c-0.2-0.5-0.2-1,0.2-1.4c0.4,0,0.8-0.2,1-0.5c0.3-0.3,0.4-0.6,0.4-1s0.1-0.7,0.3-1
		c0.2-0.3,0.5-0.6,0.8-0.8c0.3-0.3,0.5-0.5,0.8-0.8c0.2-0.3,0.3-0.6,0.3-1l1.5-1.4c0-0.6,0.1-1,0.2-1.4c0.2-0.4,0.3-0.7,0.5-1
		c0.2-0.3,0.3-0.6,0.5-0.9c0.1-0.3,0.2-0.6,0.2-1c0.4,0,0.6,0,0.8-0.1s0.2-0.2,0.3-0.3c0-0.1,0.1-0.2,0.1-0.3c0-0.1,0.1-0.1,0.3-0.1
		v-1.4c0.2,0,0.3,0,0.4,0.1c0.1,0.1,0.1,0.2,0.2,0.3l0.1,0.3c0.2,0,0.3,0,0.3-0.1c0-0.1,0.1-0.1,0.1-0.2s0-0.2,0-0.3
		c0-0.1,0.1-0.1,0.2-0.2h-0.6c0-0.2,0-0.3,0.1-0.4c0.1-0.1,0.2-0.2,0.3-0.3c0.1-0.1,0.2-0.2,0.3-0.3c0.1-0.1,0.1-0.3,0.1-0.4
		c0.3-0.2,0.6-0.4,0.8-0.7c0.2-0.3,0.4-0.7,0.5-1c0.1-0.4,0.2-0.7,0.3-1c0.1-0.3,0.2-0.6,0.4-0.8v-1.5c0.6-0.2,0.9-0.4,1.1-0.8
		s0.3-0.7,0.4-1c0.1-0.4,0.2-0.7,0.4-1.1c0.2-0.3,0.5-0.6,1-0.8c0-0.3,0.1-0.7,0.4-1c0.2-0.4,0.4-0.7,0.4-1.1
		c0.3-0.7,0.8-1.4,1.4-2.1c0.6-0.7,1.1-1.4,1.5-2.2c0.2-0.2,0.3-0.4,0.3-0.5c0-0.2,0-0.3,0-0.5c0-0.2-0.1-0.4-0.2-0.6
		c-0.1-0.2-0.1-0.4-0.1-0.6c0.4-0.3,0.6-0.7,0.8-1c0.2-0.4,0.6-0.7,1.3-1.1c0.2,0.2,0.4,0.3,0.7,0.3c0.3,0,0.5,0.1,0.8,0.1
		c0.3,0,0.5,0.1,0.8,0.3C960.8,54.6,961,54.9,961.2,55.3z"/>
	<path d="M986,55.3c0.2,0.7,0.2,1.3,0,1.8s-0.5,0.9-0.8,1.3c-0.3,0.4-0.6,0.8-0.9,1.2s-0.5,0.9-0.5,1.4c-1.5,1.8-2.9,3.7-4.3,5.7
		c-1.4,2-2.6,4-3.7,5.8c-0.3,0.7-0.8,1.5-1.4,2.2c-0.6,0.7-1.1,1.4-1.5,2.2c-0.4,0.5-0.7,1.1-0.9,1.6c-0.2,0.5-0.5,1.1-0.7,1.6
		c-0.2,0.5-0.5,1.1-0.8,1.6c-0.3,0.5-0.7,1.1-1.2,1.6c0,0.6-0.1,1.1-0.4,1.7c-0.2,0.5-0.5,1.1-0.8,1.6c-0.3,0.5-0.6,1.1-1,1.6
		c-0.3,0.5-0.6,1.1-0.7,1.7c-0.2,0-0.4,0-0.7,0.1s-0.5,0.1-0.8,0.2c-0.3,0.1-0.5,0.1-0.8,0.1c-0.3,0-0.5-0.1-0.6-0.3
		c-0.4,0-0.7-0.3-1-0.8c-0.2-0.5-0.2-1,0.2-1.4c0.4,0,0.8-0.2,1-0.5c0.3-0.3,0.4-0.6,0.4-1s0.1-0.7,0.3-1s0.5-0.6,0.8-0.8
		c0.3-0.3,0.5-0.5,0.8-0.8c0.2-0.3,0.3-0.6,0.3-1l1.5-1.4c0-0.6,0.1-1,0.2-1.4c0.2-0.4,0.3-0.7,0.5-1c0.2-0.3,0.3-0.6,0.5-0.9
		c0.1-0.3,0.2-0.6,0.2-1c0.4,0,0.6,0,0.8-0.1c0.1-0.1,0.2-0.2,0.3-0.3c0-0.1,0.1-0.2,0.1-0.3c0-0.1,0.1-0.1,0.3-0.1v-1.4
		c0.2,0,0.3,0,0.4,0.1c0.1,0.1,0.1,0.2,0.2,0.3l0.1,0.3c0.2,0,0.3,0,0.3-0.1c0-0.1,0.1-0.1,0.1-0.2s0-0.2,0-0.3
		c0-0.1,0.1-0.1,0.2-0.2h-0.6c0-0.2,0-0.3,0.1-0.4c0.1-0.1,0.2-0.2,0.3-0.3c0.1-0.1,0.2-0.2,0.3-0.3c0.1-0.1,0.1-0.3,0.1-0.4
		c0.3-0.2,0.6-0.4,0.8-0.7c0.2-0.3,0.4-0.7,0.5-1c0.1-0.4,0.2-0.7,0.3-1c0.1-0.3,0.2-0.6,0.4-0.8v-1.5c0.6-0.2,0.9-0.4,1.1-0.8
		c0.2-0.3,0.3-0.7,0.4-1c0.1-0.4,0.2-0.7,0.4-1.1c0.2-0.3,0.5-0.6,1-0.8c0-0.3,0.1-0.7,0.4-1c0.2-0.4,0.4-0.7,0.4-1.1
		c0.3-0.7,0.8-1.4,1.4-2.1c0.6-0.7,1.1-1.4,1.5-2.2c0.2-0.2,0.3-0.4,0.3-0.5c0-0.2,0-0.3,0-0.5c0-0.2-0.1-0.4-0.2-0.6
		c-0.1-0.2-0.1-0.4-0.1-0.6c0.4-0.3,0.6-0.7,0.8-1s0.6-0.7,1.3-1.1c0.2,0.2,0.4,0.3,0.7,0.3c0.3,0,0.5,0.1,0.8,0.1
		c0.3,0,0.5,0.1,0.8,0.3C985.6,54.6,985.8,54.9,986,55.3z"/>
	<path d="M1010.8,55.3c0.2,0.7,0.2,1.3,0,1.8s-0.5,0.9-0.8,1.3c-0.3,0.4-0.6,0.8-0.9,1.2c-0.3,0.4-0.5,0.9-0.5,1.4
		c-1.5,1.8-2.9,3.7-4.3,5.7c-1.4,2-2.6,4-3.7,5.8c-0.3,0.7-0.8,1.5-1.4,2.2s-1.1,1.4-1.5,2.2c-0.4,0.5-0.7,1.1-0.9,1.6
		c-0.2,0.5-0.5,1.1-0.7,1.6c-0.2,0.5-0.5,1.1-0.8,1.6c-0.3,0.5-0.7,1.1-1.2,1.6c0,0.6-0.1,1.1-0.4,1.7c-0.2,0.5-0.5,1.1-0.8,1.6
		c-0.3,0.5-0.6,1.1-1,1.6c-0.3,0.5-0.6,1.1-0.7,1.7c-0.2,0-0.4,0-0.7,0.1c-0.3,0.1-0.5,0.1-0.8,0.2c-0.3,0.1-0.5,0.1-0.8,0.1
		c-0.3,0-0.5-0.1-0.6-0.3c-0.4,0-0.7-0.3-1-0.8c-0.2-0.5-0.2-1,0.2-1.4c0.4,0,0.8-0.2,1-0.5s0.4-0.6,0.4-1s0.1-0.7,0.3-1
		c0.2-0.3,0.5-0.6,0.8-0.8c0.3-0.3,0.5-0.5,0.8-0.8c0.2-0.3,0.3-0.6,0.3-1l1.5-1.4c0-0.6,0.1-1,0.2-1.4c0.2-0.4,0.3-0.7,0.5-1
		c0.2-0.3,0.3-0.6,0.5-0.9c0.1-0.3,0.2-0.6,0.2-1c0.4,0,0.6,0,0.8-0.1s0.2-0.2,0.3-0.3c0-0.1,0.1-0.2,0.1-0.3c0-0.1,0.1-0.1,0.3-0.1
		v-1.4c0.2,0,0.3,0,0.4,0.1c0.1,0.1,0.1,0.2,0.2,0.3l0.1,0.3c0.2,0,0.3,0,0.3-0.1c0-0.1,0.1-0.1,0.1-0.2s0-0.2,0-0.3
		c0-0.1,0.1-0.1,0.2-0.2h-0.6c0-0.2,0-0.3,0.1-0.4c0.1-0.1,0.2-0.2,0.3-0.3c0.1-0.1,0.2-0.2,0.3-0.3c0.1-0.1,0.1-0.3,0.1-0.4
		c0.3-0.2,0.6-0.4,0.8-0.7c0.2-0.3,0.4-0.7,0.5-1c0.1-0.4,0.2-0.7,0.3-1c0.1-0.3,0.2-0.6,0.4-0.8v-1.5c0.6-0.2,0.9-0.4,1.1-0.8
		s0.3-0.7,0.4-1c0.1-0.4,0.2-0.7,0.4-1.1c0.2-0.3,0.5-0.6,1-0.8c0-0.3,0.1-0.7,0.4-1c0.2-0.4,0.4-0.7,0.4-1.1
		c0.3-0.7,0.8-1.4,1.4-2.1c0.6-0.7,1.1-1.4,1.5-2.2c0.2-0.2,0.3-0.4,0.3-0.5c0-0.2,0-0.3,0-0.5c0-0.2-0.1-0.4-0.2-0.6
		c-0.1-0.2-0.1-0.4-0.1-0.6c0.4-0.3,0.6-0.7,0.8-1c0.2-0.4,0.6-0.7,1.3-1.1c0.2,0.2,0.4,0.3,0.7,0.3c0.3,0,0.5,0.1,0.8,0.1
		c0.3,0,0.5,0.1,0.8,0.3C1010.4,54.6,1010.7,54.9,1010.8,55.3z"/>
	<path d="M1035.7,55.3c0.2,0.7,0.2,1.3,0,1.8s-0.5,0.9-0.8,1.3c-0.3,0.4-0.6,0.8-0.9,1.2c-0.3,0.4-0.5,0.9-0.5,1.4
		c-1.5,1.8-2.9,3.7-4.3,5.7c-1.4,2-2.6,4-3.7,5.8c-0.3,0.7-0.8,1.5-1.4,2.2s-1.1,1.4-1.5,2.2c-0.4,0.5-0.7,1.1-0.9,1.6
		c-0.2,0.5-0.5,1.1-0.7,1.6c-0.2,0.5-0.5,1.1-0.8,1.6c-0.3,0.5-0.7,1.1-1.2,1.6c0,0.6-0.1,1.1-0.4,1.7c-0.2,0.5-0.5,1.1-0.8,1.6
		c-0.3,0.5-0.6,1.1-1,1.6c-0.3,0.5-0.6,1.1-0.7,1.7c-0.2,0-0.4,0-0.7,0.1s-0.5,0.1-0.8,0.2c-0.3,0.1-0.5,0.1-0.8,0.1
		c-0.3,0-0.5-0.1-0.6-0.3c-0.4,0-0.7-0.3-1-0.8c-0.2-0.5-0.2-1,0.2-1.4c0.4,0,0.8-0.2,1-0.5c0.3-0.3,0.4-0.6,0.4-1s0.1-0.7,0.3-1
		c0.2-0.3,0.5-0.6,0.8-0.8c0.3-0.3,0.5-0.5,0.8-0.8c0.2-0.3,0.3-0.6,0.3-1l1.5-1.4c0-0.6,0.1-1,0.2-1.4c0.2-0.4,0.3-0.7,0.5-1
		c0.2-0.3,0.3-0.6,0.5-0.9c0.1-0.3,0.2-0.6,0.2-1c0.4,0,0.6,0,0.8-0.1s0.2-0.2,0.3-0.3c0-0.1,0.1-0.2,0.1-0.3c0-0.1,0.1-0.1,0.3-0.1
		v-1.4c0.2,0,0.3,0,0.4,0.1c0.1,0.1,0.1,0.2,0.2,0.3l0.1,0.3c0.2,0,0.3,0,0.3-0.1c0-0.1,0.1-0.1,0.1-0.2s0-0.2,0-0.3
		c0-0.1,0.1-0.1,0.2-0.2h-0.6c0-0.2,0-0.3,0.1-0.4c0.1-0.1,0.2-0.2,0.3-0.3c0.1-0.1,0.2-0.2,0.3-0.3c0.1-0.1,0.1-0.3,0.1-0.4
		c0.3-0.2,0.6-0.4,0.8-0.7c0.2-0.3,0.4-0.7,0.5-1c0.1-0.4,0.2-0.7,0.3-1c0.1-0.3,0.2-0.6,0.4-0.8v-1.5c0.6-0.2,0.9-0.4,1.1-0.8
		s0.3-0.7,0.4-1c0.1-0.4,0.2-0.7,0.4-1.1c0.2-0.3,0.5-0.6,1-0.8c0-0.3,0.1-0.7,0.4-1c0.2-0.4,0.4-0.7,0.4-1.1
		c0.3-0.7,0.8-1.4,1.4-2.1c0.6-0.7,1.1-1.4,1.5-2.2c0.2-0.2,0.3-0.4,0.3-0.5c0-0.2,0-0.3,0-0.5c0-0.2-0.1-0.4-0.2-0.6
		c-0.1-0.2-0.1-0.4-0.1-0.6c0.4-0.3,0.6-0.7,0.8-1c0.2-0.4,0.6-0.7,1.3-1.1c0.2,0.2,0.4,0.3,0.7,0.3c0.3,0,0.5,0.1,0.8,0.1
		c0.3,0,0.5,0.1,0.8,0.3C1035.3,54.6,1035.5,54.9,1035.7,55.3z"/>
	<path d="M1060.5,55.3c0.2,0.7,0.2,1.3,0,1.8s-0.5,0.9-0.8,1.3c-0.3,0.4-0.6,0.8-0.9,1.2c-0.3,0.4-0.5,0.9-0.5,1.4
		c-1.5,1.8-2.9,3.7-4.3,5.7c-1.4,2-2.6,4-3.7,5.8c-0.3,0.7-0.8,1.5-1.4,2.2s-1.1,1.4-1.5,2.2c-0.4,0.5-0.7,1.1-0.9,1.6
		c-0.2,0.5-0.5,1.1-0.7,1.6c-0.2,0.5-0.5,1.1-0.8,1.6c-0.3,0.5-0.7,1.1-1.2,1.6c0,0.6-0.1,1.1-0.4,1.7c-0.2,0.5-0.5,1.1-0.8,1.6
		c-0.3,0.5-0.6,1.1-1,1.6c-0.3,0.5-0.6,1.1-0.7,1.7c-0.2,0-0.4,0-0.7,0.1s-0.5,0.1-0.8,0.2c-0.3,0.1-0.5,0.1-0.8,0.1
		c-0.3,0-0.5-0.1-0.6-0.3c-0.4,0-0.7-0.3-1-0.8c-0.2-0.5-0.2-1,0.2-1.4c0.4,0,0.8-0.2,1-0.5c0.3-0.3,0.4-0.6,0.4-1s0.1-0.7,0.3-1
		s0.5-0.6,0.8-0.8c0.3-0.3,0.5-0.5,0.8-0.8c0.2-0.3,0.3-0.6,0.3-1l1.5-1.4c0-0.6,0.1-1,0.2-1.4c0.2-0.4,0.3-0.7,0.5-1
		c0.2-0.3,0.3-0.6,0.5-0.9c0.1-0.3,0.2-0.6,0.2-1c0.4,0,0.6,0,0.8-0.1s0.2-0.2,0.3-0.3c0-0.1,0.1-0.2,0.1-0.3c0-0.1,0.1-0.1,0.3-0.1
		v-1.4c0.2,0,0.3,0,0.4,0.1c0.1,0.1,0.1,0.2,0.2,0.3l0.1,0.3c0.2,0,0.3,0,0.3-0.1c0-0.1,0.1-0.1,0.1-0.2s0-0.2,0-0.3
		c0-0.1,0.1-0.1,0.2-0.2h-0.6c0-0.2,0-0.3,0.1-0.4c0.1-0.1,0.2-0.2,0.3-0.3c0.1-0.1,0.2-0.2,0.3-0.3c0.1-0.1,0.1-0.3,0.1-0.4
		c0.3-0.2,0.6-0.4,0.8-0.7c0.2-0.3,0.4-0.7,0.5-1c0.1-0.4,0.2-0.7,0.3-1c0.1-0.3,0.2-0.6,0.4-0.8v-1.5c0.6-0.2,0.9-0.4,1.1-0.8
		c0.2-0.3,0.3-0.7,0.4-1c0.1-0.4,0.2-0.7,0.4-1.1c0.2-0.3,0.5-0.6,1-0.8c0-0.3,0.1-0.7,0.4-1c0.2-0.4,0.4-0.7,0.4-1.1
		c0.3-0.7,0.8-1.4,1.4-2.1c0.6-0.7,1.1-1.4,1.5-2.2c0.2-0.2,0.3-0.4,0.3-0.5c0-0.2,0-0.3,0-0.5c0-0.2-0.1-0.4-0.2-0.6
		c-0.1-0.2-0.1-0.4-0.1-0.6c0.4-0.3,0.6-0.7,0.8-1c0.2-0.4,0.6-0.7,1.3-1.1c0.2,0.2,0.4,0.3,0.7,0.3c0.3,0,0.5,0.1,0.8,0.1
		c0.3,0,0.5,0.1,0.8,0.3C1060.1,54.6,1060.3,54.9,1060.5,55.3z"/>
</g>
</svg>
