<svg id="Layer_1" data-name="Layer 1" xmlns="http://www.w3.org/2000/svg" viewBox="0 0 612 612"><defs><style>.cls-1{fill:#fff200;}.cls-2,.cls-3{fill:#0a0200;}.cls-3{font-size:567.15px;font-family:CormorantSC-Regular, Cormorant SC;}</style></defs><title>Full S Logo</title><circle class="cls-1" cx="316.48" cy="308.23" r="268.17" transform="translate(-29.15 33.08) rotate(-5.72)"/><path class="cls-2" d="M171.86,128.4c-.85.37-.29,1,2.14.63l1.63-1.25Z"/><path class="cls-2" d="M188.47,129c2.83-.73,6.09-1.89,4.15-2.78-2.78,1.27-3.5.83-6.47,2.35-2.43.34-4.29,0-3.91-.43-.84.36-3.82.09-5.07.89a28.43,28.43,0,0,0,11.43-.78C189.51,128.48,188.66,128.82,188.47,129Z"/><path class="cls-2" d="M425.86,148.68l-1.47-.47A11.54,11.54,0,0,0,425.86,148.68Z"/><path class="cls-2" d="M555.69,213.65c-.79-.78-1.2-1-1.31-1C555.16,213.34,555.8,213.9,555.69,213.65Z"/><path class="cls-2" d="M570.29,233.71l-.76-1.24A4,4,0,0,0,570.29,233.71Z"/><path class="cls-2" d="M425.86,148.68l3.77,1.23C430,149.62,427.72,149.2,425.86,148.68Z"/><path class="cls-2" d="M221.33,124.58a14.84,14.84,0,0,0-2.15.35l2-.17A.81.81,0,0,1,221.33,124.58Z"/><path class="cls-2" d="M361.63,137.58l-1.19-.17a6.78,6.78,0,0,0-1,.3Z"/><path class="cls-2" d="M311.93,132.14c1.12.14,1.59-.76,2.06-1.13a5.53,5.53,0,0,1-2.51.42C311.45,131.61,311.58,131.84,311.93,132.14Z"/><path class="cls-2" d="M232.69,128.08l-1.41.17Z"/><path class="cls-2" d="M396.89,143.7a.93.93,0,0,0,.38.42C397.3,144,397.15,143.85,396.89,143.7Z"/><path class="cls-2" d="M179.9,71.81c0,.08.05.1.06.16C180.21,71.78,180.27,71.69,179.9,71.81Z"/><path class="cls-2" d="M238.19,64.67l-.8.12a1.33,1.33,0,0,0-.14.54Z"/><path class="cls-2" d="M587,275.12l0-.2C586.62,273.8,586.8,274.44,587,275.12Z"/><path class="cls-2" d="M320.17,541.55c4.86-.1-7.43,2.56-.18,2.09C319.27,543.4,326.12,540.94,320.17,541.55Z"/><path class="cls-2" d="M222.64,124.67l2.06-.07A19.71,19.71,0,0,0,222.64,124.67Z"/><path class="cls-2" d="M320,543.64h0l.75-.06Z"/><path class="cls-2" d="M575.91,376.62a3.33,3.33,0,0,0,.83-.8C576.64,375.82,576.43,376,575.91,376.62Z"/><path class="cls-2" d="M592.53,301.09l-.11,1.94C592.5,302.26,592.52,301.63,592.53,301.09Z"/><path class="cls-2" d="M556.69,412.28a12.88,12.88,0,0,0-1.72,2.27,2.88,2.88,0,0,0,.35-.29A6.48,6.48,0,0,1,556.69,412.28Z"/><path class="cls-2" d="M528.41,443.9c.21-.1.47-.26.7-.4l1-1Z"/><path class="cls-2" d="M75.32,151a7.37,7.37,0,0,1,1.89-1.12C76.26,150,79.91,144.67,75.32,151Z"/><path class="cls-2" d="M221.37,125.11a2,2,0,0,1,1.27-.44l-1.43.09C221.09,124.9,221.07,125,221.37,125.11Z"/><path class="cls-2" d="M561.63,418.14s-1,1.43-2.16,2.74l-2.24,2.67A63.29,63.29,0,0,0,561.63,418.14Z"/><path class="cls-2" d="M66.93,450.08l-.83-1.37A5.94,5.94,0,0,0,66.93,450.08Z"/><path class="cls-2" d="M543.74,439.2a23.85,23.85,0,0,0-3.21,2.34,3.83,3.83,0,0,0-.39.75Z"/><path class="cls-2" d="M77.22,149.82h0Z"/><path class="cls-2" d="M106.41,114.5c-5,4.39-1.53,3-2.1,4.42-5.5,5.65-3.25,1.88-5.64,3.3-3.23,3.8-5.18,7.17-7.64,9.89-.33.07-.85.56-.49-.24a70.51,70.51,0,0,1-6.41,8.29,43.9,43.9,0,0,0-6.19,9.21,2.12,2.12,0,0,1-.72.45c1.09-.42,1.68-.16,1.92.26-1.74,2.37-2.61,4.82-3.93,5.24a5.62,5.62,0,0,0,1.21-2.56l-1.55,2.68c-2.56,1.61,2.15-3.63,1.48-4.11-.82,1.27-1.68,2.59-2.46,4l-2.19,4.2a59,59,0,0,1-4.25,7.12c-1.5.23,5.48-9.32,1.31-4.65L73,156.16c-4.44,3.63,2.46-3.62-1.85-.43-5.32,7.9-5.48,9.12-10.14,17.37-.45,2.18,1.16-.17.71,2-2.76,6.1-4.34,8.23-5.84,10s-2.79,3.11-4.1,7.93c-.28,2.65.7,4.07-2.37,10.38l-.44-2.69c-3.08,8.65,0,5.5-3.61,14.38,0-1.76,1.68-7,1.13-5.71-2.77,5.65-.63,4.4-1.86,9l-1.36.66c-2.36,9.47-3.71,20.13-5,30.76-.25-.63-.32-2.51-1-.07-1.4,13.49-3.22,28.73-4.13,41.8l.9,5c0,1.16-.46,2.15-.64.89-.4,5.08.62.27,1,2.71,0,2.88-.54,3.82-.87,2,.76,9,2.55,25.42,2.34,34.9l-.45-1.81c.32,7.37,2.83,8,2.66,14.91l-.33-1.27c1.46,15.92,5.86,33,7.59,45.16,1,.94,1.88,4.79,2.8,8.48s2.19,7.11,3.28,7.29c1.86,9,.84,6.59,4.77,18.93,1.32,3.2,3.22,4.23,5.13,8l-.9.53L62,439.62A28.38,28.38,0,0,0,63.72,442l.3,3.29,2.07,3.45c-.68-1.45-1.14-3.23-.76-3.15,3.09,5.41,6.73,13.67,6.37,14.09l1.3,1.93c.79,1.15,1.77,2.72,3,4.17l4.55,5.88c-.53,0-2-2-3.38-3.48,5.34,6-.08,1.82,4.82,7.27-.36-.94.79.08,1.08.06a58.94,58.94,0,0,0,4.58,6.65c1,1.3,2.06,2.66,3.14,4l3.39,3.52-1.32-.4c1.83,2.08,3.74,4.19,5.72,6.32s4.27,4,6.47,6.08a180.51,180.51,0,0,0,14.13,11.76c-3.37-2.93-1.77-3.28,1.19-1.21l.5,1.73c2.28.85-2.78-2.58,1.56-.39,3.61,2.84,1.77,2.86-.58,1.55l2.37,1.52c1.17.79,2.41,1.46,2.41,1.46.09.45-1.11-.14-1.63,0,2.33.65,7.46,6.43,11,7l.11.44c10.69,6.36,16,8.33,25.24,12.37.55-.79,4.11.89,7.15,1.3,3.39,1.43,7,3,10.75,4.49a111.77,111.77,0,0,0,12.17,3.93c6.16,1.12,2-.31,4.81-.15.21,1.05,8.91,2.77,4.27,2.42l6.7,1.36,5.59.85c3.71.6,7.81.94,14.51,1.47-1.41-.52-3-.91-2.13-1.08,2.42.24,5.46.93,5.07,1.34l-.65,0c7.55.16,16.16,1.33,24.49,2,4.16.4,8.23.47,12,.54a60,60,0,0,0,10.24-.94l-.67.12,6.17-.94,4.23-.66,1.91-.36c5.7-.48-3.34,1,.92,1.08C302,551.77,310,552.09,320.62,549c4.44.44,11.88-1.17,19.54-3.28s15.6-4.6,21.35-5.47l-.81-.38c2.69-1.39,3.55-.71,5.68-1.24-.44-.35-3.24.46-1.57-.41,23.82-8.14,49.31-16.22,73.08-26.53,8.67-3.81,3.54-5,14.87-9l-2.54,2.49c16.52-9.55,34.53-18.4,49.36-30-.78.83-.62,1.13-2.14,2.15,3.81-1.45,12-8.48,11.63-9,2.4-1.67.91.09,2.55-.73,3.42-2.11,7.24-7,9.34-7.71.35-.14-.67.95-1.22,1.43,1.76-1.94,9.28-7.78,6.78-6.86a70.9,70.9,0,0,0,7.47-6.78c2.31-2.21,4.37-4.41,6.52-6.24.9-1.69,3.15-3.7,5-5.66s3.46-3.75,3.3-4.67c.37.67,2.76-1.36,5.12-4.24a67.17,67.17,0,0,0,6-8.4c-.51,1.5,2.65-2.88,2.14-1.07,3-4.19,5.49-8.17,4.32-7.87a45,45,0,0,0,7.39-11.48c1.76-3.86,3.38-7.16,5.61-9a214.11,214.11,0,0,0,13.4-40.66c.67.42-.27,4.08-1.16,7.61s-2.14,6.81-1.27,6.79c3.51-12.56,3.91-20.13,6.22-32.71.64-3.27.4,2,.51,3.12,1.47-12.87,2.55-25,1.05-36.54a8.69,8.69,0,0,1,.62,2.42c-.24-2.27-.23-5.31-.89-5l.37,2.2c-.73,3.65-2.74-8.79-3.49-9.06,2.58,3.52-1.35-11.21,2.09-5.62-.37-1.46-1-3.26-1.4-2.83-.24-2.21-.1-3,.8-.84-2.18-7.9-2.3-4.88-4.06-12,.34-.07.82,1.34,1.38,2-1.49-3.48-3.57-6.73-5.26-12.72.32.28.32-.5.92,1.26A56.89,56.89,0,0,0,586,249.7a67.43,67.43,0,0,0-3.47-6.13c-1.29-2-2.58-3.94-3.86-6.1l-1.94-3.36c-.74-1.11-1.5-2.28-2.26-3.53,3.15,2-1.85-3.54-1.19-4.78l-1.95-2.5L569.18,221l1.13,2.33c-1.74-2.14-3.57-4-5.28-5.82-.86-.91-1.69-1.8-2.48-2.71s-1.66-1.72-2.4-2.64c0,0,3.25,2.56,3.18,2.63a11.28,11.28,0,0,0-1.11-1.17l-2.53-2.49L556,207.48l3.72,4.51c-4.32-3.53-.73,1.52-5.53-3.93.54.5-.35-.54-1.7-1.88a33.21,33.21,0,0,1-3.91-4.27h0a64.73,64.73,0,0,1-7.62-5.7c-.59-1,1.53-.57,1.15-1.2-1.39-.41-4-2.3-6.64-4.23s-5.63-3.59-7.32-4.08c1.08.41,1.49-.11,1.26-.42l-2.33-.54c-2-1.63-2.19-2-1.57-2.16-6.44-4.08,1.26,2.55-6.15-2.62a14.47,14.47,0,0,1,1.76.66,92.6,92.6,0,0,0-11.54-6.39l-11.33-5.57c-1.7-2.17,6.75,2.76,4.65.63-11-5-23.37-8.67-34.21-12.73l2,.87c-2.06,1.06-7.88-3.62-13.73-4.61,1.4.31,2.09-.36,1.66-.29-7.5-2.67-15.7-4.25-27.46-6.65l1.55-.07c-4.44-1.52-11.92-3.09-16.81-4.33-1.56.14-4.37-.52-2.79.49-14.7-5.83-29.33-4.29-42.57-8.6,1.63.22,3.95.21,2.65,0L361.52,133c.81.9,1.46.69,3.81,1.65a32.51,32.51,0,0,1-7.73-.32c5.28.28.13-1.28-2.08-2,.35.28-.46.44-.3.71-5.9-2.15-1.22,1.41-9.4-.57l.49-.35c-3.13-.21-6.06,0-9.4-.47-1.29-1,3.36-.06,3.66-.76-4.73-.46-9.49.68-13.66-.67,2,0,4.91.28,6.94.25a31.84,31.84,0,0,0-8.55-1.86l.34.05-8-1.19,2,.47c-6.11,1.76-12.09-.6-20.18.4,7.85-.91,1.34-.75,2-1.72-2-.42-5.1-1-4.2-1.18-3.83.57-6.28-1-11.68-.06-.22-.34-4-.23-3.16-1-4.93,0,1.14.63.71,1-7.61.8-17.79-2-28.74-.55-9.41.51-11.14,1.77-19.84,2.35C231.63,126.73,237,126,237,126a57.69,57.69,0,0,0-12.79.28c.9-.31,0-.52-1.42-.85-3.59.21-2.36,1.21-7.11,1a14.15,14.15,0,0,1,3.54-1.46c-4.23.47-8.38,1.3-12.74,1.79-1.19-.51,2.6-1,4.13-1.43-4.92.44-12.73,1.19-14.19,2.22l3.17.11c-1.79.16-1-.71.34-1,4.17-1,6.1,0,6.35.28l-3.1.36c3.3,1.79,12.49-1,18.78-1l-2.57,1.47,6.39-1.33c1.38.32,2.33,1.08-.75,1.37,4.51.56,4-.61,7.84.05.43.11.24.18-.16.25l4.38-.47c-.86.3.74,1-2,.8,7.87.75,12.69-1.18,15.65-.09l-.66.08c10.93-.35,1.06-1,9.28-2.12l5.47,2.59,1.1-1c1.13.07,3.35.22,2.93.61,4.21-.57-.7-.47,1.75-1.05,5.4,1,15,.08,16.13,1.81,2-.68-5.16-.86.66-1.11,1.56,1.86,6.71,0,11.61,1.15-1.58.8-6.23,0-1.33,1.14,3.08-1.31,9.6,1,13.78,1,.29-1.19,9.09.28,16.11.54-.49.41,13.06,2,19.46,3.33l-.22.18c1.4-1,8.06,0,12.94.45-.29.71-1.2.84-3.87.82l4.55.65a19.17,19.17,0,0,1,5.55.07l-1.28.74c6.06.8,12.35.82,20,2.74.59-.77-5.79-3.39,2.55-2.57.23.51.39,1.34-1.8,1.16a15.94,15.94,0,0,1,4,.51l-3.42.18c3.48.94,2-.31,4.78.28-.17.64,2,.86,1.5,1.3a21.84,21.84,0,0,0-3.54-.68c3.16.72,6.93,1.83,8.11,2.56-.21-.42.17-.87,2.51-.52,6,1.09,1.91,1.16,5.34,2.21,1.54-.15,5.27,1.12,5.57.17a5,5,0,0,1,2.6,1.29c3.21.14,14.45,3.12,11.21,1.28l-.78-.25.51.07h0c10.38,1.31,20.79,5.8,30.76,8.32l-.11.31c6,1.53,13.09,3.94,17.43,4.86,1.71.62,3.83,2,3,2.13a46.48,46.48,0,0,1,11.18,4.33c-4.58-1.24,1.31,1.09-4.63-1.43,5.52,2.59,6.63,3.45,12.9,5.41-2.37-.15,3.71,2.86,6.43,3.85l-3.6-2.33a63.85,63.85,0,0,1,8,4l-1.89.28a58,58,0,0,0,7.74,4.29c2.48,1.31,4.93,2.46,7.29,3.57a37.17,37.17,0,0,1,12.19,8.25c3.17,1.18-5.27-4.18-2.32-3.31,4.78,3.18,8.36,8.26,9.79,9.28a30.12,30.12,0,0,0,6.15,4.37,23.93,23.93,0,0,1,6.31,4.68c-.57-.9-.38-2.59,4.14,1.59,3.91,4.24,3.68,6.19,1,3.84-1-1-1.34-1.51-1.2-1.56-1.38-1.22-3.17-2.82-1.91-.9l.79.25c1.7,2.28,7.09,7.87,5.31,7,3,3,1.69,1-.24-1.57,4.16,6,7.45,8.56,11.2,15-.49-1.1-.73-2.27-.06-1.29,2.88,4.66,3.78,5.51,4.34,6.07s1.07.62,3,3.84c1.55,4-2-.62,2.1,5.66,1.51,4.33-.44,1.28-1.64-.11,3.59,5.75,4.9,11.59,5.84,15.29l-1.44-3.22c.86,1.92,1.42,3.56,2,5.22l.09-2.17c.55,2,1.12,3.68.79,3.74,1.2,1.88.72-2,2.8,1.88.32,2.82,2.51,8.2,1.73,9.37-1.8-8.61-.8,1.17-2.76-6a34.86,34.86,0,0,1,1.26,5.09c0,.33-.28-.24-.48-.77.62,4.12.94,5,1.53,5.93s1.26,1.84,2,6.15c-.8-1-.7,2.12-.55,3.52-.34-3.47.85-1.8,1.57,1.38,0,5.63.95,6,1,9,.07,0,0-3.37,0-3.37.76,1.1.76,3.93,1,7.87-.46.34-.35-3.57-.54-2.16a21.69,21.69,0,0,1,0,7.33,38.42,38.42,0,0,0-.83,8.58c-.57,2.77-1.13.18-1.55,2.61a26.67,26.67,0,0,1-1,7,52.8,52.8,0,0,0-1.31,7.22c1.19-1.86,1.07-2.27.85,2.82l.88-5.82.49-5.86.08,3.82c.09,1.92,0,3.83,0,3.83.71-3.5.55-7.51,1-9.6.18,3.65,0,3.27.91,1.66-.94,2.35-1,4.78-1.23,7.29a33.69,33.69,0,0,1-1.47,7.83l-1.9-.59A95.58,95.58,0,0,0,585,353.23a76,76,0,0,1-4,13.34,16.91,16.91,0,0,0,.78-1.59l.72-1.62c.38,1.7-2.3,6.39-3.33,9.81-.49-.56-1.54,1.41-2.48,2.65.54,0-3.47,7.21-2.72,8.7l-1.44,2L571,388.5a38.91,38.91,0,0,0-3.91,8.65,36.81,36.81,0,0,1-4.18,8.28c.77-2.58-1.68.45.93-4.66-1.52,2.4-3,4.49-2.63,4.79-1.26,1.14-3.87,6.94-5.9,8.71a9,9,0,0,1-2.23,4.35c-.33.19-.25-.21-.25-.21.25.21-2.82,4.21-.48,2.47a111.7,111.7,0,0,0-11.57,12c-4.17,4.35-8.17,8.71-11.66,10.61-4.34,4.5-10,9.53-14.33,13.19.16-.38-.19-.27.69-.88-6.56,4.33-2.54,4.56-10.14,9.39-4.33,1.83,3.49-3.26.95-1.91-2.31-1-8.47,6.67-14.25,8.89l1.13-.92c-4.16,2-8.88,6.85-15.37,10.65,0,0,.22-.35-.13-.3a78.64,78.64,0,0,1-8.25,6.22c-3.36,2.15-7,4.35-10.12,6.21,1.59-1.82,2.68-2,1.07-2.07-2.79,1.65,1.52.81-4.14,4-2.09.55-6.44,2.33-7.4,1.78l5.4-2.83c-3.31.38-7,3.64-10,4.82l.14-.65c-8.32,4.24-7.93,5.41-17.14,9.49l1.12-.05c-4.54,3.38-4.53,1.16-9.19,4.23l-2-.57c-3.23,1.68-11.28,6-17.29,8.58,3.1-2.24,10-5.51,14.12-7.87-3.32,1.39-11.28,4.68-12.81,5.94a22.54,22.54,0,0,1,4.3-1.95,70,70,0,0,1-15.72,7.63c.16-1.41-4.3,0-9.49,1.75s-11.18,3.66-14,3.46c-11.79,4.71-24.14,6.8-38.42,10.14,5.53.81-4.18,1-2.87,2.79-3.34.85-4.64,1-5,1l-5.22.4-5.23.28c-2.52-.18,3.13-1,2.74-1.39-7.4,1.09-3.24-.33-8.19-.05,1.12.58-2.41,1.4-6.66,1.71l6.07.1c-10.22,2.55-9.16-.43-19.48,1.73l1.62-.46,1.62-.5c-2.65.51-7.61.86-12.54,1.38s-9.86,1-12.49,1.76c-1-.22-2.23-.76.14-.95-12.82.09-28.76,1-38.6-1.39l1-.37c-2.39-.19-4.28.39-7.18-.55.19-.18,1-.33-.06-.55a49.08,49.08,0,0,1-9.51-1.1l2.78-.06c-6.08-1.53-10.85-2.16-15.37-2.92A101.23,101.23,0,0,1,181.54,538c.23-.67-2-1.91-4.73-3.28s-6.18-2.76-8.38-3.84l.24-.13c-13.31-5.67-22.95-9.13-34.65-16-3.08-2.94-8.81-7.09-14.66-12.07l-4.46-3.79-4.21-4.1a70.42,70.42,0,0,1-7.46-8c1.18,1.7-1.06.54-2.78-1.13a37.68,37.68,0,0,0-3.87-3.91c-1.23-1.22-2-2.27-1.3-2.49l.68.9c-.4-2.76-4.82-7.46-7.69-11.62l-1.91.34A80.62,80.62,0,0,0,80.92,459c-2-3.48-4.23-7-6.33-10.34-1.93-3.47-3.79-6.78-5.25-9.68a24.76,24.76,0,0,1-2.48-7.41c-1.69-2.75-3.38-6.36-4.84-9.21l.94-.19c-3-8.36-4.32-12.58-7.78-23l.62,1,.66,1c-1.64-5.95-4.71-6.8-6.31-12.35l1-2c-2.49-10.59-3.49-21.54-6.14-32,.23.15.68.4,1,2.13-.86-5-1.44-19.7-3.16-17.68,1.13-.24-.82-11.18-1.75-17l1,.86c-1.43-4.89-1.72-5-2.31-12,.06-1.65.7-1.46.53.73.29-5.49-1-4.26-.57-10.93l.61,2.48c0-5.65-.24-5.19-.93-8.32-.33-3.57.49-10.72,1.41-11.51-.49-.78-1.06-3.91-.58-7.22.35-.43.47.79.53,1.41,1.19-9.36,0-14.09,1.64-20.44.32-.1.53-.5.69-1-1,7.41-1.46,13.42-1.48,12.85.86.07,1.5-5.92,2.29-1-.26-4.85-.74-13.25.58-19a3.24,3.24,0,0,1,.41-.72V249a19.28,19.28,0,0,0,.43-3.69c.44-1.82.78-3,1.1-4.74.77-.56,1.69-6.68,2.35-9.6-1,0,.08-3.75-1.53-.34.16-.45,0,.58-.38,2.55-.07.45-.16,1-.17,1.27l0-.22c-.4,1.93-.88,4.46-1.36,7.35a19.38,19.38,0,0,1,1.21-8.1c-.27-1.64-.55-3.45-.59-4.44,2.17-3.76,4.93-11.21,6-12,2-9,6.36-20.52,7.33-26.39.85-2.48,1.68-2.54,2.33-3.31a38.68,38.68,0,0,0-1.29,3.91c.88-2.45,2.29-6,3.68-9.11s2.61-5.66,2.37-6.51c3.61-5.53-.75,3.8,3.35-4.25l-.25,1.26c2.48-3.68,4.91-6.88,6.76-10.25,1-1.65,1.81-3.35,2.77-4.94l2.91-4.78A69.5,69.5,0,0,1,97.78,133.3a7.5,7.5,0,0,1-1.95,1.37c4.2-3.78,8.12-7.94,12.35-11.82s8.41-7.92,13.06-11.38L128,106.1c2.29-1.75,4.75-3.25,7.13-4.84s4.76-3.16,7.25-4.48,5-2.56,7.53-3.74c5.6-2.88,5.93-3.7,9.12-6l1.68.31,5.44-3.94c4.12-2.26,8.18-3.13,12.39-4.29s8.83-2,14.19-4.62l-1.65-.18c1-.3,2.33-.73,3.71-1.19l4.22-1.09c2.67-.67,4.75-1.12,4.49-.65a4.87,4.87,0,0,1,2.89-1.07l.24.49c-.06-.22,10.09-2.81,10.09-2.81,4-.49,3.79.09,4,.55.11.23.33.43,1.25.46s2.53-.09,5.45-.3c4.29-.59,12.26-2.67,10.62-2.87-1.77.14-4.54.08-4.71-.43l4-.64c.62-1.62,3.75-3.5-6.43-3.68L224,62.71l-1.18-.26-1.17-.19c0-.13,5.9-.68,5.9-.68a14.09,14.09,0,0,0-7.79,1.31,6.49,6.49,0,0,0-3-.33l-6.57,2.62c-.95-.46,2.84-1.71-1.82-1.26-3,1.35,3.3.65-1.82,2.29-3.41.11-2.6-.69-6.3.84-.64-.26.11-.71,1.6-1.25-3.3,1.35-9.06,2.32-10.51,3.82-3.6.24-11.22,3.86-11.38,2.36a71.49,71.49,0,0,1-8.35,4.59c2.41-1.92-.41-.82-3.74.48s-7,3.12-6.75,1.87c-1.65,1.68-5.12,3.57-9,5.56A122.7,122.7,0,0,0,141,91.35a5.41,5.41,0,0,1,1.55-1.24,41.2,41.2,0,0,1-4.37,2.05c-1.11.52-2.06.92-3.31,1.58.24,1.42-5.24,5.43-7.79,8.11-2.51,1-2.08.29-1.3-.81s2.06-2.28,1-2.31c.72.58-6.85,6.41-4.87,6-3.71,1.86-3,1.84-5.36,2.27.48,1.75-2.92,2.46-4.76,5.55-5,3.29-2.15-.15-6.7,4.53C102.44,118.78,106.41,114.5,106.41,114.5ZM38.5,249.81h0l.43-3.14Zm-1.55,12.78.64-5.55c.38-.41.64.12.47,1.4C37.92,257.72,37.42,260.71,36.94,262.59Zm10.39-25.68c-.27,2-.54,2.6-.78,2.83l.55-3.44-.06-.25A1.92,1.92,0,0,1,47.33,236.91Z"/><path class="cls-2" d="M46.85,233.16c0-.29,0-.45.1-.82l-.45,1.12.14.75Z"/><path class="cls-2" d="M424.13,148.13l.26.08a2.66,2.66,0,0,1-.52-.26A2.13,2.13,0,0,1,424.13,148.13Z"/><polygon class="cls-2" points="60.1 437.31 60.3 437.2 59.65 436.25 60.1 437.31"/><path class="cls-2" d="M355.51,132.38a2.57,2.57,0,0,0-.89-.36A3.28,3.28,0,0,0,355.51,132.38Z"/><path class="cls-2" d="M325.29,128.65l-4.26-.72C322.87,128.29,324.21,128.5,325.29,128.65Z"/><path class="cls-2" d="M302,126.29a1.12,1.12,0,0,0-.48.37h0Z"/><path class="cls-2" d="M598.76,299.19l.09.92C599,302.27,599,300.8,598.76,299.19Z"/><path class="cls-2" d="M548.6,201.93c1,.66,2,1.3,3,2C550.15,202.6,549,201.56,548.6,201.93Z"/><path class="cls-2" d="M562.09,417.52v0l-.46.63Z"/><path class="cls-2" d="M555.35,207.55a17.59,17.59,0,0,0-3.77-3.58Z"/><path class="cls-2" d="M200.45,125.47l-1.13,0c0,.06,0,.12-.12.16Z"/><path class="cls-2" d="M199.19,125.67l-1.24.19A3.65,3.65,0,0,0,199.19,125.67Z"/><path class="cls-2" d="M195.33,126.28l2.62-.41A7.85,7.85,0,0,0,195.33,126.28Z"/><path class="cls-2" d="M231.47,124.65l.35-.35A.5.5,0,0,0,231.47,124.65Z"/><path class="cls-2" d="M240.9,124.43c-2.25,0-5.65-.71-8.79-.41l-.29.28C233.29,123.71,238.77,125,240.9,124.43Z"/><path class="cls-2" d="M280.07,129.21l-7.85-.51c1.36.41,3.15.95-.42.93C281.66,131,269.79,128.75,280.07,129.21Z"/><path class="cls-2" d="M304.36,131.12c-4.22-.12,0,.53-.23.72C306.83,131.7,307.48,131.66,304.36,131.12Z"/><path class="cls-2" d="M476.45,164.49l-.7.66C478.83,166.13,475.9,164.85,476.45,164.49Z"/><polygon class="cls-2" points="509.05 174.2 506.44 172.25 504.74 172.25 509.05 174.2"/><polygon class="cls-2" points="523.2 189.37 521.97 188.7 526.57 191.41 523.2 189.37"/><path class="cls-2" d="M533.29,438.07l1.43.05C536.11,436.43,535.58,435.28,533.29,438.07Z"/><path class="cls-2" d="M428,507.59a16,16,0,0,0-6.73,2.52C424,509,426.76,508.29,428,507.59Z"/><polygon class="cls-2" points="83.88 462.88 85.59 464.76 82.67 461 83.88 462.88"/><text class="cls-3" transform="translate(205.31 435.6)">s</text></svg>