<svg id="Layer_1" data-name="Layer 1" xmlns="http://www.w3.org/2000/svg" viewBox="0 0 360 360"><defs><style>.cls-1{fill:#fff;}.cls-2{font-size:31.49px;fill:#231f20;font-family:TravelingTypewriter, Traveling _Typewriter;}.cls-3{fill:#0a0300;}</style></defs><title>Menu Button With Text</title><circle class="cls-1" cx="176.63" cy="179.27" r="51.63"/><text class="cls-2" transform="translate(137.71 188.14)">menu</text><path class="cls-3" d="M150.56,141.64c-.17.08-.06.23.44.15l.33-.29Z"/><path class="cls-3" d="M154,141.83c.58-.16,1.24-.43.84-.64-.57.29-.71.19-1.32.54-.5.07-.88,0-.8-.11-.17.08-.78,0-1,.2a5.08,5.08,0,0,0,2.34-.15C154.17,141.7,154,141.78,154,141.83Z"/><path class="cls-3" d="M202.45,145.9l-.3-.1Z"/><path class="cls-3" d="M228.94,159.17c-.16-.16-.25-.21-.27-.2C228.83,159.11,229,159.22,228.94,159.17Z"/><path class="cls-3" d="M231.89,163.28l-.15-.25A.72.72,0,0,0,231.89,163.28Z"/><path class="cls-3" d="M202.45,145.9l.77.26C203.29,146.09,202.83,146,202.45,145.9Z"/><path class="cls-3" d="M160.67,140.84a2.67,2.67,0,0,0-.44.08l.41,0Z"/><path class="cls-3" d="M189.33,143.66l-.24,0-.22.07Z"/><path class="cls-3" d="M179.18,142.55c.23,0,.33-.18.42-.27a1,1,0,0,1-.51.11S179.11,142.48,179.18,142.55Z"/><path class="cls-3" d="M163,141.67l-.29,0Z"/><path class="cls-3" d="M196.53,144.91a.2.2,0,0,0,.08.09S196.58,144.95,196.53,144.91Z"/><path class="cls-3" d="M152.16,130s0,0,0,0S152.24,130,152.16,130Z"/><path class="cls-3" d="M164.12,128.69l-.16,0a.34.34,0,0,0,0,.13Z"/><path class="cls-3" d="M235.26,171.72v0C235.17,171.45,235.21,171.58,235.26,171.72Z"/><path class="cls-3" d="M180.84,226c1,0-1.51.55,0,.49C180.67,226.44,182.06,225.9,180.84,226Z"/><path class="cls-3" d="M160.94,140.87h0Z"/><path class="cls-3" d="M180.82,226.5h0Z"/><path class="cls-3" d="M233,192.38a.64.64,0,0,0,.18-.16S233.12,192.25,233,192.38Z"/><path class="cls-3" d="M236.44,177l0,.39A3.68,3.68,0,0,0,236.44,177Z"/><path class="cls-3" d="M229.13,199.67a2.29,2.29,0,0,0-.35.46l.07-.06A1.16,1.16,0,0,1,229.13,199.67Z"/><path class="cls-3" d="M223.36,206.11l.15-.08.19-.2Z"/><path class="cls-3" d="M130.74,146.25a1.42,1.42,0,0,1,.41-.22C130.94,146.05,131.68,145,130.74,146.25Z"/><path class="cls-3" d="M160.68,141a.37.37,0,0,1,.26-.1l-.29,0S160.61,140.95,160.68,141Z"/><path class="cls-3" d="M230.32,201s-.21.29-.44.56l-.46.55A12.29,12.29,0,0,0,230.32,201Z"/><path class="cls-3" d="M129,207.49l-.17-.28A1.07,1.07,0,0,0,129,207.49Z"/><path class="cls-3" d="M226.65,205.31a4.34,4.34,0,0,0-.67.47.71.71,0,0,0-.08.16Z"/><path class="cls-3" d="M131.15,146h0Z"/><path class="cls-3" d="M137.08,138.75c-1,.9-.29.63-.39.95-1.12,1.17-.68.37-1.19.64-.66.79-1,1.5-1.53,2.06-.07,0-.18.11-.11-.06-.53,1-2.08,2.4-2.55,3.61a.41.41,0,0,1-.15.09c.24-.08.37,0,.43.08-.36.49-.52,1-.81,1.07a1,1,0,0,0,.24-.53l-.31.55c-.55.31.43-.75.27-.86-.7,1-1.21,2.41-1.8,3.15-.34,0,1.11-1.91.23-1l.88-1.18c-1,.71.51-.74-.42-.12a37.52,37.52,0,0,0-2.07,3.56c-.08.45.26,0,.19.43a6.31,6.31,0,0,1-1.22,2,2.93,2.93,0,0,0-.85,1.62,3.35,3.35,0,0,1-.45,2.14l-.12-.56c-.63,1.77.05,1.14-.71,3,0-.37.33-1.44.22-1.17-.59,1.15-.11.91-.36,1.84l-.31.13a55.11,55.11,0,0,0-1,6.3c-.06-.13-.09-.52-.24,0-.27,2.76-.66,5.88-.87,8.55l.21,1c0,.24-.11.44-.15.18-.09,1,.15.05.23.55s-.13.78-.2.41a65.08,65.08,0,0,1,.5,7.14l-.1-.37c.05,1.51.64,1.64.58,3l-.07-.26c.29,3.26,1.21,6.75,1.52,9.25a4.93,4.93,0,0,1,.59,1.73c.21.75.44,1.46.69,1.48a19.79,19.79,0,0,0,.92,3.9c.27.66.69.85,1.09,1.63l-.21.12.36.49a5.91,5.91,0,0,0,.37.48l0,.69.43.7c-.14-.3-.22-.67-.14-.65a11.65,11.65,0,0,1,1.27,2.9l.27.39c.16.23.37.55.61.85l.94,1.2c-.12,0-.43-.4-.71-.7,1.12,1.2,0,.39,1,1.49-.07-.2.18,0,.24,0a14,14,0,0,0,2.27,2.9l-.29-.07,1.17,1.3c.41.43.88.82,1.33,1.24.89.85,1.9,1.63,2.9,2.41-.68-.61-.33-.71.27-.29l.08.38c.48.16-.56-.54.34-.11.74.58.34.61-.15.36l.49.31c.24.16.5.29.5.29s-.24,0-.35,0c.49.12,1.51,1.35,2.26,1.44l0,.1a37,37,0,0,0,5.18,2.53c.12-.19.85.16,1.48.23a29.67,29.67,0,0,0,4.69,1.75c1.26.22.41-.09,1-.07,0,.24,1.82.59.87.54,1.07.23,1.76.35,2.52.45s1.6.18,3,.28c-.29-.12-.61-.2-.43-.24.49,0,1.12.2,1,.3h-.13c3.07,0,7.12.95,9.57.34l-.14,0,1.26-.21c.63-.1,1.26-.22,1.26-.22,1.17-.09-.68.23.19.26,2.69-.63,4.31-.51,6.49-1.16,1.85.27,6-1.4,8.38-1.75l-.17-.1c.54-.3.73-.13,1.17-.24-.09-.08-.67.08-.33-.11,4.87-1.68,10.09-3.29,15-5.39,1.78-.78.69-1.11,3-1.88l-.5.54c3.36-2,7.07-3.76,10.08-6.16-.16.18-.12.24-.43.45a7,7,0,0,0,2.37-1.86c.49-.34.2,0,.54-.13.71-.42,1.46-1.45,1.91-1.58.07,0-.13.2-.24.3.35-.41,1.9-1.59,1.37-1.42,1.15-.88,2-1.92,2.87-2.66.37-.69,1.79-1.72,1.68-2.13.09.15.59-.26,1.07-.85a12.22,12.22,0,0,0,1.21-1.73c-.09.32.55-.58.46-.2.61-.86,1.12-1.68.86-1.63a8.23,8.23,0,0,0,1.52-2.35A4.58,4.58,0,0,1,234,195a44.74,44.74,0,0,0,2.7-8.35c.16.09,0,.84-.21,1.56s-.44,1.4-.24,1.4c.7-2.58.75-4.14,1.23-6.71.14-.67.1.4.13.64a31,31,0,0,0,.2-7.49,1.59,1.59,0,0,1,.14.5c-.05-.47,0-1.09-.2-1l.08.45c-.18.75-.62-1.8-.79-1.85.58.71-.26-2.3.52-1.16-.08-.3-.22-.67-.31-.58,0-.45,0-.61.19-.18-.46-1.62-.5-1-.86-2.46.08,0,.18.27.31.4a13.8,13.8,0,0,1-1.11-2.6c.07.05.08-.11.2.25a43.94,43.94,0,0,0-3.05-5.3c.68.4-.37-.73-.2-1l-.4-.51-.44-.48.22.49c-.73-.86-1.47-1.54-2.09-2.28,0,0,.68.51.66.53a2.32,2.32,0,0,0-.23-.24l-.52-.51-.76-.74.75.93c-.9-.71-.18.34-1.16-.78.11.1-.07-.11-.34-.39a6,6,0,0,1-.79-.89h0a10.67,10.67,0,0,1-1.57-1.15c-.11-.2.34-.15.27-.28a6,6,0,0,1-1.37-.85,6.16,6.16,0,0,0-1.51-.82c.22.08.32,0,.27-.11l-.49-.09c-.39-.34-.44-.41-.31-.47-1.31-.84.23.56-1.27-.51a2.62,2.62,0,0,1,.36.13,50.83,50.83,0,0,0-4.68-2.44c-.33-.48,1.38.56,1,.09-2.26-1-4.8-1.73-7-2.57l.4.18c-.44.27-1.6-.76-2.81-.94.29.06.44-.1.35-.08a39.17,39.17,0,0,0-5.62-1.33l.32,0c-.9-.32-2.44-.64-3.43-.9-.32,0-.89-.1-.58.13-3-1.27-6-.84-8.7-1.78.33,0,.81,0,.54,0l-2.39-.26c.16.21.3.15.77.37a5.84,5.84,0,0,1-1.58,0c1.08,0,0-.3-.42-.45.07.06-.1.11-.07.17-1.2-.48-.26.33-1.92-.1l.1-.08c-.64,0-1.24,0-1.92-.08-.26-.24.69,0,.75-.19a12.2,12.2,0,0,1-2.79-.11c.41,0,1,0,1.42,0a5.76,5.76,0,0,0-1.75-.41H182l-1.63-.26.41.1c-1.26.43-2.47-.11-4.13.14,1.61-.23.28-.18.41-.41-.41-.09-1-.21-.86-.27-.78.14-1.28-.22-2.39,0,0-.08-.83,0-.64-.23-1,0,.23.14.14.24-1.56.2-3.64-.45-5.87-.11-1.92.12-2.28.41-4.05.55-.6-.12.49-.28.49-.28a10.43,10.43,0,0,0-2.61.06c.18-.07,0-.12-.29-.2-.73,0-.48.28-1.45.22a2.69,2.69,0,0,1,.72-.34c-.86.1-1.71.29-2.6.4-.24-.12.53-.23.84-.33a10.93,10.93,0,0,0-2.9.5l.65,0c-.37,0-.2-.17.07-.22.85-.23,1.25,0,1.3.08l-.63.08c.68.42,2.55-.21,3.84-.21l-.52.34,1.31-.31c.28.08.48.25-.15.32.92.14.81-.14,1.6,0,.09,0,0,0,0,.06l.89-.11c-.17.07.15.23-.4.19,1.61.18,2.59-.27,3.2,0l-.13,0c2.23-.09.22-.24,1.9-.5l1.12.6.22-.23c.23,0,.69,0,.6.14.86-.14-.14-.11.36-.25,1.1.24,3.06,0,3.29.41.41-.16-1.05-.19.14-.26.32.43,1.37,0,2.37.25-.32.19-1.27,0-.27.27.63-.31,2,.21,2.81.21.06-.28,1.86,0,3.29.08-.1.09,2.67.43,4,.71l0,0c.29-.25,1.65,0,2.65.05-.06.17-.25.2-.8.21l.93.13a3.45,3.45,0,0,1,1.14,0l-.27.18a27.75,27.75,0,0,1,4.09.55c.13-.18-1.17-.76.54-.61,0,.12.07.31-.37.28a2.89,2.89,0,0,1,.81.1l-.7.06c.71.2.4-.08,1,0,0,.15.41.19.3.29a3.9,3.9,0,0,0-.72-.14,6.91,6.91,0,0,1,1.65.55c0-.1,0-.2.52-.13,1.23.22.39.26,1.08.48.32,0,1.08.23,1.14,0a.94.94,0,0,1,.53.29c.66,0,3,.63,2.3.23l-.16-.05H202c2.13.24,4.24,1.2,6.28,1.7l0,.07c1.22.3,2.67.8,3.57,1,.35.13.78.43.59.46a8.51,8.51,0,0,1,2.28.88c-.94-.24.26.24-1-.28a12.61,12.61,0,0,0,2.63,1.1c-.49,0,.74.61,1.3.81L217,151a12.19,12.19,0,0,1,1.64.81l-.4.09a10.31,10.31,0,0,0,1.57.88c.51.26,1,.49,1.5.71a6.77,6.77,0,0,1,2.48,1.69c.66.22-1.06-.87-.45-.71a14.93,14.93,0,0,1,2,1.93c1.16,1.07,1.37.66,2.56,1.82-.11-.19,0-.56.88.29s.71,1.3.15.82c-.2-.19-.27-.31-.24-.32-.29-.25-.65-.57-.41-.17l.17,0c.34.47,1.44,1.61,1.06,1.45.61.61.36.18,0-.34.83,1.23,1.52,1.74,2.27,3.07-.09-.23-.13-.47,0-.27,1.16,1.9.71.71,1.51,2,.3.82-.45-.1.4,1.17.3.89-.12.27-.37,0a9.48,9.48,0,0,1,1.17,3.12l-.3-.65a10.27,10.27,0,0,1,.41,1.06l0-.45c.11.41.22.75.15.77.26.38.18-.41.63.36.05.58.52,1.67.33,1.91-.36-1.76-.19.25-.6-1.2a6.16,6.16,0,0,1,.26,1c0,.07-.06,0-.11-.16.18,1.69.43.7.74,2.45-.18-.2-.18.44-.14.72-.07-.71.2-.37.36.28a12.73,12.73,0,0,0,.21,1.83s0-.69,0-.69a4,4,0,0,1,.22,1.6c-.11.07-.08-.73-.13-.44a3.86,3.86,0,0,1,0,1.49,6.79,6.79,0,0,0-.18,1.75c-.13.56-.26,0-.36.53a29,29,0,0,1-.47,2.9c.27-.37.24-.46.21.58l.17-1.19.09-1.19,0,.78c0,.39,0,.78,0,.78.14-.71.1-1.53.2-2,.06.75,0,.67.22.34-.38,1-.13,2-.55,3.09l-.45-.13c-.57,1.62-.51,3-1.38,5.1a3.46,3.46,0,0,0,.16-.32l.15-.33c.1.36-.47,1.3-.67,2-.12-.12-.34.28-.54.52.12,0-.71,1.47-.52,1.79l-.31.41-.33.39c-.93,1.55-.62,2-1.61,3.48.14-.54-.37.07.15-1-.31.49-.61.91-.53,1-.27.22-.77,1.43-1.2,1.78a1.66,1.66,0,0,1-.43.91c-.07,0-.06,0-.06,0s-.56.87-.07.53a18.88,18.88,0,0,0-2.38,2.43,11.17,11.17,0,0,1-2.39,2.15,39.72,39.72,0,0,1-2.91,2.7c0-.08,0-.06.14-.19-1.35.87-.48,1-2,1.95-.9.35.7-.68.18-.41-.51-.27-1.72,1.37-2.92,1.79l.23-.19c-.86.39-1.8,1.42-3.13,2.19,0,0,0-.08,0-.07a14.09,14.09,0,0,1-1.67,1.3c-.68.45-1.42.9-2.06,1.28.31-.39.54-.41.2-.46-.57.34.33.2-.82.86-.43.1-1.33.45-1.53.32l1.1-.58c-.69,0-1.43.74-2,1l0-.15c-1.7.87-1.6,1.15-3.48,2H203c-.91.73-.93.22-1.87.87l-.43-.15c-.66.35-2.29,1.27-3.51,1.8.62-.48,2-1.17,2.86-1.66a18.07,18.07,0,0,0-2.61,1.23,4,4,0,0,1,.87-.4,12.69,12.69,0,0,1-3.19,1.6c0-.64-3.65,1.14-4.81,1a51.6,51.6,0,0,1-7.84,2.06c1.14.22-.85.2-.57.63a3.89,3.89,0,0,1-1,.2l-1.07.06-1.07,0c-.52-.05.64-.21.55-.31-1.51.22-.67-.09-1.68-.05.23.14-.49.32-1.36.37l1.24,0c-2.08.55-1.87-.14-4,.33l.66-.22c-1.08.22-4,.32-5.1.69-.2-.05-.45-.18,0-.22-2.61,0-5.87.26-7.87-.26l.21-.09a4.35,4.35,0,0,1-1.47-.1s.21-.08,0-.13a8.79,8.79,0,0,1-1.94-.21l.57,0c-2.47-.65-3.9-.53-6-1.1.11-.32-1.76-1.07-2.65-1.51l.05,0a61.22,61.22,0,0,1-7.08-3.21c-.62-.62-1.78-1.47-3-2.49l-.91-.77-.86-.84a13.68,13.68,0,0,1-1.51-1.65c.23.35-.24.13-.6-.2-.39-.51-1.37-1.17-1-1.31l.14.18c-.05-.59-1-1.54-1.54-2.39l-.43.1a14,14,0,0,0-1.08-2c-.4-.71-.86-1.42-1.29-2.1a10.31,10.31,0,0,1-1.56-3.49c-.36-.56-.7-1.29-1-1.87l.22,0c-.61-1.71-.87-2.57-1.58-4.69l.28.39c-.33-1.21-1-1.36-1.37-2.5l.24-.42c-.51-2.16-.68-4.4-1.26-6.53.05,0,.16.08.22.43-.17-1-.27-4-.67-3.6.27-.05-.16-2.28-.37-3.48l.23.17a7.37,7.37,0,0,1-.53-2.44c0-.34.16-.3.12.15.07-1.12-.23-.87-.13-2.23l.14.51a4,4,0,0,0-.22-1.7,5.07,5.07,0,0,1,.32-2.35,2.62,2.62,0,0,1-.15-1.47c.08-.09.11.16.13.29.26-1.91,0-2.88.33-4.17.08,0,.12-.1.16-.21-.2,1.51-.3,2.74-.31,2.62.2,0,.34-1.2.53-.21a14.37,14.37,0,0,1,.07-3.88.61.61,0,0,1,.09-.15v.13a3.43,3.43,0,0,0,.08-.75c.09-.37.17-.6.23-1a8.27,8.27,0,0,0,.49-2c-.23,0,0-.77-.36-.08,0-.09,0,.12-.07.52a2.47,2.47,0,0,0,0,.26v0c-.08.39-.18.91-.28,1.5a3.51,3.51,0,0,1,.24-1.66,8.85,8.85,0,0,1-.16-.92c.48-.76,1.06-2.27,1.31-2.44.39-1.83,1.29-4.18,1.43-5.4.17-.51.36-.51.5-.67a6.91,6.91,0,0,0-.25.8c.17-.5.46-1.24.74-1.86a3.1,3.1,0,0,0,.46-1.34c.75-1.12-.12.79.71-.85l0,.26a22.73,22.73,0,0,0,1.39-2.08c.37-.69.74-1.34,1.14-2a12.94,12.94,0,0,1,3.24-3.94,1.35,1.35,0,0,1-.41.27c3.28-3.18,6.88-6.62,11.06-8.48A8.17,8.17,0,0,0,148,133.3l.36.09,1.09-.84c1.7-.93,3.25-.74,5.43-1.79l-.34-.06a8.22,8.22,0,0,1,2.54-.59.88.88,0,0,1,.59-.23l.05.11s2.06-.6,2.06-.6c1.65-.16-.18.47,2.19.21.87-.13,2.5-.59,2.16-.64s-.93,0-1-.11l.82-.14c.12-.38.76-.81-1.33-.88l-1.42.35-.24-.06-.24,0s1.21-.14,1.21-.14a2.61,2.61,0,0,0-1.59.28,1.21,1.21,0,0,0-.63-.09l-1.34.58c-.2-.11.57-.38-.38-.3-.62.3.68.17-.36.52-.7,0-.54-.18-1.29.15-.13-.06,0-.16.32-.28-.67.29-1.85.48-2.14.81-.74,0-2.29.8-2.34.45a12.41,12.41,0,0,1-1.7,1c1-.85-2.3.91-2.17.43a7.25,7.25,0,0,1-1.83,1.17,22.53,22.53,0,0,0-2.26,1.42,1,1,0,0,1,.31-.26c-.8.41-1.07.45-1.59.72.07.32-1,1.15-1.56,1.72-1.06.4.33-.68-.11-.7.17.14-1.39,1.34-1,1.28-.77.36-.62.37-1.12.43.13.4-.59.51-1,1.17-1,.66-.47-.07-1.39.9C136.28,139.64,137.08,138.75,137.08,138.75ZM123.24,166.5h0l.09-.64Zm-.32,2.61.13-1.13c.09-.08.15,0,.12.29C123.14,168.12,123,168.74,122.92,169.12Zm2.31-5.22c-.05.4-.11.53-.17.58l.11-.7,0-.05A.39.39,0,0,1,125.24,163.9Z"/><path class="cls-3" d="M125.1,163.13c0-.06,0-.09,0-.17l-.1.23,0,.16Z"/><path class="cls-3" d="M202.1,145.78l.05,0-.11-.06Z"/><polygon class="cls-3" points="127.61 204.88 127.66 204.85 127.52 204.66 127.61 204.88"/><path class="cls-3" d="M188.1,142.47a.48.48,0,0,0-.18-.08A.61.61,0,0,0,188.1,142.47Z"/><path class="cls-3" d="M181.92,141.7l-.87-.16C181.42,141.62,181.7,141.67,181.92,141.7Z"/><path class="cls-3" d="M177.15,141.2a.24.24,0,0,0-.1.09h0Z"/><path class="cls-3" d="M237.9,176.6l0,.19C238,177.23,238,176.93,237.9,176.6Z"/><path class="cls-3" d="M227.57,156.7c.21.13.41.26.62.41C227.9,156.83,227.66,156.61,227.57,156.7Z"/><path class="cls-3" d="M230.41,200.87h0l-.09.13Z"/><path class="cls-3" d="M229,157.84a3.31,3.31,0,0,0-.77-.73C228.43,157.34,228.71,157.62,229,157.84Z"/><path class="cls-3" d="M156.4,141h-.23s0,0,0,0Z"/><path class="cls-3" d="M156.14,141.07l-.25,0A.66.66,0,0,0,156.14,141.07Z"/><path class="cls-3" d="M155.35,141.2l.53-.09A1.41,1.41,0,0,0,155.35,141.2Z"/><path class="cls-3" d="M162.74,140.87l.07-.08A.11.11,0,0,0,162.74,140.87Z"/><path class="cls-3" d="M164.67,140.82a12,12,0,0,0-1.8-.1l-.06.07C163.11,140.65,164.23,141,164.67,140.82Z"/><path class="cls-3" d="M172.67,141.92l-1.6-.11c.28.09.64.22-.09.22C173,142.34,170.57,141.82,172.67,141.92Z"/><path class="cls-3" d="M177.63,142.33c-.86,0,0,.12,0,.17C178.14,142.46,178.27,142.45,177.63,142.33Z"/><path class="cls-3" d="M212.78,149.14l-.15.16C213.25,149.5,212.66,149.23,212.78,149.14Z"/><polygon class="cls-3" points="219.49 151.01 218.97 150.59 218.6 150.62 219.49 151.01"/><polygon class="cls-3" points="222.29 154.26 222.04 154.13 222.98 154.67 222.29 154.26"/><path class="cls-3" d="M224.34,204.91l.31,0C224.93,204.59,224.8,204.33,224.34,204.91Z"/><path class="cls-3" d="M202.88,219.12a2.86,2.86,0,0,0-1.38.51C202,219.41,202.62,219.27,202.88,219.12Z"/><polygon class="cls-3" points="132.69 209.98 133.05 210.36 132.44 209.6 132.69 209.98"/></svg>