<?xml version="1.0" encoding="utf-8"?>
<!-- Generator: Adobe Illustrator 20.1.0, SVG Export Plug-In . SVG Version: 6.00 Build 0)  -->
<svg version="1.1" id="Layer_1" xmlns="http://www.w3.org/2000/svg" xmlns:xlink="http://www.w3.org/1999/xlink" x="0px" y="0px"
	 viewBox="0 0 360 360" style="enable-background:new 0 0 360 360;" xml:space="preserve">
<style type="text/css">
	.st0{fill:#FFFFFF;}
	.st1{enable-background:new    ;}
	.st2{fill:#231F20;}
	.st3{fill:#0A0300;}
</style>
<title>Menu Button With Text</title>
<circle class="st0" cx="179.3" cy="171.8" r="106"/>
<g class="st1">
	<path class="st2" d="M135.2,162.3c-0.3,2-0.5,4.1-0.6,6.1c-0.1,2-0.1,4.1-0.1,6c0,2,0,3.9-0.1,5.8c0,1.9-0.2,3.7-0.6,5.4
		c0.3,0.3,0.8,0.5,1.4,0.6c0.6,0.1,1.2,0.1,1.7,0.2c0.5,0.1,0.9,0.2,1.2,0.5s0.2,0.7-0.1,1.4c0.3,0.6,0.5,1.1,0.4,1.3
		c-0.1,0.2-0.3,0.4-0.6,0.5c-0.3,0.1-0.5,0.2-0.8,0.2c-0.3,0.1-0.4,0.3-0.4,0.6c-0.5-0.2-1.1-0.3-1.7-0.3c-0.7,0-1.4,0.1-2.2,0.2
		c-0.8,0.1-1.5,0.1-2.2,0.2c-0.7,0-1.3-0.1-1.7-0.3c-0.5-0.2-0.7-0.6-0.8-1.2c-0.1-0.6,0.1-1.4,0.5-2.6h1.4c0.7-0.7,1.1-1.3,1.2-1.9
		c0.1-0.6,0.1-1.1,0-1.7c-0.1-0.6-0.1-1.3-0.2-2c-0.1-0.7,0.1-1.6,0.4-2.6c-0.3-1-0.5-2.1-0.4-3.1c0.1-1,0.1-2.1,0.2-3.1
		c0.1-1,0.1-2.1,0-3.1c-0.1-1-0.5-2-1.2-3.1c0.3-0.3,0.5-0.8,0.6-1.2c0-0.5,0-1-0.1-1.5c-0.1-0.5-0.2-1-0.3-1.5
		c-0.1-0.5-0.2-0.9-0.2-1.2c-0.7,0.7-1.4,1.3-2,1.8c-0.7,0.5-1.3,1.1-1.9,1.6c-0.6,0.5-1.2,1-1.6,1.6c-0.5,0.5-0.9,1.2-1.3,1.8
		c0,0.3-0.1,0.8-0.2,1.2c-0.2,0.5-0.3,1-0.5,1.5c-0.2,0.5-0.3,1-0.5,1.5c-0.2,0.5-0.2,0.9-0.2,1.2v12.3c0.3,0.3,0.7,0.6,1,0.8
		c0.3,0.2,0.6,0.4,0.9,0.5c0.3,0.2,0.5,0.4,0.6,0.5c0.2,0.2,0.3,0.5,0.3,0.8c0.3,0.3,0.5,0.6,0.5,0.8c0,0.2,0,0.3-0.2,0.5
		c-0.2,0.2-0.4,0.4-0.7,0.5c-0.3,0.2-0.7,0.5-1,0.8c-0.3,0-0.8-0.1-1.3-0.2c-0.5-0.1-1-0.2-1.6-0.3s-1.2-0.1-1.9-0.1
		c-0.7,0-1.3,0.2-2,0.6c-0.6-0.7-1-1.4-1.1-2c-0.1-0.6-0.2-1.3-0.2-2c0.6,0,1.3-0.1,1.8-0.2c0.6-0.1,0.9-0.5,0.9-1.2
		c0-1.7,0.1-3.4,0.2-5.2c0.1-1.7,0.2-3.5,0.3-5.3c0.1-1.8,0.1-3.6,0.1-5.5c0-1.9-0.2-3.9-0.6-5.9c0-0.3-0.1-0.7-0.3-1
		c-0.2-0.3-0.4-0.5-0.6-0.7c-0.3-0.2-0.5-0.2-0.9-0.2c-0.3,0-0.6,0.2-0.9,0.6c-1.7,1-3.1,2.3-4,3.8c-0.9,1.5-1.6,3.1-2.1,4.9
		s-0.7,3.7-0.7,5.7c-0.1,2-0.1,4-0.1,6.1c0.3,0,0.5,0.3,0.5,0.8c0,0.6-0.1,1.1-0.1,1.7c0,0.6,0.1,1.1,0.4,1.5c0.3,0.4,0.9,0.4,2,0.1
		c0.7,0,1.1,0.3,1.2,0.8c0.1,0.6,0.2,1.2,0.2,1.8c-1.4,0.7-2.8,1.1-4.3,1.2c-1.5,0.1-3.2,0.2-5.3,0.2l-1.4-1.4
		c0-0.6,0.1-1.2,0.2-1.8c0.1-0.6,0.5-0.8,1.2-0.8c0.3,0,0.6,0,0.8,0c0.2,0,0.4-0.1,0.6-0.2c0.2-0.1,0.4-0.2,0.6-0.4
		c0.2-0.2,0.5-0.4,0.8-0.8c-0.3-1.7-0.5-3.4-0.6-5.1c0-1.7,0-3.4,0.1-5.1c0.1-1.7,0.2-3.4,0.3-5.1c0.1-1.7,0.2-3.4,0.2-5.1
		c-0.3-0.3-0.8-0.5-1.2-0.6c-0.5-0.1-0.9-0.1-1.4-0.2c-0.4-0.1-0.8-0.2-1.1-0.5c-0.3-0.2-0.5-0.7-0.5-1.4c0-0.7,0.1-1.3,0.2-1.9
		c0.1-0.6,0.5-0.8,1.2-0.8c0.5,0.5,1,0.8,1.6,0.9c0.6,0.1,1.1,0.2,1.7,0.2c0.5,0,1,0,1.5,0c0.5,0,0.8,0,1.1,0.2
		c0.3,0.2,0.4,0.4,0.3,0.9c0,0.4-0.3,1.1-0.8,2h1.4c0.7-0.7,1.7-1.6,3-2.7c1.2-1.1,2.5-2,3.9-2.7c0.7,0,1.7,0.3,2.8,1
		c1.1,0.7,2,1.7,2.7,3.1v1.4c0.7-0.3,1.3-0.8,1.9-1.4c0.6-0.6,1.1-1.2,1.7-1.8c0.6-0.6,1.2-1.1,2-1.5c0.7-0.4,1.6-0.6,2.7-0.6
		c0.3,0.3,0.8,0.6,1.3,0.8c0.5,0.2,1,0.5,1.5,0.7c0.5,0.3,1,0.6,1.5,0.9C134.4,161.1,134.8,161.6,135.2,162.3z"/>
	<path class="st2" d="M172.7,168.7c0,0.7,0.1,1.4,0.2,2.1c0.1,0.7,0.2,1.3,0.2,1.9c0,0.6-0.1,1.2-0.4,1.7c-0.2,0.5-0.7,0.9-1.4,1.3
		c-4.2-1.4-8.3-1.4-12.5,0c-1-0.3-2-0.5-2.9-0.6c-0.9,0-1.7,0-2.5,0.1c-0.8,0.1-1.5,0.2-2.3,0.3c-0.7,0.1-1.4,0.2-2.1,0.2
		c-0.7,0.7-1,1.3-0.9,1.8c0.1,0.5,0.3,1.1,0.6,1.6c0.3,0.5,0.7,1.1,1.1,1.6c0.4,0.6,0.6,1.2,0.6,1.9c0.3,0.7,0.8,1.2,1.3,1.6
		c0.5,0.4,1,0.7,1.5,1c0.5,0.3,1,0.5,1.5,0.7c0.5,0.2,0.9,0.5,1.3,0.8c2.8,0,5.2-0.6,7.3-1.9c2.1-1.3,3.8-2.9,5.2-5
		c0.7,0,1.4,0.3,1.9,0.8c0.6,0.6,0.8,1.2,0.8,1.9c0,0.7-0.2,1.3-0.5,1.9c-0.3,0.6-0.7,1.1-1.3,1.6c-0.5,0.5-1.1,1.1-1.7,1.6
		c-0.6,0.6-1.3,1.2-2,1.9c-1,0.3-2.3,0.7-3.8,0.9c-1.5,0.3-3,0.4-4.6,0.4c-1.6,0-3.1-0.2-4.6-0.6c-1.5-0.4-2.7-1.1-3.8-2.2
		c-0.7-1-1.4-2-2.3-2.9c-0.8-0.9-1.6-1.9-2.3-2.8c-0.7-0.9-1.3-2-1.7-3c-0.5-1.1-0.7-2.3-0.7-3.7c0-0.3,0.1-0.7,0.2-1.1
		c0.2-0.4,0.3-0.8,0.5-1.2c0.2-0.5,0.3-0.9,0.5-1.5c0.2-0.5,0.2-1.2,0.2-1.8c0.3-1.4,0.9-2.7,1.5-4.1c0.7-1.3,1.5-2.6,2.4-3.7
		c0.9-1.1,2-2.1,3.2-2.9c1.2-0.8,2.5-1.4,3.9-1.7c2.1,0,4.1,0.2,5.9,0.7c1.9,0.5,3.6,1.2,5.2,2.2c1.6,0.9,3,2.1,4.1,3.5
		C171.1,165.4,172,167,172.7,168.7z M167.1,170.1c0-0.3-0.1-0.8-0.2-1.2c-0.2-0.5-0.4-0.9-0.6-1.4c-0.3-0.4-0.6-0.8-0.9-1.1
		c-0.3-0.3-0.7-0.5-1-0.5c-0.7-0.3-1.5-0.7-2.3-1.2s-1.7-0.8-2.6-1.1c-0.9-0.3-1.7-0.4-2.6-0.3c-0.8,0.1-1.6,0.4-2.3,1.1
		c-0.3,0.7-0.8,1.3-1.5,1.7c-0.6,0.4-1.2,0.8-1.8,1.3c-0.6,0.5-1.1,1-1.6,1.5c-0.5,0.6-0.7,1.4-0.7,2.4c1.4,0,2.8,0,4.4,0
		c1.6,0,3.1-0.1,4.7-0.2s3.1-0.2,4.7-0.4C164.3,170.7,165.8,170.5,167.1,170.1z"/>
	<path class="st2" d="M189.3,160.7c0,0.3-0.1,0.7-0.2,1.1c-0.1,0.4-0.2,0.7-0.3,1.1c-0.1,0.3-0.1,0.7-0.1,1.1c0,0.4,0.2,0.7,0.6,1.1
		c0.4,0,0.8-0.2,1.1-0.5c0.4-0.3,0.7-0.6,1.1-1c0.4-0.4,0.7-0.7,1.1-1c0.4-0.3,0.7-0.5,1.1-0.5c0.3-1.1,0.9-1.8,1.6-2.3
		c0.7-0.5,1.4-0.8,2.3-1c0.8-0.2,1.6-0.3,2.5-0.4s1.6-0.3,2.4-0.6c0.7,0,1.4,0.2,2.1,0.5c0.7,0.3,1.4,0.7,2,1.2
		c0.6,0.5,1.2,0.9,1.7,1.4c0.5,0.5,1,0.9,1.4,1.3c0.3,2.2,0.5,4.2,0.6,6.3c0,2,0,4-0.1,6c-0.1,2-0.2,4-0.3,6c-0.1,2-0.2,4.1-0.2,6.3
		h2.8c0.4-0.4,0.7-0.6,0.9-0.6c0.2,0,0.4,0,0.6,0.1c0.2,0.1,0.4,0.2,0.5,0.4c0.2,0.1,0.5,0.2,0.8,0.2c0.7,0,1.2,0.3,1.3,0.9
		c0.1,0.6,0.2,1.2,0.2,2c-0.7,0.7-1.5,1.2-2.4,1.5c-0.9,0.2-1.7,0.4-2.6,0.4c-0.9,0-1.8-0.1-2.6-0.2c-0.9-0.1-1.7-0.2-2.4-0.2
		c-0.4-0.3-1-0.5-1.7-0.4c-0.8,0.1-1.6,0.2-2.4,0.3c-0.8,0.1-1.5,0.1-2.1,0c-0.6-0.1-0.9-0.5-0.9-1.3c0-0.7,0.1-1.4,0.2-2
		c0.1-0.6,0.5-0.9,1.2-0.9h5.8c-0.7-2.2-1.1-4.3-1.1-6.5s0.1-4.3,0.2-6.4c0.1-2.1,0-4.1-0.1-6.1c-0.2-2-0.8-3.8-1.9-5.7
		c-0.7-0.3-1.5-0.5-2.4-0.5c-0.9,0-1.7,0.1-2.6,0.4c-0.9,0.3-1.8,0.7-2.7,1.2c-0.9,0.5-1.7,1.1-2.4,1.9c-1.1,0.7-2,1.7-2.7,2.9
		c-0.7,1.2-1.2,2.5-1.6,3.9c-0.4,1.4-0.5,3-0.5,4.5c0,1.6,0.2,3.1,0.5,4.5c-0.3,0.4-0.5,0.8-0.6,1.1c-0.1,0.3-0.1,0.7-0.1,1.1
		c0,0.4,0,0.7-0.1,1.1c0,0.3-0.2,0.7-0.6,1.1c0.5,0.5,1,0.8,1.7,1c0.7,0.2,1.3,0.4,2,0.5c0.7,0.1,1.3,0.2,2,0.3
		c0.6,0.1,1.1,0.3,1.5,0.5c0.4,0.3,0.6,0.7,0.6,1.2c0,0.5-0.2,1.3-0.7,2.2h-4.3c-1.1,0-2.2,0.1-3.5,0.2c-1.2,0.1-2.4,0.2-3.6,0.2
		c-1.2,0-2.3-0.1-3.3-0.4c-1-0.2-1.9-0.7-2.6-1.5c0.3-0.3,0.5-0.7,0.4-1.1c-0.1-0.4-0.2-0.7-0.3-1.1c-0.1-0.3-0.1-0.7,0-1.1
		c0.1-0.4,0.5-0.7,1.2-1.1c0.4,0,0.8,0.1,1.4,0.2c0.5,0.1,1,0.2,1.6,0.4c0.5,0.1,1.1,0.1,1.6,0.1c0.5,0,0.9-0.3,1.3-0.6v-23.1
		c-0.3-0.3-0.8-0.4-1.3-0.2c-0.5,0.2-1.1,0.5-1.7,0.7c-0.6,0.3-1.3,0.4-2,0.5c-0.7,0-1.4-0.3-2.1-1c0-0.3,0.1-0.8,0.2-1.3
		c0.2-0.5,0.4-1,0.6-1.4c0.3-0.5,0.6-0.8,0.9-1.2c0.3-0.3,0.7-0.5,1.1-0.5c0.5,0.5,1,0.7,1.6,0.8c0.6,0.1,1.1,0,1.7-0.1
		c0.6-0.1,1.1-0.2,1.6-0.4c0.5-0.2,1-0.2,1.5-0.1c0.5,0.1,0.9,0.3,1.3,0.7C188.7,159.1,189,159.8,189.3,160.7z"/>
	<path class="st2" d="M230.5,160.6v23.1c0,0.7,0.2,1.3,0.5,1.7c0.3,0.4,0.7,0.7,1.2,0.9c0.5,0.2,0.9,0.3,1.4,0.3c0.5,0,0.9,0,1.3,0
		c1.8,0,3.4-0.3,4.7-1c1.3-0.7,2.5-1.5,3.5-2.6c1-1.1,1.9-2.3,2.6-3.7c0.8-1.4,1.5-2.8,2.3-4.3v-11.6c-0.7-0.7-1.4-1.2-1.9-1.5
		c-0.6-0.2-1.1-0.4-1.7-0.4s-1.1,0.1-1.7,0.2c-0.6,0.1-1.2,0.2-1.9,0.2v-2.9c0.7-0.4,1.5-0.6,2.4-0.6c0.9,0,1.7-0.1,2.6-0.1
		c0.9,0,1.8,0,2.6-0.1c0.9-0.1,1.7-0.3,2.4-0.7c0.4,0.7,0.6,1.5,0.6,2.4c0,0.9,0.1,1.8,0.1,2.7c0,0.9,0,1.8,0.1,2.6
		c0.1,0.9,0.3,1.7,0.7,2.4c-0.7,2.2-1.2,4.6-1.3,7.2c-0.1,2.6-0.2,5-0.2,7.2c0,0.3-0.1,0.7-0.2,1.1c-0.1,0.4-0.2,0.7-0.3,1.1
		c-0.1,0.4-0.1,0.7-0.1,1.1c0,0.4,0.2,0.7,0.6,1.1c0.7,0.3,1.5,0.4,2.2,0.2c0.7-0.2,1.4-0.4,2-0.6c0.6-0.2,1.2-0.2,1.7,0
		c0.5,0.2,1,0.8,1.3,1.8c0,0.7-0.3,1.4-0.9,2s-1.2,0.9-2,0.9c-0.4,0-0.9,0.1-1.6,0.2c-0.7,0.1-1.4,0.2-2.2,0.2
		c-0.8,0-1.7-0.1-2.5-0.4c-0.9-0.2-1.7-0.7-2.4-1.5v-4.3c-1.1,1.1-2.2,2.1-3.5,2.9c-1.3,0.9-2.6,1.6-3.9,2.1c-1.4,0.5-2.7,0.9-4.2,1
		c-1.4,0.2-2.9,0-4.3-0.4c-0.7-0.3-1.3-0.8-1.7-1.3c-0.4-0.5-0.7-1-1-1.6c-0.3-0.5-0.5-1.1-0.7-1.6c-0.2-0.5-0.5-0.9-0.9-1.3v-18.8
		c0-0.4,0.1-0.8,0.2-1.1c0.1-0.4,0.2-0.7,0.3-1.1s0.1-0.7,0.1-1.1c0-0.4-0.2-0.7-0.6-1.1c-0.7-0.4-1.5-0.5-2.2-0.3
		c-0.7,0.2-1.4,0.4-2,0.6c-0.6,0.2-1.2,0.2-1.7,0c-0.5-0.2-1-0.8-1.3-1.8c0.7-1.1,1.5-1.8,2.4-2.1c0.9-0.3,1.7-0.5,2.6-0.5
		c0.9,0,1.8,0,2.7,0.1s1.7-0.1,2.4-0.5L230.5,160.6z"/>
</g>
<path class="st3" d="M125.8,94.6c-0.3,0.2-0.1,0.5,0.9,0.3l0.7-0.6L125.8,94.6z"/>
<path class="st3" d="M132.8,95c1.2-0.3,2.5-0.9,1.7-1.3c-1.2,0.6-1.5,0.4-2.7,1.1c-1,0.1-1.8,0-1.6-0.2c-0.3,0.2-1.6,0-2.1,0.4
	c1.6,0.3,3.2,0.2,4.8-0.3C133.2,94.7,132.8,94.9,132.8,95z"/>
<path class="st3" d="M232.3,103.3l-0.6-0.2L232.3,103.3z"/>
<path class="st3" d="M286.7,130.5c-0.3-0.3-0.5-0.4-0.6-0.4C286.4,130.4,286.8,130.7,286.7,130.5z"/>
<path class="st3" d="M292.7,139l-0.3-0.5C292.5,138.7,292.6,138.8,292.7,139z"/>
<path class="st3" d="M232.3,103.3l1.6,0.5C234,103.7,233.1,103.5,232.3,103.3z"/>
<path class="st3" d="M146.5,92.9c-0.3,0-0.6,0.1-0.9,0.2h0.8L146.5,92.9z"/>
<path class="st3" d="M205.4,98.7h-0.5l-0.5,0.1L205.4,98.7z"/>
<path class="st3" d="M184.5,96.4c0.5,0,0.7-0.4,0.9-0.6c-0.3,0.2-0.7,0.2-1,0.2C184.3,96.1,184.4,96.3,184.5,96.4z"/>
<path class="st3" d="M151.3,94.6h-0.6H151.3z"/>
<path class="st3" d="M220.1,101.3c0,0.1,0.1,0.1,0.2,0.2C220.3,101.5,220.2,101.4,220.1,101.3z"/>
<path class="st3" d="M152.2,130L152.2,130C152.2,130,152.2,130,152.2,130z"/>
<path class="st3" d="M164.1,128.7H164c0,0,0,0.1,0,0.1L164.1,128.7z"/>
<path class="st3" d="M235.3,171.7L235.3,171.7C235.2,171.4,235.2,171.6,235.3,171.7z"/>
<path class="st3" d="M180.8,226c1,0-1.5,0.6,0,0.5C180.7,226.4,182.1,225.9,180.8,226z"/>
<path class="st3" d="M147.1,93L147.1,93z"/>
<path class="st3" d="M180.8,226.5L180.8,226.5z"/>
<path class="st3" d="M295,198.7c0.1-0.1,0.3-0.2,0.4-0.3C295.4,198.4,295.2,198.4,295,198.7z"/>
<path class="st3" d="M236.4,177v0.4C236.4,177.3,236.4,177.1,236.4,177z"/>
<path class="st3" d="M287.1,213.7c-0.3,0.3-0.5,0.6-0.7,0.9l0.1-0.1C286.6,214.2,286.8,213.9,287.1,213.7z"/>
<path class="st3" d="M275.2,226.9l0.3-0.2l0.4-0.4L275.2,226.9z"/>
<path class="st3" d="M130.7,146.3c0.1-0.1,0.3-0.2,0.4-0.2C130.9,146.1,131.7,145,130.7,146.3z"/>
<path class="st3" d="M146.6,93.3c0.1-0.1,0.3-0.2,0.5-0.2h-0.6C146.5,93,146.4,93.2,146.6,93.3z"/>
<path class="st3" d="M289.5,216.4c0,0-0.4,0.6-0.9,1.1l-0.9,1.1C288.3,218,288.9,217.2,289.5,216.4z"/>
<path class="st3" d="M129,207.5l-0.2-0.3C128.9,207.3,128.9,207.4,129,207.5z"/>
<path class="st3" d="M282,225.3c-0.5,0.3-0.9,0.6-1.4,1c-0.1,0.1-0.1,0.2-0.2,0.3L282,225.3z"/>
<path class="st3" d="M131.1,146L131.1,146z"/>
<path class="st3" d="M98.1,88.6c-2.1,1.8-0.6,1.3-0.8,1.9c-2.3,2.4-1.4,0.8-2.4,1.3c-1.4,1.6-2.1,3.1-3.1,4.2
	c-0.1,0-0.4,0.2-0.2-0.1c-1.1,2.1-4.3,4.9-5.2,7.4c-0.1,0.1-0.2,0.1-0.3,0.2c0.5-0.2,0.8,0,0.9,0.2c-0.7,1-1.1,2.1-1.7,2.2
	c0.3-0.3,0.4-0.7,0.5-1.1L85,106c-1.1,0.6,0.9-1.5,0.6-1.8c-1.4,2.1-2.5,4.9-3.7,6.5c-0.7,0,2.3-3.9,0.5-2.1l1.8-2.4
	c-2.1,1.5,1-1.5-0.9-0.2c-1.5,2.4-3,4.8-4.2,7.3c-0.2,0.9,0.5,0,0.4,0.9c-0.6,1.5-1.4,2.9-2.5,4.1c-0.9,0.9-1.5,2.1-1.7,3.3
	c0.2,1.5-0.1,3.1-0.9,4.4l-0.2-1.1c-1.3,3.6,0.1,2.3-1.5,6.2c0-0.8,0.7-3,0.5-2.4c-1.2,2.4-0.2,1.9-0.7,3.8l-0.6,0.3
	c-0.9,4.3-1.6,8.6-2.1,12.9c-0.1-0.3-0.2-1.1-0.5,0c-0.6,5.7-1.4,12.1-1.8,17.5l0.4,2.1c0,0.5-0.2,0.9-0.3,0.4
	c-0.2,2.1,0.3,0.1,0.5,1.1c0.2,1-0.3,1.6-0.4,0.8c0.6,4.9,1,9.8,1,14.7l-0.2-0.8c0.1,3.1,1.3,3.4,1.2,6.2l-0.1-0.5
	c0.6,6.7,2.5,13.9,3.1,19c0.6,1.1,1,2.3,1.2,3.6c0.4,1.5,0.9,3,1.4,3c0.4,2.7,1,5.4,1.9,8c0.6,1.4,1.4,1.7,2.2,3.3l-0.4,0.2l0.7,1
	c0.2,0.3,0.5,0.7,0.8,1v1.4l0.9,1.4c-0.3-0.6-0.5-1.4-0.3-1.3c1.1,1.9,2,3.9,2.6,6l0.6,0.8c0.3,0.5,0.8,1.1,1.3,1.7l1.9,2.5
	c-0.2,0-0.9-0.8-1.5-1.4c2.3,2.5,0,0.8,2.1,3.1c-0.1-0.4,0.4,0,0.5,0c1.3,2.2,2.9,4.2,4.7,6l-0.6-0.1l2.4,2.7
	c0.8,0.9,1.8,1.7,2.7,2.5c1.8,1.7,3.9,3.3,6,4.9c-1.4-1.3-0.7-1.5,0.6-0.6l0.2,0.8c1,0.3-1.1-1.1,0.7-0.2c1.5,1.2,0.7,1.3-0.3,0.7
	l1,0.6c0.5,0.3,1,0.6,1,0.6s-0.5,0-0.7,0c1,0.2,3.1,2.8,4.6,3v0.2c3.4,2,7,3.7,10.6,5.2c0.2-0.4,1.7,0.3,3,0.5
	c3.1,1.5,6.3,2.7,9.6,3.6c2.6,0.5,0.8-0.2,2.1-0.1c0,0.5,3.7,1.2,1.8,1.1c2.2,0.5,3.6,0.7,5.2,0.9c1.6,0.2,3.3,0.4,6.2,0.6
	c-0.6-0.2-1.3-0.4-0.9-0.5c1,0,2.3,0.4,2.1,0.6h-0.3c6.3,0,14.6,1.9,19.6,0.7h-0.3l2.6-0.4c1.3-0.2,2.6-0.5,2.6-0.5
	c2.4-0.2-1.4,0.5,0.4,0.5c5.5-1.3,8.8-1,13.3-2.4c3.8,0.6,12.3-2.9,17.2-3.6l-0.3-0.2c1.1-0.6,1.5-0.3,2.4-0.5
	c-0.2-0.2-1.4,0.2-0.7-0.2c10-3.4,20.7-6.8,30.8-11.1c3.7-1.6,1.4-2.3,6.2-3.9l-1,1.1c6.9-4.1,14.5-7.7,20.7-12.6
	c-0.3,0.4-0.2,0.5-0.9,0.9c1.9-0.9,3.5-2.2,4.9-3.8c1-0.7,0.4,0,1.1-0.3c1.5-0.9,3-3,3.9-3.2c0.1,0-0.3,0.4-0.5,0.6
	c0.7-0.8,3.9-3.3,2.8-2.9c2.4-1.8,4.1-3.9,5.9-5.5c0.8-1.4,3.7-3.5,3.4-4.4c0.2,0.3,1.2-0.5,2.2-1.7c0.9-1.1,1.8-2.3,2.5-3.6
	c-0.2,0.7,1.1-1.2,0.9-0.4c1.3-1.8,2.3-3.4,1.8-3.3c1.3-1.4,2.4-3,3.1-4.8c0.5-1.4,1.4-2.7,2.5-3.7c2.4-5.5,4.3-11.3,5.5-17.1
	c0.3,0.2,0,1.7-0.4,3.2s-0.9,2.9-0.5,2.9c1.4-5.3,1.5-8.5,2.5-13.8c0.3-1.4,0.2,0.8,0.3,1.3c0.8-5.1,0.9-10.3,0.4-15.4
	c0.2,0.3,0.2,0.7,0.3,1c-0.1-1,0-2.2-0.4-2.1l0.2,0.9c-0.4,1.5-1.3-3.7-1.6-3.8c1.2,1.5-0.5-4.7,1.1-2.4c-0.2-0.6-0.5-1.4-0.6-1.2
	c0-0.9,0-1.3,0.4-0.4c-0.9-3.3-1-2.1-1.8-5c0.2,0,0.4,0.6,0.6,0.8c-0.9-1.7-1.7-3.5-2.3-5.3c0.1,0.1,0.2-0.2,0.4,0.5
	c-1.8-3.8-3.9-7.4-6.3-10.9c1.4,0.8-0.8-1.5-0.4-2.1l-0.8-1l-0.9-1l0.5,1c-1.5-1.8-3-3.2-4.3-4.7c0,0,1.4,1,1.4,1.1
	c-0.1-0.2-0.3-0.3-0.5-0.5l-1.1-1l-1.6-1.5l1.5,1.9c-1.8-1.5-0.4,0.7-2.4-1.6c0.2,0.2-0.1-0.2-0.7-0.8c-0.6-0.6-1.1-1.2-1.6-1.8l0,0
	c-1.1-0.7-2.2-1.5-3.2-2.4c-0.2-0.4,0.7-0.3,0.6-0.6c-1-0.5-2-1-2.8-1.7c-0.9-0.7-2-1.3-3.1-1.7c0.5,0.2,0.7,0,0.6-0.2l-1-0.2
	c-0.8-0.7-0.9-0.8-0.6-1c-2.7-1.7,0.5,1.1-2.6-1c0.3,0.1,0.5,0.2,0.7,0.3c-3.1-1.8-6.3-3.5-9.6-5c-0.7-1,2.8,1.1,2.1,0.2
	c-4.6-2.1-9.9-3.6-14.4-5.3l0.8,0.4c-0.9,0.6-3.3-1.6-5.8-1.9c0.6,0.1,0.9-0.2,0.7-0.2c-3.8-1.2-7.6-2.1-11.5-2.7h0.7
	c-1.8-0.7-5-1.3-7-1.8c-0.7,0-1.8-0.2-1.2,0.3c-6.2-2.6-12.3-1.7-17.9-3.7c0.7,0,1.7,0,1.1,0l-4.9-0.5c0.3,0.4,0.6,0.3,1.6,0.8
	c-1.1,0.1-2.2,0.1-3.2,0c2.2,0,0-0.6-0.9-0.9c0.1,0.1-0.2,0.2-0.1,0.3c-2.5-1-0.5,0.7-3.9-0.2l0.2-0.2c-1.3,0-2.5,0-3.9-0.2
	c-0.5-0.5,1.4,0,1.5-0.4c-1.9,0.1-3.8,0.1-5.7-0.2c0.8,0,2.1,0,2.9,0c-1.1-0.5-2.4-0.8-3.6-0.8h0l-3.3-0.5l0.8,0.2
	c-2.6,0.9-5.1-0.2-8.5,0.3c3.3-0.5,0.6-0.4,0.8-0.8c-0.8-0.2-2.1-0.4-1.8-0.6c-1.6,0.3-2.6-0.5-4.9,0c0-0.2-1.7,0-1.3-0.5
	c-2.1,0,0.5,0.3,0.3,0.5c-3.2,0.4-7.5-0.9-12-0.2c-3.9,0.2-4.7,0.8-8.3,1.1c-1.2-0.2,1-0.6,1-0.6c-1.8-0.2-3.6-0.1-5.4,0.1
	c0.4-0.1,0-0.2-0.6-0.4c-1.5,0-1,0.6-3,0.5c0.5-0.3,1-0.5,1.5-0.7c-1.8,0.2-3.5,0.6-5.3,0.8c-0.5-0.2,1.1-0.5,1.7-0.7
	c-2,0.1-4,0.4-6,1h1.3c-0.8,0-0.4-0.3,0.1-0.5c1.7-0.5,2.6,0,2.7,0.2l-1.3,0.2c1.4,0.9,5.2-0.4,7.9-0.4l-1.1,0.7l2.7-0.6
	c0.6,0.2,1,0.5-0.3,0.7c1.9,0.3,1.7-0.3,3.3,0c0.2,0,0,0,0,0.1l1.8-0.2c-0.3,0.1,0.3,0.5-0.8,0.4c3.3,0.4,5.3-0.6,6.6,0h-0.3
	c4.6-0.2,0.5-0.5,3.9-1l2.3,1.2l0.5-0.5c0.5,0,1.4,0,1.2,0.3c1.8-0.3-0.3-0.2,0.7-0.5c2.3,0.5,6.3,0,6.8,0.8
	c0.8-0.3-2.2-0.4,0.3-0.5c0.7,0.9,2.8,0,4.9,0.5c-0.7,0.4-2.6,0-0.6,0.6c1.3-0.6,4.1,0.4,5.8,0.4c0.1-0.6,3.8,0,6.8,0.2
	c-0.2,0.2,5.5,0.9,8.2,1.5l0,0c0.6-0.5,3.4,0,5.4,0.1c-0.1,0.3-0.5,0.4-1.6,0.4l1.9,0.3c0.8-0.1,1.6-0.1,2.3,0l-0.6,0.4
	c2.8,0.2,5.6,0.5,8.4,1.1c0.3-0.4-2.4-1.6,1.1-1.3c0,0.2,0.1,0.6-0.8,0.6c0.6,0,1.1,0.1,1.7,0.2l-1.4,0.1c1.5,0.4,0.8-0.2,2.1,0
	c0,0.3,0.8,0.4,0.6,0.6c-0.5-0.1-1-0.2-1.5-0.3c1.2,0.2,2.3,0.6,3.4,1.1c0-0.2,0-0.4,1.1-0.3c2.5,0.5,0.8,0.5,2.2,1
	c0.7,0,2.2,0.5,2.3,0c0.4,0.1,0.8,0.3,1.1,0.6c1.4,0,6.2,1.3,4.7,0.5l-0.3-0.1h-0.2c4.4,0.5,8.7,2.5,12.9,3.5v0.1
	c2.5,0.6,5.5,1.6,7.3,2.1c0.7,0.3,1.6,0.9,1.2,0.9c1.6,0.4,3.2,1,4.7,1.8c-1.9-0.5,0.5,0.5-2.1-0.6c1.7,1,3.5,1.7,5.4,2.3
	c-1,0,1.5,1.3,2.7,1.7l-1.3-0.7c1.2,0.5,2.3,1,3.4,1.7l-0.8,0.2c1,0.7,2.1,1.3,3.2,1.8c1,0.5,2.1,1,3.1,1.5c1.9,0.8,3.7,1.9,5.1,3.5
	c1.4,0.5-2.2-1.8-0.9-1.5c1.5,1.2,2.9,2.5,4.1,4c2.4,2.2,2.8,1.4,5.3,3.7c-0.2-0.4,0-1.1,1.8,0.6c1.8,1.7,1.5,2.7,0.3,1.7
	c-0.4-0.4-0.6-0.6-0.5-0.7c-0.6-0.5-1.3-1.2-0.8-0.3h0.3c0.7,1,3,3.3,2.2,3c1.3,1.3,0.7,0.4,0-0.7c1.7,2.5,3.1,3.6,4.7,6.3
	c-0.2-0.5-0.3-1,0-0.6c2.4,3.9,1.5,1.5,3.1,4.1c0.6,1.7-0.9-0.2,0.8,2.4c0.6,1.8-0.2,0.6-0.8,0c1.2,2,2,4.1,2.4,6.4l-0.6-1.3
	c0.3,0.7,0.6,1.4,0.8,2.2v-0.9c0.2,0.8,0.5,1.5,0.3,1.6c0.5,0.8,0.4-0.8,1.3,0.7c0.1,1.2,1.1,3.4,0.7,3.9c-0.7-3.6-0.4,0.5-1.2-2.5
	c0.2,0.7,0.4,1.4,0.5,2.1c0,0.1-0.1,0-0.2-0.3c0.4,3.5,0.9,1.4,1.5,5c-0.4-0.4-0.4,0.9-0.3,1.5c-0.1-1.5,0.4-0.8,0.7,0.6
	c0.1,1.3,0.2,2.5,0.4,3.8v-1.4c0.4,1.1,0.5,2.2,0.5,3.3c-0.2,0.1-0.2-1.5-0.3-0.9c0.2,1,0.2,2,0,3.1c-0.3,1.2-0.4,2.4-0.4,3.6
	c-0.3,1.1-0.5,0-0.7,1.1c-0.2,2-0.5,4-1,6c0.6-0.8,0.5-0.9,0.4,1.2l0.3-2.4l0.2-2.4v1.6c0,0.8,0,1.6,0,1.6c0.3-1.5,0.2-3.1,0.4-4.1
	c0.1,1.5,0,1.4,0.5,0.7c-0.8,2.1-0.3,4.1-1.1,6.3l-0.9-0.3c-1.2,3.3-1,6.2-2.8,10.5c0.1-0.2,0.2-0.4,0.3-0.7l0.3-0.7
	c0.2,0.7-1,2.7-1.4,4.1c-0.2-0.2-0.7,0.6-1.1,1.1c0.2,0-1.5,3-1.1,3.7l-0.6,0.8l-0.7,0.8c-1.9,3.2-1.3,4.1-3.3,7.1
	c0.3-1.1-0.8,0.1,0.3-2.1c-0.6,1-1.3,1.9-1.1,2.1c-0.6,0.5-1.6,2.9-2.5,3.7c-0.1,0.7-0.4,1.4-0.9,1.9c-0.1,0-0.1,0-0.1,0
	s-1.1,1.8-0.1,1.1c-1.8,1.5-3.4,3.2-4.9,5c-1.4,1.7-3.1,3.2-4.9,4.4c-1.9,1.9-3.9,3.8-6,5.5c0-0.2,0-0.1,0.3-0.4
	c-2.8,1.8-1,2.1-4.1,4c-1.8,0.7,1.4-1.4,0.4-0.8c-1-0.6-3.5,2.8-6,3.7l0.5-0.4c-1.8,0.8-3.7,2.9-6.4,4.5c0,0,0-0.2,0-0.1
	c-1.1,1-2.2,1.9-3.4,2.7c-1.4,0.9-2.9,1.8-4.2,2.6c0.6-0.8,1.1-0.8,0.4-0.9c-1.2,0.7,0.7,0.4-1.7,1.8c-0.9,0.2-2.7,0.9-3.1,0.7
	l2.3-1.2c-1.4,0-2.9,1.5-4.1,2.1v-0.3c-3.5,1.8-3.3,2.4-7.1,4.1h0.5c-1.9,1.5-1.9,0.5-3.8,1.8l-0.9-0.3c-1.4,0.7-4.7,2.6-7.2,3.7
	c1.3-1,4.1-2.4,5.9-3.4c-1.9,0.7-3.6,1.5-5.4,2.5c0.6-0.3,1.2-0.6,1.8-0.8c-2,1.4-4.2,2.5-6.5,3.3c0-1.3-7.5,2.3-9.9,2.1
	c-5.2,1.8-10.6,3.2-16.1,4.2c2.3,0.5-1.7,0.4-1.2,1.3c-0.7,0.2-1.4,0.4-2.1,0.4l-2.2,0.1h-2.2c-1.1-0.1,1.3-0.4,1.1-0.6
	c-3.1,0.5-1.4-0.2-3.4-0.1c0.5,0.3-1,0.7-2.8,0.8h2.5c-4.3,1.1-3.8-0.3-8.2,0.7l1.4-0.5c-2.2,0.5-8.2,0.7-10.5,1.4
	c-0.4-0.1-0.9-0.4,0-0.5c-5.4,0-12,0.5-16.2-0.5l0.4-0.2c-1,0.1-2,0-3-0.2c0,0,0.4-0.2,0-0.3c-1.3,0-2.7-0.1-4-0.4h1.2
	c-5.1-1.3-8-1.1-12.3-2.3c0.2-0.7-3.6-2.2-5.4-3.1h0.1c-5-1.9-9.8-4.1-14.5-6.6c-1.3-1.3-3.7-3-6.2-5.1l-1.9-1.6l-1.8-1.7
	c-1.1-1-2.2-2.2-3.1-3.4c0.5,0.7-0.5,0.3-1.2-0.4c-0.8-1-2.8-2.4-2.1-2.7l0.3,0.4c-0.1-1.2-2.1-3.2-3.2-4.9l-0.9,0.2
	c-0.6-1.4-1.4-2.8-2.2-4.1c-0.8-1.5-1.8-2.9-2.6-4.3c-1.5-2.2-2.6-4.6-3.2-7.2c-0.7-1.1-1.4-2.6-2.1-3.8h0.5
	c-1.3-3.5-1.8-5.3-3.2-9.6l0.6,0.8c-0.7-2.5-2.1-2.8-2.8-5.1l0.5-0.9c-1-4.4-1.4-9-2.6-13.4c0.1,0,0.3,0.2,0.5,0.9
	c-0.3-2.1-0.6-8.2-1.4-7.4c0.6-0.1-0.3-4.7-0.8-7.1l0.5,0.3c-0.6-1.6-1-3.3-1.1-5c0-0.7,0.3-0.6,0.2,0.3c0.1-2.3-0.5-1.8-0.3-4.6
	l0.3,1c0.1-1.2-0.1-2.4-0.5-3.5c-0.2-1.6,0.1-3.3,0.7-4.8c-0.4-1-0.5-2-0.3-3c0.2-0.2,0.2,0.3,0.3,0.6c0.5-3.9,0-5.9,0.7-8.6
	c0.2,0,0.2-0.2,0.3-0.4c-0.4,3.1-0.6,5.6-0.6,5.4c0.4,0,0.7-2.5,1.1-0.4c-0.3-2.6-0.3-5.3,0.1-8c0-0.1,0.1-0.2,0.2-0.3v0.3
	c0.1-0.5,0.2-1,0.2-1.5c0.2-0.8,0.3-1.2,0.5-2.1c0.5-1.3,0.8-2.7,1-4.1c-0.5,0,0-1.6-0.7-0.2c0-0.2,0,0.2-0.1,1.1c0,0.2,0,0.4,0,0.5
	l0,0c-0.2,0.8-0.4,1.9-0.6,3.1c-0.1-1.2,0.1-2.3,0.5-3.4c-0.1-0.6-0.3-1.3-0.3-1.9c1-1.6,2.2-4.7,2.7-5c0.8-3.8,2.6-8.6,2.9-11.1
	c0.3-1,0.7-1,1-1.4c-0.2,0.5-0.4,1.1-0.5,1.6c0.3-1,0.9-2.5,1.5-3.8c0.5-0.8,0.8-1.8,0.9-2.8c1.5-2.3-0.2,1.6,1.5-1.7v0.5
	c1-1.4,2-2.8,2.9-4.3c0.8-1.4,1.5-2.8,2.3-4.1c1.7-3.1,3.9-5.9,6.7-8.1c-0.2,0.2-0.5,0.4-0.8,0.6c6.7-6.5,14.1-13.6,22.7-17.4
	c1.3-0.7,2.5-1.5,3.6-2.5l0.7,0.2l2.2-1.7c3.5-1.9,6.7-1.5,11.1-3.7l-0.7-0.1c1.7-0.7,3.4-1.1,5.2-1.2c0.3-0.3,0.8-0.5,1.2-0.5
	l0.1,0.2l4.2-1.2c3.4-0.3-0.4,1,4.5,0.4c1.8-0.3,5.1-1.2,4.4-1.3s-1.9,0-2.1-0.2l1.7-0.3c0.2-0.8,1.6-1.7-2.7-1.8l-2.9,0.7l-0.5-0.1
	h-0.5l2.5-0.3c-1.1-0.2-2.3,0-3.3,0.6c-0.4-0.2-0.9-0.2-1.3-0.2l-2.8,1.2c-0.4-0.2,1.2-0.8-0.8-0.6c-1.3,0.6,1.4,0.3-0.7,1.1
	c-1.4,0-1.1-0.4-2.6,0.3c-0.3-0.1,0-0.3,0.7-0.6c-1.4,0.6-3.8,1-4.4,1.7c-1.5,0-4.7,1.6-4.8,0.9c-1.1,0.8-2.3,1.5-3.5,2.1
	c2.1-1.7-4.7,1.9-4.5,0.9c-1.1,1-2.4,1.8-3.8,2.4c-1.6,0.9-3.2,1.9-4.6,2.9c0.2-0.2,0.4-0.4,0.6-0.5c-1.6,0.8-2.2,0.9-3.3,1.5
	c0.1,0.7-2.1,2.4-3.2,3.5c-2.2,0.8,0.7-1.4-0.2-1.4c0.3,0.3-2.9,2.8-2.1,2.6c-1.6,0.7-1.3,0.8-2.3,0.9c0.3,0.8-1.2,1-2.1,2.4
	c-2.1,1.4-1-0.1-2.9,1.8C96.5,90.5,98.1,88.6,98.1,88.6z M69.7,145.6L69.7,145.6l0.2-1.3L69.7,145.6z M69.1,151l0.3-2.3
	c0.2-0.2,0.3,0,0.2,0.6C69.5,148.9,69.2,150.2,69.1,151L69.1,151z M73.8,140.2c-0.1,0.8-0.2,1.1-0.3,1.2l0.2-1.4v-0.1
	C73.8,140,73.8,140.1,73.8,140.2L73.8,140.2z"/>
<path class="st3" d="M125.1,163.1c0-0.1,0-0.1,0-0.2V163.1l-0.1,0.2L125.1,163.1z"/>
<path class="st3" d="M231.6,103.1h0.1l-0.2-0.1L231.6,103.1z"/>
<polygon class="st3" points="127.6,204.9 127.7,204.9 127.5,204.7 "/>
<path class="st3" d="M202.8,96.3c-0.1-0.1-0.2-0.1-0.4-0.2C202.6,96.2,202.7,96.2,202.8,96.3z"/>
<path class="st3" d="M190.2,94.7l-1.8-0.3C189.1,94.5,189.7,94.6,190.2,94.7z"/>
<path class="st3" d="M180.4,93.7c-0.1,0-0.2,0.1-0.2,0.2l0,0L180.4,93.7z"/>
<path class="st3" d="M237.9,176.6v0.2C238,177.2,238,176.9,237.9,176.6z"/>
<path class="st3" d="M283.9,125.5c0.4,0.3,0.8,0.5,1.3,0.8C284.5,125.7,284,125.3,283.9,125.5z"/>
<path class="st3" d="M289.7,216.1L289.7,216.1l-0.2,0.3L289.7,216.1z"/>
<path class="st3" d="M286.8,127.8c-0.4-0.6-1-1.1-1.6-1.5C285.6,126.8,286.2,127.4,286.8,127.8z"/>
<path class="st3" d="M137.8,93.3h-0.5l0,0H137.8z"/>
<path class="st3" d="M137.2,93.4h-0.5C136.9,93.4,137.1,93.4,137.2,93.4z"/>
<path class="st3" d="M135.6,93.7l1.1-0.2C136.3,93.5,136,93.5,135.6,93.7z"/>
<path class="st3" d="M150.8,93l0.1-0.2C150.9,92.8,150.8,92.9,150.8,93z"/>
<path class="st3" d="M154.7,92.9c-1.2-0.2-2.5-0.2-3.7-0.2l-0.1,0.1C151.5,92.5,153.8,93.3,154.7,92.9z"/>
<path class="st3" d="M171.2,95.1l-3.3-0.2c0.6,0.2,1.3,0.5-0.2,0.5C171.8,96,166.9,94.9,171.2,95.1z"/>
<path class="st3" d="M181.4,96c-1.8,0,0,0.2,0,0.3C182.4,96.3,182.7,96.2,181.4,96z"/>
<path class="st3" d="M253.5,110l-0.3,0.3C254.5,110.7,253.3,110.1,253.5,110z"/>
<polygon class="st3" points="267.3,113.8 266.2,112.9 265.4,113 "/>
<polygon class="st3" points="273,120.5 272.5,120.2 274.4,121.3 "/>
<path class="st3" d="M277.2,224.4h0.6C278.4,223.8,278.2,223.2,277.2,224.4z"/>
<path class="st3" d="M233.2,253.6c-1,0.1-2,0.5-2.8,1C231.4,254.2,232.6,253.9,233.2,253.6z"/>
<polygon class="st3" points="132.7,210 133.1,210.4 132.4,209.6 "/>
</svg>
