<?xml version="1.0" encoding="utf-8"?>
<!-- Generator: Adobe Illustrator 22.0.1, SVG Export Plug-In . SVG Version: 6.00 Build 0)  -->
<svg version="1.1" id="Layer_1" xmlns="http://www.w3.org/2000/svg" xmlns:xlink="http://www.w3.org/1999/xlink" x="0px" y="0px"
	 viewBox="0 0 288 161.8" style="enable-background:new 0 0 288 161.8;" xml:space="preserve">
<g>
	<path d="M88,78.7c0-5.1-4.1-9.2-9.2-9.2H67.2c-0.9,0-1.7,0.8-1.7,1.7v10.4v6.4v6.7c0,0.5,0.4,0.9,0.9,0.9h1.3
		c0.5,0,0.9-0.4,0.9-0.9v-6.7h10.2c0.4,0,0.7,0,1-0.1l3.3,7c0.2,0.4,0.6,0.6,1,0.6h1.6c0.5,0,0.8-0.5,0.6-1L82.8,87
		C85.8,85.5,88,82.3,88,78.7z M78.7,84.8H68.5v-3.3v-9h10.2c3.4,0,6.2,2.8,6.2,6.2S82.1,84.8,78.7,84.8z"/>
	<path d="M100.7,69.5h-1.3c-0.5,0-0.9,0.4-0.9,0.9v24.2c0,0.5,0.4,0.9,0.9,0.9h1.3c0.5,0,0.9-0.4,0.9-0.9V70.3
		C101.6,69.9,101.2,69.5,100.7,69.5z"/>
	<path d="M131.7,69.5h-8.3h-3.1H112c-0.5,0-0.9,0.4-0.9,0.9v1.3c0,0.5,0.4,0.9,0.9,0.9h8.3v22c0,0.5,0.4,0.9,0.9,0.9h1.3
		c0.5,0,0.9-0.4,0.9-0.9v-22h8.3c0.5,0,0.9-0.4,0.9-0.9v-1.3C132.6,69.9,132.2,69.5,131.7,69.5z"/>
	<path d="M161.2,69.4h-0.9c-0.6,0-1.1,0.5-1.1,1.1v14.6c0,4.1-3.3,7.4-7.5,7.3c-4-0.1-7.1-3.5-7.1-7.6V70.4c0-0.5-0.4-1-1-1h-1
		c-0.6,0-1.1,0.5-1.1,1.1v14.6c0,5.6,4.5,10.2,10.1,10.3c5.8,0.1,10.6-4.9,10.6-10.7V70.5C162.2,69.9,161.8,69.4,161.2,69.4z"/>
	<path d="M222,92.4h-14.3v-22c0-0.5-0.4-0.9-0.9-0.9h-1.3c-0.5,0-0.9,0.4-0.9,0.9v22v2.2v0c0,0.5,0.4,0.8,0.8,0.8h0h2.2H222
		c0.5,0,0.9-0.4,0.9-0.9v-1.3C222.8,92.8,222.5,92.4,222,92.4z"/>
	<path d="M184.2,70.3c-0.3-0.5-0.8-0.9-1.4-0.9c-0.6,0-1.1,0.3-1.4,0.9L170,94.5c-0.2,0.4,0.1,1,0.6,1h1.6c0.4,0,0.8-0.2,1-0.6
		l9.6-20.3l9.6,20.3c0.2,0.4,0.6,0.6,1,0.6h1.6c0.5,0,0.8-0.5,0.6-1L184.2,70.3z"/>
</g>
</svg>
