<svg id="Layer_1" data-name="Layer 1" xmlns="http://www.w3.org/2000/svg" viewBox="0 0 792 612"><defs><style>.cls-1{fill:#fff;}.cls-2{fill:#0a0200;}</style></defs><title>S_Logo</title><g id="Logo_Front" data-name="Logo Front"><circle class="cls-1" cx="357.56" cy="306.08" r="261.4" transform="translate(-28.73 37.16) rotate(-5.72)"/><path class="cls-2" d="M226.19,107.13c-.83.4-.27,1.08,2.09.73l1.58-1.38Z"/><path class="cls-2" d="M242.41,108c2.75-.79,5.92-2.06,4-3.07-2.7,1.38-3.41.9-6.29,2.56-2.37.35-4.19,0-3.83-.52-.82.39-3.73.05-4.94.94a24.21,24.21,0,0,0,11.15-.74C243.42,107.43,242.59,107.81,242.41,108Z"/><path class="cls-2" d="M473.75,127.43l-1.43-.48A9.84,9.84,0,0,0,473.75,127.43Z"/><path class="cls-2" d="M600.14,190.76c-.78-.76-1.18-1-1.3-1C599.6,190.46,600.23,191,600.14,190.76Z"/><path class="cls-2" d="M614.19,210.36l-.73-1.21A3.42,3.42,0,0,0,614.19,210.36Z"/><path class="cls-2" d="M473.75,127.43l3.66,1.25C477.77,128.35,475.56,127.94,473.75,127.43Z"/><path class="cls-2" d="M274.43,103.32a12.74,12.74,0,0,0-2.09.38l2-.19A.9.9,0,0,1,274.43,103.32Z"/><path class="cls-2" d="M411.15,116.74l-1.16-.17a6.23,6.23,0,0,0-1,.36Z"/><path class="cls-2" d="M362.73,111.47c1.09.14,1.56-.87,2-1.29a4.86,4.86,0,0,1-2.46.5C362.26,110.88,362.39,111.13,362.73,111.47Z"/><path class="cls-2" d="M285.52,107.27l-1.37.18Z"/><path class="cls-2" d="M445.5,122.72a.93.93,0,0,0,.37.45C445.89,123,445.74,122.89,445.5,122.72Z"/><path class="cls-2" d="M233.84,51.69c0,.08.06.11.07.18C234.15,51.68,234.21,51.58,233.84,51.69Z"/><path class="cls-2" d="M290.87,45.36l-.78.13a1.63,1.63,0,0,0-.14.6Z"/><path class="cls-2" d="M630.28,250.6l0-.19C629.86,249.33,630,250,630.28,250.6Z"/><path class="cls-2" d="M370.68,509.61c4.75,0-7.2,2.64-.12,2.32C369.85,511.65,376.48,509.1,370.68,509.61Z"/><path class="cls-2" d="M275.71,103.42l2-.07A16.79,16.79,0,0,0,275.71,103.42Z"/><path class="cls-2" d="M370.56,511.93h0l.73,0Z"/><path class="cls-2" d="M619.54,349.16a3,3,0,0,0,.86-.75C620.29,348.4,620.07,348.56,619.54,349.16Z"/><path class="cls-2" d="M635.88,275.78l-.12,1.88A17.54,17.54,0,0,0,635.88,275.78Z"/><path class="cls-2" d="M601,383.93a10.93,10.93,0,0,0-1.68,2.2,2.51,2.51,0,0,0,.35-.27A5.51,5.51,0,0,1,601,383.93Z"/><path class="cls-2" d="M573.5,414.69l.7-.37.92-.94Z"/><path class="cls-2" d="M131.66,129.1a6.76,6.76,0,0,1,1.94-1C132.61,128.16,136.15,123,131.66,129.1Z"/><path class="cls-2" d="M274.48,103.91a1.78,1.78,0,0,1,1.23-.49l-1.4.1C274.2,103.68,274.17,103.83,274.48,103.91Z"/><path class="cls-2" d="M606.68,390.26s-1,1.4-2.12,2.68l-2.2,2.6A58.65,58.65,0,0,0,606.68,390.26Z"/><path class="cls-2" d="M123.46,421.26l-.82-1.33A5.1,5.1,0,0,0,123.46,421.26Z"/><path class="cls-2" d="M589.19,410.86a20.68,20.68,0,0,0-3.2,2.23,3.41,3.41,0,0,0-.36.75Z"/><path class="cls-2" d="M133.62,128.07h0Z"/><path class="cls-2" d="M161.92,93.33c-4.91,4.29-1.38,3-1.87,4.52-5.34,5.56-3.27,1.74-5.66,3.07-3.13,3.75-4.91,7.15-7.32,9.81-.34,0-.86.53-.54-.29C144,115,136.6,121.9,134.36,127.65a1.93,1.93,0,0,1-.74.42c1.13-.36,1.78-.06,2.07.4-1.69,2.32-2.46,4.77-3.84,5.11A4.91,4.91,0,0,0,133,131l-1.47,2.64c-2.64,1.48,2.05-3.58,1.3-4.12-3.34,4.89-5.75,11.48-8.58,15-1.6.15,5.31-9.13,1.11-4.64l4.17-5.64c-4.55,3.41,2.42-3.53-2-.56-5.24,7.7-5.29,9-9.89,17-.36,2.17,1.24-.11.88,2.05-2.62,6-4.25,8-5.81,9.69s-2.89,3-4.07,7.72c-.18,2.63,1,4.09-2.13,10.21l-.59-2.69c-3,8.45.24,5.46-3.4,14.1-.06-1.74,1.59-6.85,1-5.6-2.84,5.48-.52,4.33-1.72,8.8l-1.48.6c-2.28,9.26-3.49,19.7-4.76,30.07-.29-.62-.41-2.46-1.16-.09-1.29,13.19-3.16,28.05-4.14,40.8l1,4.88c0,1.13-.51,2.09-.71.87-.44,5,.69.26,1.11,2.64.06,2.81-.6,3.72-1,1.94.86,8.77,2.75,24.8,2.39,34.06L92.58,309c.26,7.2,3,7.83,2.75,14.54L95,322.31c1.37,15.55,5.79,32.19,7.27,44.11,1.06.89,1.91,4.66,2.8,8.26s2.12,7,3.32,7.08c1.68,8.83.64,6.49,4.4,18.58,1.27,3.14,3.31,4.07,5.2,7.76l-1,.57,1.7,2.33a28.18,28.18,0,0,0,1.78,2.28l.14,3.29,2.05,3.35c-.65-1.42-1.06-3.18-.65-3.12,3.07,5.25,6.48,13.4,6.07,13.85l1.29,1.87c.79,1.12,1.76,2.64,2.93,4.05l4.49,5.71c-.56,0-2.06-1.91-3.4-3.34,5.35,5.74-.2,1.86,4.7,7.12-.33-.94.84,0,1.15,0A66.7,66.7,0,0,0,150,459.9l-1.37-.32,5.59,6.18c2,2,4.19,3.93,6.34,5.93,4.27,4,9,7.77,13.85,11.48-3.27-2.9-1.59-3.37,1.3-1.37l.4,1.82c2.28.76-2.69-2.57,1.62-.52,3.52,2.78,1.63,2.93-.7,1.7l2.33,1.47c1.15.76,2.37,1.4,2.37,1.4.06.48-1.12-.08-1.67.12,2.33.56,7.22,6.42,10.8,6.85l.08.47c10.46,6.22,15.69,8.11,24.72,12,.59-.9,4.06.77,7.07,1.08,6.59,2.84,13.91,6.25,22.35,8.35,6,1,1.95-.41,4.74-.33.17,1.15,8.68,2.81,4.13,2.55,5.1,1.08,8.37,1.66,12,2.13s7.63.88,14.18,1.34c-1.37-.55-2.93-1-2.07-1.16,2.36.21,5.32,1,4.94,1.41l-.64,0c14.63.23,34,4.51,45.65,1.63l-.65.13,6-1c3-.47,6-1.06,6-1.06,5.56-.45-3.26,1.09.91,1.22,12.83-3,20.58-2.44,31-5.55,8.82,1.3,28.79-6.7,40-8.35l-.81-.45c2.6-1.43,3.47-.64,5.56-1.14-.44-.4-3.18.38-1.57-.51,23.21-8,48.15-15.71,71.39-25.7,8.48-3.7,3.27-5.31,14.41-9l-2.41,2.57c16-9.49,33.72-18,48.11-29.39-.74.84-.56,1.17-2,2.16,3.78-1.32,11.69-8.27,11.31-8.87,2.35-1.62.94.16,2.57-.61,3.38-2,7-6.9,9.11-7.56.36-.12-.63,1-1.16,1.43,1.69-1.94,9.07-7.6,6.55-6.79,5.48-4.22,9.46-9.16,13.68-12.71,1.76-3.28,8.53-8.2,8-10.18.44.72,2.8-1.23,5.11-4a58.28,58.28,0,0,0,5.78-8.26c-.45,1.5,2.65-2.78,2.21-1,2.92-4.1,5.33-8,4.1-7.79a39.25,39.25,0,0,0,7.25-11.2c1.68-3.79,3.23-7,5.56-8.76a213.41,213.41,0,0,0,12.87-39.83c.76.43-.15,4-1,7.46s-2.08,6.66-1.13,6.68c3.35-12.32,3.56-19.75,5.87-32,.65-3.19.48,1.93.62,3.07,1.35-12.59,2.52-24.5.94-35.74a7.58,7.58,0,0,1,.66,2.37c-.24-2.22-.19-5.19-.93-4.88l.39,2.15c-.86,3.57-3-8.56-3.78-8.81,2.79,3.4-1.25-11,2.46-5.55-.38-1.43-1-3.18-1.49-2.74-.22-2.16,0-2.91.91-.85-2.18-7.72-2.4-4.74-4.11-11.73.38-.09.86,1.29,1.47,1.9-1.55-3.39-3.66-6.53-5.28-12.4.34.26.37-.51,1,1.21-4.07-9.72-8.89-15.48-14.57-25.28,3.25,1.88-1.76-3.49-1-4.81L616,199.67l-2.12-2.27,1,2.33c-3.5-4.11-7-7.36-10-10.87,0,0,3.23,2.45,3.16,2.52a11.05,11.05,0,0,0-1.08-1.14l-2.48-2.43-3.6-3.52,3.58,4.45c-4.29-3.38-.88,1.63-5.52-3.71.53.48-.33-.53-1.64-1.85a28.48,28.48,0,0,1-3.76-4.23h0a50.92,50.92,0,0,1-7.48-5.51c-.54-1,1.61-.71,1.26-1.35-1.4-.34-3.93-2.18-6.54-4.06s-5.51-3.49-7.2-3.9c1.07.36,1.53-.21,1.31-.54l-2.34-.42c-1.88-1.62-2.11-2-1.46-2.22-6.27-4,1.11,2.67-6.07-2.45a12.52,12.52,0,0,1,1.74.6c-7.39-4.92-15.17-7.85-22.32-11.66-1.59-2.27,6.6,2.65,4.62.44-10.76-4.84-22.89-8.27-33.45-12.27l1.93.86c-2.09,1.27-7.64-3.65-13.39-4.51,1.37.29,2.08-.49,1.65-.39-7.3-2.65-15.33-4.09-26.83-6.35l1.53-.13c-4.31-1.54-11.62-3-16.38-4.29-1.54.2-4.27-.46-2.75.62-14.26-6-28.63-4-41.48-8.49,1.59.22,3.86.14,2.6-.06l-11.41-1.22c.77,1,1.41.74,3.69,1.76a27.86,27.86,0,0,1-7.55-.2c5.16.2.16-1.42-2-2.15.33.31-.46.5-.31.79-5.73-2.29-1.22,1.6-9.17-.47l.48-.4c-3.05-.18-5.92.1-9.17-.37-1.25-1.14,3.28-.11,3.59-.91-4.61-.44-9.27.9-13.33-.54,2-.07,4.79.24,6.77.17-4.41-1.65-5-1.45-8.33-1.94l.33.06-7.76-1.22,2,.49c-6,2-11.8-.53-19.7.66,7.66-1.09,1.31-.85,2-1.94-2-.45-5-1-4.09-1.27-3.74.67-6.12-1-11.4,0-.22-.38-3.94-.23-3.07-1.11-4.81,0,1.11.69.68,1.13-7.42.94-17.35-2.17-28-.51-9.18.59-10.86,2-19.34,2.61-2.88-.55,2.33-1.35,2.33-1.35a49.77,49.77,0,0,0-12.47.27c.87-.34,0-.59-1.39-1-3.5.21-2.3,1.35-6.93,1a12.85,12.85,0,0,1,3.44-1.61c-4.12.5-8.16,1.4-12.41,1.92-1.17-.58,2.53-1.09,4-1.57-4.79.47-12.41,1.23-13.82,2.36l3.09.15c-1.74.17-1-.8.33-1.07,4.06-1.09,5.95,0,6.2.37l-3,.38c3.23,2,12.17-1,18.31-1l-2.49,1.63,6.23-1.47c1.35.37,2.28,1.21-.73,1.53,4.4.65,3.86-.66,7.64.09.42.12.23.2-.15.27l4.27-.52c-.83.33.73,1.09-1.9.89,7.67.85,12.36-1.3,15.26-.09l-.64.09c10.65-.41,1-1.13,9-2.38l5.33,2.88,1.07-1.11c1.1.07,3.27.23,2.85.67,4.11-.66-.68-.52,1.71-1.18,5.26,1.15,14.61,0,15.71,1.94,1.94-.77-5-.92.65-1.24,1.51,2.06,6.54-.07,11.31,1.19-1.54.91-6.07.05-1.31,1.29,3-1.5,9.35,1,13.42,1,.3-1.33,8.87.2,15.71.4-.48.45,12.72,2,18.94,3.41l-.21.2c1.39-1.18,7.87-.17,12.63.26-.3.8-1.19,1-3.8,1l4.44.63a16.48,16.48,0,0,1,5.43,0l-1.27.85c5.91.77,12.06.65,19.52,2.61.6-.87-5.58-3.64,2.56-2.92.21.56.35,1.48-1.79,1.34a13.79,13.79,0,0,1,3.87.47l-3.35.29c3.38,1,1.93-.39,4.67.19-.19.72,1.94.9,1.44,1.4-.71-.06-2.34-.75-3.45-.67,3.08.71,6.74,1.85,7.87,2.63-.19-.46.19-1,2.47-.64,5.88,1.06,1.84,1.25,5.17,2.31,1.52-.21,5.13,1.09,5.45,0a4.47,4.47,0,0,1,2.52,1.36c3.15.08,14.08,3,11,1.08l-.75-.25.5.07h0c10.15,1.14,20.24,5.73,30,8.12l-.12.35c5.82,1.44,12.76,3.81,17,4.61,1.67.61,3.7,2.06,2.83,2.21a40.59,40.59,0,0,1,10.89,4.21c-4.5-1.14,1.25,1.12-4.53-1.34,5.36,2.56,6.41,3.47,12.57,5.25-2.35,0,3.55,2.93,6.21,3.86l-3.47-2.35a58.13,58.13,0,0,1,7.82,3.87l-1.91.41a49.19,49.19,0,0,0,7.51,4.2c2.42,1.26,4.82,2.34,7.14,3.4a32.31,32.31,0,0,1,11.83,8.06c3.15,1.06-5.08-4.13-2.14-3.39,4.64,3.12,8,8.24,9.37,9.23,5.52,5.09,6.52,3.14,12.23,8.66-.51-.92-.23-2.67,4.22,1.36,3.79,4.15,3.41,6.18.73,3.93-.95-.92-1.29-1.48-1.15-1.54-1.36-1.17-3.12-2.71-1.94-.8l.81.2c1.61,2.26,6.85,7.69,5.05,6.91,2.92,2.92,1.71.86-.14-1.61,4,5.85,7.24,8.32,10.83,14.65-.45-1.08-.62-2.26,0-1.31,5.56,9.09,3.38,3.39,7.22,9.57,1.43,3.92-2.13-.5,1.92,5.57,1.41,4.23-.56,1.31-1.77,0,3.59,5.53,4.68,11.28,5.57,14.86l-1.44-3.1a49,49,0,0,1,1.95,5l.2-2.14c.51,2,1.06,3.57.7,3.65,1.24,1.8.88-2,3,1.74.25,2.75,2.5,8,1.59,9.13-1.69-8.37-.93,1.17-2.86-5.74a29.39,29.39,0,0,1,1.22,4.94c-.05.32-.31-.22-.51-.74.86,8.05,2.06,3.35,3.55,11.68-.87-1-.84,2.08-.68,3.44-.32-3.36,1-1.77,1.73,1.32-.09,5.47,1,5.87,1,8.74.07,0,0-3.27,0-3.27.83,1.06.82,3.81,1,7.65-.51.33-.39-3.47-.6-2.1.6,2.11.33,4.53,0,7.13a32.4,32.4,0,0,0-.85,8.35c-.62,2.69-1.26.16-1.71,2.51-.1,6.61-1.61,7-2.24,13.82,1.27-1.79,1.13-2.19,1,2.78l.81-5.67.44-5.7L634,305c.13,1.88,0,3.74,0,3.74.69-3.41.46-7.32.93-9.34.26,3.56.09,3.19,1,1.63-1.83,4.54-.63,9.48-2.65,14.72l-2.13-.64c-2.73,7.71-2.43,14.42-6.57,24.33a16.5,16.5,0,0,0,.78-1.54l.73-1.56c.47,1.7-2.22,6.22-3.19,9.57-.56-.58-1.62,1.32-2.59,2.5.59.07-3.38,7-2.48,8.54l-1.46,1.94-1.58,1.86c-4.42,7.37-3,9.66-7.67,16.6.67-2.56-1.78.34.7-4.67-1.48,2.33-2.92,4.36-2.51,4.68-1.28,1.07-3.66,6.82-5.7,8.49-.41,1.16-.05,1.91-2.07,4.32-.33.17-.28-.24-.28-.24.28.23-2.69,4.13-.34,2.51-3.52,2.71-7.52,7.16-11.37,11.61-4.06,4.24-7.94,8.5-11.42,10.26a189.5,189.5,0,0,1-13.9,12.89c.14-.39-.22-.3.65-.88-6.45,4.14-2.31,4.66-9.77,9.28-4.31,1.66,3.35-3.24.84-2-2.43-1.27-8.22,6.53-14,8.54l1.09-.91c-4.11,1.86-8.57,6.77-14.91,10.45,0,0,.2-.36-.15-.34a67.19,67.19,0,0,1-7.95,6.2c-3.26,2.12-6.79,4.29-9.82,6.13,1.49-1.88,2.58-2,.95-2.18-2.71,1.63,1.57,1-3.92,4.11-2.07.48-6.33,2.16-7.32,1.51l5.26-2.77c-3.3.22-6.81,3.55-9.76,4.68l.11-.7c-8.09,4.15-7.63,5.46-16.61,9.42h1.11c-4.35,3.46-4.46,1-8.94,4.15l-2.06-.73c-3.13,1.67-10.92,6-16.77,8.57,3-2.31,9.67-5.56,13.65-7.94-3.23,1.35-11,4.57-12.44,5.89a19.2,19.2,0,0,1,4.17-1.93c-3.57,2.67-8.66,5.24-15.24,7.64.21-3.06-17.42,5.45-23,4.72-11.44,4.72-23.52,6.57-37.41,9.83,5.44,1.07-4.06,1-2.73,3-3.25.84-4.52,1-4.84.94l-5.1.31-5.1.18c-2.47-.26,3-1,2.65-1.48-7.21,1-3.17-.44-8-.25,1.1.67-2.32,1.51-6.47,1.78l5.93.23c-9.93,2.63-8.94-.66-19,1.59l3.14-1c-5.17,1-19.22,1.53-24.33,3.29-.94-.25-2.17-.86.14-1.06-12.46.06-28,1.24-37.55-1.24l1-.43c-2.33-.16-4.18.51-7-.47.19-.2,1-.39,0-.61-1.24,0-6.28-.09-9.26-1l2.72-.14c-11.76-3.08-18.61-2.51-28.58-5.27.51-1.53-8.39-5.09-12.64-7.23l.24-.15c-12.91-5.54-22.37-8.71-33.8-15.3-2.94-3-8.48-7-14.16-11.86l-4.32-3.68-4.09-4a65.28,65.28,0,0,1-7.2-7.85c1.12,1.67-1.15.64-2.84-1-1.86-2.43-6.53-5.6-5-6.25l.65.88c-.24-2.8-4.57-7.34-7.35-11.38l-2.07.48a66.71,66.71,0,0,0-5.15-9.6c-1.9-3.38-4.11-6.77-6.18-10-3.85-6.7-7.32-12.85-7.45-16.65-1.7-2.65-3.34-6.15-4.83-8.9l1-.23c-2.9-8.14-4.15-12.25-7.54-22.39l1.34,1.87c-1.59-5.78-5-6.5-6.52-11.91l1.14-2c-2.42-10.31-3.23-21-6-31.13.25.14.75.38,1.05,2.06-.83-4.91-1.26-19.19-3.22-17.19,1.28-.25-.78-10.88-1.77-16.59l1.1.83c-1.57-4.76-1.89-4.91-2.51-11.66.08-1.61.78-1.42.59.71.35-5.35-1.08-4.15-.61-10.65l.68,2.41c.06-5.5-.26-5.06-1-8.1-.38-3.47.52-10.45,1.52-11.21-.55-.76-1.2-3.81-.71-7,.38-.41.53.78.6,1.37,1.25-9.1-.16-13.73,1.58-19.9.36-.09.58-.48.75-1-.94,7.21-1.43,13.06-1.46,12.51,1,.07,1.61-5.74,2.55-1-.35-4.72-1-12.92.33-18.52a2.91,2.91,0,0,1,.44-.7l0,.6a16.36,16.36,0,0,0,.4-3.59c.45-1.77.79-2.88,1.11-4.6.85-.53,1.7-6.49,2.35-9.32-1.09,0,0-3.68-1.71-.38.17-.44,0,.57-.35,2.48a11.8,11.8,0,0,0-.15,1.24l0-.21c-.38,1.88-.84,4.34-1.31,7.15a16.73,16.73,0,0,1,1.13-7.9,42.24,42.24,0,0,1-.79-4.37c2.3-3.62,5.08-10.85,6.24-11.62,1.85-8.73,6.14-20,6.84-25.77.8-2.43,1.7-2.44,2.37-3.18a32.94,32.94,0,0,0-1.2,3.83c.83-2.39,2.19-5.9,3.52-8.88s2.5-5.54,2.18-6.4c3.58-5.35-.59,3.78,3.38-4.07l-.19,1.25a108.44,108.44,0,0,0,6.62-9.94c1.77-3.3,3.54-6.4,5.42-9.53a61.72,61.72,0,0,1,15.47-18.8,6.44,6.44,0,0,1-1.94,1.29C168,98.56,185.1,82.15,205.05,73.28c5.48-2.76,5.74-3.65,8.81-5.93l1.7.43,5.22-4c8.1-4.45,15.53-3.51,25.92-8.55L245.07,55c3.91-1.37,12.61-3.71,12.1-2.81a4.21,4.21,0,0,1,2.8-1.09l.25.55c-.06-.21,9.8-2.86,9.8-2.86,7.86-.77-.86,2.25,10.46,1,4.17-.61,11.91-2.82,10.31-3.07-1.72.13-4.42,0-4.6-.54l3.9-.67c.59-1.8,3.64-3.86-6.32-4.18L277,43l-1.16-.31-1.15-.23c0-.13,5.77-.67,5.77-.67-3.38-.52-5.39.4-7.61,1.32a5.76,5.76,0,0,0-3-.44l-6.38,2.76c-.94-.53,2.74-1.83-1.83-1.44-2.94,1.42,3.26.82-1.73,2.48-3.35,0-2.58-.85-6.17.73-.64-.31.09-.78,1.54-1.34-3.21,1.38-8.84,2.29-10.23,3.87-3.55.12-10.95,3.8-11.17,2.14a59.18,59.18,0,0,1-8.1,4.64c4.58-4-11,4.34-10.37,2-1.56,1.74-5,3.61-8.75,5.57a107.48,107.48,0,0,0-10.79,6.8,4.68,4.68,0,0,1,1.5-1.24c-3.79,2-5.12,2.16-7.57,3.44.33,1.54-5,5.49-7.42,8.2-5,1.89,1.57-3.24-.5-3.36.79.69-6.61,6.39-4.6,6.1-3.69,1.73-3,1.75-5.36,2.06.61,1.88-2.83,2.43-4.54,5.56-4.92,3.13-2.24-.31-6.64,4.32C158.1,97.57,161.92,93.33,161.92,93.33Zm-66,132.41h0l.41-3.06Zm-1.51,12.47L95,232.8c.42-.39.72.12.55,1.37C95.38,233.46,94.87,236.38,94.36,238.21Zm11-24.88c-.24,1.92-.53,2.53-.8,2.75l.52-3.35-.08-.25A1.84,1.84,0,0,1,105.4,213.33Z"/><path class="cls-2" d="M104.76,209.64c0-.28,0-.44.09-.8l-.47,1.09.18.74Z"/><path class="cls-2" d="M472.08,126.87l.25.08a2.32,2.32,0,0,1-.5-.27A1.9,1.9,0,0,1,472.08,126.87Z"/><polygon class="cls-2" points="116.73 408.81 116.96 408.68 116.3 407.76 116.73 408.81"/><path class="cls-2" d="M405.27,111.07a2.27,2.27,0,0,0-.86-.38A2.89,2.89,0,0,0,405.27,111.07Z"/><path class="cls-2" d="M375.8,107.4l-4.15-.75C373.44,107,374.75,107.25,375.8,107.4Z"/><path class="cls-2" d="M353.07,105a1.16,1.16,0,0,0-.48.42h0Z"/><path class="cls-2" d="M642.85,273.89l.09.9C643.16,276.9,643.11,275.46,642.85,273.89Z"/><path class="cls-2" d="M593.58,179c1,.62,2,1.24,3,2C595.14,179.57,594,178.55,593.58,179Z"/><path class="cls-2" d="M607.13,389.67v0l-.45.62Z"/><path class="cls-2" d="M600.21,184.41a15.8,15.8,0,0,0-3.67-3.5C597.7,182,599,183.34,600.21,184.41Z"/><path class="cls-2" d="M254.06,104.18l-1.1,0c0,.07,0,.13-.12.18Z"/><path class="cls-2" d="M252.84,104.38l-1.21.21A3.13,3.13,0,0,0,252.84,104.38Z"/><path class="cls-2" d="M249.08,105l2.55-.44A6.73,6.73,0,0,0,249.08,105Z"/><path class="cls-2" d="M284.32,103.43l.34-.39A.53.53,0,0,0,284.32,103.43Z"/><path class="cls-2" d="M293.51,103.2c-2.19-.05-5.52-.8-8.57-.47l-.28.31C286.09,102.4,291.44,103.87,293.51,103.2Z"/><path class="cls-2" d="M331.69,108.47l-7.65-.54c1.33.45,3.07,1-.41,1C333.23,110.47,321.67,108,331.69,108.47Z"/><path class="cls-2" d="M355.36,110.4c-4.11-.1,0,.59-.23.81C357.76,111,358.39,111,355.36,110.4Z"/><path class="cls-2" d="M523,142.91l-.73.75C525.29,144.61,522.44,143.33,523,142.91Z"/><polygon class="cls-2" points="555.04 151.8 552.53 149.83 550.82 149.93 555.04 151.8"/><polygon class="cls-2" points="568.39 167.34 567.19 166.69 571.69 169.29 568.39 167.34"/><path class="cls-2" d="M578.16,408.94l1.5.16C581,407.43,580.36,406.19,578.16,408.94Z"/><path class="cls-2" d="M475.79,476.74a13.66,13.66,0,0,0-6.57,2.41C471.81,478.12,474.55,477.44,475.79,476.74Z"/><polygon class="cls-2" points="140.96 433.14 142.67 434.94 139.79 431.32 140.96 433.14"/><path class="cls-2" d="M446.56,384.44c0,41.46-34.83,74.63-92.87,74.63-23.77,0-47.54-6.08-66.34-19.35-3.32-2.21-4.42-5.53-5-11.05L276.85,375c-.55-3.32,5.53-3.87,6.63-1.66,9.95,41.46,42.57,76.84,81.82,76.84,22.11,0,47.54-11.61,47.54-46.44C412.84,326.4,282.38,333,282.38,254c0-43.67,39.8-66.89,83.48-66.89,16.58,0,35.93,3.87,55.28,12.72,6.63,2.76,7.74,4.42,8.29,9.4l3.87,48.1c0,3.32-6.08,3.87-6.63,1.11-5-26-32.06-63-70.21-63-27.64,0-42,18.8-42,43.12C314.44,312,446.56,304.28,446.56,384.44Z"/></g></svg>