<svg id="Layer_1" data-name="Layer 1" xmlns="http://www.w3.org/2000/svg" viewBox="0 0 360 360"><defs><style>.cls-1{fill:#0a0300;}</style></defs><title>Squiggle_Size5</title><path class="cls-1" d="M207.53,127.12a.52.52,0,0,0,0,.33,2.9,2.9,0,0,0,.12.31,2.89,2.89,0,0,1,.12.31.5.5,0,0,1,0,.32,1.89,1.89,0,0,1-.77,2.28l.22.25c-.3,0-.5,0-.6.14a1.35,1.35,0,0,0-.22.41,2.28,2.28,0,0,0-.64.18l-.5.24a2.89,2.89,0,0,1-.53.2,2.36,2.36,0,0,1-.75,0,1.92,1.92,0,0,1-.33-.15.78.78,0,0,1-.17-.14.86.86,0,0,1-.11-.15,1.17,1.17,0,0,0-.13-.18.25.25,0,0,1,.21-.15,1.77,1.77,0,0,1,.41,0l.5,0,.48,0a3.69,3.69,0,0,0,1-.52,7.72,7.72,0,0,1,1-.64.38.38,0,0,1-.11-.39.34.34,0,0,1,.32-.22,2.7,2.7,0,0,0,.06-1.34,11.11,11.11,0,0,0-.37-1.5,5.48,5.48,0,0,1-.73-.6,5.46,5.46,0,0,0-.73-.6q-.18-.2-.14-.29c0-.07.11-.07.25,0a.22.22,0,0,1,.09-.13,1.3,1.3,0,0,1,.29-.07,2.49,2.49,0,0,1,.51.4,5.36,5.36,0,0,1,.43.5l.41.55A7.44,7.44,0,0,0,207.53,127.12Z"/><path class="cls-1" d="M204.16,131.81c.13,0,.19.11.16.17s-.11.11-.27.13a2.63,2.63,0,0,0-.83,0,2.41,2.41,0,0,1-.81,0,2.88,2.88,0,0,0-1.24.47,2.44,2.44,0,0,0-.74.83,2.52,2.52,0,0,0-.29,1.06,3.48,3.48,0,0,0,.12,1.14,4.44,4.44,0,0,0,.15.49,2.7,2.7,0,0,0,.29.57,3.06,3.06,0,0,0,.52.59,3.7,3.7,0,0,0,.85.55l-.1.3c-.05.15-.2.19-.44.11a2.76,2.76,0,0,1-.76-.39,6.54,6.54,0,0,0-.39-.53l-.46-.57a4.42,4.42,0,0,1-.39-.58,1.49,1.49,0,0,1-.2-.55,1.52,1.52,0,0,1-.29-.65,2.22,2.22,0,0,1,0-.57,5.39,5.39,0,0,1,.09-.54,1.54,1.54,0,0,0,0-.53,2,2,0,0,1,.55-.82,3.72,3.72,0,0,1,1-.63,6.43,6.43,0,0,1,1.25-.42,9.29,9.29,0,0,1,1.41-.21,1.73,1.73,0,0,1,.36.06.55.55,0,0,1,.19.1.77.77,0,0,1,.13.13Z"/><path class="cls-1" d="M202.92,139.32a.52.52,0,0,0,0,.33,2.9,2.9,0,0,0,.12.31,2.89,2.89,0,0,1,.12.31.5.5,0,0,1,0,.32,1.89,1.89,0,0,1-.77,2.28l.22.25c-.3,0-.5,0-.6.14a1.35,1.35,0,0,0-.22.41,2.28,2.28,0,0,0-.64.18l-.5.24a2.89,2.89,0,0,1-.53.2,2.36,2.36,0,0,1-.75,0,1.92,1.92,0,0,1-.33-.15.78.78,0,0,1-.17-.14.86.86,0,0,1-.11-.15,1.17,1.17,0,0,0-.13-.18.25.25,0,0,1,.21-.15,1.77,1.77,0,0,1,.41,0l.5,0,.48,0a3.69,3.69,0,0,0,1-.52,7.72,7.72,0,0,1,1-.64.38.38,0,0,1-.11-.39.34.34,0,0,1,.32-.22,2.7,2.7,0,0,0,.06-1.34,11.11,11.11,0,0,0-.37-1.5,5.48,5.48,0,0,1-.73-.6,5.46,5.46,0,0,0-.73-.6q-.18-.2-.14-.29c0-.07.11-.07.25,0a.22.22,0,0,1,.09-.13,1.3,1.3,0,0,1,.29-.07,2.49,2.49,0,0,1,.51.4,5.36,5.36,0,0,1,.43.5l.41.55A7.44,7.44,0,0,0,202.92,139.32Z"/><path class="cls-1" d="M200.35,144c.13,0,.19.11.16.17s-.11.11-.27.13a2.63,2.63,0,0,0-.83,0,2.41,2.41,0,0,1-.81,0,2.88,2.88,0,0,0-1.24.47,2.44,2.44,0,0,0-.74.83,2.52,2.52,0,0,0-.29,1.06,3.48,3.48,0,0,0,.12,1.14,4.44,4.44,0,0,0,.15.49,2.7,2.7,0,0,0,.29.57,3.06,3.06,0,0,0,.52.59,3.7,3.7,0,0,0,.85.55l-.1.3c-.05.15-.2.19-.44.11a2.76,2.76,0,0,1-.76-.39,6.54,6.54,0,0,0-.39-.53l-.46-.57a4.42,4.42,0,0,1-.39-.58,1.49,1.49,0,0,1-.2-.55,1.52,1.52,0,0,1-.29-.65,2.22,2.22,0,0,1,0-.57,5.39,5.39,0,0,1,.09-.54,1.54,1.54,0,0,0,0-.53,2,2,0,0,1,.55-.82,3.72,3.72,0,0,1,1-.63,6.43,6.43,0,0,1,1.25-.42,9.29,9.29,0,0,1,1.41-.21,1.73,1.73,0,0,1,.36.06.55.55,0,0,1,.19.1.77.77,0,0,1,.13.13Z"/><path class="cls-1" d="M199,151.37a.52.52,0,0,0,0,.33,2.9,2.9,0,0,0,.12.31,2.89,2.89,0,0,1,.12.31.5.5,0,0,1,0,.32,1.89,1.89,0,0,1-.77,2.28l.22.25c-.3,0-.5,0-.6.14a1.35,1.35,0,0,0-.22.41,2.28,2.28,0,0,0-.64.18l-.5.24a2.89,2.89,0,0,1-.53.2,2.36,2.36,0,0,1-.75,0,1.92,1.92,0,0,1-.33-.15.78.78,0,0,1-.17-.14.86.86,0,0,1-.11-.15,1.17,1.17,0,0,0-.13-.18.25.25,0,0,1,.21-.15,1.77,1.77,0,0,1,.41,0l.5,0,.48,0a3.69,3.69,0,0,0,1-.52,7.72,7.72,0,0,1,1-.64.38.38,0,0,1-.11-.39.34.34,0,0,1,.32-.22,2.7,2.7,0,0,0,.06-1.34,11.11,11.11,0,0,0-.37-1.5,5.48,5.48,0,0,1-.73-.6,5.46,5.46,0,0,0-.73-.6q-.18-.2-.14-.29c0-.07.11-.07.25,0a.22.22,0,0,1,.09-.13,1.3,1.3,0,0,1,.29-.07,2.49,2.49,0,0,1,.51.4,5.36,5.36,0,0,1,.43.5l.41.55A7.44,7.44,0,0,0,199,151.37Z"/><path class="cls-1" d="M195.62,156.06c.13,0,.19.11.16.17s-.11.11-.27.13a2.63,2.63,0,0,0-.83,0,2.41,2.41,0,0,1-.81,0,2.88,2.88,0,0,0-1.24.47,2.44,2.44,0,0,0-.74.83,2.52,2.52,0,0,0-.29,1.06,3.48,3.48,0,0,0,.12,1.14,4.44,4.44,0,0,0,.15.49,2.7,2.7,0,0,0,.29.57,3.06,3.06,0,0,0,.52.59,3.7,3.7,0,0,0,.85.55l-.1.3c-.05.15-.2.19-.44.11a2.76,2.76,0,0,1-.76-.39,6.54,6.54,0,0,0-.39-.53l-.46-.57a4.42,4.42,0,0,1-.39-.58,1.49,1.49,0,0,1-.2-.55,1.52,1.52,0,0,1-.29-.65,2.22,2.22,0,0,1,0-.57,5.39,5.39,0,0,1,.09-.54,1.54,1.54,0,0,0,0-.53,2,2,0,0,1,.55-.82,3.72,3.72,0,0,1,1-.63,6.43,6.43,0,0,1,1.25-.42,9.29,9.29,0,0,1,1.41-.21,1.73,1.73,0,0,1,.36.06.55.55,0,0,1,.19.1.77.77,0,0,1,.13.13Z"/><path class="cls-1" d="M194.38,163.57a.52.52,0,0,0,0,.33,2.9,2.9,0,0,0,.12.31,2.89,2.89,0,0,1,.12.31.5.5,0,0,1,0,.32,1.89,1.89,0,0,1-.77,2.28l.22.25c-.3,0-.5,0-.6.14a1.35,1.35,0,0,0-.22.41,2.28,2.28,0,0,0-.64.18l-.5.24a2.89,2.89,0,0,1-.53.2,2.36,2.36,0,0,1-.75,0,1.92,1.92,0,0,1-.33-.15.78.78,0,0,1-.17-.14.86.86,0,0,1-.11-.15,1.17,1.17,0,0,0-.13-.18.25.25,0,0,1,.21-.15,1.77,1.77,0,0,1,.41,0l.5,0,.48,0a3.69,3.69,0,0,0,1-.52,7.72,7.72,0,0,1,1-.64.38.38,0,0,1-.11-.39.34.34,0,0,1,.32-.22,2.7,2.7,0,0,0,.06-1.34,11.11,11.11,0,0,0-.37-1.5,5.48,5.48,0,0,1-.73-.6,5.46,5.46,0,0,0-.73-.6q-.18-.2-.14-.29c0-.07.11-.07.25,0a.22.22,0,0,1,.09-.13,1.3,1.3,0,0,1,.29-.07,2.49,2.49,0,0,1,.51.4,5.36,5.36,0,0,1,.43.5l.41.55A7.44,7.44,0,0,0,194.38,163.57Z"/><path class="cls-1" d="M191.81,168.27c.13,0,.19.11.16.17s-.11.11-.27.13a2.63,2.63,0,0,0-.83,0,2.41,2.41,0,0,1-.81,0,2.88,2.88,0,0,0-1.24.47,2.44,2.44,0,0,0-.74.83,2.52,2.52,0,0,0-.29,1.06,3.48,3.48,0,0,0,.12,1.14,4.44,4.44,0,0,0,.15.49,2.7,2.7,0,0,0,.29.57,3.06,3.06,0,0,0,.52.59,3.7,3.7,0,0,0,.85.55l-.1.3c-.05.15-.2.19-.44.11a2.76,2.76,0,0,1-.76-.39,6.54,6.54,0,0,0-.39-.53l-.46-.57a4.42,4.42,0,0,1-.39-.58,1.49,1.49,0,0,1-.2-.55,1.52,1.52,0,0,1-.29-.65,2.22,2.22,0,0,1,0-.57,5.39,5.39,0,0,1,.09-.54,1.54,1.54,0,0,0,0-.53,2,2,0,0,1,.55-.82,3.72,3.72,0,0,1,1-.63,6.43,6.43,0,0,1,1.25-.42,9.29,9.29,0,0,1,1.41-.21,1.73,1.73,0,0,1,.36.06.55.55,0,0,1,.19.1.77.77,0,0,1,.13.13Z"/><path class="cls-1" d="M190.51,175.69a.52.52,0,0,0,0,.33,2.9,2.9,0,0,0,.12.31,2.89,2.89,0,0,1,.12.31.5.5,0,0,1,0,.32,1.89,1.89,0,0,1-.77,2.28l.22.25c-.3,0-.5,0-.6.14a1.35,1.35,0,0,0-.22.41,2.28,2.28,0,0,0-.64.18l-.5.24a2.89,2.89,0,0,1-.53.2,2.36,2.36,0,0,1-.75,0,1.92,1.92,0,0,1-.33-.15.78.78,0,0,1-.17-.14.86.86,0,0,1-.11-.15,1.17,1.17,0,0,0-.13-.18.25.25,0,0,1,.21-.15,1.77,1.77,0,0,1,.41,0l.5,0,.48,0a3.69,3.69,0,0,0,1-.52,7.72,7.72,0,0,1,1-.64.38.38,0,0,1-.11-.39.34.34,0,0,1,.32-.22,2.7,2.7,0,0,0,.06-1.34,11.11,11.11,0,0,0-.37-1.5,5.48,5.48,0,0,1-.73-.6,5.46,5.46,0,0,0-.73-.6q-.18-.2-.14-.29c0-.07.11-.07.25,0a.22.22,0,0,1,.09-.13,1.3,1.3,0,0,1,.29-.07,2.49,2.49,0,0,1,.51.4,5.36,5.36,0,0,1,.43.5l.41.55A7.44,7.44,0,0,0,190.51,175.69Z"/><path class="cls-1" d="M187.14,180.38c.13,0,.19.11.16.17s-.11.11-.27.13a2.63,2.63,0,0,0-.83,0,2.41,2.41,0,0,1-.81,0,2.88,2.88,0,0,0-1.24.47,2.44,2.44,0,0,0-.74.83,2.52,2.52,0,0,0-.29,1.06,3.48,3.48,0,0,0,.12,1.14,4.44,4.44,0,0,0,.15.49,2.7,2.7,0,0,0,.29.57,3.06,3.06,0,0,0,.52.59,3.7,3.7,0,0,0,.85.55l-.1.3c-.05.15-.2.19-.44.11a2.76,2.76,0,0,1-.76-.39,6.54,6.54,0,0,0-.39-.53l-.46-.57a4.42,4.42,0,0,1-.39-.58,1.49,1.49,0,0,1-.2-.55,1.52,1.52,0,0,1-.29-.65,2.22,2.22,0,0,1,0-.57,5.39,5.39,0,0,1,.09-.54,1.54,1.54,0,0,0,0-.53,2,2,0,0,1,.55-.82,3.72,3.72,0,0,1,1-.63,6.43,6.43,0,0,1,1.25-.42,9.29,9.29,0,0,1,1.41-.21,1.73,1.73,0,0,1,.36.06.55.55,0,0,1,.19.1.77.77,0,0,1,.13.13Z"/><path class="cls-1" d="M185.9,187.89a.52.52,0,0,0,0,.33,2.9,2.9,0,0,0,.12.31,2.89,2.89,0,0,1,.12.31.5.5,0,0,1,0,.32,1.89,1.89,0,0,1-.77,2.28l.22.25c-.3,0-.5,0-.6.14a1.35,1.35,0,0,0-.22.41,2.28,2.28,0,0,0-.64.18l-.5.24a2.89,2.89,0,0,1-.53.2,2.36,2.36,0,0,1-.75,0,1.92,1.92,0,0,1-.33-.15.78.78,0,0,1-.17-.14.86.86,0,0,1-.11-.15,1.17,1.17,0,0,0-.13-.18.25.25,0,0,1,.21-.15,1.77,1.77,0,0,1,.41,0l.5,0,.48,0a3.69,3.69,0,0,0,1-.52,7.72,7.72,0,0,1,1-.64.38.38,0,0,1-.11-.39.34.34,0,0,1,.32-.22,2.7,2.7,0,0,0,.06-1.34,11.11,11.11,0,0,0-.37-1.5,5.48,5.48,0,0,1-.73-.6,5.46,5.46,0,0,0-.73-.6q-.18-.2-.14-.29c0-.07.11-.07.25,0a.22.22,0,0,1,.09-.13,1.3,1.3,0,0,1,.29-.07,2.49,2.49,0,0,1,.51.4,5.36,5.36,0,0,1,.43.5l.41.55A7.44,7.44,0,0,0,185.9,187.89Z"/><path class="cls-1" d="M183.33,192.59c.13,0,.19.11.16.17s-.11.11-.27.13a2.63,2.63,0,0,0-.83,0,2.41,2.41,0,0,1-.81,0,2.88,2.88,0,0,0-1.24.47,2.44,2.44,0,0,0-.74.83,2.52,2.52,0,0,0-.29,1.06,3.48,3.48,0,0,0,.12,1.14,4.44,4.44,0,0,0,.15.49,2.7,2.7,0,0,0,.29.57,3.06,3.06,0,0,0,.52.59,3.7,3.7,0,0,0,.85.55l-.1.3c-.05.15-.2.19-.44.11a2.76,2.76,0,0,1-.76-.39,6.54,6.54,0,0,0-.39-.53l-.46-.57a4.42,4.42,0,0,1-.39-.58,1.49,1.49,0,0,1-.2-.55,1.52,1.52,0,0,1-.29-.65,2.22,2.22,0,0,1,0-.57,5.39,5.39,0,0,1,.09-.54,1.54,1.54,0,0,0,0-.53,2,2,0,0,1,.55-.82,3.72,3.72,0,0,1,1-.63,6.43,6.43,0,0,1,1.25-.42,9.29,9.29,0,0,1,1.41-.21,1.73,1.73,0,0,1,.36.06.55.55,0,0,1,.19.1.77.77,0,0,1,.13.13Z"/><path class="cls-1" d="M182,199.94a.52.52,0,0,0,0,.33,2.9,2.9,0,0,0,.12.31,2.89,2.89,0,0,1,.12.31.5.5,0,0,1,0,.32,1.89,1.89,0,0,1-.77,2.28l.22.25c-.3,0-.5,0-.6.14a1.35,1.35,0,0,0-.22.41,2.28,2.28,0,0,0-.64.18l-.5.24a2.89,2.89,0,0,1-.53.2,2.36,2.36,0,0,1-.75,0,1.92,1.92,0,0,1-.33-.15.78.78,0,0,1-.17-.14.86.86,0,0,1-.11-.15,1.17,1.17,0,0,0-.13-.18.25.25,0,0,1,.21-.15,1.77,1.77,0,0,1,.41,0l.5,0,.48,0a3.69,3.69,0,0,0,1-.52,7.72,7.72,0,0,1,1-.64.38.38,0,0,1-.11-.39.34.34,0,0,1,.32-.22,2.7,2.7,0,0,0,.06-1.34,11.11,11.11,0,0,0-.37-1.5,5.48,5.48,0,0,1-.73-.6,5.46,5.46,0,0,0-.73-.6q-.18-.2-.14-.29c0-.07.11-.07.25,0a.22.22,0,0,1,.09-.13,1.3,1.3,0,0,1,.29-.07,2.49,2.49,0,0,1,.51.4,5.36,5.36,0,0,1,.43.5l.41.55A7.44,7.44,0,0,0,182,199.94Z"/><path class="cls-1" d="M178.61,204.63c.13,0,.19.11.16.17s-.11.11-.27.13a2.63,2.63,0,0,0-.83,0,2.41,2.41,0,0,1-.81,0,2.88,2.88,0,0,0-1.24.47,2.44,2.44,0,0,0-.74.83,2.52,2.52,0,0,0-.29,1.06,3.48,3.48,0,0,0,.12,1.14,4.44,4.44,0,0,0,.15.49,2.7,2.7,0,0,0,.29.57,3.06,3.06,0,0,0,.52.59,3.7,3.7,0,0,0,.85.55l-.1.3c-.05.15-.2.19-.44.11a2.76,2.76,0,0,1-.76-.39,6.54,6.54,0,0,0-.39-.53l-.46-.57a4.42,4.42,0,0,1-.39-.58,1.49,1.49,0,0,1-.2-.55,1.52,1.52,0,0,1-.29-.65,2.22,2.22,0,0,1,0-.57,5.39,5.39,0,0,1,.09-.54,1.54,1.54,0,0,0,0-.53,2,2,0,0,1,.55-.82,3.72,3.72,0,0,1,1-.63,6.43,6.43,0,0,1,1.25-.42,9.29,9.29,0,0,1,1.41-.21,1.73,1.73,0,0,1,.36.06.55.55,0,0,1,.19.1.77.77,0,0,1,.13.13Z"/><path class="cls-1" d="M177.36,212.14a.52.52,0,0,0,0,.33,2.9,2.9,0,0,0,.12.31,2.89,2.89,0,0,1,.12.31.5.5,0,0,1,0,.32,1.89,1.89,0,0,1-.77,2.28l.22.25c-.3,0-.5,0-.6.14a1.35,1.35,0,0,0-.22.41,2.28,2.28,0,0,0-.64.18l-.5.24a2.89,2.89,0,0,1-.53.2,2.36,2.36,0,0,1-.75,0,1.92,1.92,0,0,1-.33-.15.78.78,0,0,1-.17-.14.86.86,0,0,1-.11-.15,1.17,1.17,0,0,0-.13-.18.25.25,0,0,1,.21-.15,1.77,1.77,0,0,1,.41,0l.5,0,.48,0a3.69,3.69,0,0,0,1-.52,7.72,7.72,0,0,1,1-.64.38.38,0,0,1-.11-.39.34.34,0,0,1,.32-.22,2.7,2.7,0,0,0,.06-1.34,11.11,11.11,0,0,0-.37-1.5,5.48,5.48,0,0,1-.73-.6,5.46,5.46,0,0,0-.73-.6q-.18-.2-.14-.29c0-.07.11-.07.25,0a.22.22,0,0,1,.09-.13,1.3,1.3,0,0,1,.29-.07,2.49,2.49,0,0,1,.51.4,5.36,5.36,0,0,1,.43.5l.41.55A7.44,7.44,0,0,0,177.36,212.14Z"/><path class="cls-1" d="M174.79,216.84c.13,0,.19.11.16.17s-.11.11-.27.13a2.63,2.63,0,0,0-.83,0,2.41,2.41,0,0,1-.81,0,2.88,2.88,0,0,0-1.24.47,2.44,2.44,0,0,0-.74.83,2.52,2.52,0,0,0-.29,1.06,3.48,3.48,0,0,0,.12,1.14,4.44,4.44,0,0,0,.15.49,2.7,2.7,0,0,0,.29.57,3.06,3.06,0,0,0,.52.59,3.7,3.7,0,0,0,.85.55l-.1.3c-.05.15-.2.19-.44.11a2.76,2.76,0,0,1-.76-.39,6.54,6.54,0,0,0-.39-.53l-.46-.57a4.42,4.42,0,0,1-.39-.58,1.49,1.49,0,0,1-.2-.55,1.52,1.52,0,0,1-.29-.65,2.22,2.22,0,0,1,0-.57,5.39,5.39,0,0,1,.09-.54,1.54,1.54,0,0,0,0-.53,2,2,0,0,1,.55-.82,3.72,3.72,0,0,1,1-.63,6.43,6.43,0,0,1,1.25-.42,9.29,9.29,0,0,1,1.41-.21,1.73,1.73,0,0,1,.36.06.55.55,0,0,1,.19.1.77.77,0,0,1,.13.13Z"/></svg>