<svg id="Layer_1" data-name="Layer 1" xmlns="http://www.w3.org/2000/svg" viewBox="0 0 360 360"><defs><style>.cls-1{fill:#0a0300;}</style></defs><title>Squiggle_Size4</title><path class="cls-1" d="M179.85,222.08a.36.36,0,0,0-.08-.22l-.16-.17-.16-.17a.35.35,0,0,1-.08-.21,1.32,1.32,0,0,1-.1-1.68l-.21-.11c.2-.06.32-.14.35-.25a1,1,0,0,0,0-.32,1.6,1.6,0,0,0,.37-.29l.26-.29a2,2,0,0,1,.29-.27,1.65,1.65,0,0,1,.47-.22h.25l.15,0,.11.07.13.08a.18.18,0,0,1-.1.16,1.24,1.24,0,0,1-.26.13l-.33.11-.32.1a2.58,2.58,0,0,0-.49.59,5.4,5.4,0,0,1-.49.68.26.26,0,0,1,.18.22.24.24,0,0,1-.15.23,1.89,1.89,0,0,0,.31.89,7.78,7.78,0,0,0,.64.88,3.83,3.83,0,0,1,.63.2,3.82,3.82,0,0,0,.63.2q.17.08.17.15s0,.07-.16.08a.15.15,0,0,1,0,.11l-.17.12a1.74,1.74,0,0,1-.44-.12,3.75,3.75,0,0,1-.41-.21l-.41-.25Z"/><path class="cls-1" d="M180.8,218.15c-.1,0-.15,0-.15-.07s0-.1.14-.16a1.84,1.84,0,0,0,.52-.25,1.69,1.69,0,0,1,.51-.24,2,2,0,0,0,.68-.63,1.71,1.71,0,0,0,.26-.74,1.77,1.77,0,0,0-.09-.76,2.44,2.44,0,0,0-.38-.7,3.11,3.11,0,0,0-.23-.28,1.89,1.89,0,0,0-.34-.29,2.14,2.14,0,0,0-.49-.25,2.59,2.59,0,0,0-.7-.13v-.22c0-.11.08-.17.26-.19a1.93,1.93,0,0,1,.6,0l.39.24.45.25a3.1,3.1,0,0,1,.41.27,1,1,0,0,1,.27.31,1.06,1.06,0,0,1,.36.35,1.55,1.55,0,0,1,.16.37,3.77,3.77,0,0,1,.08.37,1.08,1.08,0,0,0,.12.35,1.37,1.37,0,0,1-.14.67,2.6,2.6,0,0,1-.46.66,4.5,4.5,0,0,1-.7.6,6.5,6.5,0,0,1-.86.51l-.25.06h-.15l-.12-.05Z"/><path class="cls-1" d="M179.63,213a.36.36,0,0,0-.08-.22l-.16-.17-.16-.17a.35.35,0,0,1-.08-.21,1.32,1.32,0,0,1-.1-1.68l-.21-.11c.2-.06.32-.14.35-.25a1,1,0,0,0,0-.32,1.6,1.6,0,0,0,.37-.29l.26-.29a2,2,0,0,1,.29-.27,1.65,1.65,0,0,1,.47-.22h.25l.15,0,.11.07.13.08a.18.18,0,0,1-.1.16,1.24,1.24,0,0,1-.26.13l-.33.11-.32.1a2.58,2.58,0,0,0-.49.59,5.4,5.4,0,0,1-.49.68.26.26,0,0,1,.18.22.24.24,0,0,1-.15.23,1.89,1.89,0,0,0,.31.89,7.78,7.78,0,0,0,.64.88,3.83,3.83,0,0,1,.63.2,3.82,3.82,0,0,0,.63.2q.17.08.17.15s0,.07-.16.08a.15.15,0,0,1,0,.11l-.17.12a1.74,1.74,0,0,1-.44-.12,3.75,3.75,0,0,1-.41-.21l-.41-.25Z"/><path class="cls-1" d="M180.05,209.23c-.1,0-.15,0-.15-.07s0-.1.14-.16a1.84,1.84,0,0,0,.52-.25,1.69,1.69,0,0,1,.51-.24,2,2,0,0,0,.68-.63,1.71,1.71,0,0,0,.26-.74,1.77,1.77,0,0,0-.09-.76,2.44,2.44,0,0,0-.38-.7,3.11,3.11,0,0,0-.23-.28,1.89,1.89,0,0,0-.34-.29,2.14,2.14,0,0,0-.49-.25,2.59,2.59,0,0,0-.7-.13v-.22c0-.11.08-.17.26-.19a1.93,1.93,0,0,1,.6,0l.39.24.45.25a3.1,3.1,0,0,1,.41.27,1,1,0,0,1,.27.31,1.06,1.06,0,0,1,.36.35,1.55,1.55,0,0,1,.16.37,3.77,3.77,0,0,1,.08.37,1.08,1.08,0,0,0,.12.35,1.37,1.37,0,0,1-.14.67,2.6,2.6,0,0,1-.46.66,4.5,4.5,0,0,1-.7.6,6.5,6.5,0,0,1-.86.51l-.25.06h-.15l-.12-.05Z"/><path class="cls-1" d="M179,204.11a.36.36,0,0,0-.08-.22l-.16-.17-.16-.17a.35.35,0,0,1-.08-.21,1.32,1.32,0,0,1-.1-1.68l-.21-.11c.2-.06.32-.14.35-.25a1,1,0,0,0,0-.32,1.6,1.6,0,0,0,.37-.29l.26-.29a2,2,0,0,1,.29-.27,1.65,1.65,0,0,1,.47-.22h.25l.15,0,.11.07.13.08a.18.18,0,0,1-.1.16,1.24,1.24,0,0,1-.26.13l-.33.11-.32.1a2.58,2.58,0,0,0-.49.59,5.4,5.4,0,0,1-.49.68.26.26,0,0,1,.18.22.24.24,0,0,1-.15.23,1.89,1.89,0,0,0,.31.89,7.78,7.78,0,0,0,.64.88,3.83,3.83,0,0,1,.63.2,3.82,3.82,0,0,0,.63.2q.17.08.17.15s0,.07-.16.08a.15.15,0,0,1,0,.11l-.17.12a1.74,1.74,0,0,1-.44-.12,3.75,3.75,0,0,1-.41-.21l-.41-.25Z"/><path class="cls-1" d="M179.95,200.18c-.1,0-.15,0-.15-.07s0-.1.14-.16a1.84,1.84,0,0,0,.52-.25,1.69,1.69,0,0,1,.51-.24,2,2,0,0,0,.68-.63,1.71,1.71,0,0,0,.26-.74,1.77,1.77,0,0,0-.09-.76,2.44,2.44,0,0,0-.38-.7,3.11,3.11,0,0,0-.23-.28,1.89,1.89,0,0,0-.34-.29,2.14,2.14,0,0,0-.49-.25,2.59,2.59,0,0,0-.7-.13v-.22c0-.11.08-.17.26-.19a1.93,1.93,0,0,1,.6,0l.39.24.45.25a3.1,3.1,0,0,1,.41.27,1,1,0,0,1,.27.31,1.06,1.06,0,0,1,.36.35,1.55,1.55,0,0,1,.16.37,3.77,3.77,0,0,1,.08.37,1.08,1.08,0,0,0,.12.35,1.37,1.37,0,0,1-.14.67,2.6,2.6,0,0,1-.46.66,4.5,4.5,0,0,1-.7.6,6.5,6.5,0,0,1-.86.51l-.25.06h-.15l-.12-.05Z"/><path class="cls-1" d="M178.77,195a.36.36,0,0,0-.08-.22l-.16-.17-.16-.17a.35.35,0,0,1-.08-.21,1.32,1.32,0,0,1-.1-1.68l-.21-.11c.2-.06.32-.14.35-.25a1,1,0,0,0,0-.32,1.6,1.6,0,0,0,.37-.29l.26-.29a2,2,0,0,1,.29-.27,1.65,1.65,0,0,1,.47-.22H180l.15,0,.11.07.13.08a.18.18,0,0,1-.1.16,1.24,1.24,0,0,1-.26.13l-.33.11-.32.1a2.58,2.58,0,0,0-.49.59,5.4,5.4,0,0,1-.49.68.26.26,0,0,1,.18.22.24.24,0,0,1-.15.23,1.89,1.89,0,0,0,.31.89,7.78,7.78,0,0,0,.64.88,3.83,3.83,0,0,1,.63.2,3.82,3.82,0,0,0,.63.2q.17.08.17.15s0,.07-.16.08a.15.15,0,0,1,0,.11l-.17.12a1.74,1.74,0,0,1-.44-.12,3.75,3.75,0,0,1-.41-.21l-.41-.25Z"/><path class="cls-1" d="M179.2,191.26c-.1,0-.15,0-.15-.07s0-.1.14-.16a1.84,1.84,0,0,0,.52-.25,1.69,1.69,0,0,1,.51-.24,2,2,0,0,0,.68-.63,1.71,1.71,0,0,0,.26-.74,1.77,1.77,0,0,0-.09-.76,2.44,2.44,0,0,0-.38-.7,3.11,3.11,0,0,0-.23-.28,1.89,1.89,0,0,0-.34-.29,2.14,2.14,0,0,0-.49-.25,2.59,2.59,0,0,0-.7-.13v-.22c0-.11.08-.17.26-.19a1.93,1.93,0,0,1,.6,0l.39.24.45.25a3.1,3.1,0,0,1,.41.27,1,1,0,0,1,.27.31,1.06,1.06,0,0,1,.36.35,1.55,1.55,0,0,1,.16.37,3.77,3.77,0,0,1,.08.37,1.08,1.08,0,0,0,.12.35,1.37,1.37,0,0,1-.14.67,2.6,2.6,0,0,1-.46.66,4.5,4.5,0,0,1-.7.6,6.5,6.5,0,0,1-.86.51l-.25.06h-.15l-.12-.05Z"/><path class="cls-1" d="M178.09,186.1a.36.36,0,0,0-.08-.22l-.16-.17-.16-.17a.35.35,0,0,1-.08-.21,1.32,1.32,0,0,1-.1-1.68l-.21-.11c.2-.06.32-.14.35-.25a1,1,0,0,0,0-.32,1.6,1.6,0,0,0,.37-.29l.26-.29a2,2,0,0,1,.29-.27,1.65,1.65,0,0,1,.47-.22h.25l.15,0,.11.07.13.08a.18.18,0,0,1-.1.16,1.24,1.24,0,0,1-.26.13l-.33.11-.32.1a2.58,2.58,0,0,0-.49.59,5.4,5.4,0,0,1-.49.68.26.26,0,0,1,.18.22.24.24,0,0,1-.15.23,1.89,1.89,0,0,0,.31.89,7.78,7.78,0,0,0,.64.88,3.83,3.83,0,0,1,.63.2,3.82,3.82,0,0,0,.63.2q.17.08.17.15s0,.07-.16.08a.15.15,0,0,1,0,.11l-.17.12a1.74,1.74,0,0,1-.44-.12,3.75,3.75,0,0,1-.41-.21l-.41-.25Z"/><path class="cls-1" d="M179,182.18c-.1,0-.15,0-.15-.07s0-.1.14-.16a1.84,1.84,0,0,0,.52-.25,1.69,1.69,0,0,1,.51-.24,2,2,0,0,0,.68-.63,1.71,1.71,0,0,0,.26-.74,1.77,1.77,0,0,0-.09-.76,2.44,2.44,0,0,0-.38-.7,3.11,3.11,0,0,0-.23-.28,1.89,1.89,0,0,0-.34-.29,2.14,2.14,0,0,0-.49-.25,2.59,2.59,0,0,0-.7-.13v-.22c0-.11.08-.17.26-.19a1.93,1.93,0,0,1,.6,0l.39.24.45.25a3.1,3.1,0,0,1,.41.27,1,1,0,0,1,.27.31,1.06,1.06,0,0,1,.36.35,1.55,1.55,0,0,1,.16.37,3.77,3.77,0,0,1,.08.37,1.08,1.08,0,0,0,.12.35,1.37,1.37,0,0,1-.14.67,2.6,2.6,0,0,1-.46.66,4.5,4.5,0,0,1-.7.6,6.5,6.5,0,0,1-.86.51l-.25.06h-.15l-.12-.05Z"/><path class="cls-1" d="M177.86,177a.36.36,0,0,0-.08-.22l-.16-.17-.16-.17a.35.35,0,0,1-.08-.21,1.32,1.32,0,0,1-.1-1.68l-.21-.11c.2-.06.32-.14.35-.25a1,1,0,0,0,0-.32,1.6,1.6,0,0,0,.37-.29l.26-.29a2,2,0,0,1,.29-.27,1.65,1.65,0,0,1,.47-.22h.25l.15,0,.11.07.13.08a.18.18,0,0,1-.1.16,1.24,1.24,0,0,1-.26.13l-.33.11-.32.1a2.58,2.58,0,0,0-.49.59,5.4,5.4,0,0,1-.49.68.26.26,0,0,1,.18.22.24.24,0,0,1-.15.23,1.89,1.89,0,0,0,.31.89,7.78,7.78,0,0,0,.64.88,3.83,3.83,0,0,1,.63.2,3.82,3.82,0,0,0,.63.2q.17.08.17.15s0,.07-.16.08a.15.15,0,0,1,0,.11l-.17.12a1.74,1.74,0,0,1-.44-.12,3.75,3.75,0,0,1-.41-.21l-.41-.25Z"/><path class="cls-1" d="M178.29,173.25c-.1,0-.15,0-.15-.07s0-.1.14-.16a1.84,1.84,0,0,0,.52-.25,1.69,1.69,0,0,1,.51-.24,2,2,0,0,0,.68-.63,1.71,1.71,0,0,0,.26-.74,1.77,1.77,0,0,0-.09-.76,2.44,2.44,0,0,0-.38-.7,3.11,3.11,0,0,0-.23-.28,1.89,1.89,0,0,0-.34-.29,2.14,2.14,0,0,0-.49-.25,2.59,2.59,0,0,0-.7-.13v-.22c0-.11.08-.17.26-.19a1.93,1.93,0,0,1,.6,0l.39.24.45.25a3.1,3.1,0,0,1,.41.27,1,1,0,0,1,.27.31,1.06,1.06,0,0,1,.36.35,1.55,1.55,0,0,1,.16.37,3.77,3.77,0,0,1,.08.37,1.08,1.08,0,0,0,.12.35,1.37,1.37,0,0,1-.14.67,2.6,2.6,0,0,1-.46.66,4.5,4.5,0,0,1-.7.6,6.5,6.5,0,0,1-.86.51l-.25.06h-.15l-.12-.05Z"/><path class="cls-1" d="M177.24,168.13a.36.36,0,0,0-.08-.22l-.16-.17-.16-.17a.35.35,0,0,1-.08-.21,1.32,1.32,0,0,1-.1-1.68l-.21-.11c.2-.06.32-.14.35-.25a1,1,0,0,0,0-.32,1.6,1.6,0,0,0,.37-.29l.26-.29a2,2,0,0,1,.29-.27,1.65,1.65,0,0,1,.47-.22h.25l.15,0,.11.07.13.08a.18.18,0,0,1-.1.16,1.24,1.24,0,0,1-.26.13l-.33.11-.32.1a2.58,2.58,0,0,0-.49.59,5.4,5.4,0,0,1-.49.68.26.26,0,0,1,.18.22.24.24,0,0,1-.15.23,1.89,1.89,0,0,0,.31.89,7.78,7.78,0,0,0,.64.88,3.83,3.83,0,0,1,.63.2,3.82,3.82,0,0,0,.63.2q.17.08.17.15s0,.07-.16.08a.15.15,0,0,1,0,.11L179,169a1.74,1.74,0,0,1-.44-.12,3.75,3.75,0,0,1-.41-.21l-.41-.25Z"/><path class="cls-1" d="M178.18,164.21c-.1,0-.15,0-.15-.07s0-.1.14-.16a1.84,1.84,0,0,0,.52-.25,1.69,1.69,0,0,1,.51-.24,2,2,0,0,0,.68-.63,1.71,1.71,0,0,0,.26-.74,1.77,1.77,0,0,0-.09-.76,2.44,2.44,0,0,0-.38-.7,3.11,3.11,0,0,0-.23-.28,1.89,1.89,0,0,0-.34-.29,2.14,2.14,0,0,0-.49-.25,2.59,2.59,0,0,0-.7-.13v-.22c0-.11.08-.17.26-.19a1.93,1.93,0,0,1,.6,0l.39.24.45.25a3.1,3.1,0,0,1,.41.27,1,1,0,0,1,.27.31,1.06,1.06,0,0,1,.36.35,1.55,1.55,0,0,1,.16.37,3.77,3.77,0,0,1,.08.37,1.08,1.08,0,0,0,.12.35,1.37,1.37,0,0,1-.14.67,2.6,2.6,0,0,1-.46.66,4.5,4.5,0,0,1-.7.6,6.5,6.5,0,0,1-.86.51l-.25.06h-.15l-.12-.05Z"/><path class="cls-1" d="M177,159a.36.36,0,0,0-.08-.22l-.16-.17-.16-.17a.35.35,0,0,1-.08-.21,1.32,1.32,0,0,1-.1-1.68l-.21-.11c.2-.06.32-.14.35-.25a1,1,0,0,0,0-.32,1.6,1.6,0,0,0,.37-.29l.26-.29a2,2,0,0,1,.29-.27,1.65,1.65,0,0,1,.47-.22h.25l.15,0,.11.07.13.08a.18.18,0,0,1-.1.16,1.24,1.24,0,0,1-.26.13l-.33.11-.32.1a2.58,2.58,0,0,0-.49.59,5.4,5.4,0,0,1-.49.68.26.26,0,0,1,.18.22.24.24,0,0,1-.15.23,1.89,1.89,0,0,0,.31.89,7.78,7.78,0,0,0,.64.88,3.83,3.83,0,0,1,.63.2,3.82,3.82,0,0,0,.63.2q.17.08.17.15s0,.07-.16.08a.15.15,0,0,1,0,.11l-.17.12a1.74,1.74,0,0,1-.44-.12,3.75,3.75,0,0,1-.41-.21l-.41-.25Z"/><path class="cls-1" d="M177.44,155.28c-.1,0-.15,0-.15-.07s0-.1.14-.16a1.84,1.84,0,0,0,.52-.25,1.69,1.69,0,0,1,.51-.24,2,2,0,0,0,.68-.63,1.71,1.71,0,0,0,.26-.74,1.77,1.77,0,0,0-.09-.76,2.44,2.44,0,0,0-.38-.7,3.11,3.11,0,0,0-.23-.28,1.89,1.89,0,0,0-.34-.29,2.14,2.14,0,0,0-.49-.25,2.59,2.59,0,0,0-.7-.13v-.22c0-.11.08-.17.26-.19a1.93,1.93,0,0,1,.6,0l.39.24.45.25a3.1,3.1,0,0,1,.41.27,1,1,0,0,1,.27.31,1.06,1.06,0,0,1,.36.35,1.55,1.55,0,0,1,.16.37,3.77,3.77,0,0,1,.08.37,1.08,1.08,0,0,0,.12.35,1.37,1.37,0,0,1-.14.67,2.6,2.6,0,0,1-.46.66,4.5,4.5,0,0,1-.7.6,6.5,6.5,0,0,1-.86.51l-.25.06h-.15l-.12-.05Z"/></svg>