<svg id="Layer_1" data-name="Layer 1" xmlns="http://www.w3.org/2000/svg" viewBox="0 0 360 360"><defs><style>.cls-1{fill:#0a0300;}</style></defs><title>Squiggle_Size2</title><path class="cls-1" d="M215,110.29a.78.78,0,0,0,0,.5,4.37,4.37,0,0,0,.21.46,4.36,4.36,0,0,1,.21.46.75.75,0,0,1,0,.48,2.84,2.84,0,0,1-.94,3.49l.35.36c-.46,0-.75.07-.88.27a2,2,0,0,0-.29.63,3.44,3.44,0,0,0-.94.33l-.72.41a4.35,4.35,0,0,1-.78.35,3.56,3.56,0,0,1-1.12.14,2.88,2.88,0,0,1-.51-.19,1.18,1.18,0,0,1-.28-.19,1.29,1.29,0,0,1-.18-.21,1.76,1.76,0,0,0-.22-.25.38.38,0,0,1,.31-.25,2.66,2.66,0,0,1,.61-.08c.23,0,.48,0,.75,0l.73,0a5.55,5.55,0,0,0,1.4-.88,11.62,11.62,0,0,1,1.45-1.06.57.57,0,0,1-.21-.57.51.51,0,0,1,.46-.36,4.06,4.06,0,0,0,0-2,16.73,16.73,0,0,0-.71-2.22,8.24,8.24,0,0,1-1.16-.83,8.21,8.21,0,0,0-1.15-.83q-.29-.28-.25-.43c0-.1.15-.12.37-.05a.32.32,0,0,1,.12-.21,2,2,0,0,1,.43-.13,3.75,3.75,0,0,1,.81.55,8.07,8.07,0,0,1,.7.71l.67.79A11.19,11.19,0,0,0,215,110.29Z"/><path class="cls-1" d="M210.44,117.66c.2.06.29.14.26.24s-.16.18-.39.23a4,4,0,0,0-1.24.15,3.63,3.63,0,0,1-1.21.14,4.34,4.34,0,0,0-1.81.83,3.67,3.67,0,0,0-1,1.32,3.8,3.8,0,0,0-.33,1.62,5.24,5.24,0,0,0,.29,1.69,6.69,6.69,0,0,0,.27.72,4.06,4.06,0,0,0,.5.83,4.6,4.6,0,0,0,.84.84,5.56,5.56,0,0,0,1.33.74l-.13.46c-.06.23-.28.3-.66.21a4.16,4.16,0,0,1-1.18-.51,9.84,9.84,0,0,0-.64-.75l-.74-.81a6.66,6.66,0,0,1-.65-.83,2.25,2.25,0,0,1-.35-.81,2.28,2.28,0,0,1-.49-1,3.34,3.34,0,0,1-.07-.86,8.11,8.11,0,0,1,.09-.82,2.31,2.31,0,0,0,0-.79,3,3,0,0,1,.75-1.28,5.59,5.59,0,0,1,1.39-1,9.68,9.68,0,0,1,1.83-.75,14,14,0,0,1,2.1-.45,2.61,2.61,0,0,1,.54.05.82.82,0,0,1,.3.13,1.16,1.16,0,0,1,.2.19Z"/><path class="cls-1" d="M209.3,129a.78.78,0,0,0,0,.5,4.37,4.37,0,0,0,.21.46,4.36,4.36,0,0,1,.21.46.75.75,0,0,1,0,.48,2.84,2.84,0,0,1-.94,3.49l.35.36c-.46,0-.75.07-.88.27a2,2,0,0,0-.29.63,3.44,3.44,0,0,0-.94.33l-.72.41a4.35,4.35,0,0,1-.78.35,3.56,3.56,0,0,1-1.12.14,2.88,2.88,0,0,1-.51-.19,1.18,1.18,0,0,1-.28-.19,1.29,1.29,0,0,1-.18-.21,1.76,1.76,0,0,0-.22-.25.38.38,0,0,1,.31-.25,2.66,2.66,0,0,1,.61-.08c.23,0,.48,0,.75,0l.73,0a5.55,5.55,0,0,0,1.4-.88,11.62,11.62,0,0,1,1.45-1.06.57.57,0,0,1-.21-.57.51.51,0,0,1,.46-.36,4.06,4.06,0,0,0,0-2,16.73,16.73,0,0,0-.71-2.22,8.24,8.24,0,0,1-1.16-.83,8.21,8.21,0,0,0-1.15-.83q-.29-.28-.25-.43c0-.1.15-.12.37-.05a.32.32,0,0,1,.12-.21,2,2,0,0,1,.43-.13,3.75,3.75,0,0,1,.81.55,8.07,8.07,0,0,1,.7.71l.67.79A11.19,11.19,0,0,0,209.3,129Z"/><path class="cls-1" d="M205.9,136.37c.2.06.29.14.26.24s-.16.18-.39.23a4,4,0,0,0-1.24.15,3.63,3.63,0,0,1-1.21.14,4.34,4.34,0,0,0-1.81.83,3.67,3.67,0,0,0-1,1.32,3.8,3.8,0,0,0-.33,1.62,5.24,5.24,0,0,0,.29,1.69,6.69,6.69,0,0,0,.27.72,4.06,4.06,0,0,0,.5.83,4.6,4.6,0,0,0,.84.84,5.56,5.56,0,0,0,1.33.74l-.13.46c-.06.23-.28.3-.66.21a4.16,4.16,0,0,1-1.18-.51,9.84,9.84,0,0,0-.64-.75l-.74-.81a6.66,6.66,0,0,1-.65-.83,2.25,2.25,0,0,1-.35-.81,2.28,2.28,0,0,1-.49-1,3.34,3.34,0,0,1-.07-.86,8.11,8.11,0,0,1,.09-.82,2.31,2.31,0,0,0,0-.79,3,3,0,0,1,.75-1.28,5.59,5.59,0,0,1,1.39-1,9.68,9.68,0,0,1,1.83-.75,14,14,0,0,1,2.1-.45,2.61,2.61,0,0,1,.54.05.82.82,0,0,1,.3.13,1.16,1.16,0,0,1,.2.19Z"/><path class="cls-1" d="M204.56,147.53a.78.78,0,0,0,0,.5,4.37,4.37,0,0,0,.21.46,4.36,4.36,0,0,1,.21.46.75.75,0,0,1,0,.48,2.84,2.84,0,0,1-.94,3.49l.35.36c-.46,0-.75.07-.88.27a2,2,0,0,0-.29.63,3.44,3.44,0,0,0-.94.33l-.72.41a4.35,4.35,0,0,1-.78.35,3.56,3.56,0,0,1-1.12.14,2.88,2.88,0,0,1-.51-.19,1.18,1.18,0,0,1-.28-.19,1.29,1.29,0,0,1-.18-.21,1.76,1.76,0,0,0-.22-.25.38.38,0,0,1,.31-.25,2.66,2.66,0,0,1,.61-.08c.23,0,.48,0,.75,0l.73,0a5.55,5.55,0,0,0,1.4-.88,11.62,11.62,0,0,1,1.45-1.06.57.57,0,0,1-.21-.57.51.51,0,0,1,.46-.36,4.06,4.06,0,0,0,0-2,16.73,16.73,0,0,0-.71-2.22,8.24,8.24,0,0,1-1.16-.83,8.21,8.21,0,0,0-1.15-.83q-.29-.28-.25-.43c0-.1.15-.12.37-.05a.32.32,0,0,1,.12-.21,2,2,0,0,1,.43-.13,3.75,3.75,0,0,1,.81.55,8.07,8.07,0,0,1,.7.71l.67.79A11.19,11.19,0,0,0,204.56,147.53Z"/><path class="cls-1" d="M200,154.9c.2.06.29.14.26.24s-.16.18-.39.23a4,4,0,0,0-1.24.15,3.63,3.63,0,0,1-1.21.14,4.34,4.34,0,0,0-1.81.83,3.67,3.67,0,0,0-1,1.32,3.8,3.8,0,0,0-.33,1.62,5.24,5.24,0,0,0,.29,1.69,6.69,6.69,0,0,0,.27.72,4.06,4.06,0,0,0,.5.83,4.6,4.6,0,0,0,.84.84,5.56,5.56,0,0,0,1.33.74l-.13.46c-.06.23-.28.3-.66.21a4.16,4.16,0,0,1-1.18-.51,9.84,9.84,0,0,0-.64-.75l-.74-.81a6.66,6.66,0,0,1-.65-.83,2.25,2.25,0,0,1-.35-.81,2.28,2.28,0,0,1-.49-1,3.34,3.34,0,0,1-.07-.86,8.11,8.11,0,0,1,.09-.82,2.31,2.31,0,0,0,0-.79,3,3,0,0,1,.75-1.28,5.59,5.59,0,0,1,1.39-1,9.68,9.68,0,0,1,1.83-.75,14,14,0,0,1,2.1-.45,2.61,2.61,0,0,1,.54.05.82.82,0,0,1,.3.13,1.16,1.16,0,0,1,.2.19Z"/><path class="cls-1" d="M198.82,166.29a.78.78,0,0,0,0,.5,4.37,4.37,0,0,0,.21.46,4.36,4.36,0,0,1,.21.46.75.75,0,0,1,0,.48,2.84,2.84,0,0,1-.94,3.49l.35.36c-.46,0-.75.07-.88.27a2,2,0,0,0-.29.63,3.44,3.44,0,0,0-.94.33l-.72.41a4.35,4.35,0,0,1-.78.35,3.56,3.56,0,0,1-1.12.14,2.88,2.88,0,0,1-.51-.19,1.18,1.18,0,0,1-.28-.19,1.29,1.29,0,0,1-.18-.21,1.76,1.76,0,0,0-.22-.25.38.38,0,0,1,.31-.25,2.66,2.66,0,0,1,.61-.08c.23,0,.48,0,.75,0l.73,0a5.55,5.55,0,0,0,1.4-.88,11.62,11.62,0,0,1,1.45-1.06.57.57,0,0,1-.21-.57.51.51,0,0,1,.46-.36,4.06,4.06,0,0,0,0-2,16.73,16.73,0,0,0-.71-2.22,8.24,8.24,0,0,1-1.16-.83,8.21,8.21,0,0,0-1.15-.83q-.29-.28-.25-.43c0-.1.15-.12.37-.05a.32.32,0,0,1,.12-.21,2,2,0,0,1,.43-.13,3.75,3.75,0,0,1,.81.55,8.07,8.07,0,0,1,.7.71l.67.79A11.19,11.19,0,0,0,198.82,166.29Z"/><path class="cls-1" d="M195.42,173.61c.2.06.29.14.26.24s-.16.18-.39.23a4,4,0,0,0-1.24.15,3.63,3.63,0,0,1-1.21.14,4.34,4.34,0,0,0-1.81.83,3.67,3.67,0,0,0-1,1.32,3.8,3.8,0,0,0-.33,1.62,5.24,5.24,0,0,0,.29,1.69,6.69,6.69,0,0,0,.27.72,4.06,4.06,0,0,0,.5.83,4.6,4.6,0,0,0,.84.84,5.56,5.56,0,0,0,1.33.74l-.13.46c-.06.23-.28.3-.66.21a4.16,4.16,0,0,1-1.18-.51,9.84,9.84,0,0,0-.64-.75l-.74-.81a6.66,6.66,0,0,1-.65-.83,2.25,2.25,0,0,1-.35-.81,2.28,2.28,0,0,1-.49-1,3.34,3.34,0,0,1-.07-.86,8.11,8.11,0,0,1,.09-.82,2.31,2.31,0,0,0,0-.79,3,3,0,0,1,.75-1.28,5.59,5.59,0,0,1,1.39-1,9.68,9.68,0,0,1,1.83-.75,14,14,0,0,1,2.1-.45,2.61,2.61,0,0,1,.54.05.82.82,0,0,1,.3.13,1.16,1.16,0,0,1,.2.19Z"/><path class="cls-1" d="M194.18,184.88a.78.78,0,0,0,0,.5,4.37,4.37,0,0,0,.21.46,4.36,4.36,0,0,1,.21.46.75.75,0,0,1,0,.48,2.84,2.84,0,0,1-.94,3.49l.35.36c-.46,0-.75.07-.88.27a2,2,0,0,0-.29.63,3.44,3.44,0,0,0-.94.33l-.72.41a4.35,4.35,0,0,1-.78.35,3.56,3.56,0,0,1-1.12.14,2.88,2.88,0,0,1-.51-.19,1.18,1.18,0,0,1-.28-.19,1.29,1.29,0,0,1-.18-.21,1.76,1.76,0,0,0-.22-.25.38.38,0,0,1,.31-.25,2.66,2.66,0,0,1,.61-.08c.23,0,.48,0,.75,0l.73,0a5.55,5.55,0,0,0,1.4-.88,11.62,11.62,0,0,1,1.45-1.06.57.57,0,0,1-.21-.57.51.51,0,0,1,.46-.36,4.06,4.06,0,0,0,0-2,16.73,16.73,0,0,0-.71-2.22,8.24,8.24,0,0,1-1.16-.83,8.21,8.21,0,0,0-1.15-.83q-.29-.28-.25-.43c0-.1.15-.12.37-.05a.32.32,0,0,1,.12-.21,2,2,0,0,1,.43-.13,3.75,3.75,0,0,1,.81.55,8.07,8.07,0,0,1,.7.71l.67.79A11.19,11.19,0,0,0,194.18,184.88Z"/><path class="cls-1" d="M189.58,192.24c.2.06.29.14.26.24s-.16.18-.39.23a4,4,0,0,0-1.24.15A3.63,3.63,0,0,1,187,193a4.34,4.34,0,0,0-1.81.83,3.67,3.67,0,0,0-1,1.32,3.8,3.8,0,0,0-.33,1.62,5.24,5.24,0,0,0,.29,1.69,6.69,6.69,0,0,0,.27.72,4.06,4.06,0,0,0,.5.83,4.6,4.6,0,0,0,.84.84,5.56,5.56,0,0,0,1.33.74l-.13.46c-.06.23-.28.3-.66.21a4.16,4.16,0,0,1-1.18-.51,9.84,9.84,0,0,0-.64-.75l-.74-.81a6.66,6.66,0,0,1-.65-.83,2.25,2.25,0,0,1-.35-.81,2.28,2.28,0,0,1-.49-1,3.34,3.34,0,0,1-.07-.86,8.11,8.11,0,0,1,.09-.82,2.31,2.31,0,0,0,0-.79,3,3,0,0,1,.75-1.28,5.59,5.59,0,0,1,1.39-1,9.68,9.68,0,0,1,1.83-.75,14,14,0,0,1,2.1-.45,2.61,2.61,0,0,1,.54.05.82.82,0,0,1,.3.13,1.16,1.16,0,0,1,.2.19Z"/><path class="cls-1" d="M188.44,203.63a.78.78,0,0,0,0,.5,4.37,4.37,0,0,0,.21.46,4.36,4.36,0,0,1,.21.46.75.75,0,0,1,0,.48,2.84,2.84,0,0,1-.94,3.49l.35.36c-.46,0-.75.07-.88.27a2,2,0,0,0-.29.63,3.44,3.44,0,0,0-.94.33l-.72.41a4.35,4.35,0,0,1-.78.35,3.56,3.56,0,0,1-1.12.14,2.88,2.88,0,0,1-.51-.19,1.18,1.18,0,0,1-.28-.19,1.29,1.29,0,0,1-.18-.21,1.76,1.76,0,0,0-.22-.25.38.38,0,0,1,.31-.25,2.66,2.66,0,0,1,.61-.08c.23,0,.48,0,.75,0l.73,0a5.55,5.55,0,0,0,1.4-.88,11.62,11.62,0,0,1,1.45-1.06.57.57,0,0,1-.21-.57.51.51,0,0,1,.46-.36,4.06,4.06,0,0,0,0-2,16.73,16.73,0,0,0-.71-2.22,8.24,8.24,0,0,1-1.16-.83,8.21,8.21,0,0,0-1.15-.83q-.29-.28-.25-.43c0-.1.15-.12.37-.05a.32.32,0,0,1,.12-.21,2,2,0,0,1,.43-.13,3.75,3.75,0,0,1,.81.55,8.07,8.07,0,0,1,.7.71l.67.79A11.19,11.19,0,0,0,188.44,203.63Z"/><path class="cls-1" d="M185,211c.2.06.29.14.26.24s-.16.18-.39.23a4,4,0,0,0-1.24.15,3.63,3.63,0,0,1-1.21.14,4.34,4.34,0,0,0-1.81.83,3.67,3.67,0,0,0-1,1.32,3.8,3.8,0,0,0-.33,1.62,5.24,5.24,0,0,0,.29,1.69,6.69,6.69,0,0,0,.27.72,4.06,4.06,0,0,0,.5.83,4.6,4.6,0,0,0,.84.84,5.56,5.56,0,0,0,1.33.74l-.13.46c-.06.23-.28.3-.66.21a4.16,4.16,0,0,1-1.18-.51,9.84,9.84,0,0,0-.64-.75l-.74-.81a6.66,6.66,0,0,1-.65-.83,2.25,2.25,0,0,1-.35-.81,2.28,2.28,0,0,1-.49-1,3.34,3.34,0,0,1-.07-.86,8.11,8.11,0,0,1,.09-.82,2.31,2.31,0,0,0,0-.79,3,3,0,0,1,.75-1.28,5.59,5.59,0,0,1,1.39-1,9.68,9.68,0,0,1,1.83-.75,14,14,0,0,1,2.1-.45,2.61,2.61,0,0,1,.54.05.82.82,0,0,1,.3.13,1.16,1.16,0,0,1,.2.19Z"/><path class="cls-1" d="M183.7,222.12a.78.78,0,0,0,0,.5,4.37,4.37,0,0,0,.21.46,4.36,4.36,0,0,1,.21.46.75.75,0,0,1,0,.48,2.84,2.84,0,0,1-.94,3.49l.35.36c-.46,0-.75.07-.88.27a2,2,0,0,0-.29.63,3.44,3.44,0,0,0-.94.33l-.72.41a4.35,4.35,0,0,1-.78.35,3.56,3.56,0,0,1-1.12.14,2.88,2.88,0,0,1-.51-.19,1.18,1.18,0,0,1-.28-.19,1.29,1.29,0,0,1-.18-.21,1.76,1.76,0,0,0-.22-.25.38.38,0,0,1,.31-.25,2.66,2.66,0,0,1,.61-.08c.23,0,.48,0,.75,0l.73,0a5.55,5.55,0,0,0,1.4-.88,11.62,11.62,0,0,1,1.45-1.06.57.57,0,0,1-.21-.57.51.51,0,0,1,.46-.36,4.06,4.06,0,0,0,0-2,16.73,16.73,0,0,0-.71-2.22,8.24,8.24,0,0,1-1.16-.83,8.21,8.21,0,0,0-1.15-.83q-.29-.28-.25-.43c0-.1.15-.12.37-.05a.32.32,0,0,1,.12-.21,2,2,0,0,1,.43-.13,3.75,3.75,0,0,1,.81.55,8.07,8.07,0,0,1,.7.71l.67.79A11.19,11.19,0,0,0,183.7,222.12Z"/><path class="cls-1" d="M179.1,229.48c.2.06.29.14.26.24s-.16.18-.39.23a4,4,0,0,0-1.24.15,3.63,3.63,0,0,1-1.21.14,4.34,4.34,0,0,0-1.81.83,3.67,3.67,0,0,0-1,1.32,3.8,3.8,0,0,0-.33,1.62,5.24,5.24,0,0,0,.29,1.69,6.69,6.69,0,0,0,.27.72,4.06,4.06,0,0,0,.5.83,4.6,4.6,0,0,0,.84.84,5.56,5.56,0,0,0,1.33.74l-.13.46c-.06.23-.28.3-.66.21a4.16,4.16,0,0,1-1.18-.51,9.84,9.84,0,0,0-.64-.75l-.74-.81a6.66,6.66,0,0,1-.65-.83,2.25,2.25,0,0,1-.35-.81,2.28,2.28,0,0,1-.49-1,3.34,3.34,0,0,1-.07-.86,8.11,8.11,0,0,1,.09-.82,2.31,2.31,0,0,0,0-.79,3,3,0,0,1,.75-1.28,5.59,5.59,0,0,1,1.39-1,9.68,9.68,0,0,1,1.83-.75,14,14,0,0,1,2.1-.45,2.61,2.61,0,0,1,.54.05.82.82,0,0,1,.3.13,1.16,1.16,0,0,1,.2.19Z"/><path class="cls-1" d="M178,240.88a.78.78,0,0,0,0,.5,4.37,4.37,0,0,0,.21.46,4.36,4.36,0,0,1,.21.46.75.75,0,0,1,0,.48,2.84,2.84,0,0,1-.94,3.49l.35.36c-.46,0-.75.07-.88.27a2,2,0,0,0-.29.63,3.44,3.44,0,0,0-.94.33l-.72.41a4.35,4.35,0,0,1-.78.35,3.56,3.56,0,0,1-1.12.14,2.88,2.88,0,0,1-.51-.19,1.18,1.18,0,0,1-.28-.19,1.29,1.29,0,0,1-.18-.21,1.76,1.76,0,0,0-.22-.25.38.38,0,0,1,.31-.25,2.66,2.66,0,0,1,.61-.08c.23,0,.48,0,.75,0l.73,0a5.55,5.55,0,0,0,1.4-.88,11.62,11.62,0,0,1,1.45-1.06.57.57,0,0,1-.21-.57.51.51,0,0,1,.46-.36,4.06,4.06,0,0,0,0-2,16.73,16.73,0,0,0-.71-2.22,8.24,8.24,0,0,1-1.16-.83,8.21,8.21,0,0,0-1.15-.83q-.29-.28-.25-.43c0-.1.15-.12.37-.05a.32.32,0,0,1,.12-.21A2,2,0,0,1,175,238a3.75,3.75,0,0,1,.81.55,8.07,8.07,0,0,1,.7.71l.67.79A11.19,11.19,0,0,0,178,240.88Z"/><path class="cls-1" d="M174.55,248.2c.2.06.29.14.26.24s-.16.18-.39.23a4,4,0,0,0-1.24.15,3.63,3.63,0,0,1-1.21.14,4.34,4.34,0,0,0-1.81.83,3.67,3.67,0,0,0-1,1.32,3.8,3.8,0,0,0-.33,1.62,5.24,5.24,0,0,0,.29,1.69,6.69,6.69,0,0,0,.27.72,4.06,4.06,0,0,0,.5.83,4.6,4.6,0,0,0,.84.84,5.56,5.56,0,0,0,1.33.74l-.13.46c-.06.23-.28.3-.66.21a4.16,4.16,0,0,1-1.18-.51,9.84,9.84,0,0,0-.64-.75l-.74-.81a6.66,6.66,0,0,1-.65-.83,2.25,2.25,0,0,1-.35-.81,2.28,2.28,0,0,1-.49-1,3.34,3.34,0,0,1-.07-.86,8.11,8.11,0,0,1,.09-.82,2.31,2.31,0,0,0,0-.79,3,3,0,0,1,.75-1.28,5.59,5.59,0,0,1,1.39-1,9.68,9.68,0,0,1,1.83-.75,14,14,0,0,1,2.1-.45,2.61,2.61,0,0,1,.54.05.82.82,0,0,1,.3.13,1.16,1.16,0,0,1,.2.19Z"/></svg>