<svg id="Layer_1" data-name="Layer 1" xmlns="http://www.w3.org/2000/svg" viewBox="0 0 360 360"><defs><style>.cls-1{fill:#0a0300;}</style></defs><title>Squiggle_Size1</title><path class="cls-1" d="M140.79,85.8a1,1,0,0,0,.49.39,5.49,5.49,0,0,0,.6.18,5.48,5.48,0,0,1,.6.18.94.94,0,0,1,.47.38,3.57,3.57,0,0,1,2.53,3.78l.63,0c-.39.42-.55.77-.47,1.06a2.55,2.55,0,0,0,.36.8,4.32,4.32,0,0,0-.46,1.17l-.21,1a5.47,5.47,0,0,1-.32,1,4.47,4.47,0,0,1-.79,1.17,3.62,3.62,0,0,1-.6.32,1.48,1.48,0,0,1-.41.1,1.62,1.62,0,0,1-.35,0,2.21,2.21,0,0,0-.42,0,.48.48,0,0,1,0-.5,3.35,3.35,0,0,1,.42-.64c.19-.23.39-.46.63-.7s.44-.47.62-.68a7,7,0,0,0,.33-2.05,14.6,14.6,0,0,1,.2-2.25.71.71,0,0,1-.71-.27.64.64,0,0,1,0-.73A5.1,5.1,0,0,0,142,87.89a21,21,0,0,0-2.69-1.17,10.36,10.36,0,0,1-1.74.41,10.33,10.33,0,0,0-1.74.41q-.5,0-.61-.12c-.07-.11,0-.24.26-.4a.41.41,0,0,1-.1-.28,2.45,2.45,0,0,1,.22-.51,4.71,4.71,0,0,1,1.19-.31,10.14,10.14,0,0,1,1.24-.08h1.3A14.06,14.06,0,0,0,140.79,85.8Z"/><path class="cls-1" d="M144,96.24c.22-.14.37-.16.44-.05s0,.29-.11.56a5,5,0,0,0-.88,1.3,4.57,4.57,0,0,1-.86,1.26,5.45,5.45,0,0,0-.71,2.4,4.61,4.61,0,0,0,.4,2.07,4.78,4.78,0,0,0,1.26,1.65,6.58,6.58,0,0,0,1.85,1.12,8.4,8.4,0,0,0,.91.34,5.1,5.1,0,0,0,1.2.22,5.79,5.79,0,0,0,1.48-.1,7,7,0,0,0,1.8-.64l.34.5c.17.25.05.51-.34.8a5.22,5.22,0,0,1-1.46.7,12.36,12.36,0,0,0-1.24,0l-1.38,0a8.37,8.37,0,0,1-1.32-.07,2.82,2.82,0,0,1-1.06-.34,2.87,2.87,0,0,1-1.31-.32,4.2,4.2,0,0,1-.87-.65,10.2,10.2,0,0,1-.7-.76,2.91,2.91,0,0,0-.76-.65,3.72,3.72,0,0,1-.59-1.77,7,7,0,0,1,.16-2.17,12.17,12.17,0,0,1,.81-2.36,17.57,17.57,0,0,1,1.3-2.36,3.28,3.28,0,0,1,.5-.47,1,1,0,0,1,.36-.18,1.46,1.46,0,0,1,.35,0Z"/><path class="cls-1" d="M153.81,106.74a1,1,0,0,0,.49.39,5.49,5.49,0,0,0,.6.18,5.48,5.48,0,0,1,.6.18.94.94,0,0,1,.47.38,3.57,3.57,0,0,1,2.53,3.78l.63,0c-.39.42-.55.77-.47,1.06a2.55,2.55,0,0,0,.36.8,4.32,4.32,0,0,0-.46,1.17l-.21,1a5.47,5.47,0,0,1-.32,1,4.47,4.47,0,0,1-.79,1.17,3.62,3.62,0,0,1-.6.32,1.48,1.48,0,0,1-.41.1,1.62,1.62,0,0,1-.35,0,2.21,2.21,0,0,0-.42,0,.48.48,0,0,1,0-.5,3.35,3.35,0,0,1,.42-.64c.19-.23.39-.46.63-.7s.44-.47.62-.68a7,7,0,0,0,.33-2.05,14.6,14.6,0,0,1,.2-2.25.71.71,0,0,1-.71-.27.64.64,0,0,1,0-.73,5.1,5.1,0,0,0-1.95-1.64,21,21,0,0,0-2.69-1.17,10.36,10.36,0,0,1-1.74.41,10.33,10.33,0,0,0-1.74.41q-.5,0-.61-.12c-.07-.11,0-.24.26-.4a.41.41,0,0,1-.1-.28,2.45,2.45,0,0,1,.22-.51,4.71,4.71,0,0,1,1.19-.31,10.14,10.14,0,0,1,1.24-.08h1.3A14.06,14.06,0,0,0,153.81,106.74Z"/><path class="cls-1" d="M157.93,116c.22-.14.37-.16.44-.05s0,.29-.11.56a5,5,0,0,0-.88,1.3,4.57,4.57,0,0,1-.86,1.26,5.45,5.45,0,0,0-.71,2.4,4.61,4.61,0,0,0,.4,2.07,4.78,4.78,0,0,0,1.26,1.65,6.58,6.58,0,0,0,1.85,1.12,8.4,8.4,0,0,0,.91.34,5.1,5.1,0,0,0,1.2.22,5.79,5.79,0,0,0,1.48-.1,7,7,0,0,0,1.8-.64l.34.5c.17.25.05.51-.34.8a5.22,5.22,0,0,1-1.46.7,12.36,12.36,0,0,0-1.24,0l-1.38,0a8.37,8.37,0,0,1-1.32-.07,2.82,2.82,0,0,1-1.06-.34,2.87,2.87,0,0,1-1.31-.32,4.2,4.2,0,0,1-.87-.65,10.2,10.2,0,0,1-.7-.76,2.91,2.91,0,0,0-.76-.65,3.72,3.72,0,0,1-.59-1.77,7,7,0,0,1,.16-2.17,12.17,12.17,0,0,1,.81-2.36,17.57,17.57,0,0,1,1.3-2.36,3.28,3.28,0,0,1,.5-.47,1,1,0,0,1,.36-.18,1.46,1.46,0,0,1,.35,0Z"/><path class="cls-1" d="M167.4,126.5a1,1,0,0,0,.49.39,5.49,5.49,0,0,0,.6.18,5.48,5.48,0,0,1,.6.18.94.94,0,0,1,.47.38,3.57,3.57,0,0,1,2.53,3.78l.63,0c-.39.42-.55.77-.47,1.06a2.55,2.55,0,0,0,.36.8,4.32,4.32,0,0,0-.46,1.17l-.21,1a5.47,5.47,0,0,1-.32,1,4.47,4.47,0,0,1-.79,1.17,3.62,3.62,0,0,1-.6.32,1.48,1.48,0,0,1-.41.1,1.62,1.62,0,0,1-.35,0,2.21,2.21,0,0,0-.42,0,.48.48,0,0,1,0-.5,3.35,3.35,0,0,1,.42-.64c.19-.23.39-.46.63-.7s.44-.47.62-.68a7,7,0,0,0,.33-2.05,14.6,14.6,0,0,1,.2-2.25.71.71,0,0,1-.71-.27.64.64,0,0,1,0-.73,5.1,5.1,0,0,0-1.95-1.64,21,21,0,0,0-2.69-1.17,10.36,10.36,0,0,1-1.74.41,10.33,10.33,0,0,0-1.74.41q-.5,0-.61-.12c-.07-.11,0-.24.26-.4a.41.41,0,0,1-.1-.28,2.45,2.45,0,0,1,.22-.51,4.71,4.71,0,0,1,1.19-.31,10.14,10.14,0,0,1,1.24-.08H166A14.06,14.06,0,0,0,167.4,126.5Z"/><path class="cls-1" d="M170.58,136.94c.22-.14.37-.16.44-.05s0,.29-.11.56a5,5,0,0,0-.88,1.3,4.57,4.57,0,0,1-.86,1.26,5.45,5.45,0,0,0-.71,2.4,4.61,4.61,0,0,0,.4,2.07,4.78,4.78,0,0,0,1.26,1.65,6.58,6.58,0,0,0,1.85,1.12,8.4,8.4,0,0,0,.91.34,5.1,5.1,0,0,0,1.2.22,5.79,5.79,0,0,0,1.48-.1,7,7,0,0,0,1.8-.64l.34.5c.17.25.05.51-.34.8a5.22,5.22,0,0,1-1.46.7,12.36,12.36,0,0,0-1.24,0l-1.38,0A8.37,8.37,0,0,1,172,149a2.82,2.82,0,0,1-1.06-.34,2.87,2.87,0,0,1-1.31-.32,4.2,4.2,0,0,1-.87-.65,10.2,10.2,0,0,1-.7-.76,2.91,2.91,0,0,0-.76-.65,3.72,3.72,0,0,1-.59-1.77,7,7,0,0,1,.16-2.17,12.17,12.17,0,0,1,.81-2.36,17.57,17.57,0,0,1,1.3-2.36,3.28,3.28,0,0,1,.5-.47,1,1,0,0,1,.36-.18,1.46,1.46,0,0,1,.35,0Z"/><path class="cls-1" d="M180.43,147.44a1,1,0,0,0,.49.39,5.49,5.49,0,0,0,.6.18,5.48,5.48,0,0,1,.6.18.94.94,0,0,1,.47.38,3.57,3.57,0,0,1,2.53,3.78l.63,0c-.39.42-.55.77-.47,1.06a2.55,2.55,0,0,0,.36.8,4.32,4.32,0,0,0-.46,1.17l-.21,1a5.47,5.47,0,0,1-.32,1,4.47,4.47,0,0,1-.79,1.17,3.62,3.62,0,0,1-.6.32,1.48,1.48,0,0,1-.41.1,1.62,1.62,0,0,1-.35,0,2.21,2.21,0,0,0-.42,0,.48.48,0,0,1,0-.5,3.35,3.35,0,0,1,.42-.64c.19-.23.39-.46.63-.7s.44-.47.62-.68a7,7,0,0,0,.33-2.05,14.6,14.6,0,0,1,.2-2.25.71.71,0,0,1-.71-.27.64.64,0,0,1,0-.73,5.1,5.1,0,0,0-1.95-1.64,21,21,0,0,0-2.69-1.17,10.36,10.36,0,0,1-1.74.41,10.33,10.33,0,0,0-1.74.41q-.5,0-.61-.12c-.07-.11,0-.24.26-.4a.41.41,0,0,1-.1-.28,2.45,2.45,0,0,1,.22-.51,4.71,4.71,0,0,1,1.19-.31,10.14,10.14,0,0,1,1.24-.08H179A14.06,14.06,0,0,0,180.43,147.44Z"/><path class="cls-1" d="M184.55,156.71c.22-.14.37-.16.44-.05s0,.29-.11.56a5,5,0,0,0-.88,1.3,4.57,4.57,0,0,1-.86,1.26,5.45,5.45,0,0,0-.71,2.4,4.61,4.61,0,0,0,.4,2.07,4.78,4.78,0,0,0,1.26,1.65,6.58,6.58,0,0,0,1.85,1.12,8.4,8.4,0,0,0,.91.34,5.1,5.1,0,0,0,1.2.22,5.79,5.79,0,0,0,1.48-.1,7,7,0,0,0,1.8-.64l.34.5c.17.25.05.51-.34.8a5.22,5.22,0,0,1-1.46.7,12.36,12.36,0,0,0-1.24,0l-1.38,0a8.37,8.37,0,0,1-1.32-.07,2.82,2.82,0,0,1-1.06-.34,2.87,2.87,0,0,1-1.31-.32,4.2,4.2,0,0,1-.87-.65,10.2,10.2,0,0,1-.7-.76,2.91,2.91,0,0,0-.76-.65,3.72,3.72,0,0,1-.59-1.77,7,7,0,0,1,.16-2.17,12.17,12.17,0,0,1,.81-2.36,17.57,17.57,0,0,1,1.3-2.36,3.28,3.28,0,0,1,.5-.47,1,1,0,0,1,.36-.18,1.46,1.46,0,0,1,.35,0Z"/><path class="cls-1" d="M194.2,167.19a1,1,0,0,0,.49.39,5.49,5.49,0,0,0,.6.18,5.48,5.48,0,0,1,.6.18.94.94,0,0,1,.47.38,3.57,3.57,0,0,1,2.53,3.78l.63,0c-.39.42-.55.77-.47,1.06a2.55,2.55,0,0,0,.36.8,4.32,4.32,0,0,0-.46,1.17l-.21,1a5.47,5.47,0,0,1-.32,1,4.47,4.47,0,0,1-.79,1.17,3.62,3.62,0,0,1-.6.32,1.48,1.48,0,0,1-.41.1,1.62,1.62,0,0,1-.35,0,2.21,2.21,0,0,0-.42,0,.48.48,0,0,1,0-.5,3.35,3.35,0,0,1,.42-.64c.19-.23.39-.46.63-.7s.44-.47.62-.68a7,7,0,0,0,.33-2.05,14.6,14.6,0,0,1,.2-2.25.71.71,0,0,1-.71-.27.64.64,0,0,1,0-.73,5.1,5.1,0,0,0-1.95-1.64,21,21,0,0,0-2.69-1.17,10.36,10.36,0,0,1-1.74.41,10.33,10.33,0,0,0-1.74.41q-.5,0-.61-.12c-.07-.11,0-.24.26-.4a.41.41,0,0,1-.1-.28,2.45,2.45,0,0,1,.22-.51,4.71,4.71,0,0,1,1.19-.31,10.14,10.14,0,0,1,1.24-.08h1.3A14.06,14.06,0,0,0,194.2,167.19Z"/><path class="cls-1" d="M197.37,177.63c.22-.14.37-.16.44-.05s0,.29-.11.56a5,5,0,0,0-.88,1.3,4.57,4.57,0,0,1-.86,1.26,5.45,5.45,0,0,0-.71,2.4,4.61,4.61,0,0,0,.4,2.07,4.78,4.78,0,0,0,1.26,1.65,6.58,6.58,0,0,0,1.85,1.12,8.4,8.4,0,0,0,.91.34,5.1,5.1,0,0,0,1.2.22,5.79,5.79,0,0,0,1.48-.1,7,7,0,0,0,1.8-.64l.34.5c.17.25.05.51-.34.8a5.22,5.22,0,0,1-1.46.7,12.36,12.36,0,0,0-1.24,0l-1.38,0a8.37,8.37,0,0,1-1.32-.07,2.82,2.82,0,0,1-1.06-.34,2.87,2.87,0,0,1-1.31-.32,4.2,4.2,0,0,1-.87-.65,10.2,10.2,0,0,1-.7-.76,2.91,2.91,0,0,0-.76-.65,3.72,3.72,0,0,1-.59-1.77,7,7,0,0,1,.16-2.17,12.17,12.17,0,0,1,.81-2.36,17.57,17.57,0,0,1,1.3-2.36,3.28,3.28,0,0,1,.5-.47,1,1,0,0,1,.36-.18,1.46,1.46,0,0,1,.35,0Z"/><path class="cls-1" d="M207.22,188.13a1,1,0,0,0,.49.39,5.49,5.49,0,0,0,.6.18,5.48,5.48,0,0,1,.6.18.94.94,0,0,1,.47.38,3.57,3.57,0,0,1,2.53,3.78l.63,0c-.39.42-.55.77-.47,1.06a2.55,2.55,0,0,0,.36.8A4.32,4.32,0,0,0,212,196l-.21,1a5.47,5.47,0,0,1-.32,1,4.47,4.47,0,0,1-.79,1.17,3.62,3.62,0,0,1-.6.32,1.48,1.48,0,0,1-.41.1,1.62,1.62,0,0,1-.35,0,2.21,2.21,0,0,0-.42,0,.48.48,0,0,1,0-.5,3.35,3.35,0,0,1,.42-.64c.19-.23.39-.46.63-.7s.44-.47.62-.68a7,7,0,0,0,.33-2.05,14.6,14.6,0,0,1,.2-2.25.71.71,0,0,1-.71-.27.64.64,0,0,1,0-.73,5.1,5.1,0,0,0-1.95-1.64,21,21,0,0,0-2.69-1.17,10.36,10.36,0,0,1-1.74.41,10.33,10.33,0,0,0-1.74.41q-.5,0-.61-.12c-.07-.11,0-.24.26-.4a.41.41,0,0,1-.1-.28,2.45,2.45,0,0,1,.22-.51,4.71,4.71,0,0,1,1.19-.31,10.14,10.14,0,0,1,1.24-.08h1.3A14.06,14.06,0,0,0,207.22,188.13Z"/><path class="cls-1" d="M211.34,197.4c.22-.14.37-.16.44-.05s0,.29-.11.56a5,5,0,0,0-.88,1.3,4.57,4.57,0,0,1-.86,1.26,5.45,5.45,0,0,0-.71,2.4,4.61,4.61,0,0,0,.4,2.07,4.78,4.78,0,0,0,1.26,1.65,6.58,6.58,0,0,0,1.85,1.12,8.4,8.4,0,0,0,.91.34,5.1,5.1,0,0,0,1.2.22,5.79,5.79,0,0,0,1.48-.1,7,7,0,0,0,1.8-.64l.34.5c.17.25.05.51-.34.8a5.22,5.22,0,0,1-1.46.7,12.36,12.36,0,0,0-1.24,0l-1.38,0a8.37,8.37,0,0,1-1.32-.07,2.82,2.82,0,0,1-1.06-.34,2.87,2.87,0,0,1-1.31-.32,4.2,4.2,0,0,1-.87-.65,10.2,10.2,0,0,1-.7-.76,2.91,2.91,0,0,0-.76-.65,3.72,3.72,0,0,1-.59-1.77,7,7,0,0,1,.16-2.17,12.17,12.17,0,0,1,.81-2.36,17.57,17.57,0,0,1,1.3-2.36,3.28,3.28,0,0,1,.5-.47,1,1,0,0,1,.36-.18,1.46,1.46,0,0,1,.35,0Z"/><path class="cls-1" d="M220.82,207.89a1,1,0,0,0,.49.39,5.49,5.49,0,0,0,.6.18,5.48,5.48,0,0,1,.6.18.94.94,0,0,1,.47.38,3.57,3.57,0,0,1,2.53,3.78l.63,0c-.39.42-.55.77-.47,1.06a2.55,2.55,0,0,0,.36.8,4.32,4.32,0,0,0-.46,1.17l-.21,1a5.47,5.47,0,0,1-.32,1,4.47,4.47,0,0,1-.79,1.17,3.62,3.62,0,0,1-.6.32,1.48,1.48,0,0,1-.41.1,1.62,1.62,0,0,1-.35,0,2.21,2.21,0,0,0-.42,0,.48.48,0,0,1,0-.5,3.35,3.35,0,0,1,.42-.64c.19-.23.39-.46.63-.7s.44-.47.62-.68a7,7,0,0,0,.33-2.05,14.6,14.6,0,0,1,.2-2.25.71.71,0,0,1-.71-.27.64.64,0,0,1,0-.73,5.1,5.1,0,0,0-1.95-1.64,21,21,0,0,0-2.69-1.17,10.36,10.36,0,0,1-1.74.41,10.33,10.33,0,0,0-1.74.41q-.5,0-.61-.12c-.07-.11,0-.24.26-.4a.41.41,0,0,1-.1-.28,2.45,2.45,0,0,1,.22-.51,4.71,4.71,0,0,1,1.19-.31,10.14,10.14,0,0,1,1.24-.08h1.3A14.06,14.06,0,0,0,220.82,207.89Z"/><path class="cls-1" d="M224,218.33c.22-.14.37-.16.44-.05s0,.29-.11.56a5,5,0,0,0-.88,1.3,4.57,4.57,0,0,1-.86,1.26,5.45,5.45,0,0,0-.71,2.4,4.61,4.61,0,0,0,.4,2.07,4.78,4.78,0,0,0,1.26,1.65,6.58,6.58,0,0,0,1.85,1.12,8.4,8.4,0,0,0,.91.34,5.1,5.1,0,0,0,1.2.22,5.79,5.79,0,0,0,1.48-.1,7,7,0,0,0,1.8-.64l.34.5c.17.25.05.51-.34.8a5.22,5.22,0,0,1-1.46.7,12.36,12.36,0,0,0-1.24,0l-1.38,0a8.37,8.37,0,0,1-1.32-.07,2.82,2.82,0,0,1-1.06-.34,2.87,2.87,0,0,1-1.31-.32,4.2,4.2,0,0,1-.87-.65,10.2,10.2,0,0,1-.7-.76,2.91,2.91,0,0,0-.76-.65,3.72,3.72,0,0,1-.59-1.77,7,7,0,0,1,.16-2.17,12.17,12.17,0,0,1,.81-2.36,17.57,17.57,0,0,1,1.3-2.36,3.28,3.28,0,0,1,.5-.47,1,1,0,0,1,.36-.18,1.46,1.46,0,0,1,.35,0Z"/><path class="cls-1" d="M233.84,228.83a1,1,0,0,0,.49.39,5.49,5.49,0,0,0,.6.18,5.48,5.48,0,0,1,.6.18.94.94,0,0,1,.47.38,3.57,3.57,0,0,1,2.53,3.78l.63,0c-.39.42-.55.77-.47,1.06a2.55,2.55,0,0,0,.36.8,4.32,4.32,0,0,0-.46,1.17l-.21,1a5.47,5.47,0,0,1-.32,1,4.47,4.47,0,0,1-.79,1.17,3.62,3.62,0,0,1-.6.32,1.48,1.48,0,0,1-.41.1,1.62,1.62,0,0,1-.35,0,2.21,2.21,0,0,0-.42,0,.48.48,0,0,1,0-.5,3.35,3.35,0,0,1,.42-.64c.19-.23.39-.46.63-.7s.44-.47.62-.68a7,7,0,0,0,.33-2.05,14.6,14.6,0,0,1,.2-2.25.71.71,0,0,1-.71-.27.64.64,0,0,1,0-.73,5.1,5.1,0,0,0-1.95-1.64,21,21,0,0,0-2.69-1.17,10.36,10.36,0,0,1-1.74.41,10.33,10.33,0,0,0-1.74.41q-.5,0-.61-.12c-.07-.11,0-.24.26-.4a.41.41,0,0,1-.1-.28,2.45,2.45,0,0,1,.22-.51,4.71,4.71,0,0,1,1.19-.31,10.14,10.14,0,0,1,1.24-.08h1.3A14.06,14.06,0,0,0,233.84,228.83Z"/><path class="cls-1" d="M238,238.1c.22-.14.37-.16.44-.05s0,.29-.11.56a5,5,0,0,0-.88,1.3,4.57,4.57,0,0,1-.86,1.26,5.45,5.45,0,0,0-.71,2.4,4.61,4.61,0,0,0,.4,2.07,4.78,4.78,0,0,0,1.26,1.65,6.58,6.58,0,0,0,1.85,1.12,8.4,8.4,0,0,0,.91.34,5.1,5.1,0,0,0,1.2.22,5.79,5.79,0,0,0,1.48-.1,7,7,0,0,0,1.8-.64l.34.5c.17.25.05.51-.34.8a5.22,5.22,0,0,1-1.46.7,12.36,12.36,0,0,0-1.24,0l-1.38,0a8.37,8.37,0,0,1-1.32-.07,2.82,2.82,0,0,1-1.06-.34,2.87,2.87,0,0,1-1.31-.32,4.2,4.2,0,0,1-.87-.65,10.2,10.2,0,0,1-.7-.76,2.91,2.91,0,0,0-.76-.65,3.72,3.72,0,0,1-.59-1.77,7,7,0,0,1,.16-2.17,12.17,12.17,0,0,1,.81-2.36,17.57,17.57,0,0,1,1.3-2.36,3.28,3.28,0,0,1,.5-.47,1,1,0,0,1,.36-.18,1.46,1.46,0,0,1,.35,0Z"/></svg>