<svg id="Layer_1" data-name="Layer 1" xmlns="http://www.w3.org/2000/svg" viewBox="0 0 360 360"><defs><style>.cls-1{fill:#0a0300;}</style></defs><title>Squiggle_Size3</title><path class="cls-1" d="M180.72,234.92a.58.58,0,0,0,0-.36,3.22,3.22,0,0,0-.18-.32,3.21,3.21,0,0,1-.18-.32.55.55,0,0,1,0-.35,2.09,2.09,0,0,1,.46-2.63l-.28-.24c.34,0,.55-.1.63-.25a1.5,1.5,0,0,0,.17-.48,2.53,2.53,0,0,0,.67-.3l.5-.35a3.21,3.21,0,0,1,.55-.3,2.62,2.62,0,0,1,.81-.17,2.13,2.13,0,0,1,.38.11.87.87,0,0,1,.22.12,1,1,0,0,1,.15.15,1.3,1.3,0,0,0,.18.17.28.28,0,0,1-.21.2,2,2,0,0,1-.44.1l-.55,0-.54,0a4.1,4.1,0,0,0-1,.73,8.56,8.56,0,0,1-1,.87.42.42,0,0,1,.19.41.38.38,0,0,1-.31.29,3,3,0,0,0,.16,1.48,12.33,12.33,0,0,0,.66,1.59,6.08,6.08,0,0,1,.9.54,6.06,6.06,0,0,0,.9.53q.23.19.21.3c0,.08-.1.1-.27.06a.24.24,0,0,1-.07.16,1.44,1.44,0,0,1-.3.13,2.76,2.76,0,0,1-.63-.35,6,6,0,0,1-.56-.47l-.54-.53A8.25,8.25,0,0,0,180.72,234.92Z"/><path class="cls-1" d="M183.62,229.21c-.15,0-.22-.08-.21-.16s.1-.14.27-.19a2.92,2.92,0,0,0,.9-.19,2.68,2.68,0,0,1,.88-.18,3.2,3.2,0,0,0,1.28-.73,2.7,2.7,0,0,0,.67-1,2.8,2.8,0,0,0,.14-1.21,3.86,3.86,0,0,0-.32-1.23,4.93,4.93,0,0,0-.24-.52,3,3,0,0,0-.42-.58,3.39,3.39,0,0,0-.67-.56,4.1,4.1,0,0,0-1-.46l.06-.35c0-.17.19-.24.47-.2a3.06,3.06,0,0,1,.9.3,7.25,7.25,0,0,0,.52.51l.6.55a4.91,4.91,0,0,1,.53.57,1.66,1.66,0,0,1,.31.58,1.68,1.68,0,0,1,.42.67,2.47,2.47,0,0,1,.11.63,6,6,0,0,1,0,.61,1.71,1.71,0,0,0,.06.58,2.18,2.18,0,0,1-.47,1,4.13,4.13,0,0,1-1,.85,7.14,7.14,0,0,1-1.3.67,10.31,10.31,0,0,1-1.51.47,1.93,1.93,0,0,1-.4,0,.61.61,0,0,1-.23-.07.86.86,0,0,1-.16-.12Z"/><path class="cls-1" d="M183.72,220.77a.58.58,0,0,0,0-.36,3.22,3.22,0,0,0-.18-.32,3.21,3.21,0,0,1-.18-.32.55.55,0,0,1,0-.35,2.09,2.09,0,0,1,.46-2.63l-.28-.24c.34,0,.55-.1.63-.25a1.5,1.5,0,0,0,.17-.48,2.53,2.53,0,0,0,.67-.3l.5-.35a3.21,3.21,0,0,1,.55-.3,2.62,2.62,0,0,1,.81-.17,2.13,2.13,0,0,1,.38.11.87.87,0,0,1,.22.12,1,1,0,0,1,.15.15,1.3,1.3,0,0,0,.18.17.28.28,0,0,1-.21.2,2,2,0,0,1-.44.1l-.55,0-.54,0a4.1,4.1,0,0,0-1,.73,8.56,8.56,0,0,1-1,.87.42.42,0,0,1,.19.41.38.38,0,0,1-.31.29,3,3,0,0,0,.16,1.48,12.33,12.33,0,0,0,.66,1.59,6.08,6.08,0,0,1,.9.54,6.06,6.06,0,0,0,.9.53q.23.19.21.3c0,.08-.1.1-.27.06a.24.24,0,0,1-.07.16,1.44,1.44,0,0,1-.3.13,2.76,2.76,0,0,1-.63-.35,6,6,0,0,1-.56-.47l-.54-.53A8.25,8.25,0,0,0,183.72,220.77Z"/><path class="cls-1" d="M185.75,215.17c-.15,0-.22-.08-.21-.16s.1-.14.27-.19a2.92,2.92,0,0,0,.9-.19,2.68,2.68,0,0,1,.88-.18,3.2,3.2,0,0,0,1.28-.73,2.7,2.7,0,0,0,.67-1,2.8,2.8,0,0,0,.14-1.21,3.86,3.86,0,0,0-.32-1.23,4.93,4.93,0,0,0-.24-.52,3,3,0,0,0-.42-.58,3.39,3.39,0,0,0-.67-.56,4.1,4.1,0,0,0-1-.46l.06-.35c0-.17.19-.24.47-.2a3.06,3.06,0,0,1,.9.3,7.25,7.25,0,0,0,.52.51l.6.55a4.91,4.91,0,0,1,.53.57,1.66,1.66,0,0,1,.31.58,1.68,1.68,0,0,1,.42.67,2.47,2.47,0,0,1,.11.63,6,6,0,0,1,0,.61,1.71,1.71,0,0,0,.06.58,2.18,2.18,0,0,1-.47,1,4.13,4.13,0,0,1-1,.85,7.14,7.14,0,0,1-1.3.67,10.31,10.31,0,0,1-1.51.47,1.93,1.93,0,0,1-.4,0,.61.61,0,0,1-.23-.07.86.86,0,0,1-.16-.12Z"/><path class="cls-1" d="M186,206.88a.58.58,0,0,0,0-.36,3.22,3.22,0,0,0-.18-.32,3.21,3.21,0,0,1-.18-.32.55.55,0,0,1,0-.35,2.09,2.09,0,0,1,.46-2.63l-.28-.24c.34,0,.55-.1.63-.25a1.5,1.5,0,0,0,.17-.48,2.53,2.53,0,0,0,.67-.3l.5-.35a3.21,3.21,0,0,1,.55-.3,2.62,2.62,0,0,1,.81-.17,2.13,2.13,0,0,1,.38.11.87.87,0,0,1,.22.12,1,1,0,0,1,.15.15,1.3,1.3,0,0,0,.18.17.28.28,0,0,1-.21.2,2,2,0,0,1-.44.1l-.55,0-.54,0a4.1,4.1,0,0,0-1,.73,8.56,8.56,0,0,1-1,.87.42.42,0,0,1,.19.41.38.38,0,0,1-.31.29,3,3,0,0,0,.16,1.48,12.33,12.33,0,0,0,.66,1.59,6.08,6.08,0,0,1,.9.54,6.06,6.06,0,0,0,.9.53q.23.19.21.3c0,.08-.1.1-.27.06a.24.24,0,0,1-.07.16,1.44,1.44,0,0,1-.3.13,2.76,2.76,0,0,1-.63-.35,6,6,0,0,1-.56-.47l-.54-.53A8.25,8.25,0,0,0,186,206.88Z"/><path class="cls-1" d="M188.91,201.18c-.15,0-.22-.08-.21-.16s.1-.14.27-.19a2.92,2.92,0,0,0,.9-.19,2.68,2.68,0,0,1,.88-.18,3.2,3.2,0,0,0,1.28-.73,2.7,2.7,0,0,0,.67-1,2.8,2.8,0,0,0,.14-1.21,3.86,3.86,0,0,0-.32-1.23,4.93,4.93,0,0,0-.24-.52,3,3,0,0,0-.42-.58,3.39,3.39,0,0,0-.67-.56,4.1,4.1,0,0,0-1-.46l.06-.35c0-.17.19-.24.47-.2a3.06,3.06,0,0,1,.9.3,7.25,7.25,0,0,0,.52.51l.6.55a4.91,4.91,0,0,1,.53.57,1.66,1.66,0,0,1,.31.58,1.68,1.68,0,0,1,.42.67,2.47,2.47,0,0,1,.11.63,6,6,0,0,1,0,.61,1.71,1.71,0,0,0,.06.58,2.18,2.18,0,0,1-.47,1,4.13,4.13,0,0,1-1,.85,7.14,7.14,0,0,1-1.3.67,10.31,10.31,0,0,1-1.51.47,1.93,1.93,0,0,1-.4,0,.61.61,0,0,1-.23-.07.86.86,0,0,1-.16-.12Z"/><path class="cls-1" d="M189,192.74a.58.58,0,0,0,0-.36,3.22,3.22,0,0,0-.18-.32,3.21,3.21,0,0,1-.18-.32.55.55,0,0,1,0-.35,2.09,2.09,0,0,1,.46-2.63l-.28-.24c.34,0,.55-.1.63-.25a1.5,1.5,0,0,0,.17-.48,2.53,2.53,0,0,0,.67-.3l.5-.35a3.21,3.21,0,0,1,.55-.3,2.62,2.62,0,0,1,.81-.17,2.13,2.13,0,0,1,.38.11.87.87,0,0,1,.22.12,1,1,0,0,1,.15.15,1.3,1.3,0,0,0,.18.17.28.28,0,0,1-.21.2,2,2,0,0,1-.44.1l-.55,0-.54,0a4.1,4.1,0,0,0-1,.73,8.56,8.56,0,0,1-1,.87.42.42,0,0,1,.19.41.38.38,0,0,1-.31.29,3,3,0,0,0,.16,1.48,12.33,12.33,0,0,0,.66,1.59,6.08,6.08,0,0,1,.9.54,6.06,6.06,0,0,0,.9.53q.23.19.21.3c0,.08-.1.1-.27.06a.24.24,0,0,1-.07.16,1.44,1.44,0,0,1-.3.13,2.76,2.76,0,0,1-.63-.35,6,6,0,0,1-.56-.47l-.54-.53A8.25,8.25,0,0,0,189,192.74Z"/><path class="cls-1" d="M191,187.14c-.15,0-.22-.08-.21-.16s.1-.14.27-.19a2.92,2.92,0,0,0,.9-.19,2.68,2.68,0,0,1,.88-.18,3.2,3.2,0,0,0,1.28-.73,2.7,2.7,0,0,0,.67-1,2.8,2.8,0,0,0,.14-1.21,3.86,3.86,0,0,0-.32-1.23,4.93,4.93,0,0,0-.24-.52,3,3,0,0,0-.42-.58,3.39,3.39,0,0,0-.67-.56,4.1,4.1,0,0,0-1-.46l.06-.35c0-.17.19-.24.47-.2a3.06,3.06,0,0,1,.9.3,7.25,7.25,0,0,0,.52.51l.6.55a4.91,4.91,0,0,1,.53.57,1.66,1.66,0,0,1,.31.58,1.68,1.68,0,0,1,.42.67,2.47,2.47,0,0,1,.11.63,6,6,0,0,1,0,.61,1.71,1.71,0,0,0,.06.58,2.18,2.18,0,0,1-.47,1,4.13,4.13,0,0,1-1,.85,7.14,7.14,0,0,1-1.3.67,10.31,10.31,0,0,1-1.51.47,1.93,1.93,0,0,1-.4,0,.61.61,0,0,1-.23-.07.86.86,0,0,1-.16-.12Z"/><path class="cls-1" d="M191.23,178.78a.58.58,0,0,0,0-.36,3.22,3.22,0,0,0-.18-.32,3.21,3.21,0,0,1-.18-.32.55.55,0,0,1,0-.35,2.09,2.09,0,0,1,.46-2.63l-.28-.24c.34,0,.55-.1.63-.25a1.5,1.5,0,0,0,.17-.48,2.53,2.53,0,0,0,.67-.3l.5-.35a3.21,3.21,0,0,1,.55-.3,2.62,2.62,0,0,1,.81-.17,2.13,2.13,0,0,1,.38.11.87.87,0,0,1,.22.12,1,1,0,0,1,.15.15,1.3,1.3,0,0,0,.18.17.28.28,0,0,1-.21.2,2,2,0,0,1-.44.1l-.55,0-.54,0a4.1,4.1,0,0,0-1,.73,8.56,8.56,0,0,1-1,.87.42.42,0,0,1,.19.41.38.38,0,0,1-.31.29,3,3,0,0,0,.16,1.48,12.33,12.33,0,0,0,.66,1.59,6.08,6.08,0,0,1,.9.54,6.06,6.06,0,0,0,.9.53q.23.19.21.3c0,.08-.1.1-.27.06a.24.24,0,0,1-.07.16,1.44,1.44,0,0,1-.3.13,2.76,2.76,0,0,1-.63-.35,6,6,0,0,1-.56-.47l-.54-.53A8.25,8.25,0,0,0,191.23,178.78Z"/><path class="cls-1" d="M194.13,173.08c-.15,0-.22-.08-.21-.16s.1-.14.27-.19a2.92,2.92,0,0,0,.9-.19,2.68,2.68,0,0,1,.88-.18,3.2,3.2,0,0,0,1.28-.73,2.7,2.7,0,0,0,.67-1,2.8,2.8,0,0,0,.14-1.21,3.86,3.86,0,0,0-.32-1.23,4.93,4.93,0,0,0-.24-.52,3,3,0,0,0-.42-.58,3.39,3.39,0,0,0-.67-.56,4.1,4.1,0,0,0-1-.46l.06-.35c0-.17.19-.24.47-.2a3.06,3.06,0,0,1,.9.3,7.25,7.25,0,0,0,.52.51l.6.55a4.91,4.91,0,0,1,.53.57,1.66,1.66,0,0,1,.31.58,1.68,1.68,0,0,1,.42.67,2.47,2.47,0,0,1,.11.63,6,6,0,0,1,0,.61,1.71,1.71,0,0,0,.06.58,2.18,2.18,0,0,1-.47,1,4.13,4.13,0,0,1-1,.85,7.14,7.14,0,0,1-1.3.67,10.31,10.31,0,0,1-1.51.47,1.93,1.93,0,0,1-.4,0,.61.61,0,0,1-.23-.07.86.86,0,0,1-.16-.12Z"/><path class="cls-1" d="M194.23,164.63a.58.58,0,0,0,0-.36,3.22,3.22,0,0,0-.18-.32,3.21,3.21,0,0,1-.18-.32.55.55,0,0,1,0-.35,2.09,2.09,0,0,1,.46-2.63l-.28-.24c.34,0,.55-.1.63-.25a1.5,1.5,0,0,0,.17-.48,2.53,2.53,0,0,0,.67-.3l.5-.35a3.21,3.21,0,0,1,.55-.3,2.62,2.62,0,0,1,.81-.17,2.13,2.13,0,0,1,.38.11.87.87,0,0,1,.22.12,1,1,0,0,1,.15.15,1.3,1.3,0,0,0,.18.17.28.28,0,0,1-.21.2,2,2,0,0,1-.44.1l-.55,0-.54,0a4.1,4.1,0,0,0-1,.73,8.56,8.56,0,0,1-1,.87.42.42,0,0,1,.19.41.38.38,0,0,1-.31.29,3,3,0,0,0,.16,1.48,12.33,12.33,0,0,0,.66,1.59,6.08,6.08,0,0,1,.9.54,6.06,6.06,0,0,0,.9.53q.23.19.21.3c0,.08-.1.1-.27.06a.24.24,0,0,1-.07.16,1.44,1.44,0,0,1-.3.13,2.76,2.76,0,0,1-.63-.35,6,6,0,0,1-.56-.47l-.54-.53A8.25,8.25,0,0,0,194.23,164.63Z"/><path class="cls-1" d="M196.26,159c-.15,0-.22-.08-.21-.16s.1-.14.27-.19a2.92,2.92,0,0,0,.9-.19,2.68,2.68,0,0,1,.88-.18,3.2,3.2,0,0,0,1.28-.73,2.7,2.7,0,0,0,.67-1,2.8,2.8,0,0,0,.14-1.21,3.86,3.86,0,0,0-.32-1.23,4.93,4.93,0,0,0-.24-.52,3,3,0,0,0-.42-.58,3.39,3.39,0,0,0-.67-.56,4.1,4.1,0,0,0-1-.46l.06-.35c0-.17.19-.24.47-.2a3.06,3.06,0,0,1,.9.3,7.25,7.25,0,0,0,.52.51l.6.55a4.91,4.91,0,0,1,.53.57,1.66,1.66,0,0,1,.31.58,1.68,1.68,0,0,1,.42.67,2.47,2.47,0,0,1,.11.63,6,6,0,0,1,0,.61,1.71,1.71,0,0,0,.06.58,2.18,2.18,0,0,1-.47,1,4.13,4.13,0,0,1-1,.85,7.14,7.14,0,0,1-1.3.67,10.31,10.31,0,0,1-1.51.47,1.93,1.93,0,0,1-.4,0,.61.61,0,0,1-.23-.07.86.86,0,0,1-.16-.12Z"/><path class="cls-1" d="M196.52,150.75a.58.58,0,0,0,0-.36,3.22,3.22,0,0,0-.18-.32,3.21,3.21,0,0,1-.18-.32.55.55,0,0,1,0-.35,2.09,2.09,0,0,1,.46-2.63l-.28-.24c.34,0,.55-.1.63-.25a1.5,1.5,0,0,0,.17-.48,2.53,2.53,0,0,0,.67-.3l.5-.35a3.21,3.21,0,0,1,.55-.3,2.62,2.62,0,0,1,.81-.17,2.13,2.13,0,0,1,.38.11.87.87,0,0,1,.22.12,1,1,0,0,1,.15.15,1.3,1.3,0,0,0,.18.17.28.28,0,0,1-.21.2,2,2,0,0,1-.44.1l-.55,0-.54,0a4.1,4.1,0,0,0-1,.73,8.56,8.56,0,0,1-1,.87.42.42,0,0,1,.19.41.38.38,0,0,1-.31.29,3,3,0,0,0,.16,1.48,12.33,12.33,0,0,0,.66,1.59,6.08,6.08,0,0,1,.9.54,6.06,6.06,0,0,0,.9.53q.23.19.21.3c0,.08-.1.1-.27.06a.24.24,0,0,1-.07.16,1.44,1.44,0,0,1-.3.13,2.76,2.76,0,0,1-.63-.35,6,6,0,0,1-.56-.47l-.54-.53A8.25,8.25,0,0,0,196.52,150.75Z"/><path class="cls-1" d="M199.42,145c-.15,0-.22-.08-.21-.16s.1-.14.27-.19a2.92,2.92,0,0,0,.9-.19,2.68,2.68,0,0,1,.88-.18,3.2,3.2,0,0,0,1.28-.73,2.7,2.7,0,0,0,.67-1,2.8,2.8,0,0,0,.14-1.21,3.86,3.86,0,0,0-.32-1.23,4.93,4.93,0,0,0-.24-.52,3,3,0,0,0-.42-.58,3.39,3.39,0,0,0-.67-.56,4.1,4.1,0,0,0-1-.46l.06-.35c0-.17.19-.24.47-.2a3.06,3.06,0,0,1,.9.3,7.25,7.25,0,0,0,.52.51l.6.55a4.91,4.91,0,0,1,.53.57,1.66,1.66,0,0,1,.31.58,1.68,1.68,0,0,1,.42.67,2.47,2.47,0,0,1,.11.63,6,6,0,0,1,0,.61,1.71,1.71,0,0,0,.06.58,2.18,2.18,0,0,1-.47,1,4.13,4.13,0,0,1-1,.85,7.14,7.14,0,0,1-1.3.67,10.31,10.31,0,0,1-1.51.47,1.93,1.93,0,0,1-.4,0,.61.61,0,0,1-.23-.07.86.86,0,0,1-.16-.12Z"/><path class="cls-1" d="M199.53,136.6a.58.58,0,0,0,0-.36,3.22,3.22,0,0,0-.18-.32,3.21,3.21,0,0,1-.18-.32.55.55,0,0,1,0-.35,2.09,2.09,0,0,1,.46-2.63l-.28-.24c.34,0,.55-.1.63-.25a1.5,1.5,0,0,0,.17-.48,2.53,2.53,0,0,0,.67-.3l.5-.35a3.21,3.21,0,0,1,.55-.3,2.62,2.62,0,0,1,.81-.17,2.13,2.13,0,0,1,.38.11.87.87,0,0,1,.22.12,1,1,0,0,1,.15.15,1.3,1.3,0,0,0,.18.17.28.28,0,0,1-.21.2,2,2,0,0,1-.44.1l-.55,0-.54,0a4.1,4.1,0,0,0-1,.73,8.56,8.56,0,0,1-1,.87.42.42,0,0,1,.19.41.38.38,0,0,1-.31.29,3,3,0,0,0,.16,1.48,12.33,12.33,0,0,0,.66,1.59,6.08,6.08,0,0,1,.9.54,6.06,6.06,0,0,0,.9.53q.23.19.21.3c0,.08-.1.1-.27.06a.24.24,0,0,1-.07.16,1.44,1.44,0,0,1-.3.13,2.76,2.76,0,0,1-.63-.35,6,6,0,0,1-.56-.47l-.54-.53A8.25,8.25,0,0,0,199.53,136.6Z"/><path class="cls-1" d="M201.55,131c-.15,0-.22-.08-.21-.16s.1-.14.27-.19a2.92,2.92,0,0,0,.9-.19,2.68,2.68,0,0,1,.88-.18,3.2,3.2,0,0,0,1.28-.73,2.7,2.7,0,0,0,.67-1,2.8,2.8,0,0,0,.14-1.21,3.86,3.86,0,0,0-.32-1.23,4.93,4.93,0,0,0-.24-.52,3,3,0,0,0-.42-.58,3.39,3.39,0,0,0-.67-.56,4.1,4.1,0,0,0-1-.46l.06-.35c0-.17.19-.24.47-.2a3.06,3.06,0,0,1,.9.3,7.25,7.25,0,0,0,.52.51l.6.55a4.91,4.91,0,0,1,.53.57,1.66,1.66,0,0,1,.31.58,1.68,1.68,0,0,1,.42.67,2.47,2.47,0,0,1,.11.63,6,6,0,0,1,0,.61,1.71,1.71,0,0,0,.06.58,2.18,2.18,0,0,1-.47,1,4.13,4.13,0,0,1-1,.85,7.14,7.14,0,0,1-1.3.67,10.31,10.31,0,0,1-1.51.47,1.93,1.93,0,0,1-.4,0,.61.61,0,0,1-.23-.07.86.86,0,0,1-.16-.12Z"/></svg>