<svg id="Layer_1" data-name="Layer 1" xmlns="http://www.w3.org/2000/svg" viewBox="0 0 288 612"><defs><style>.cls-1{fill:#0a0200;}</style></defs><title>Squiggle</title><path class="cls-1" d="M110.24,36.75a2.7,2.7,0,0,0,.44,1.66,15.08,15.08,0,0,0,1,1.38,15,15,0,0,1,1,1.37,2.59,2.59,0,0,1,.44,1.61q4.26,6.53-.47,12.48l1.46.94c-1.55.3-2.47.83-2.76,1.58a7,7,0,0,0-.49,2.36A11.86,11.86,0,0,0,108,62l-2.12,1.94a15,15,0,0,1-2.37,1.77A12.28,12.28,0,0,1,99.9,67a10,10,0,0,1-1.85-.24A4.07,4.07,0,0,1,97,66.32a4.46,4.46,0,0,1-.78-.58,6.08,6.08,0,0,0-.93-.67A1.31,1.31,0,0,1,96.11,64a9.18,9.18,0,0,1,2-.74c.78-.21,1.62-.39,2.53-.55s1.73-.33,2.47-.5a19.17,19.17,0,0,0,4.05-4,40.09,40.09,0,0,1,4.07-4.67,2,2,0,0,1-1.14-1.76,1.76,1.76,0,0,1,1.26-1.56,14,14,0,0,0-1.69-6.78,57.72,57.72,0,0,0-4.09-6.92,28.44,28.44,0,0,1-4.53-1.9,28.35,28.35,0,0,0-4.52-1.9q-1.18-.71-1.15-1.25c0-.36.42-.51,1.22-.47a1.12,1.12,0,0,1,.23-.79,6.74,6.74,0,0,1,1.33-.78,12.93,12.93,0,0,1,3.14,1.23,27.84,27.84,0,0,1,2.89,1.84c.94.68,1.9,1.39,2.86,2.13A38.62,38.62,0,0,0,110.24,36.75Z"/><path class="cls-1" d="M100.44,65.07c.73,0,1.09.25,1.07.6s-.39.71-1.13,1.06a13.68,13.68,0,0,0-4.05,1.45,12.54,12.54,0,0,1-4,1.41,15,15,0,0,0-5.46,4.19A12.66,12.66,0,0,0,84.47,79a13.11,13.11,0,0,0,.13,5.7,18.08,18.08,0,0,0,2.29,5.47,23.08,23.08,0,0,0,1.46,2.23,14,14,0,0,0,2.31,2.42A15.89,15.89,0,0,0,94.13,97a19.2,19.2,0,0,0,5,1.48l-.06,1.66c0,.82-.71,1.23-2,1.22a14.34,14.34,0,0,1-4.37-.79,34,34,0,0,0-2.72-2q-1.56-1.06-3.12-2.15A23,23,0,0,1,84,94.1a7.75,7.75,0,0,1-1.8-2.47,7.88,7.88,0,0,1-2.39-2.82A11.54,11.54,0,0,1,79,86a28,28,0,0,1-.34-2.81A8,8,0,0,0,78,80.5a10.2,10.2,0,0,1,1.54-4.88,19.31,19.31,0,0,1,3.87-4.55A33.4,33.4,0,0,1,89,67.13,48.24,48.24,0,0,1,95.68,64a9,9,0,0,1,1.86-.24,2.84,2.84,0,0,1,1.09.2,4,4,0,0,1,.83.47A10.36,10.36,0,0,0,100.44,65.07Z"/><path class="cls-1" d="M105.38,104.28a2.7,2.7,0,0,0,.44,1.66,15.08,15.08,0,0,0,1,1.38,15,15,0,0,1,1,1.37,2.59,2.59,0,0,1,.44,1.61q4.26,6.53-.47,12.48l1.46.94c-1.55.3-2.47.83-2.76,1.58a7,7,0,0,0-.49,2.36,11.86,11.86,0,0,0-2.92,1.84l-2.12,1.94a15,15,0,0,1-2.37,1.77,12.28,12.28,0,0,1-3.65,1.32,10,10,0,0,1-1.85-.24,4.07,4.07,0,0,1-1.08-.44,4.46,4.46,0,0,1-.78-.58,6.08,6.08,0,0,0-.93-.67,1.31,1.31,0,0,1,.84-1.07,9.18,9.18,0,0,1,2-.74c.78-.21,1.62-.39,2.53-.55s1.73-.33,2.47-.5a19.17,19.17,0,0,0,4.05-4,40.09,40.09,0,0,1,4.07-4.67,2,2,0,0,1-1.14-1.76,1.76,1.76,0,0,1,1.26-1.56,14,14,0,0,0-1.69-6.78A57.72,57.72,0,0,0,100.7,104a28.44,28.44,0,0,1-4.53-1.9,28.35,28.35,0,0,0-4.52-1.9Q90.47,99.48,90.5,99c0-.36.42-.51,1.22-.47a1.12,1.12,0,0,1,.23-.79,6.74,6.74,0,0,1,1.33-.78,12.93,12.93,0,0,1,3.14,1.23A27.84,27.84,0,0,1,99.3,100c.94.68,1.9,1.39,2.86,2.13A38.62,38.62,0,0,0,105.38,104.28Z"/><path class="cls-1" d="M99.57,131.52c.73,0,1.09.25,1.07.6s-.39.71-1.13,1.06a13.68,13.68,0,0,0-4.05,1.45,12.54,12.54,0,0,1-4,1.41A15,15,0,0,0,86,140.23a12.66,12.66,0,0,0-2.44,5.25,13.11,13.11,0,0,0,.13,5.7A18.08,18.08,0,0,0,86,156.65a23.08,23.08,0,0,0,1.46,2.23,14,14,0,0,0,2.31,2.42,15.89,15.89,0,0,0,3.47,2.16,19.2,19.2,0,0,0,5,1.48l-.06,1.66c0,.82-.71,1.23-2,1.22a14.34,14.34,0,0,1-4.37-.79,34,34,0,0,0-2.72-2q-1.56-1.06-3.12-2.15a23,23,0,0,1-2.81-2.28,7.75,7.75,0,0,1-1.8-2.47A7.88,7.88,0,0,1,79,155.27a11.54,11.54,0,0,1-.89-2.84,28,28,0,0,1-.34-2.81,8,8,0,0,0-.65-2.66,10.2,10.2,0,0,1,1.54-4.88,19.31,19.31,0,0,1,3.87-4.55,33.4,33.4,0,0,1,5.59-3.94,48.24,48.24,0,0,1,6.71-3.15,9,9,0,0,1,1.86-.24,2.84,2.84,0,0,1,1.09.2,4,4,0,0,1,.83.47A10.36,10.36,0,0,0,99.57,131.52Z"/><path class="cls-1" d="M103.69,170.12a2.7,2.7,0,0,0,.44,1.66,15.08,15.08,0,0,0,1,1.38,15,15,0,0,1,1,1.37,2.59,2.59,0,0,1,.44,1.61q4.26,6.53-.47,12.48l1.46.94c-1.55.3-2.47.83-2.76,1.58a7,7,0,0,0-.49,2.36,11.86,11.86,0,0,0-2.92,1.84l-2.12,1.94A15,15,0,0,1,97,199.05a12.28,12.28,0,0,1-3.65,1.32,10,10,0,0,1-1.85-.24,4.07,4.07,0,0,1-1.08-.44,4.46,4.46,0,0,1-.78-.58,6.08,6.08,0,0,0-.93-.67,1.31,1.31,0,0,1,.84-1.07,9.18,9.18,0,0,1,2-.74c.78-.21,1.62-.39,2.53-.55s1.73-.33,2.47-.5a19.17,19.17,0,0,0,4.05-4,40.09,40.09,0,0,1,4.07-4.67,2,2,0,0,1-1.14-1.76,1.76,1.76,0,0,1,1.26-1.56,14,14,0,0,0-1.69-6.78A57.72,57.72,0,0,0,99,169.84a28.44,28.44,0,0,1-4.53-1.9A28.35,28.35,0,0,0,90,166q-1.18-.71-1.15-1.25c0-.36.42-.51,1.22-.47a1.12,1.12,0,0,1,.23-.79,6.74,6.74,0,0,1,1.33-.78A12.93,12.93,0,0,1,94.73,164a27.84,27.84,0,0,1,2.89,1.84c.94.68,1.9,1.39,2.86,2.13A38.62,38.62,0,0,0,103.69,170.12Z"/><path class="cls-1" d="M93.9,198.44c.73,0,1.09.25,1.07.6s-.39.71-1.13,1.06a13.68,13.68,0,0,0-4.05,1.45,12.54,12.54,0,0,1-4,1.41,15,15,0,0,0-5.46,4.19,12.66,12.66,0,0,0-2.44,5.25,13.11,13.11,0,0,0,.13,5.7,18.08,18.08,0,0,0,2.29,5.47,23.08,23.08,0,0,0,1.46,2.23,14,14,0,0,0,2.31,2.42,15.89,15.89,0,0,0,3.47,2.16,19.2,19.2,0,0,0,5,1.48l-.06,1.66c0,.82-.71,1.23-2,1.22a14.34,14.34,0,0,1-4.37-.79,34,34,0,0,0-2.72-2q-1.56-1.06-3.12-2.15a23,23,0,0,1-2.81-2.28A7.75,7.75,0,0,1,75.7,225a7.88,7.88,0,0,1-2.39-2.82,11.54,11.54,0,0,1-.89-2.84,28,28,0,0,1-.34-2.81,8,8,0,0,0-.65-2.66A10.2,10.2,0,0,1,73,209a19.31,19.31,0,0,1,3.87-4.55,33.4,33.4,0,0,1,5.59-3.94,48.24,48.24,0,0,1,6.71-3.15,9,9,0,0,1,1.86-.24,2.84,2.84,0,0,1,1.09.2,4,4,0,0,1,.83.47A10.36,10.36,0,0,0,93.9,198.44Z"/><path class="cls-1" d="M98.84,237.65a2.7,2.7,0,0,0,.44,1.66,15.08,15.08,0,0,0,1,1.38,15,15,0,0,1,1,1.37,2.59,2.59,0,0,1,.44,1.61q4.26,6.53-.47,12.48l1.46.94c-1.55.3-2.47.83-2.76,1.58a7,7,0,0,0-.49,2.36,11.86,11.86,0,0,0-2.92,1.84l-2.12,1.94a15,15,0,0,1-2.37,1.77,12.28,12.28,0,0,1-3.65,1.32,10,10,0,0,1-1.85-.24,4.07,4.07,0,0,1-1.08-.44,4.46,4.46,0,0,1-.78-.58,6.08,6.08,0,0,0-.93-.67,1.31,1.31,0,0,1,.84-1.07,9.18,9.18,0,0,1,2-.74c.78-.21,1.62-.39,2.53-.55s1.73-.33,2.47-.5a19.17,19.17,0,0,0,4.05-4,40.09,40.09,0,0,1,4.07-4.67,2,2,0,0,1-1.14-1.76,1.76,1.76,0,0,1,1.26-1.56,14,14,0,0,0-1.69-6.78,57.72,57.72,0,0,0-4.09-6.92,28.44,28.44,0,0,1-4.53-1.9,28.35,28.35,0,0,0-4.52-1.9q-1.18-.71-1.15-1.25c0-.36.42-.51,1.22-.47a1.12,1.12,0,0,1,.23-.79,6.74,6.74,0,0,1,1.33-.78,12.93,12.93,0,0,1,3.14,1.23,27.84,27.84,0,0,1,2.89,1.84c.94.68,1.9,1.39,2.86,2.13A38.62,38.62,0,0,0,98.84,237.65Z"/><path class="cls-1" d="M93,264.89c.73,0,1.09.25,1.07.6s-.39.71-1.13,1.06A13.68,13.68,0,0,0,88.91,268a12.54,12.54,0,0,1-4,1.41,15,15,0,0,0-5.46,4.19,12.66,12.66,0,0,0-2.44,5.25,13.11,13.11,0,0,0,.13,5.7A18.08,18.08,0,0,0,79.48,290a23.08,23.08,0,0,0,1.46,2.23,14,14,0,0,0,2.31,2.42,15.89,15.89,0,0,0,3.47,2.16,19.2,19.2,0,0,0,5,1.48L91.7,300c0,.82-.71,1.23-2,1.22a14.34,14.34,0,0,1-4.37-.79,34,34,0,0,0-2.72-2q-1.56-1.06-3.12-2.15a23,23,0,0,1-2.81-2.28,7.75,7.75,0,0,1-1.8-2.47,7.88,7.88,0,0,1-2.39-2.82,11.54,11.54,0,0,1-.89-2.84A28,28,0,0,1,71.2,283a8,8,0,0,0-.65-2.66,10.2,10.2,0,0,1,1.54-4.88A19.31,19.31,0,0,1,76,270.89,33.4,33.4,0,0,1,81.55,267a48.24,48.24,0,0,1,6.71-3.15,9,9,0,0,1,1.86-.24,2.84,2.84,0,0,1,1.09.2,4,4,0,0,1,.83.47A10.36,10.36,0,0,0,93,264.89Z"/><path class="cls-1" d="M97.55,303.75a2.7,2.7,0,0,0,.44,1.66,15.08,15.08,0,0,0,1,1.38,15,15,0,0,1,1,1.37,2.59,2.59,0,0,1,.44,1.61q4.26,6.53-.47,12.48l1.46.94c-1.55.3-2.47.83-2.76,1.58a7,7,0,0,0-.49,2.36A11.86,11.86,0,0,0,95.35,329l-2.12,1.94a15,15,0,0,1-2.37,1.77A12.28,12.28,0,0,1,87.22,334a10,10,0,0,1-1.85-.24,4.07,4.07,0,0,1-1.08-.44,4.46,4.46,0,0,1-.78-.58,6.08,6.08,0,0,0-.93-.67,1.31,1.31,0,0,1,.84-1.07,9.18,9.18,0,0,1,2-.74c.78-.21,1.62-.39,2.53-.55s1.73-.33,2.47-.5a19.17,19.17,0,0,0,4.05-4,40.09,40.09,0,0,1,4.07-4.67,2,2,0,0,1-1.14-1.76,1.76,1.76,0,0,1,1.26-1.56A14,14,0,0,0,97,310.4a57.72,57.72,0,0,0-4.09-6.92,28.44,28.44,0,0,1-4.53-1.9,28.35,28.35,0,0,0-4.52-1.9q-1.18-.71-1.15-1.25c0-.36.42-.51,1.22-.47a1.12,1.12,0,0,1,.23-.79,6.74,6.74,0,0,1,1.33-.78,12.93,12.93,0,0,1,3.14,1.23,27.84,27.84,0,0,1,2.89,1.84c.94.68,1.9,1.39,2.86,2.13A38.62,38.62,0,0,0,97.55,303.75Z"/><path class="cls-1" d="M87.76,332.07c.73,0,1.09.25,1.07.6s-.39.71-1.13,1.06a13.68,13.68,0,0,0-4.05,1.45,12.54,12.54,0,0,1-4,1.41,15,15,0,0,0-5.46,4.19A12.66,12.66,0,0,0,71.79,346a13.11,13.11,0,0,0,.13,5.7,18.08,18.08,0,0,0,2.29,5.47,23.08,23.08,0,0,0,1.46,2.23A14,14,0,0,0,78,361.84,15.89,15.89,0,0,0,81.45,364a19.2,19.2,0,0,0,5,1.48l-.06,1.66c0,.82-.71,1.23-2,1.22a14.34,14.34,0,0,1-4.37-.79,34,34,0,0,0-2.72-2q-1.56-1.06-3.12-2.15a23,23,0,0,1-2.81-2.28,7.75,7.75,0,0,1-1.8-2.47,7.88,7.88,0,0,1-2.39-2.82,11.54,11.54,0,0,1-.89-2.84,28,28,0,0,1-.34-2.81,8,8,0,0,0-.65-2.66,10.2,10.2,0,0,1,1.54-4.88,19.31,19.31,0,0,1,3.87-4.55,33.4,33.4,0,0,1,5.59-3.94A48.24,48.24,0,0,1,83,331a9,9,0,0,1,1.86-.24,2.84,2.84,0,0,1,1.09.2,4,4,0,0,1,.83.47A10.36,10.36,0,0,0,87.76,332.07Z"/><path class="cls-1" d="M92.7,371.28a2.7,2.7,0,0,0,.44,1.66,15.08,15.08,0,0,0,1,1.38,15,15,0,0,1,1,1.37,2.59,2.59,0,0,1,.44,1.61q4.26,6.53-.47,12.48l1.46.94c-1.55.3-2.47.83-2.76,1.58a7,7,0,0,0-.49,2.36,11.86,11.86,0,0,0-2.92,1.84l-2.12,1.94A15,15,0,0,1,86,400.21a12.28,12.28,0,0,1-3.65,1.32,10,10,0,0,1-1.85-.24,4.07,4.07,0,0,1-1.08-.44,4.46,4.46,0,0,1-.78-.58,6.08,6.08,0,0,0-.93-.67,1.31,1.31,0,0,1,.84-1.07,9.18,9.18,0,0,1,2-.74c.78-.21,1.62-.39,2.53-.55s1.73-.33,2.47-.5a19.17,19.17,0,0,0,4.05-4A40.09,40.09,0,0,1,93.67,388a2,2,0,0,1-1.14-1.76,1.76,1.76,0,0,1,1.26-1.56,14,14,0,0,0-1.69-6.78A57.72,57.72,0,0,0,88,371a28.44,28.44,0,0,1-4.53-1.9A28.35,28.35,0,0,0,79,367.2q-1.18-.71-1.15-1.25c0-.36.42-.51,1.22-.47a1.12,1.12,0,0,1,.23-.79,6.74,6.74,0,0,1,1.33-.78,12.93,12.93,0,0,1,3.14,1.23A27.84,27.84,0,0,1,86.62,367c.94.68,1.9,1.39,2.86,2.13A38.62,38.62,0,0,0,92.7,371.28Z"/><path class="cls-1" d="M86.88,398.52c.73,0,1.09.25,1.07.6s-.39.71-1.13,1.06a13.68,13.68,0,0,0-4.05,1.45,12.54,12.54,0,0,1-4,1.41,15,15,0,0,0-5.46,4.19,12.66,12.66,0,0,0-2.44,5.25,13.11,13.11,0,0,0,.13,5.7,18.08,18.08,0,0,0,2.29,5.47,23.08,23.08,0,0,0,1.46,2.23,14,14,0,0,0,2.31,2.42,15.89,15.89,0,0,0,3.47,2.16,19.2,19.2,0,0,0,5,1.48l-.06,1.66c0,.82-.71,1.23-2,1.22a14.34,14.34,0,0,1-4.37-.79,34,34,0,0,0-2.72-2q-1.56-1.06-3.12-2.15a23,23,0,0,1-2.81-2.28,7.75,7.75,0,0,1-1.8-2.47,7.88,7.88,0,0,1-2.39-2.82,11.54,11.54,0,0,1-.89-2.84,28,28,0,0,1-.34-2.81,8,8,0,0,0-.65-2.66,10.2,10.2,0,0,1,1.54-4.88,19.31,19.31,0,0,1,3.87-4.55,33.4,33.4,0,0,1,5.59-3.94,48.24,48.24,0,0,1,6.71-3.15A9,9,0,0,1,84,397.2a2.84,2.84,0,0,1,1.09.2,4,4,0,0,1,.83.47A10.36,10.36,0,0,0,86.88,398.52Z"/><path class="cls-1" d="M91,437.12a2.7,2.7,0,0,0,.44,1.66,15.08,15.08,0,0,0,1,1.38,15,15,0,0,1,1,1.37,2.59,2.59,0,0,1,.44,1.61q4.26,6.53-.47,12.48l1.46.94c-1.55.3-2.47.83-2.76,1.58a7,7,0,0,0-.49,2.36,11.86,11.86,0,0,0-2.92,1.84l-2.12,1.94a15,15,0,0,1-2.37,1.77,12.28,12.28,0,0,1-3.65,1.32,10,10,0,0,1-1.85-.24,4.07,4.07,0,0,1-1.08-.44,4.46,4.46,0,0,1-.78-.58,6.08,6.08,0,0,0-.93-.67,1.31,1.31,0,0,1,.84-1.07,9.18,9.18,0,0,1,2-.74c.78-.21,1.62-.39,2.53-.55s1.73-.33,2.47-.5a19.17,19.17,0,0,0,4.05-4A40.09,40.09,0,0,1,92,453.86a2,2,0,0,1-1.14-1.76,1.76,1.76,0,0,1,1.26-1.56,14,14,0,0,0-1.69-6.78,57.72,57.72,0,0,0-4.09-6.92,28.44,28.44,0,0,1-4.53-1.9,28.35,28.35,0,0,0-4.52-1.9q-1.18-.71-1.15-1.25c0-.36.42-.51,1.22-.47a1.12,1.12,0,0,1,.23-.79,6.74,6.74,0,0,1,1.33-.78A12.93,12.93,0,0,1,82,431a27.84,27.84,0,0,1,2.89,1.84c.94.68,1.9,1.39,2.86,2.13A38.62,38.62,0,0,0,91,437.12Z"/><path class="cls-1" d="M81.21,465.44c.73,0,1.09.25,1.07.6s-.39.71-1.13,1.06a13.68,13.68,0,0,0-4.05,1.45,12.54,12.54,0,0,1-4,1.41,15,15,0,0,0-5.46,4.19,12.66,12.66,0,0,0-2.44,5.25,13.11,13.11,0,0,0,.13,5.7,18.08,18.08,0,0,0,2.29,5.47,23.08,23.08,0,0,0,1.46,2.23,14,14,0,0,0,2.31,2.42,15.89,15.89,0,0,0,3.47,2.16,19.2,19.2,0,0,0,5,1.48l-.06,1.66c0,.82-.71,1.23-2,1.22a14.34,14.34,0,0,1-4.37-.79,34,34,0,0,0-2.72-2q-1.56-1.06-3.12-2.15a23,23,0,0,1-2.81-2.28A7.75,7.75,0,0,1,63,492a7.88,7.88,0,0,1-2.39-2.82,11.54,11.54,0,0,1-.89-2.84,28,28,0,0,1-.34-2.81,8,8,0,0,0-.65-2.66A10.2,10.2,0,0,1,60.28,476a19.31,19.31,0,0,1,3.87-4.55,33.4,33.4,0,0,1,5.59-3.94,48.24,48.24,0,0,1,6.71-3.15,9,9,0,0,1,1.86-.24,2.84,2.84,0,0,1,1.09.2,4,4,0,0,1,.83.47A10.36,10.36,0,0,0,81.21,465.44Z"/><path class="cls-1" d="M86.16,504.65a2.7,2.7,0,0,0,.44,1.66,15.08,15.08,0,0,0,1,1.38,15,15,0,0,1,1,1.37,2.59,2.59,0,0,1,.44,1.61q4.26,6.53-.47,12.48l1.46.94c-1.55.3-2.47.83-2.76,1.58a7,7,0,0,0-.49,2.36A11.86,11.86,0,0,0,84,529.87l-2.12,1.94a15,15,0,0,1-2.37,1.77,12.28,12.28,0,0,1-3.65,1.32,10,10,0,0,1-1.85-.24,4.07,4.07,0,0,1-1.08-.44,4.46,4.46,0,0,1-.78-.58,6.08,6.08,0,0,0-.93-.67,1.31,1.31,0,0,1,.84-1.07,9.18,9.18,0,0,1,2-.74c.78-.21,1.62-.39,2.53-.55s1.73-.33,2.47-.5a19.17,19.17,0,0,0,4.05-4,40.09,40.09,0,0,1,4.07-4.67A2,2,0,0,1,86,519.63a1.76,1.76,0,0,1,1.26-1.56,14,14,0,0,0-1.69-6.78,57.72,57.72,0,0,0-4.09-6.92,28.44,28.44,0,0,1-4.53-1.9,28.35,28.35,0,0,0-4.52-1.9q-1.18-.71-1.15-1.25c0-.36.42-.51,1.22-.47a1.12,1.12,0,0,1,.23-.79,6.74,6.74,0,0,1,1.33-.78,12.93,12.93,0,0,1,3.14,1.23,27.84,27.84,0,0,1,2.89,1.84c.94.68,1.9,1.39,2.86,2.13A38.62,38.62,0,0,0,86.16,504.65Z"/><path class="cls-1" d="M80.34,531.89c.73,0,1.09.25,1.07.6s-.39.71-1.13,1.06A13.68,13.68,0,0,0,76.23,535a12.54,12.54,0,0,1-4,1.41,15,15,0,0,0-5.46,4.19,12.66,12.66,0,0,0-2.44,5.25,13.11,13.11,0,0,0,.13,5.7A18.08,18.08,0,0,0,66.8,557a23.08,23.08,0,0,0,1.46,2.23,14,14,0,0,0,2.31,2.42A15.89,15.89,0,0,0,74,563.83a19.2,19.2,0,0,0,5,1.48L79,567c0,.82-.71,1.23-2,1.22a14.34,14.34,0,0,1-4.37-.79,34,34,0,0,0-2.72-2q-1.56-1.06-3.12-2.15A23,23,0,0,1,64,560.93a7.75,7.75,0,0,1-1.8-2.47,7.88,7.88,0,0,1-2.39-2.82,11.54,11.54,0,0,1-.89-2.84,28,28,0,0,1-.34-2.81,8,8,0,0,0-.65-2.66,10.2,10.2,0,0,1,1.54-4.88,19.31,19.31,0,0,1,3.87-4.55A33.4,33.4,0,0,1,68.87,534a48.24,48.24,0,0,1,6.71-3.15,9,9,0,0,1,1.86-.24,2.84,2.84,0,0,1,1.09.2,4,4,0,0,1,.83.47A10.36,10.36,0,0,0,80.34,531.89Z"/><path class="cls-1" d="M168.92,35.83a2.7,2.7,0,0,0,.44,1.66,15.08,15.08,0,0,0,1,1.38,15,15,0,0,1,1,1.37,2.59,2.59,0,0,1,.44,1.61q4.26,6.53-.47,12.48l1.46.94c-1.55.3-2.47.83-2.76,1.58a7,7,0,0,0-.49,2.36,11.86,11.86,0,0,0-2.92,1.84L164.6,63a15,15,0,0,1-2.37,1.77,12.28,12.28,0,0,1-3.65,1.32,10,10,0,0,1-1.85-.24,4.07,4.07,0,0,1-1.08-.44,4.46,4.46,0,0,1-.78-.58,6.08,6.08,0,0,0-.93-.67,1.31,1.31,0,0,1,.84-1.07,9.18,9.18,0,0,1,2-.74c.78-.21,1.62-.39,2.53-.55s1.73-.33,2.47-.5a19.17,19.17,0,0,0,4.05-4,40.09,40.09,0,0,1,4.07-4.67,2,2,0,0,1-1.14-1.76A1.76,1.76,0,0,1,170,49.25a14,14,0,0,0-1.69-6.78,57.72,57.72,0,0,0-4.09-6.92,28.44,28.44,0,0,1-4.53-1.9,28.35,28.35,0,0,0-4.52-1.9Q154,31,154,30.5c0-.36.42-.51,1.22-.47a1.12,1.12,0,0,1,.23-.79,6.74,6.74,0,0,1,1.33-.78A12.93,12.93,0,0,1,160,29.69a27.84,27.84,0,0,1,2.89,1.84c.94.68,1.9,1.39,2.86,2.13A38.62,38.62,0,0,0,168.92,35.83Z"/><path class="cls-1" d="M159.12,64.14c.73,0,1.09.25,1.07.6s-.39.71-1.13,1.06A13.68,13.68,0,0,0,155,67.25a12.54,12.54,0,0,1-4,1.41,15,15,0,0,0-5.46,4.19,12.66,12.66,0,0,0-2.44,5.25,13.11,13.11,0,0,0,.13,5.7,18.08,18.08,0,0,0,2.29,5.47A23.08,23.08,0,0,0,147,91.5a14,14,0,0,0,2.31,2.42,15.89,15.89,0,0,0,3.47,2.16,19.2,19.2,0,0,0,5,1.48l-.06,1.66c0,.82-.71,1.23-2,1.22a14.34,14.34,0,0,1-4.37-.79,34,34,0,0,0-2.72-2q-1.56-1.06-3.12-2.15a23,23,0,0,1-2.81-2.28,7.75,7.75,0,0,1-1.8-2.47,7.88,7.88,0,0,1-2.39-2.82,11.54,11.54,0,0,1-.89-2.84,28,28,0,0,1-.34-2.81,8,8,0,0,0-.65-2.66,10.2,10.2,0,0,1,1.54-4.88A19.31,19.31,0,0,1,142,70.14a33.4,33.4,0,0,1,5.59-3.94,48.24,48.24,0,0,1,6.71-3.15,9,9,0,0,1,1.86-.24,2.84,2.84,0,0,1,1.09.2,4,4,0,0,1,.83.47A10.36,10.36,0,0,0,159.12,64.14Z"/><path class="cls-1" d="M164.06,103.35a2.7,2.7,0,0,0,.44,1.66,15.08,15.08,0,0,0,1,1.38,15,15,0,0,1,1,1.37,2.59,2.59,0,0,1,.44,1.61q4.26,6.53-.47,12.48l1.46.94c-1.55.3-2.47.83-2.76,1.58a7,7,0,0,0-.49,2.36,11.86,11.86,0,0,0-2.92,1.84l-2.12,1.94a15,15,0,0,1-2.37,1.77,12.28,12.28,0,0,1-3.65,1.32,10,10,0,0,1-1.85-.24,4.07,4.07,0,0,1-1.08-.44,4.46,4.46,0,0,1-.78-.58,6.08,6.08,0,0,0-.93-.67,1.31,1.31,0,0,1,.84-1.07,9.18,9.18,0,0,1,2-.74c.78-.21,1.62-.39,2.53-.55s1.73-.33,2.47-.5a19.17,19.17,0,0,0,4.05-4,40.09,40.09,0,0,1,4.07-4.67,2,2,0,0,1-1.14-1.76,1.76,1.76,0,0,1,1.26-1.56,14,14,0,0,0-1.69-6.78,57.72,57.72,0,0,0-4.09-6.92,28.44,28.44,0,0,1-4.53-1.9,28.35,28.35,0,0,0-4.52-1.9q-1.18-.71-1.15-1.25c0-.36.42-.51,1.22-.47a1.12,1.12,0,0,1,.23-.79A6.74,6.74,0,0,1,152,96a12.93,12.93,0,0,1,3.14,1.23A27.84,27.84,0,0,1,158,99c.94.68,1.9,1.39,2.86,2.13A38.62,38.62,0,0,0,164.06,103.35Z"/><path class="cls-1" d="M158.25,130.59c.73,0,1.09.25,1.07.6s-.39.71-1.13,1.06a13.68,13.68,0,0,0-4.05,1.45,12.54,12.54,0,0,1-4,1.41,15,15,0,0,0-5.46,4.19,12.66,12.66,0,0,0-2.44,5.25,13.11,13.11,0,0,0,.13,5.7,18.08,18.08,0,0,0,2.29,5.47,23.08,23.08,0,0,0,1.46,2.23,14,14,0,0,0,2.31,2.42,15.89,15.89,0,0,0,3.47,2.16,19.2,19.2,0,0,0,5,1.48l-.06,1.66c0,.82-.71,1.23-2,1.22a14.34,14.34,0,0,1-4.37-.79,34,34,0,0,0-2.72-2q-1.56-1.06-3.12-2.15a23,23,0,0,1-2.81-2.28,7.75,7.75,0,0,1-1.8-2.47,7.88,7.88,0,0,1-2.39-2.82,11.54,11.54,0,0,1-.89-2.84,28,28,0,0,1-.34-2.81,8,8,0,0,0-.65-2.66,10.2,10.2,0,0,1,1.54-4.88,19.31,19.31,0,0,1,3.87-4.55,33.4,33.4,0,0,1,5.59-3.94,48.24,48.24,0,0,1,6.71-3.15,9,9,0,0,1,1.86-.24,2.84,2.84,0,0,1,1.09.2,4,4,0,0,1,.83.47A10.36,10.36,0,0,0,158.25,130.59Z"/><path class="cls-1" d="M162.37,169.19a2.7,2.7,0,0,0,.44,1.66,15.08,15.08,0,0,0,1,1.38,15,15,0,0,1,1,1.37,2.59,2.59,0,0,1,.44,1.61q4.26,6.53-.47,12.48l1.46.94c-1.55.3-2.47.83-2.76,1.58a7,7,0,0,0-.49,2.36,11.86,11.86,0,0,0-2.92,1.84l-2.12,1.94a15,15,0,0,1-2.37,1.77,12.28,12.28,0,0,1-3.65,1.32,10,10,0,0,1-1.85-.24,4.07,4.07,0,0,1-1.08-.44,4.46,4.46,0,0,1-.78-.58,6.08,6.08,0,0,0-.93-.67,1.31,1.31,0,0,1,.84-1.07,9.18,9.18,0,0,1,2-.74c.78-.21,1.62-.39,2.53-.55s1.73-.33,2.47-.5a19.17,19.17,0,0,0,4.05-4,40.09,40.09,0,0,1,4.07-4.67,2,2,0,0,1-1.14-1.76,1.76,1.76,0,0,1,1.26-1.56,14,14,0,0,0-1.69-6.78,57.72,57.72,0,0,0-4.09-6.92,28.44,28.44,0,0,1-4.53-1.9,28.35,28.35,0,0,0-4.52-1.9q-1.18-.71-1.15-1.25c0-.36.42-.51,1.22-.47a1.12,1.12,0,0,1,.23-.79,6.74,6.74,0,0,1,1.33-.78,12.93,12.93,0,0,1,3.14,1.23,27.84,27.84,0,0,1,2.89,1.84c.94.68,1.9,1.39,2.86,2.13A38.62,38.62,0,0,0,162.37,169.19Z"/><path class="cls-1" d="M152.58,197.51c.73,0,1.09.25,1.07.6s-.39.71-1.13,1.06a13.68,13.68,0,0,0-4.05,1.45,12.54,12.54,0,0,1-4,1.41,15,15,0,0,0-5.46,4.19,12.66,12.66,0,0,0-2.44,5.25,13.11,13.11,0,0,0,.13,5.7,18.08,18.08,0,0,0,2.29,5.47,23.08,23.08,0,0,0,1.46,2.23,14,14,0,0,0,2.31,2.42,15.89,15.89,0,0,0,3.47,2.16,19.2,19.2,0,0,0,5,1.48l-.06,1.66c0,.82-.71,1.23-2,1.22a14.34,14.34,0,0,1-4.37-.79,34,34,0,0,0-2.72-2q-1.56-1.06-3.12-2.15a23,23,0,0,1-2.81-2.28,7.75,7.75,0,0,1-1.8-2.47,7.88,7.88,0,0,1-2.39-2.82,11.54,11.54,0,0,1-.89-2.84,28,28,0,0,1-.34-2.81,8,8,0,0,0-.65-2.66,10.2,10.2,0,0,1,1.54-4.88,19.31,19.31,0,0,1,3.87-4.55,33.4,33.4,0,0,1,5.59-3.94,48.24,48.24,0,0,1,6.71-3.15,9,9,0,0,1,1.86-.24,2.84,2.84,0,0,1,1.09.2,4,4,0,0,1,.83.47A10.36,10.36,0,0,0,152.58,197.51Z"/><path class="cls-1" d="M157.52,236.72a2.7,2.7,0,0,0,.44,1.66,15.08,15.08,0,0,0,1,1.38,15,15,0,0,1,1,1.37,2.59,2.59,0,0,1,.44,1.61q4.26,6.53-.47,12.48l1.46.94c-1.55.3-2.47.83-2.76,1.58a7,7,0,0,0-.49,2.36,11.86,11.86,0,0,0-2.92,1.84l-2.12,1.94a15,15,0,0,1-2.37,1.77,12.28,12.28,0,0,1-3.65,1.32,10,10,0,0,1-1.85-.24,4.07,4.07,0,0,1-1.08-.44,4.46,4.46,0,0,1-.78-.58,6.08,6.08,0,0,0-.93-.67,1.31,1.31,0,0,1,.84-1.07,9.18,9.18,0,0,1,2-.74c.78-.21,1.62-.39,2.53-.55s1.73-.33,2.47-.5a19.17,19.17,0,0,0,4.05-4,40.09,40.09,0,0,1,4.07-4.67,2,2,0,0,1-1.14-1.76,1.76,1.76,0,0,1,1.26-1.56,14,14,0,0,0-1.69-6.78,57.72,57.72,0,0,0-4.09-6.92,28.44,28.44,0,0,1-4.53-1.9,28.35,28.35,0,0,0-4.52-1.9q-1.18-.71-1.15-1.25c0-.36.42-.51,1.22-.47a1.12,1.12,0,0,1,.23-.79,6.74,6.74,0,0,1,1.33-.78,12.93,12.93,0,0,1,3.14,1.23,27.84,27.84,0,0,1,2.89,1.84c.94.68,1.9,1.39,2.86,2.13A38.62,38.62,0,0,0,157.52,236.72Z"/><path class="cls-1" d="M151.71,264c.73,0,1.09.25,1.07.6s-.39.71-1.13,1.06a13.68,13.68,0,0,0-4.05,1.45,12.54,12.54,0,0,1-4,1.41,15,15,0,0,0-5.46,4.19,12.66,12.66,0,0,0-2.44,5.25,13.11,13.11,0,0,0,.13,5.7,18.08,18.08,0,0,0,2.29,5.47,23.08,23.08,0,0,0,1.46,2.23,14,14,0,0,0,2.31,2.42,15.89,15.89,0,0,0,3.47,2.16,19.2,19.2,0,0,0,5,1.48l-.06,1.66c0,.82-.71,1.23-2,1.22a14.34,14.34,0,0,1-4.37-.79,34,34,0,0,0-2.72-2q-1.56-1.06-3.12-2.15a23,23,0,0,1-2.81-2.28,7.75,7.75,0,0,1-1.8-2.47,7.88,7.88,0,0,1-2.39-2.82,11.54,11.54,0,0,1-.89-2.84,28,28,0,0,1-.34-2.81,8,8,0,0,0-.65-2.66,10.2,10.2,0,0,1,1.54-4.88,19.31,19.31,0,0,1,3.87-4.55,33.4,33.4,0,0,1,5.59-3.94,48.24,48.24,0,0,1,6.71-3.15,9,9,0,0,1,1.86-.24,2.84,2.84,0,0,1,1.09.2,4,4,0,0,1,.83.47A10.36,10.36,0,0,0,151.71,264Z"/><path class="cls-1" d="M156.23,302.83a2.7,2.7,0,0,0,.44,1.66,15.08,15.08,0,0,0,1,1.38,15,15,0,0,1,1,1.37,2.59,2.59,0,0,1,.44,1.61q4.26,6.53-.47,12.48l1.46.94c-1.55.3-2.47.83-2.76,1.58a7,7,0,0,0-.49,2.36,11.86,11.86,0,0,0-2.92,1.84L151.91,330a15,15,0,0,1-2.37,1.77,12.28,12.28,0,0,1-3.65,1.32,10,10,0,0,1-1.85-.24,4.07,4.07,0,0,1-1.08-.44,4.46,4.46,0,0,1-.78-.58,6.08,6.08,0,0,0-.93-.67,1.31,1.31,0,0,1,.84-1.07,9.18,9.18,0,0,1,2-.74c.78-.21,1.62-.39,2.53-.55s1.73-.33,2.47-.5a19.17,19.17,0,0,0,4.05-4,40.09,40.09,0,0,1,4.07-4.67,2,2,0,0,1-1.14-1.76,1.76,1.76,0,0,1,1.26-1.56,14,14,0,0,0-1.69-6.78,57.72,57.72,0,0,0-4.09-6.92,28.44,28.44,0,0,1-4.53-1.9,28.35,28.35,0,0,0-4.52-1.9q-1.18-.71-1.15-1.25c0-.36.42-.51,1.22-.47a1.12,1.12,0,0,1,.23-.79,6.74,6.74,0,0,1,1.33-.78,12.93,12.93,0,0,1,3.14,1.23,27.84,27.84,0,0,1,2.89,1.84c.94.68,1.9,1.39,2.86,2.13A38.62,38.62,0,0,0,156.23,302.83Z"/><path class="cls-1" d="M146.44,331.14c.73,0,1.09.25,1.07.6s-.39.71-1.13,1.06a13.68,13.68,0,0,0-4.05,1.45,12.54,12.54,0,0,1-4,1.41,15,15,0,0,0-5.46,4.19,12.66,12.66,0,0,0-2.44,5.25,13.11,13.11,0,0,0,.13,5.7,18.08,18.08,0,0,0,2.29,5.47,23.08,23.08,0,0,0,1.46,2.23,14,14,0,0,0,2.31,2.42,15.89,15.89,0,0,0,3.47,2.16,19.2,19.2,0,0,0,5,1.48l-.06,1.66c0,.82-.71,1.23-2,1.22a14.34,14.34,0,0,1-4.37-.79,34,34,0,0,0-2.72-2q-1.56-1.06-3.12-2.15a23,23,0,0,1-2.81-2.28,7.75,7.75,0,0,1-1.8-2.47,7.88,7.88,0,0,1-2.39-2.82A11.54,11.54,0,0,1,125,352a28,28,0,0,1-.34-2.81,8,8,0,0,0-.65-2.66,10.2,10.2,0,0,1,1.54-4.88,19.31,19.31,0,0,1,3.87-4.55A33.4,33.4,0,0,1,135,333.2a48.24,48.24,0,0,1,6.71-3.15,9,9,0,0,1,1.86-.24,2.84,2.84,0,0,1,1.09.2,4,4,0,0,1,.83.47A10.36,10.36,0,0,0,146.44,331.14Z"/><path class="cls-1" d="M151.38,370.35a2.7,2.7,0,0,0,.44,1.66,15.08,15.08,0,0,0,1,1.38,15,15,0,0,1,1,1.37,2.59,2.59,0,0,1,.44,1.61q4.26,6.53-.47,12.48l1.46.94c-1.55.3-2.47.83-2.76,1.58a7,7,0,0,0-.49,2.36,11.86,11.86,0,0,0-2.92,1.84l-2.12,1.94a15,15,0,0,1-2.37,1.77A12.28,12.28,0,0,1,141,400.6a10,10,0,0,1-1.85-.24,4.07,4.07,0,0,1-1.08-.44,4.46,4.46,0,0,1-.78-.58,6.08,6.08,0,0,0-.93-.67,1.31,1.31,0,0,1,.84-1.07,9.18,9.18,0,0,1,2-.74c.78-.21,1.62-.39,2.53-.55s1.73-.33,2.47-.5a19.17,19.17,0,0,0,4.05-4,40.09,40.09,0,0,1,4.07-4.67,2,2,0,0,1-1.14-1.76,1.76,1.76,0,0,1,1.26-1.56,14,14,0,0,0-1.69-6.78,57.72,57.72,0,0,0-4.09-6.92,28.44,28.44,0,0,1-4.53-1.9,28.35,28.35,0,0,0-4.52-1.9q-1.18-.71-1.15-1.25c0-.36.42-.51,1.22-.47a1.12,1.12,0,0,1,.23-.79,6.74,6.74,0,0,1,1.33-.78,12.93,12.93,0,0,1,3.14,1.23A27.84,27.84,0,0,1,145.3,366c.94.68,1.9,1.39,2.86,2.13A38.62,38.62,0,0,0,151.38,370.35Z"/><path class="cls-1" d="M145.57,397.6c.73,0,1.09.25,1.07.6s-.39.71-1.13,1.06a13.68,13.68,0,0,0-4.05,1.45,12.54,12.54,0,0,1-4,1.41A15,15,0,0,0,132,406.3a12.66,12.66,0,0,0-2.44,5.25,13.11,13.11,0,0,0,.13,5.7,18.08,18.08,0,0,0,2.29,5.47,23.08,23.08,0,0,0,1.46,2.23,14,14,0,0,0,2.31,2.42,15.89,15.89,0,0,0,3.47,2.16,19.2,19.2,0,0,0,5,1.48l-.06,1.66c0,.82-.71,1.23-2,1.22a14.34,14.34,0,0,1-4.37-.79,34,34,0,0,0-2.72-2q-1.56-1.06-3.12-2.15a23,23,0,0,1-2.81-2.28,7.75,7.75,0,0,1-1.8-2.47,7.88,7.88,0,0,1-2.39-2.82,11.54,11.54,0,0,1-.89-2.84,28,28,0,0,1-.34-2.81,8,8,0,0,0-.65-2.66,10.2,10.2,0,0,1,1.54-4.88,19.31,19.31,0,0,1,3.87-4.55,33.4,33.4,0,0,1,5.59-3.94,48.24,48.24,0,0,1,6.71-3.15,9,9,0,0,1,1.86-.24,2.84,2.84,0,0,1,1.09.2,4,4,0,0,1,.83.47A10.36,10.36,0,0,0,145.57,397.6Z"/><path class="cls-1" d="M149.69,436.19a2.7,2.7,0,0,0,.44,1.66,15.08,15.08,0,0,0,1,1.38,15,15,0,0,1,1,1.37,2.59,2.59,0,0,1,.44,1.61q4.26,6.53-.47,12.48l1.46.94c-1.55.3-2.47.83-2.76,1.58a7,7,0,0,0-.49,2.36,11.86,11.86,0,0,0-2.92,1.84l-2.12,1.94a15,15,0,0,1-2.37,1.77,12.28,12.28,0,0,1-3.65,1.32,10,10,0,0,1-1.85-.24,4.07,4.07,0,0,1-1.08-.44,4.46,4.46,0,0,1-.78-.58,6.08,6.08,0,0,0-.93-.67,1.31,1.31,0,0,1,.84-1.07,9.18,9.18,0,0,1,2-.74c.78-.21,1.62-.39,2.53-.55s1.73-.33,2.47-.5a19.17,19.17,0,0,0,4.05-4,40.09,40.09,0,0,1,4.07-4.67,2,2,0,0,1-1.14-1.76,1.76,1.76,0,0,1,1.26-1.56,14,14,0,0,0-1.69-6.78,57.72,57.72,0,0,0-4.09-6.92,28.44,28.44,0,0,1-4.53-1.9,28.35,28.35,0,0,0-4.52-1.9q-1.18-.71-1.15-1.25c0-.36.42-.51,1.22-.47a1.12,1.12,0,0,1,.23-.79,6.74,6.74,0,0,1,1.33-.78,12.93,12.93,0,0,1,3.14,1.23,27.84,27.84,0,0,1,2.89,1.84c.94.68,1.9,1.39,2.86,2.13A38.62,38.62,0,0,0,149.69,436.19Z"/><path class="cls-1" d="M139.9,464.51c.73,0,1.09.25,1.07.6s-.39.71-1.13,1.06a13.68,13.68,0,0,0-4.05,1.45,12.54,12.54,0,0,1-4,1.41,15,15,0,0,0-5.46,4.19,12.66,12.66,0,0,0-2.44,5.25,13.11,13.11,0,0,0,.13,5.7,18.08,18.08,0,0,0,2.29,5.47,23.08,23.08,0,0,0,1.46,2.23,14,14,0,0,0,2.31,2.42,15.89,15.89,0,0,0,3.47,2.16,19.2,19.2,0,0,0,5,1.48l-.06,1.66c0,.82-.71,1.23-2,1.22a14.34,14.34,0,0,1-4.37-.79,34,34,0,0,0-2.72-2q-1.56-1.06-3.12-2.15a23,23,0,0,1-2.81-2.28,7.75,7.75,0,0,1-1.8-2.47,7.88,7.88,0,0,1-2.39-2.82,11.54,11.54,0,0,1-.89-2.84,28,28,0,0,1-.34-2.81,8,8,0,0,0-.65-2.66,10.2,10.2,0,0,1,1.54-4.88,19.31,19.31,0,0,1,3.87-4.55,33.4,33.4,0,0,1,5.59-3.94,48.24,48.24,0,0,1,6.71-3.15,9,9,0,0,1,1.86-.24,2.84,2.84,0,0,1,1.09.2,4,4,0,0,1,.83.47A10.36,10.36,0,0,0,139.9,464.51Z"/><path class="cls-1" d="M144.84,503.72a2.7,2.7,0,0,0,.44,1.66,15.08,15.08,0,0,0,1,1.38,15,15,0,0,1,1,1.37,2.59,2.59,0,0,1,.44,1.61q4.26,6.53-.47,12.48l1.46.94c-1.55.3-2.47.83-2.76,1.58a7,7,0,0,0-.49,2.36,11.86,11.86,0,0,0-2.92,1.84l-2.12,1.94a15,15,0,0,1-2.37,1.77,12.28,12.28,0,0,1-3.65,1.32,10,10,0,0,1-1.85-.24,4.07,4.07,0,0,1-1.08-.44,4.46,4.46,0,0,1-.78-.58,6.08,6.08,0,0,0-.93-.67,1.31,1.31,0,0,1,.84-1.07,9.18,9.18,0,0,1,2-.74c.78-.21,1.62-.39,2.53-.55s1.73-.33,2.47-.5a19.17,19.17,0,0,0,4.05-4,40.09,40.09,0,0,1,4.07-4.67,2,2,0,0,1-1.14-1.76,1.76,1.76,0,0,1,1.26-1.56,14,14,0,0,0-1.69-6.78,57.72,57.72,0,0,0-4.09-6.92,28.44,28.44,0,0,1-4.53-1.9,28.35,28.35,0,0,0-4.52-1.9q-1.18-.71-1.15-1.25c0-.36.42-.51,1.22-.47a1.12,1.12,0,0,1,.23-.79,6.74,6.74,0,0,1,1.33-.78,12.93,12.93,0,0,1,3.14,1.23,27.84,27.84,0,0,1,2.89,1.84c.94.68,1.9,1.39,2.86,2.13A38.62,38.62,0,0,0,144.84,503.72Z"/><path class="cls-1" d="M139,531c.73,0,1.09.25,1.07.6s-.39.71-1.13,1.06a13.68,13.68,0,0,0-4.05,1.45,12.54,12.54,0,0,1-4,1.41,15,15,0,0,0-5.46,4.19,12.66,12.66,0,0,0-2.44,5.25,13.11,13.11,0,0,0,.13,5.7,18.08,18.08,0,0,0,2.29,5.47,23.08,23.08,0,0,0,1.46,2.23,14,14,0,0,0,2.31,2.42,15.89,15.89,0,0,0,3.47,2.16,19.2,19.2,0,0,0,5,1.48l-.06,1.66c0,.82-.71,1.23-2,1.22a14.34,14.34,0,0,1-4.37-.79,34,34,0,0,0-2.72-2q-1.56-1.06-3.12-2.15a23,23,0,0,1-2.81-2.28,7.75,7.75,0,0,1-1.8-2.47,7.88,7.88,0,0,1-2.39-2.82,11.54,11.54,0,0,1-.89-2.84,28,28,0,0,1-.34-2.81,8,8,0,0,0-.65-2.66,10.2,10.2,0,0,1,1.54-4.88A19.31,19.31,0,0,1,122,537a33.4,33.4,0,0,1,5.59-3.94,48.24,48.24,0,0,1,6.71-3.15,9,9,0,0,1,1.86-.24,2.84,2.84,0,0,1,1.09.2,4,4,0,0,1,.83.47A10.36,10.36,0,0,0,139,531Z"/><path class="cls-1" d="M225.14,41.57a2.7,2.7,0,0,0,.44,1.66,15.08,15.08,0,0,0,1,1.38,15,15,0,0,1,1,1.37,2.59,2.59,0,0,1,.44,1.61q4.26,6.53-.47,12.48l1.46.94c-1.55.3-2.47.83-2.76,1.58a7,7,0,0,0-.49,2.36,11.86,11.86,0,0,0-2.92,1.84l-2.12,1.94a15,15,0,0,1-2.37,1.77,12.28,12.28,0,0,1-3.65,1.32,10,10,0,0,1-1.85-.24,4.07,4.07,0,0,1-1.08-.44,4.46,4.46,0,0,1-.78-.58,6.08,6.08,0,0,0-.93-.67,1.31,1.31,0,0,1,.84-1.07,9.18,9.18,0,0,1,2-.74c.78-.21,1.62-.39,2.53-.55s1.73-.33,2.47-.5A19.17,19.17,0,0,0,222,63a40.09,40.09,0,0,1,4.07-4.67A2,2,0,0,1,225,56.56,1.76,1.76,0,0,1,226.24,55a14,14,0,0,0-1.69-6.78,57.72,57.72,0,0,0-4.09-6.92,28.44,28.44,0,0,1-4.53-1.9,28.35,28.35,0,0,0-4.52-1.9q-1.18-.71-1.15-1.25c0-.36.42-.51,1.22-.47a1.12,1.12,0,0,1,.23-.79,6.74,6.74,0,0,1,1.33-.78,12.93,12.93,0,0,1,3.14,1.23,27.84,27.84,0,0,1,2.89,1.84c.94.68,1.9,1.39,2.86,2.13A38.62,38.62,0,0,0,225.14,41.57Z"/><path class="cls-1" d="M215.35,69.89c.73,0,1.09.25,1.07.6s-.39.71-1.13,1.06A13.68,13.68,0,0,0,211.23,73a12.54,12.54,0,0,1-4,1.41,15,15,0,0,0-5.46,4.19,12.66,12.66,0,0,0-2.44,5.25,13.11,13.11,0,0,0,.13,5.7A18.08,18.08,0,0,0,201.8,95a23.08,23.08,0,0,0,1.46,2.23,14,14,0,0,0,2.31,2.42,15.89,15.89,0,0,0,3.47,2.16,19.2,19.2,0,0,0,5,1.48L214,105c0,.82-.71,1.23-2,1.22a14.34,14.34,0,0,1-4.37-.79,34,34,0,0,0-2.72-2q-1.56-1.06-3.12-2.15A23,23,0,0,1,199,98.92a7.75,7.75,0,0,1-1.8-2.47,7.88,7.88,0,0,1-2.39-2.82,11.54,11.54,0,0,1-.89-2.84,28,28,0,0,1-.34-2.81,8,8,0,0,0-.65-2.66,10.2,10.2,0,0,1,1.54-4.88,19.31,19.31,0,0,1,3.87-4.55,33.4,33.4,0,0,1,5.59-3.94,48.24,48.24,0,0,1,6.71-3.15,9,9,0,0,1,1.86-.24,2.84,2.84,0,0,1,1.09.2,4,4,0,0,1,.83.47A10.36,10.36,0,0,0,215.35,69.89Z"/><path class="cls-1" d="M220.29,109.09a2.7,2.7,0,0,0,.44,1.66,15.08,15.08,0,0,0,1,1.38,15,15,0,0,1,1,1.37,2.59,2.59,0,0,1,.44,1.61q4.26,6.53-.47,12.48l1.46.94c-1.55.3-2.47.83-2.76,1.58a7,7,0,0,0-.49,2.36,11.86,11.86,0,0,0-2.92,1.84L216,136.26a15,15,0,0,1-2.37,1.77,12.28,12.28,0,0,1-3.65,1.32,10,10,0,0,1-1.85-.24,4.07,4.07,0,0,1-1.08-.44,4.46,4.46,0,0,1-.78-.58,6.08,6.08,0,0,0-.93-.67,1.31,1.31,0,0,1,.84-1.07,9.18,9.18,0,0,1,2-.74c.78-.21,1.62-.39,2.53-.55s1.73-.33,2.47-.5a19.17,19.17,0,0,0,4.05-4,40.09,40.09,0,0,1,4.07-4.67,2,2,0,0,1-1.14-1.76,1.76,1.76,0,0,1,1.26-1.56,14,14,0,0,0-1.69-6.78,57.72,57.72,0,0,0-4.09-6.92,28.44,28.44,0,0,1-4.53-1.9,28.35,28.35,0,0,0-4.52-1.9q-1.18-.71-1.15-1.25c0-.36.42-.51,1.22-.47a1.12,1.12,0,0,1,.23-.79,6.74,6.74,0,0,1,1.33-.78,12.93,12.93,0,0,1,3.14,1.23,27.84,27.84,0,0,1,2.89,1.84c.94.68,1.9,1.39,2.86,2.13A38.62,38.62,0,0,0,220.29,109.09Z"/><path class="cls-1" d="M214.48,136.34c.73,0,1.09.25,1.07.6s-.39.71-1.13,1.06a13.68,13.68,0,0,0-4.05,1.45,12.54,12.54,0,0,1-4,1.41,15,15,0,0,0-5.46,4.19,12.66,12.66,0,0,0-2.44,5.25,13.11,13.11,0,0,0,.13,5.7,18.08,18.08,0,0,0,2.29,5.47,23.08,23.08,0,0,0,1.46,2.23,14,14,0,0,0,2.31,2.42,15.89,15.89,0,0,0,3.47,2.16,19.2,19.2,0,0,0,5,1.48l-.06,1.66c0,.82-.71,1.23-2,1.22a14.34,14.34,0,0,1-4.37-.79,34,34,0,0,0-2.72-2q-1.56-1.06-3.12-2.15a23,23,0,0,1-2.81-2.28,7.75,7.75,0,0,1-1.8-2.47,7.88,7.88,0,0,1-2.39-2.82,11.54,11.54,0,0,1-.89-2.84,28,28,0,0,1-.34-2.81,8,8,0,0,0-.65-2.66,10.2,10.2,0,0,1,1.54-4.88,19.31,19.31,0,0,1,3.87-4.55A33.4,33.4,0,0,1,203,138.4a48.24,48.24,0,0,1,6.71-3.15,9,9,0,0,1,1.86-.24,2.84,2.84,0,0,1,1.09.2,4,4,0,0,1,.83.47A10.36,10.36,0,0,0,214.48,136.34Z"/><path class="cls-1" d="M218.6,174.94a2.7,2.7,0,0,0,.44,1.66,15.08,15.08,0,0,0,1,1.38,15,15,0,0,1,1,1.37,2.59,2.59,0,0,1,.44,1.61q4.26,6.53-.47,12.48l1.46.94c-1.55.3-2.47.83-2.76,1.58a7,7,0,0,0-.49,2.36,11.86,11.86,0,0,0-2.92,1.84l-2.12,1.94a15,15,0,0,1-2.37,1.77,12.28,12.28,0,0,1-3.65,1.32,10,10,0,0,1-1.85-.24,4.07,4.07,0,0,1-1.08-.44,4.46,4.46,0,0,1-.78-.58,6.08,6.08,0,0,0-.93-.67,1.31,1.31,0,0,1,.84-1.07,9.18,9.18,0,0,1,2-.74c.78-.21,1.62-.39,2.53-.55s1.73-.33,2.47-.5a19.17,19.17,0,0,0,4.05-4,40.09,40.09,0,0,1,4.07-4.67,2,2,0,0,1-1.14-1.76,1.76,1.76,0,0,1,1.26-1.56,14,14,0,0,0-1.69-6.78,57.72,57.72,0,0,0-4.09-6.92,28.44,28.44,0,0,1-4.53-1.9,28.35,28.35,0,0,0-4.52-1.9q-1.18-.71-1.15-1.25c0-.36.42-.51,1.22-.47a1.12,1.12,0,0,1,.23-.79,6.74,6.74,0,0,1,1.33-.78,12.93,12.93,0,0,1,3.14,1.23,27.84,27.84,0,0,1,2.89,1.84c.94.68,1.9,1.39,2.86,2.13A38.62,38.62,0,0,0,218.6,174.94Z"/><path class="cls-1" d="M208.81,203.25c.73,0,1.09.25,1.07.6s-.39.71-1.13,1.06a13.68,13.68,0,0,0-4.05,1.45,12.54,12.54,0,0,1-4,1.41,15,15,0,0,0-5.46,4.19,12.66,12.66,0,0,0-2.44,5.25,13.11,13.11,0,0,0,.13,5.7,18.08,18.08,0,0,0,2.29,5.47,23.08,23.08,0,0,0,1.46,2.23A14,14,0,0,0,199,233a15.89,15.89,0,0,0,3.47,2.16,19.2,19.2,0,0,0,5,1.48l-.06,1.66c0,.82-.71,1.23-2,1.22a14.34,14.34,0,0,1-4.37-.79,34,34,0,0,0-2.72-2q-1.56-1.06-3.12-2.15a23,23,0,0,1-2.81-2.28,7.75,7.75,0,0,1-1.8-2.47,7.88,7.88,0,0,1-2.39-2.82,11.54,11.54,0,0,1-.89-2.84,28,28,0,0,1-.34-2.81,8,8,0,0,0-.65-2.66,10.2,10.2,0,0,1,1.54-4.88,19.31,19.31,0,0,1,3.87-4.55,33.4,33.4,0,0,1,5.59-3.94,48.24,48.24,0,0,1,6.71-3.15,9,9,0,0,1,1.86-.24,2.84,2.84,0,0,1,1.09.2,4,4,0,0,1,.83.47A10.36,10.36,0,0,0,208.81,203.25Z"/><path class="cls-1" d="M213.75,242.46a2.7,2.7,0,0,0,.44,1.66,15.08,15.08,0,0,0,1,1.38,15,15,0,0,1,1,1.37,2.59,2.59,0,0,1,.44,1.61Q221,255,216.25,261l1.46.94c-1.55.3-2.47.83-2.76,1.58a7,7,0,0,0-.49,2.36,11.86,11.86,0,0,0-2.92,1.84l-2.12,1.94a15,15,0,0,1-2.37,1.77,12.28,12.28,0,0,1-3.65,1.32,10,10,0,0,1-1.85-.24,4.07,4.07,0,0,1-1.08-.44,4.46,4.46,0,0,1-.78-.58,6.08,6.08,0,0,0-.93-.67,1.31,1.31,0,0,1,.84-1.07,9.18,9.18,0,0,1,2-.74c.78-.21,1.62-.39,2.53-.55s1.73-.33,2.47-.5a19.17,19.17,0,0,0,4.05-4,40.09,40.09,0,0,1,4.07-4.67,2,2,0,0,1-1.14-1.76,1.76,1.76,0,0,1,1.26-1.56,14,14,0,0,0-1.69-6.78,57.72,57.72,0,0,0-4.09-6.92,28.44,28.44,0,0,1-4.53-1.9,28.35,28.35,0,0,0-4.52-1.9q-1.18-.71-1.15-1.25c0-.36.42-.51,1.22-.47a1.12,1.12,0,0,1,.23-.79,6.74,6.74,0,0,1,1.33-.78,12.93,12.93,0,0,1,3.14,1.23,27.84,27.84,0,0,1,2.89,1.84c.94.68,1.9,1.39,2.86,2.13A38.62,38.62,0,0,0,213.75,242.46Z"/><path class="cls-1" d="M207.93,269.71c.73,0,1.09.25,1.07.6s-.39.71-1.13,1.06a13.68,13.68,0,0,0-4.05,1.45,12.54,12.54,0,0,1-4,1.41,15,15,0,0,0-5.46,4.19,12.66,12.66,0,0,0-2.44,5.25,13.11,13.11,0,0,0,.13,5.7,18.08,18.08,0,0,0,2.29,5.47,23.08,23.08,0,0,0,1.46,2.23,14,14,0,0,0,2.31,2.42,15.89,15.89,0,0,0,3.47,2.16,19.2,19.2,0,0,0,5,1.48l-.06,1.66c0,.82-.71,1.23-2,1.22a14.34,14.34,0,0,1-4.37-.79,34,34,0,0,0-2.72-2q-1.56-1.06-3.12-2.15a23,23,0,0,1-2.81-2.28,7.75,7.75,0,0,1-1.8-2.47,7.88,7.88,0,0,1-2.39-2.82,11.54,11.54,0,0,1-.89-2.84,28,28,0,0,1-.34-2.81,8,8,0,0,0-.65-2.66,10.2,10.2,0,0,1,1.54-4.88,19.31,19.31,0,0,1,3.87-4.55,33.4,33.4,0,0,1,5.59-3.94,48.24,48.24,0,0,1,6.71-3.15,9,9,0,0,1,1.86-.24,2.84,2.84,0,0,1,1.09.2,4,4,0,0,1,.83.47A10.36,10.36,0,0,0,207.93,269.71Z"/><path class="cls-1" d="M212.46,308.57a2.7,2.7,0,0,0,.44,1.66,15.08,15.08,0,0,0,1,1.38,15,15,0,0,1,1,1.37,2.59,2.59,0,0,1,.44,1.61q4.26,6.53-.47,12.48l1.46.94c-1.55.3-2.47.83-2.76,1.58a7,7,0,0,0-.49,2.36,11.86,11.86,0,0,0-2.92,1.84l-2.12,1.94a15,15,0,0,1-2.37,1.77,12.28,12.28,0,0,1-3.65,1.32,10,10,0,0,1-1.85-.24,4.07,4.07,0,0,1-1.08-.44,4.46,4.46,0,0,1-.78-.58,6.08,6.08,0,0,0-.93-.67,1.31,1.31,0,0,1,.84-1.07,9.18,9.18,0,0,1,2-.74c.78-.21,1.62-.39,2.53-.55s1.73-.33,2.47-.5a19.17,19.17,0,0,0,4.05-4,40.09,40.09,0,0,1,4.07-4.67,2,2,0,0,1-1.14-1.76,1.76,1.76,0,0,1,1.26-1.56,14,14,0,0,0-1.69-6.78,57.72,57.72,0,0,0-4.09-6.92,28.44,28.44,0,0,1-4.53-1.9,28.35,28.35,0,0,0-4.52-1.9q-1.18-.71-1.15-1.25c0-.36.42-.51,1.22-.47A1.12,1.12,0,0,1,199,302a6.74,6.74,0,0,1,1.33-.78,12.93,12.93,0,0,1,3.14,1.23,27.84,27.84,0,0,1,2.89,1.84c.94.68,1.9,1.39,2.86,2.13A38.62,38.62,0,0,0,212.46,308.57Z"/><path class="cls-1" d="M202.67,336.89c.73,0,1.09.25,1.07.6s-.39.71-1.13,1.06a13.68,13.68,0,0,0-4.05,1.45,12.54,12.54,0,0,1-4,1.41,15,15,0,0,0-5.46,4.19,12.66,12.66,0,0,0-2.44,5.25,13.11,13.11,0,0,0,.13,5.7,18.08,18.08,0,0,0,2.29,5.47,23.08,23.08,0,0,0,1.46,2.23,14,14,0,0,0,2.31,2.42,15.89,15.89,0,0,0,3.47,2.16,19.2,19.2,0,0,0,5,1.48l-.06,1.66c0,.82-.71,1.23-2,1.22a14.34,14.34,0,0,1-4.37-.79,34,34,0,0,0-2.72-2q-1.56-1.06-3.12-2.15a23,23,0,0,1-2.81-2.28,7.75,7.75,0,0,1-1.8-2.47,7.88,7.88,0,0,1-2.39-2.82,11.54,11.54,0,0,1-.89-2.84,28,28,0,0,1-.34-2.81,8,8,0,0,0-.65-2.66,10.2,10.2,0,0,1,1.54-4.88,19.31,19.31,0,0,1,3.87-4.55,33.4,33.4,0,0,1,5.59-3.94,48.24,48.24,0,0,1,6.71-3.15,9,9,0,0,1,1.86-.24,2.84,2.84,0,0,1,1.09.2,4,4,0,0,1,.83.47A10.36,10.36,0,0,0,202.67,336.89Z"/><path class="cls-1" d="M207.61,376.09a2.7,2.7,0,0,0,.44,1.66,15.08,15.08,0,0,0,1,1.38,15,15,0,0,1,1,1.37,2.59,2.59,0,0,1,.44,1.61q4.26,6.53-.47,12.48l1.46.94c-1.55.3-2.47.83-2.76,1.58a7,7,0,0,0-.49,2.36,11.86,11.86,0,0,0-2.92,1.84l-2.12,1.94a15,15,0,0,1-2.37,1.77,12.28,12.28,0,0,1-3.65,1.32,10,10,0,0,1-1.85-.24,4.07,4.07,0,0,1-1.08-.44,4.46,4.46,0,0,1-.78-.58,6.08,6.08,0,0,0-.93-.67,1.31,1.31,0,0,1,.84-1.07,9.18,9.18,0,0,1,2-.74c.78-.21,1.62-.39,2.53-.55s1.73-.33,2.47-.5a19.17,19.17,0,0,0,4.05-4,40.09,40.09,0,0,1,4.07-4.67,2,2,0,0,1-1.14-1.76,1.76,1.76,0,0,1,1.26-1.56,14,14,0,0,0-1.69-6.78,57.72,57.72,0,0,0-4.09-6.92,28.44,28.44,0,0,1-4.53-1.9,28.35,28.35,0,0,0-4.52-1.9q-1.18-.71-1.15-1.25c0-.36.42-.51,1.22-.47a1.12,1.12,0,0,1,.23-.79,6.74,6.74,0,0,1,1.33-.78,12.93,12.93,0,0,1,3.14,1.23,27.84,27.84,0,0,1,2.89,1.84c.94.68,1.9,1.39,2.86,2.13A38.62,38.62,0,0,0,207.61,376.09Z"/><path class="cls-1" d="M201.79,403.34c.73,0,1.09.25,1.07.6s-.39.71-1.13,1.06a13.68,13.68,0,0,0-4.05,1.45,12.54,12.54,0,0,1-4,1.41,15,15,0,0,0-5.46,4.19,12.66,12.66,0,0,0-2.44,5.25A13.11,13.11,0,0,0,186,423a18.08,18.08,0,0,0,2.29,5.47,23.08,23.08,0,0,0,1.46,2.23,14,14,0,0,0,2.31,2.42,15.89,15.89,0,0,0,3.47,2.16,19.2,19.2,0,0,0,5,1.48l-.06,1.66c0,.82-.71,1.23-2,1.22a14.34,14.34,0,0,1-4.37-.79,34,34,0,0,0-2.72-2q-1.56-1.06-3.12-2.15a23,23,0,0,1-2.81-2.28,7.75,7.75,0,0,1-1.8-2.47,7.88,7.88,0,0,1-2.39-2.82,11.54,11.54,0,0,1-.89-2.84,28,28,0,0,1-.34-2.81,8,8,0,0,0-.65-2.66,10.2,10.2,0,0,1,1.54-4.88,19.31,19.31,0,0,1,3.87-4.55,33.4,33.4,0,0,1,5.59-3.94,48.24,48.24,0,0,1,6.71-3.15,9,9,0,0,1,1.86-.24,2.84,2.84,0,0,1,1.09.2,4,4,0,0,1,.83.47A10.36,10.36,0,0,0,201.79,403.34Z"/><path class="cls-1" d="M205.92,441.94a2.7,2.7,0,0,0,.44,1.66,15.08,15.08,0,0,0,1,1.38,15,15,0,0,1,1,1.37,2.59,2.59,0,0,1,.44,1.61q4.26,6.53-.47,12.48l1.46.94c-1.55.3-2.47.83-2.76,1.58a7,7,0,0,0-.49,2.36,11.86,11.86,0,0,0-2.92,1.84l-2.12,1.94a15,15,0,0,1-2.37,1.77,12.28,12.28,0,0,1-3.65,1.32,10,10,0,0,1-1.85-.24,4.07,4.07,0,0,1-1.08-.44,4.46,4.46,0,0,1-.78-.58,6.08,6.08,0,0,0-.93-.67,1.31,1.31,0,0,1,.84-1.07,9.18,9.18,0,0,1,2-.74c.78-.21,1.62-.39,2.53-.55s1.73-.33,2.47-.5a19.17,19.17,0,0,0,4.05-4,40.09,40.09,0,0,1,4.07-4.67,2,2,0,0,1-1.14-1.76,1.76,1.76,0,0,1,1.26-1.56,14,14,0,0,0-1.69-6.78,57.72,57.72,0,0,0-4.09-6.92,28.44,28.44,0,0,1-4.53-1.9,28.35,28.35,0,0,0-4.52-1.9q-1.18-.71-1.15-1.25c0-.36.42-.51,1.22-.47a1.12,1.12,0,0,1,.23-.79,6.74,6.74,0,0,1,1.33-.78A12.93,12.93,0,0,1,197,435.8a27.84,27.84,0,0,1,2.89,1.84c.94.68,1.9,1.39,2.86,2.13A38.62,38.62,0,0,0,205.92,441.94Z"/><path class="cls-1" d="M196.12,470.25c.73,0,1.09.25,1.07.6s-.39.71-1.13,1.06a13.68,13.68,0,0,0-4.05,1.45,12.54,12.54,0,0,1-4,1.41A15,15,0,0,0,182.6,479a12.66,12.66,0,0,0-2.44,5.25,13.11,13.11,0,0,0,.13,5.7,18.08,18.08,0,0,0,2.29,5.47,23.08,23.08,0,0,0,1.46,2.23,14,14,0,0,0,2.31,2.42,15.89,15.89,0,0,0,3.47,2.16,19.2,19.2,0,0,0,5,1.48l-.06,1.66c0,.82-.71,1.23-2,1.22a14.34,14.34,0,0,1-4.37-.79,34,34,0,0,0-2.72-2q-1.56-1.06-3.12-2.15a23,23,0,0,1-2.81-2.28,7.75,7.75,0,0,1-1.8-2.47,7.88,7.88,0,0,1-2.39-2.82,11.54,11.54,0,0,1-.89-2.84,28,28,0,0,1-.34-2.81,8,8,0,0,0-.65-2.66,10.2,10.2,0,0,1,1.54-4.88,19.31,19.31,0,0,1,3.87-4.55,33.4,33.4,0,0,1,5.59-3.94,48.24,48.24,0,0,1,6.71-3.15,9,9,0,0,1,1.86-.24,2.84,2.84,0,0,1,1.09.2,4,4,0,0,1,.83.47A10.36,10.36,0,0,0,196.12,470.25Z"/><path class="cls-1" d="M201.07,509.46a2.7,2.7,0,0,0,.44,1.66,15.08,15.08,0,0,0,1,1.38,15,15,0,0,1,1,1.37,2.59,2.59,0,0,1,.44,1.61q4.26,6.53-.47,12.48l1.46.94c-1.55.3-2.47.83-2.76,1.58a7,7,0,0,0-.49,2.36,11.86,11.86,0,0,0-2.92,1.84l-2.12,1.94a15,15,0,0,1-2.37,1.77,12.28,12.28,0,0,1-3.65,1.32,10,10,0,0,1-1.85-.24,4.07,4.07,0,0,1-1.08-.44,4.46,4.46,0,0,1-.78-.58,6.08,6.08,0,0,0-.93-.67,1.31,1.31,0,0,1,.84-1.07,9.18,9.18,0,0,1,2-.74c.78-.21,1.62-.39,2.53-.55s1.73-.33,2.47-.5a19.17,19.17,0,0,0,4.05-4A40.09,40.09,0,0,1,202,526.2a2,2,0,0,1-1.14-1.76,1.76,1.76,0,0,1,1.26-1.56,14,14,0,0,0-1.69-6.78,57.72,57.72,0,0,0-4.09-6.92,28.44,28.44,0,0,1-4.53-1.9,28.35,28.35,0,0,0-4.52-1.9q-1.18-.71-1.15-1.25c0-.36.42-.51,1.22-.47a1.12,1.12,0,0,1,.23-.79,6.74,6.74,0,0,1,1.33-.78,12.93,12.93,0,0,1,3.14,1.23,27.84,27.84,0,0,1,2.89,1.84c.94.68,1.9,1.39,2.86,2.13A38.62,38.62,0,0,0,201.07,509.46Z"/><path class="cls-1" d="M195.25,536.71c.73,0,1.09.25,1.07.6s-.39.71-1.13,1.06a13.68,13.68,0,0,0-4.05,1.45,12.54,12.54,0,0,1-4,1.41,15,15,0,0,0-5.46,4.19,12.66,12.66,0,0,0-2.44,5.25,13.11,13.11,0,0,0,.13,5.7,18.08,18.08,0,0,0,2.29,5.47,23.08,23.08,0,0,0,1.46,2.23,14,14,0,0,0,2.31,2.42,15.89,15.89,0,0,0,3.47,2.16,19.2,19.2,0,0,0,5,1.48l-.06,1.66c0,.82-.71,1.23-2,1.22a14.34,14.34,0,0,1-4.37-.79,34,34,0,0,0-2.72-2q-1.56-1.06-3.12-2.15a23,23,0,0,1-2.81-2.28,7.75,7.75,0,0,1-1.8-2.47,7.88,7.88,0,0,1-2.39-2.82,11.54,11.54,0,0,1-.89-2.84,28,28,0,0,1-.34-2.81,8,8,0,0,0-.65-2.66,10.2,10.2,0,0,1,1.54-4.88,19.31,19.31,0,0,1,3.87-4.55,33.4,33.4,0,0,1,5.59-3.94,48.24,48.24,0,0,1,6.71-3.15,9,9,0,0,1,1.86-.24,2.84,2.84,0,0,1,1.09.2,4,4,0,0,1,.83.47A10.36,10.36,0,0,0,195.25,536.71Z"/></svg>