<svg id="Layer_1" data-name="Layer 1" xmlns="http://www.w3.org/2000/svg" viewBox="0 0 612 288"><defs><style>.cls-1{fill:#0a0200;}</style></defs><title>Sunshine_Logo_NoCircle</title><path class="cls-1" d="M109,160.84a7.18,7.18,0,0,0-.34-1.72,3.73,3.73,0,0,1,0-2.24,50.06,50.06,0,0,0,1.23-6.54,7.82,7.82,0,0,0-1.87-6.21,5.92,5.92,0,0,1-1.36-3.79,3.23,3.23,0,0,0,.18-1,11.35,11.35,0,0,1,2.08-4.64q1.73-2.4,3.46-4.64l3.46-4.46q2.25-2.92,4.67-5.84,2.42-2.74,4.67-5.67a7.5,7.5,0,0,1,2.07-1.71,6.7,6.7,0,0,0,2.42-1.54,9.11,9.11,0,0,1,2.76-1.71,4.49,4.49,0,0,1,3.1.53,4.25,4.25,0,0,1,2.4,2.25,6,6,0,0,1,.51,3.27,34.8,34.8,0,0,0-.53,3.44A10.9,10.9,0,0,1,137,122a46.59,46.59,0,0,1-2.95,5.84q-1.56,2.93-2.95,5.84-1.39,3.09-2.6,6.19-1.39,2.92-2.6,6a13.51,13.51,0,0,0-.7,4.3,12.14,12.14,0,0,1-.36,4.13,5.41,5.41,0,0,0-.35,1.55,10.74,10.74,0,0,0,.17,1.72,3.19,3.19,0,0,1,2.07,0,2.61,2.61,0,0,0,2.07-.17,7.4,7.4,0,0,0,1.9-1.89,16.42,16.42,0,0,1,1.73-2.06,13.44,13.44,0,0,1,3.45-3.26,18.47,18.47,0,0,0,3.46-3.26,28.11,28.11,0,0,0,2.43-4,19.25,19.25,0,0,1,2.6-4.12,22.05,22.05,0,0,1,3.11-3.43,25.23,25.23,0,0,0,3.29-3.6q1.38-1.89,3.11-3.95a30.54,30.54,0,0,0,2.77-4,31.75,31.75,0,0,0,2.43-4.3,31.64,31.64,0,0,1,2.43-4.3q.86-1.55,1.9-3.09a18,18,0,0,1,2.25-2.75,6.07,6.07,0,0,1,3.28-1.71h1a6.09,6.09,0,0,1,2.41.52,3.59,3.59,0,0,1,2.23,2.59,12.66,12.66,0,0,1,.16,3.62q-.18,1.72-.53,3.44t-.87,3.44a46.61,46.61,0,0,0-1.74,4.64,32.12,32.12,0,0,1-1.74,4.64q-.87,2.24-1.74,4.64-.7,2.41-1.57,4.82a23.8,23.8,0,0,1-2.6,4.3,21.4,21.4,0,0,0-2.43,4.47,33.34,33.34,0,0,0-1.22,3.61,2.61,2.61,0,0,0,1,3.1,2.71,2.71,0,0,0,3.62,0q1.56-1.37,2.94-2.74a37.78,37.78,0,0,1,3.11-2.74q1.56-1.37,3.11-2.92l2.77-3.09a37.77,37.77,0,0,0,2.77-3.09,8.63,8.63,0,0,0,1.9-2.92,4.46,4.46,0,0,1,1.9-2.75,6.94,6.94,0,0,1,4.65-1.19,7.58,7.58,0,0,1,4.13,1.74,4.09,4.09,0,0,1,1.71,3.28v.17a13.72,13.72,0,0,1-1,4.13c-.23.58-.46,1.2-.7,1.89a3.25,3.25,0,0,1-.87,1.89,29.44,29.44,0,0,1-3.8,3.77,38,38,0,0,0-3.8,3.6q-1.73,2.06-3.63,3.95a37.7,37.7,0,0,1-3.8,3.6,24.75,24.75,0,0,0-3.63,4.12,16.28,16.28,0,0,1-3.8,3.6,19.6,19.6,0,0,1-5.69,2.56l-6.2,1.7a9,9,0,0,1-6.37-.54,11.1,11.1,0,0,1-4.63-4.84,2.2,2.2,0,0,0-1.2-1,2.23,2.23,0,0,1-1-1,4.82,4.82,0,0,0-1.89-2.07,2.12,2.12,0,0,0-2.24.34,10.67,10.67,0,0,0-1.9,1.2,16,16,0,0,1-2.07,1.37,32.59,32.59,0,0,0-5.35,3.77,14.53,14.53,0,0,1-5.69,3.08,17,17,0,0,1-4.65.67,13.82,13.82,0,0,1-2.24-.18,11,11,0,0,1-5.5-2.43,9.55,9.55,0,0,1-2.39-4.83A25.65,25.65,0,0,1,109,160.84Z"/><path class="cls-1" d="M265.12,121.62q-.7,3.27-1.23,6.54a24.78,24.78,0,0,1-1.57,6.37,11.19,11.19,0,0,1-2.43,4,17,17,0,0,0-2.6,3.78,14.1,14.1,0,0,0-1,4.47,13.89,13.89,0,0,1-1,4.3,13.61,13.61,0,0,1-1.39,2.92q-1,1.55.85,2.76a2.58,2.58,0,0,0,3.1,0,9.27,9.27,0,0,0,2.59-2.06q1.38-1.55,2.77-3.26a35.6,35.6,0,0,1,2.6-3.26q1.21-1.55,2.59-3.26t2.6-3.26a16.8,16.8,0,0,1,2.59-2.4q1.38-1,2.76-2.23a9.56,9.56,0,0,1,4.14-1.88,4,4,0,0,1,3.61.7,5.87,5.87,0,0,1,1.88,3.62,3.85,3.85,0,0,1,.17,1.21,8.84,8.84,0,0,1-.7,3.27,12.33,12.33,0,0,0-.52,2.24,5.51,5.51,0,0,1-.7,2.06,19.27,19.27,0,0,1-4.84,4.8,39.57,39.57,0,0,0-5,4.8q-2.25,2.75-4.5,5.32a28.3,28.3,0,0,1-4.84,5,19.26,19.26,0,0,1-5.69,3.42,22.88,22.88,0,0,1-6.55,1.87,31.9,31.9,0,0,1-7.06.84,7.58,7.58,0,0,1-5.33-1.91,12.44,12.44,0,0,1-2.91-5.18,17.93,17.93,0,0,1-.32-7.06,12.3,12.3,0,0,1,1.91-5.16,22.29,22.29,0,0,0,2.43-5,15.86,15.86,0,0,0,1.22-4.13,9.89,9.89,0,0,1,1.22-4q.69-1.89,1.56-3.78t1.74-4a11.14,11.14,0,0,1,1.39-2.58,9.35,9.35,0,0,0,1.22-2.92,4.59,4.59,0,0,0,.18-2.24c-.11-.92-.23-1.66-.34-2.24a24.61,24.61,0,0,0-2.58.16,3.44,3.44,0,0,0-2.07.85,40,40,0,0,0-3.11,3.09q-1.38,1.55-2.94,3.09-1.56,1.38-3.28,2.74a11.84,11.84,0,0,0-2.94,2.92,39.81,39.81,0,0,1-3.29,4.12,40.21,40.21,0,0,0-3.29,4.12q-1.39,2.06-2.77,4.3a46.85,46.85,0,0,1-2.77,4.47q-1.39,2.06-2.6,4.3-1.39,2.41-2.77,4.47l-2.42,3.44a31,31,0,0,1-2.42,3.44q-.87,1.2-1.9,2.58a4.63,4.63,0,0,1-2.07,1.89,7.22,7.22,0,0,1-2.93.68,7,7,0,0,1-3.78-1.22,6.25,6.25,0,0,1-3.08-5.69,6.36,6.36,0,0,1,1.74-3.78,34.62,34.62,0,0,0,2.42-3.78q1.21-3.1,2.78-6.19,1.56-2.92,3.12-6a42.21,42.21,0,0,0,2.26-6.36,41.88,41.88,0,0,1,2.26-6.36,15.31,15.31,0,0,0,1.21-2.75,6.48,6.48,0,0,0,.7-2.92,1.78,1.78,0,0,0-1-1.9,1.84,1.84,0,0,0-2.24-.18c-.58.34-1.21.74-1.9,1.2a6.56,6.56,0,0,0-1.73,1.2,69.4,69.4,0,0,0-4.5,5.67,51.94,51.94,0,0,1-4.5,5.49l-2.42,2.75a16.91,16.91,0,0,1-2.59,2.4,3.61,3.61,0,0,1-2.93.68,8.17,8.17,0,0,1-3.1-1,8,8,0,0,1-2.4-2.42,2.71,2.71,0,0,1-.34-1.9v-1.38a9.93,9.93,0,0,1,1-2.75q.69-1.2,1.56-2.4,1.73-2.75,3.64-5.67a26.51,26.51,0,0,1,4.15-5.32q2.25-2.58,4.67-5,2.42-2.23,5-4.46a15.8,15.8,0,0,1,3.62-2.05q2.07-.85,4-1.54a24.47,24.47,0,0,1,4.31-1.53,8.31,8.31,0,0,1,7.23,1.75q1.54,1.55,3.09,3.28,3.09,3.46,4.46,3.8,1.55.18,5.35-2.22,2.07-1.37,4.14-2.57a30,30,0,0,1,4.31-2.05,19.54,19.54,0,0,1,3.62-1.36,12,12,0,0,1,4.13-.67,16.14,16.14,0,0,1,2.24-.16,16,16,0,0,1,3.44.36,7.28,7.28,0,0,1,4.3,2.08,14.25,14.25,0,0,1,2.22,4.14A17.86,17.86,0,0,1,265.12,121.62Z"/><path class="cls-1" d="M295.24,175.1a15.92,15.92,0,0,1-4.65-1.05q-2.06-.69-4.13-1.22a16.81,16.81,0,0,1-4.13-1.91l-3.78-2.42a6.19,6.19,0,0,0-4.3-1,11.09,11.09,0,0,0-4.31,1.36,7.37,7.37,0,0,1-1.38.68L267,170a28.6,28.6,0,0,1-4,1,3.94,3.94,0,0,1-3.44-1.39,5.35,5.35,0,0,1-1.54-3.45v-.86a6.87,6.87,0,0,1,.7-3.1,15.05,15.05,0,0,1,2.94-3.61A47.94,47.94,0,0,0,265,155q1.56-1.71,3.28-3.78,1.56-1.89,3.29-3.78a18.39,18.39,0,0,0,2.77-4.12,19.55,19.55,0,0,1,2.77-4.3q1.73-1.89,3.46-3.6,1.73-1.89,3.28-3.78a33.55,33.55,0,0,1,3.63-3.43,18,18,0,0,0,3.63-3.6q1.56-1.89,3.28-3.95l3.11-3.78q1.9-2.06,3.63-4.29,1.9-2.23,3.8-4.29a14.93,14.93,0,0,0,1.9-1.89,15.59,15.59,0,0,1,2.24-1.54,8.66,8.66,0,0,1,3.79-1.19,1.56,1.56,0,0,1,.69-.17,5.94,5.94,0,0,1,2.92,1.22,5.79,5.79,0,0,1,2.05,3.28,8.46,8.46,0,0,1,.16,3.79,2.18,2.18,0,0,1-.52.86,2.12,2.12,0,0,0-.52.86,17.91,17.91,0,0,0-1.74,4,25.62,25.62,0,0,0-.7,4.3c-.24,1.49-.53,3-.88,4.47a19.83,19.83,0,0,0-.53,4.47q.16,3.1.49,6.2.16,3.1.15,6.37v4.13q.51,2.58,1.71,2.76a5.2,5.2,0,0,0,3.28-1.19,11.43,11.43,0,0,0,1.73-1,15.19,15.19,0,0,0,1.56-1.37,32.45,32.45,0,0,1,4.66-4.12,27.53,27.53,0,0,0,4.66-4.29,13.59,13.59,0,0,0,1.9-2.4,6.49,6.49,0,0,1,1.9-2.06,10.68,10.68,0,0,1,4.14-1.53,5,5,0,0,1,3.61,1,4.8,4.8,0,0,1,1.88,3.45v.52a12.48,12.48,0,0,1-.53,3.61,12.93,12.93,0,0,0-.87,2.23,9,9,0,0,1-1.21,2.06,47.78,47.78,0,0,1-3.81,4.64q-1.9,2.23-4,4.29t-4.32,4.12a54.76,54.76,0,0,1-4.66,3.77,49.89,49.89,0,0,0-4.49,3.94,19.12,19.12,0,0,1-5,3.6,51.76,51.76,0,0,1-5.17,2.39,41.26,41.26,0,0,1-5.34,1.7,33.8,33.8,0,0,1-5.34,1Q298,174.95,295.24,175.1Zm6-29.77h.52a8.7,8.7,0,0,1,.35-2.41,8.78,8.78,0,0,0,.35-2.41c0-.11-.29-.23-.86-.35s-.86-.46-.86-.69a5.29,5.29,0,0,0-1.54-2.76,1,1,0,0,0-.69-.35,2.82,2.82,0,0,0-1.73,1,13.64,13.64,0,0,0-2.77,4,17.65,17.65,0,0,1-2.77,4,31.15,31.15,0,0,1-3.28,3.43q-1.55,1.72-3.11,3.6a6,6,0,0,0-.87,2.24,5,5,0,0,0-.18,1.2,3.19,3.19,0,0,0,.17,1,8.81,8.81,0,0,0,4.46,3.12,20,20,0,0,0,5.68.88,4.55,4.55,0,0,0,3.8-2.05,13.07,13.07,0,0,0,1.74-4.3,20.66,20.66,0,0,0,.88-4.47A30.27,30.27,0,0,1,301.2,145.34Z"/><path class="cls-1" d="M405.16,62.7a18,18,0,0,0-1.05,6,13.56,13.56,0,0,1-1.57,5.68,22.23,22.23,0,0,1-3.64,5.15,27,27,0,0,0-4.15,4.81A37.94,37.94,0,0,0,391.8,90a30.08,30.08,0,0,1-3.46,5.33A40.48,40.48,0,0,1,384,100a53.22,53.22,0,0,0-4.32,4.46q-1,1.38-1.9,2.75L376.06,110q-1,1.38-.35,1.89a2.89,2.89,0,0,0,2.06.87,17.52,17.52,0,0,0,2.41.53,12.43,12.43,0,0,0,2.24.52,22.45,22.45,0,0,1,5.33,1.74,11.54,11.54,0,0,1,4.12,3.11,14.27,14.27,0,0,1,2.57,4.66,12.67,12.67,0,0,1,.84,5.51,11.53,11.53,0,0,1-1.4,5.51,28.11,28.11,0,0,0-2.09,5.33q-1.22,3.44-2.09,6.88a28.49,28.49,0,0,1-2.26,6.88,12.06,12.06,0,0,1-.87,1.72c-.23.57-.46,1.2-.7,1.89a7.08,7.08,0,0,0,0,3.1q.86-.34,1.21-.51a3.67,3.67,0,0,0,.86-.69l4.15-4.12a32.33,32.33,0,0,0,3.8-4.12,24.86,24.86,0,0,0,3.11-3.78,30.4,30.4,0,0,1,3.11-3.61,8,8,0,0,1,5.35-2.39,6.72,6.72,0,0,1,4.82,1.39,4,4,0,0,1,1.54,3.62v.35a17.51,17.51,0,0,1-1.4,5.33,1.44,1.44,0,0,0-.18,1.2,2.44,2.44,0,0,1-.35,1.38,20.34,20.34,0,0,1-3.8,3.26,20.71,20.71,0,0,0-3.63,3.43q-1.73,1.89-3.46,3.6t-3.46,3.6q-1.73,1.89-3.46,3.6-1.73,1.89-3.46,3.6-1.56,1.54-3.28,3.09a12.5,12.5,0,0,1-3.62,2.57,15.42,15.42,0,0,1-6,.84,11.23,11.23,0,0,1-5.33-1.57,7.36,7.36,0,0,1-3.08-4,17,17,0,0,1-1-6,20.64,20.64,0,0,1,.19-4.65,18.32,18.32,0,0,1,1.22-4.47,30.71,30.71,0,0,0,1.05-4.65,21.2,21.2,0,0,1,1.22-4.64q1-2.41,1.91-4.47l2.08-4.47a21.38,21.38,0,0,1,2.43-4.47,18.61,18.61,0,0,0,2.08-4.64,4.83,4.83,0,0,0,0-2.58,3.16,3.16,0,0,0-.85-2.24,3.58,3.58,0,0,0-2.41-.35,5.11,5.11,0,0,0-2.58.51,18.19,18.19,0,0,0-4,3.26q-1.9,1.89-3.8,3.6a40.47,40.47,0,0,0-3.46,4.29q-1.56,2.23-3.29,4.29a41,41,0,0,1-3.8,3.95,19.5,19.5,0,0,0-3.46,4.12L349.72,157a32.82,32.82,0,0,0-2.77,4.81q-1.21,2.41-2.26,4.81-1.22,2.58-2.26,5.16a18.66,18.66,0,0,0-1,3.61,9.3,9.3,0,0,1-1.22,3.27,10.36,10.36,0,0,1-3.8,3.6,7.24,7.24,0,0,1-2.93.68,6.5,6.5,0,0,1-1.55-.18,5.74,5.74,0,0,1-3.26-3.28,9.24,9.24,0,0,1-.5-5.34,12.54,12.54,0,0,1,1-3.1l1.39-3.09q.7-2.23,1.39-4.3a22,22,0,0,1,1.39-4.13,5.1,5.1,0,0,0,.36-3.62,8.15,8.15,0,0,0-2.06-3.11q-3.6-3.8-3.76-6.38v-.34q0-2.58,3.12-6.36a39.16,39.16,0,0,1,5.7-5.83,66.23,66.23,0,0,0,5.87-5.49,50,50,0,0,0,4-4.46,45.53,45.53,0,0,0,3.12-5,20.53,20.53,0,0,0,2.43-5.33q1-2.75,2.26-5.33a29.58,29.58,0,0,1,2.6-5,29.37,29.37,0,0,0,2.6-5,34.85,34.85,0,0,0,2.09-5.16,24.31,24.31,0,0,1,1.91-5.33q1.21-2.58,2.43-5,1.39-2.58,2.6-5.16,1.21-2.41,2.6-4.81l2.43-5.16q1.21-2.41,2.6-4.64A38,38,0,0,1,379,58.48q1.56-1.89,2.94-3.78a18.53,18.53,0,0,1,3.46-3.26,16.73,16.73,0,0,1,6.72-2.9h1.72a9.88,9.88,0,0,1,5.51,1.4,8.47,8.47,0,0,1,4.11,5A33.85,33.85,0,0,1,405.16,62.7Z"/><path class="cls-1" d="M441,116.9q-.35,1-.87,2.41t-1.22,2.92q-1.22,2.58-2.43,5.33-1,2.75-2.26,5.33-1.39,2.75-2.77,5.16a36.87,36.87,0,0,0-2.77,5.16,33.38,33.38,0,0,0-1.22,3.61l-1,3.79a21.9,21.9,0,0,1-1,2.75c-.35.92-.29,1.55.17,1.9a1.59,1.59,0,0,0,2.41.18,17.79,17.79,0,0,0,2.07-2.06q1.9-1.89,3.8-3.6,1.72-1.71,3.46-3.6a31.4,31.4,0,0,0,2.59-2.92,28.2,28.2,0,0,1,2.42-3.09l1.73-1.72q.86-.68,1.9-1.37a7.19,7.19,0,0,1,4-1.36,5.72,5.72,0,0,1,3.61,1.39,5,5,0,0,1,1.71,3.45,2.92,2.92,0,0,1,.17.86,7.64,7.64,0,0,1-.87,3.44l-.69,1a5.53,5.53,0,0,0-.69.86q-1.9,2.23-3.8,4.12-1.9,2.06-3.63,4.12a43.92,43.92,0,0,0-3.46,4.64,25,25,0,0,1-3.29,4.47q-2.07,1.89-4.32,3.6-2.42,1.54-4.66,3.25a15.53,15.53,0,0,1-2.76,1.54q-1.38.69-2.93,1.37a23,23,0,0,1-6,1.7H417a6.36,6.36,0,0,1-3.61-1,9.36,9.36,0,0,1-3.26-4,14.11,14.11,0,0,1-1.18-6,17.17,17.17,0,0,1,.36-4.82q.69-2.41,1.22-4.64a11.8,11.8,0,0,0-.16-4.48,10.53,10.53,0,0,0-2.22-4.14,10.93,10.93,0,0,1-2.57-5.18.71.71,0,0,1-.17-.52,7.8,7.8,0,0,1,2.08-4.64q1.73-2.06,3.46-4.29t3.46-4.29q1.9-2.23,3.8-4.12l3.63-3.95a21.33,21.33,0,0,1,4.15-3.77,30.17,30.17,0,0,0,4-3.6,11.51,11.51,0,0,1,4.14-3.26,6.53,6.53,0,0,1,2.07-.34,4.58,4.58,0,0,1,2.06.52,6.24,6.24,0,0,1,2.06,3.28A14.72,14.72,0,0,1,441,116.9Zm14.6-37.66a11.68,11.68,0,0,1-2.43,6.71,6.85,6.85,0,0,1-5.52,2.74h-.35a7.53,7.53,0,0,1-5.67-2.6,8.69,8.69,0,0,1-2.22-5.86,9.05,9.05,0,0,1,3-6.53A9.14,9.14,0,0,1,448.69,71H449a6,6,0,0,1,4.81,2.6,8.51,8.51,0,0,1,1.7,5.34Z"/><path class="cls-1" d="M526.17,122.54q-.7,3.27-1.23,6.54a24.78,24.78,0,0,1-1.57,6.37,11.19,11.19,0,0,1-2.43,4,17,17,0,0,0-2.6,3.78,14.1,14.1,0,0,0-1,4.47,13.89,13.89,0,0,1-1,4.3,13.61,13.61,0,0,1-1.39,2.92q-1,1.55.85,2.76a2.58,2.58,0,0,0,3.1,0,9.27,9.27,0,0,0,2.59-2.06q1.38-1.55,2.77-3.26a35.6,35.6,0,0,1,2.6-3.26q1.21-1.55,2.59-3.26t2.6-3.26a16.8,16.8,0,0,1,2.59-2.4q1.38-1,2.76-2.23a9.56,9.56,0,0,1,4.14-1.88,4,4,0,0,1,3.61.7,5.87,5.87,0,0,1,1.88,3.62,3.85,3.85,0,0,1,.17,1.21,8.84,8.84,0,0,1-.7,3.27,12.33,12.33,0,0,0-.52,2.24,5.51,5.51,0,0,1-.7,2.06,19.27,19.27,0,0,1-4.84,4.8,39.57,39.57,0,0,0-5,4.8q-2.25,2.75-4.5,5.32a28.3,28.3,0,0,1-4.84,5,19.26,19.26,0,0,1-5.69,3.42,22.88,22.88,0,0,1-6.55,1.87,31.9,31.9,0,0,1-7.06.84,7.58,7.58,0,0,1-5.33-1.91,12.44,12.44,0,0,1-2.91-5.18,17.93,17.93,0,0,1-.32-7.06,12.3,12.3,0,0,1,1.91-5.16,22.29,22.29,0,0,0,2.43-5,15.86,15.86,0,0,0,1.22-4.13,9.89,9.89,0,0,1,1.22-4q.69-1.89,1.56-3.78t1.74-4a11.14,11.14,0,0,1,1.39-2.58,9.35,9.35,0,0,0,1.22-2.92,4.59,4.59,0,0,0,.18-2.24c-.11-.92-.23-1.66-.34-2.24a24.61,24.61,0,0,0-2.58.16,3.44,3.44,0,0,0-2.07.85,40,40,0,0,0-3.11,3.09q-1.38,1.55-2.94,3.09-1.56,1.38-3.28,2.74a11.84,11.84,0,0,0-2.94,2.92,39.81,39.81,0,0,1-3.29,4.12,40.21,40.21,0,0,0-3.29,4.12q-1.39,2.06-2.77,4.3a46.85,46.85,0,0,1-2.77,4.47q-1.39,2.06-2.6,4.3-1.39,2.41-2.77,4.47l-2.42,3.44a31,31,0,0,1-2.42,3.44q-.87,1.2-1.9,2.58a4.63,4.63,0,0,1-2.07,1.89,7.22,7.22,0,0,1-2.93.68,7,7,0,0,1-3.78-1.22,6.25,6.25,0,0,1-3.08-5.69,6.35,6.35,0,0,1,1.74-3.78,34.5,34.5,0,0,0,2.42-3.78q1.21-3.1,2.78-6.19,1.56-2.92,3.12-6a42.22,42.22,0,0,0,2.26-6.36,41.79,41.79,0,0,1,2.26-6.36,15.31,15.31,0,0,0,1.21-2.75,6.48,6.48,0,0,0,.7-2.92,1.78,1.78,0,0,0-1-1.9,1.83,1.83,0,0,0-2.24-.18c-.58.34-1.21.74-1.9,1.2a6.57,6.57,0,0,0-1.73,1.2,69.38,69.38,0,0,0-4.5,5.67,52.15,52.15,0,0,1-4.5,5.49l-2.42,2.75a17,17,0,0,1-2.59,2.4,3.61,3.61,0,0,1-2.93.68,8.17,8.17,0,0,1-3.1-1,7.94,7.94,0,0,1-2.4-2.42,2.71,2.71,0,0,1-.34-1.9v-1.38a9.93,9.93,0,0,1,1-2.75,28.57,28.57,0,0,1,1.56-2.4q1.73-2.75,3.64-5.67a26.48,26.48,0,0,1,4.15-5.32q2.25-2.58,4.67-5,2.42-2.23,5-4.46a15.78,15.78,0,0,1,3.62-2.05q2.07-.85,4-1.54a24.47,24.47,0,0,1,4.31-1.53,8.31,8.31,0,0,1,7.23,1.75q1.54,1.55,3.09,3.28,3.09,3.46,4.46,3.8,1.55.18,5.35-2.22,2.07-1.37,4.14-2.57a30,30,0,0,1,4.31-2.05,19.54,19.54,0,0,1,3.62-1.36,12,12,0,0,1,4.13-.67,16.14,16.14,0,0,1,2.24-.16,16,16,0,0,1,3.44.36,7.28,7.28,0,0,1,4.3,2.08,14.25,14.25,0,0,1,2.22,4.14A17.86,17.86,0,0,1,526.17,122.54Z"/><path class="cls-1" d="M536.05,152.54q.18-2.93.37-6.2a27.21,27.21,0,0,1,1.4-6.19,28.93,28.93,0,0,1,2.78-5.67l3.46-5.5q1.56-2.58,3.12-5.5a19.9,19.9,0,0,1,3.81-5.15,16.12,16.12,0,0,1,5.7-4.11,47.94,47.94,0,0,0,6.38-3.42,21.88,21.88,0,0,1,6-2.73,12.5,12.5,0,0,1,3.62-.5,22.55,22.55,0,0,1,2.75.18,26.12,26.12,0,0,1,4.82,1.57,9.58,9.58,0,0,1,3.78,2.77,9.79,9.79,0,0,1,1.88,4.14,26.23,26.23,0,0,1,.5,5.17,14,14,0,0,1-1.75,6.88,46,46,0,0,1-4,5.67,29.07,29.07,0,0,1-4.49,3.94q-2.42,1.54-5,3.08a32.65,32.65,0,0,1-5.35,2.39q-2.76.85-5.35,1.87a20.87,20.87,0,0,0-3.62,1.71q-1.73.86-3.45,1.54a7.76,7.76,0,0,0-3.45,2.4,8.92,8.92,0,0,0-1.22,4,7.25,7.25,0,0,0,1.7,5.52,5.48,5.48,0,0,0,5.33,1.4,17.2,17.2,0,0,0,5.17-2.22q2.42-1.54,4.66-3.26a44.86,44.86,0,0,1,3.63-2.91,24.76,24.76,0,0,0,3.8-3.09,44.38,44.38,0,0,1,3.63-2.92q2.07-1.54,3.8-3.09l2.07-2.06,2.07-2.06a11.92,11.92,0,0,1,5.35-3.6,5.32,5.32,0,0,1,4.82,1,5.58,5.58,0,0,1,1.88,4.31v.34a11.21,11.21,0,0,1-2.78,6q-1.56,2.06-3.11,4.29a24.74,24.74,0,0,1-3.8,3.95,24.28,24.28,0,0,1-4.32,3.08q-2.25,1.54-4.49,3.26-2.07,1.72-4,3.6a29,29,0,0,1-4,3.6,32.73,32.73,0,0,1-4.83,2.74,25.47,25.47,0,0,1-5.52,1.7q-2.76.68-5.17,1.19a16.59,16.59,0,0,1-3.27.33h-1.55a12.82,12.82,0,0,1-4.47-1.91,28.35,28.35,0,0,1-3.95-3.29,14.63,14.63,0,0,1-2.22-4,24.48,24.48,0,0,1-1.71-4.66q-.68-2.24-1.19-4.48A34.3,34.3,0,0,1,536.05,152.54Zm27.47-26.59a1.91,1.91,0,0,0,.69.69.56.56,0,0,1,.34.52,5.35,5.35,0,0,1,1.9-.68,5.41,5.41,0,0,0,1.72-.68l-.34-.35a1.91,1.91,0,0,1-.34-.52,4.58,4.58,0,0,1-2.07.51A3.62,3.62,0,0,0,563.52,125.95Z"/><path class="cls-1" d="M62.69,181.18a19.08,19.08,0,0,1-5.56-1.28q-2.47-.84-4.94-1.48a20.13,20.13,0,0,1-4.94-2.3l-4.52-2.92a7.41,7.41,0,0,0-5.15-1.27,13.31,13.31,0,0,0-5.17,1.62,8.88,8.88,0,0,1-1.66.81l-1.86.61a34.26,34.26,0,0,1-4.75,1.21A4.72,4.72,0,0,1,20,174.5a6.4,6.4,0,0,1-1.83-4.14v-1a8.23,8.23,0,0,1,.85-3.71,18,18,0,0,1,3.54-4.31A57.51,57.51,0,0,0,26.53,157q1.87-2,4-4.51,1.87-2.26,4-4.51A22,22,0,0,0,37.77,143a23.48,23.48,0,0,1,3.34-5.14q2.08-2.25,4.16-4.31,2.08-2.25,4-4.51a40.34,40.34,0,0,1,4.36-4.1,21.56,21.56,0,0,0,4.36-4.3q1.87-2.26,4-4.72l3.74-4.52Q67.92,109,70,106.31q2.29-2.66,4.57-5.13a17.76,17.76,0,0,0,2.29-2.25,18.69,18.69,0,0,1,2.7-1.84,10.38,10.38,0,0,1,4.55-1.41,1.85,1.85,0,0,1,.83-.2,7.11,7.11,0,0,1,3.5,1.47,6.93,6.93,0,0,1,2.45,3.94,10.17,10.17,0,0,1,.18,4.54,2.61,2.61,0,0,1-.63,1,2.56,2.56,0,0,0-.63,1,21.43,21.43,0,0,0-2.1,4.73,30.87,30.87,0,0,0-.86,5.15q-.43,2.68-1.07,5.36a23.82,23.82,0,0,0-.65,5.36q.18,3.72.57,7.43.18,3.72.16,7.64l0,2.48,0,2.48q.6,3.1,2,3.32T91.79,150a13.65,13.65,0,0,0,2.07-1.22,18.1,18.1,0,0,0,1.87-1.64,39,39,0,0,1,5.61-4.92,32.93,32.93,0,0,0,5.61-5.12,16.24,16.24,0,0,0,2.29-2.87,7.77,7.77,0,0,1,2.29-2.46,12.79,12.79,0,0,1,5-1.82,6,6,0,0,1,4.33,1.27,5.75,5.75,0,0,1,2.24,4.14V136a15,15,0,0,1-.65,4.33,15.5,15.5,0,0,0-1,2.68,10.7,10.7,0,0,1-1.46,2.47,57,57,0,0,1-4.58,5.54q-2.29,2.67-4.78,5.13T105.34,161a65.39,65.39,0,0,1-5.6,4.5,60,60,0,0,0-5.4,4.71,22.92,22.92,0,0,1-6,4.29,61.94,61.94,0,0,1-6.21,2.85,49.36,49.36,0,0,1-6.41,2,40.43,40.43,0,0,1-6.41,1.2Q66,181,62.69,181.18Zm7.25-35.66h.62a10.41,10.41,0,0,1,.43-2.89,10.5,10.5,0,0,0,.43-2.89c0-.14-.34-.28-1-.42s-1-.56-1-.83a6.35,6.35,0,0,0-1.84-3.31,1.2,1.2,0,0,0-.82-.42A3.38,3.38,0,0,0,64.64,136a16.36,16.36,0,0,0-3.33,4.72A21.15,21.15,0,0,1,58,145.45a37.41,37.41,0,0,1-3.95,4.1q-1.87,2.05-3.74,4.31a7.22,7.22,0,0,0-1,2.68A6,6,0,0,0,49,158a3.86,3.86,0,0,0,.2,1.24A10.56,10.56,0,0,0,54.56,163a24,24,0,0,0,6.8,1.08,5.45,5.45,0,0,0,4.56-2.45,15.63,15.63,0,0,0,2.1-5.15,24.79,24.79,0,0,0,1.07-5.36A36,36,0,0,1,69.95,145.53Z"/></svg>