<?xml version="1.0" encoding="utf-8"?>
<!-- Generator: Adobe Illustrator 20.1.0, SVG Export Plug-In . SVG Version: 6.00 Build 0)  -->
<svg version="1.1" id="Layer_1" xmlns="http://www.w3.org/2000/svg" xmlns:xlink="http://www.w3.org/1999/xlink" x="0px" y="0px"
	 viewBox="0 0 792 612" style="enable-background:new 0 0 792 612;" xml:space="preserve">
<style type="text/css">
	.st0{fill:#FFF200;}
</style>
<ellipse transform="matrix(0.7702 -0.6378 0.6378 0.7702 -105.8027 320.6736)" class="st0" cx="392.1" cy="307.2" rx="126.3" ry="126.3"/>
<g>
	<g>
		<path d="M148.7,333.5c0-0.4-0.1-1.1-0.4-2.1c-0.3-1-0.3-1.9,0-2.8c0.7-2.9,1.2-5.6,1.5-8.2c0.4-2.6-0.3-5.2-2.3-7.7
			c-1.1-1.4-1.7-3-1.7-4.7c0.1-0.4,0.2-0.9,0.2-1.3c0.4-2.1,1.3-4.1,2.6-5.8c1.4-2,2.9-3.9,4.3-5.8c1.4-1.9,2.9-3.7,4.3-5.6
			c1.9-2.4,3.8-4.9,5.8-7.3c2-2.3,4-4.6,5.8-7.1c0.7-0.9,1.6-1.6,2.6-2.1c1.1-0.4,2.2-1.1,3-1.9c1.1-1,2.3-1.7,3.4-2.1
			c1.1-0.3,2.4-0.1,3.9,0.7c1.6,0.7,2.6,1.7,3,2.8c0.6,1.1,0.8,2.5,0.6,4.1c-0.3,1.4-0.5,2.9-0.7,4.3c-0.1,1.6-0.5,3-1.1,4.3
			c-1,2.4-2.2,4.9-3.7,7.3c-1.3,2.4-2.5,4.9-3.7,7.3c-1.2,2.6-2.2,5.1-3.2,7.7c-1.2,2.4-2.2,4.9-3.2,7.5c-0.6,1.7-0.9,3.5-0.9,5.4
			c0.1,1.9,0,3.6-0.4,5.2c-0.3,0.9-0.4,1.5-0.4,1.9c0,0.6,0.1,1.3,0.2,2.1c0.9-0.3,1.7-0.3,2.6,0c0.9,0.3,1.7,0.2,2.6-0.2
			c0.9-0.6,1.6-1.4,2.4-2.4c0.7-1,1.4-1.9,2.2-2.6c1.1-1.6,2.6-2.9,4.3-4.1c1.6-1.1,3-2.5,4.3-4.1c1.2-1.6,2.2-3.2,3-4.9
			c0.9-1.9,1.9-3.6,3.2-5.1c1.1-1.6,2.4-3,3.9-4.3c1.4-1.3,2.8-2.8,4.1-4.5c1.1-1.6,2.4-3.2,3.9-4.9c1.3-1.6,2.4-3.2,3.5-4.9
			c1.1-1.7,2.2-3.5,3-5.4c0.9-1.9,1.9-3.6,3-5.4c0.7-1.3,1.5-2.6,2.4-3.9c0.9-1.3,1.8-2.4,2.8-3.4c1.1-1.1,2.5-1.9,4.1-2.1
			c0.4,0,0.9,0,1.3,0c1,0,2,0.2,3,0.7c1.6,0.7,2.5,1.8,2.8,3.2c0.3,1.4,0.3,2.9,0.2,4.5c-0.1,1.4-0.4,2.9-0.7,4.3
			c-0.3,1.4-0.7,2.9-1.1,4.3c-0.9,2-1.6,3.9-2.2,5.8c-0.6,2-1.3,3.9-2.2,5.8c-0.7,1.9-1.4,3.8-2.2,5.8c-0.6,2-1.2,4-2,6
			c-0.9,1.9-1.9,3.6-3.2,5.4c-1.3,1.9-2.3,3.7-3,5.6c-0.6,1.4-1.1,2.9-1.5,4.5c-0.4,1.7,0,3,1.3,3.9c1.6,1.2,3.1,1.2,4.5,0
			c1.3-1.1,2.5-2.3,3.7-3.4c1.1-1.1,2.4-2.3,3.9-3.4c1.3-1.1,2.6-2.4,3.9-3.6c1.1-1.3,2.3-2.6,3.4-3.9c1.1-1.1,2.3-2.4,3.4-3.9
			c1-1,1.8-2.2,2.4-3.6c0.4-1.6,1.2-2.7,2.4-3.4c1.6-1.1,3.5-1.6,5.8-1.5c2.1,0.3,3.9,1,5.1,2.2c1.4,1.2,2.1,2.5,2.1,4.1l0,0.2
			c-0.2,1.7-0.6,3.4-1.3,5.1c-0.3,0.7-0.6,1.5-0.9,2.4c-0.1,1-0.5,1.8-1.1,2.4c-1.4,1.7-3,3.3-4.7,4.7c-1.7,1.4-3.3,2.9-4.7,4.5
			c-1.4,1.7-2.9,3.4-4.5,4.9c-1.4,1.6-3,3.1-4.7,4.5c-1.7,1.6-3.2,3.3-4.5,5.1c-1.3,1.7-2.9,3.2-4.7,4.5c-2.2,1.4-4.5,2.5-7.1,3.2
			c-2.6,0.7-5.2,1.4-7.7,2.1c-3.2,0.7-5.8,0.5-7.9-0.7c-2.3-1.2-4.2-3.2-5.8-6c-0.3-0.6-0.8-1-1.5-1.3c-0.6-0.3-1-0.7-1.3-1.3
			c-0.7-1.3-1.5-2.2-2.4-2.6c-0.7-0.4-1.6-0.3-2.8,0.4c-0.9,0.4-1.7,0.9-2.4,1.5c-0.7,0.6-1.6,1.1-2.6,1.7c-2.3,1.3-4.5,2.8-6.7,4.7
			c-2.2,1.9-4.5,3.1-7.1,3.8c-2,0.6-3.9,0.8-5.8,0.8c-1,0-1.9-0.1-2.8-0.2c-2.7-0.4-5-1.4-6.9-3c-1.4-1.4-2.4-3.4-3-6
			C149.1,339.5,148.7,336.7,148.7,333.5z"/>
		<path d="M343.5,284.6c-0.6,2.7-1.1,5.4-1.5,8.2c-0.3,2.7-1,5.4-2,7.9c-0.6,1.7-1.6,3.4-3,4.9c-1.3,1.4-2.4,3-3.2,4.7
			c-0.7,1.7-1.2,3.6-1.3,5.6c-0.2,1.9-0.6,3.6-1.3,5.4c-0.4,1.3-1,2.5-1.7,3.6c-0.9,1.3-0.5,2.4,1.1,3.4c1.4,0.9,2.7,0.9,3.9,0
			c1.3-0.7,2.4-1.6,3.2-2.6c1.1-1.3,2.3-2.6,3.5-4.1c1-1.4,2.1-2.8,3.2-4.1c1-1.3,2.1-2.6,3.2-4.1c1.1-1.4,2.2-2.8,3.2-4.1
			c1-1.1,2.1-2.1,3.2-3c1.1-0.9,2.3-1.8,3.4-2.8c1.7-1.3,3.4-2.1,5.2-2.3c1.7-0.4,3.2-0.1,4.5,0.9c1.3,1.2,2.1,2.7,2.3,4.5
			c0.1,0.4,0.2,0.9,0.2,1.5c0,1.3-0.3,2.6-0.9,4.1c-0.3,0.9-0.5,1.8-0.7,2.8c-0.1,1-0.4,1.9-0.9,2.6c-1.6,2.3-3.6,4.3-6,6
			c-2.3,1.9-4.4,3.8-6.2,6c-1.9,2.3-3.7,4.5-5.6,6.6c-1.7,2.3-3.7,4.4-6,6.2c-2.2,1.9-4.5,3.3-7.1,4.3c-2.4,1.1-5.2,1.9-8.2,2.3
			c-3.2,0.7-6.1,1.1-8.8,1c-2.7,0-4.9-0.8-6.6-2.4c-1.6-1.6-2.8-3.7-3.6-6.5c-0.7-2.7-0.8-5.7-0.4-8.8c0.3-2.3,1.1-4.4,2.4-6.4
			c1.3-2,2.3-4.1,3-6.2c0.7-1.6,1.2-3.3,1.5-5.1c0.1-1.7,0.7-3.4,1.5-4.9c0.6-1.6,1.2-3.1,1.9-4.7c0.7-1.6,1.4-3.2,2.2-4.9
			c0.4-1.1,1-2.2,1.7-3.2c0.7-1.1,1.2-2.4,1.5-3.6c0.3-0.7,0.4-1.6,0.2-2.8c-0.1-1.1-0.3-2.1-0.4-2.8c-0.9,0-1.9,0.1-3.2,0.2
			c-1.1,0.1-2,0.5-2.6,1.1c-1.3,1.1-2.6,2.4-3.9,3.9c-1.2,1.3-2.4,2.6-3.7,3.9c-1.3,1.1-2.7,2.3-4.1,3.4c-1.4,1-2.7,2.2-3.7,3.6
			c-1.3,1.9-2.7,3.6-4.1,5.1c-1.4,1.6-2.8,3.3-4.1,5.1c-1.2,1.7-2.3,3.5-3.5,5.4c-1,1.9-2.2,3.7-3.5,5.6c-1.2,1.7-2.2,3.5-3.2,5.4
			c-1.2,2-2.3,3.9-3.5,5.6c-1,1.4-2,2.9-3,4.3c-0.9,1.4-1.9,2.9-3,4.3c-0.7,1-1.5,2.1-2.4,3.2c-0.7,1.1-1.6,1.9-2.6,2.4
			c-1.3,0.6-2.5,0.8-3.7,0.8c-1.6,0-3.1-0.5-4.7-1.5c-2.7-1.9-4-4.2-3.8-7.1c0.1-1.7,0.9-3.3,2.2-4.7c1.1-1.6,2.2-3.1,3-4.7
			c1-2.6,2.2-5.1,3.5-7.7c1.3-2.4,2.6-4.9,3.9-7.5c1.2-2.6,2.1-5.2,2.8-7.9c0.7-2.7,1.7-5.4,2.8-7.9c0.6-1,1.1-2.1,1.5-3.4
			c0.6-1.1,0.9-2.4,0.9-3.6c0.1-1-0.3-1.8-1.3-2.4c-1-0.7-1.9-0.8-2.8-0.2c-0.7,0.4-1.5,0.9-2.4,1.5c-0.9,0.4-1.6,0.9-2.2,1.5
			c-2,2.3-3.9,4.6-5.6,7.1c-1.7,2.4-3.6,4.7-5.6,6.9c-1,1.1-2,2.3-3,3.4c-1,1.1-2.1,2.1-3.2,3c-1.3,0.9-2.5,1.1-3.7,0.8
			c-1.3-0.1-2.6-0.6-3.9-1.3c-1.4-1-2.4-2-3-3c-0.4-0.7-0.6-1.5-0.4-2.4c0-0.6,0-1.1,0-1.7c0.3-1.3,0.7-2.4,1.3-3.4
			c0.6-1,1.2-2,1.9-3c1.4-2.3,2.9-4.6,4.5-7.1c1.4-2.4,3.2-4.6,5.2-6.6c1.9-2.1,3.8-4.2,5.8-6.2c2-1.9,4.1-3.7,6.2-5.6
			c1.3-1,2.8-1.8,4.5-2.6c1.7-0.7,3.4-1.3,4.9-1.9c1.9-0.9,3.7-1.5,5.4-1.9c1.6-0.4,3.1-0.4,4.7,0c1.6,0.3,3,1,4.3,2.2
			c1.3,1.3,2.6,2.7,3.8,4.1c2.6,2.9,4.4,4.5,5.6,4.7c1.3,0.1,3.5-0.8,6.7-2.8c1.7-1.1,3.4-2.2,5.2-3.2c1.7-1,3.5-1.8,5.4-2.6
			c1.4-0.7,2.9-1.3,4.5-1.7c1.6-0.6,3.3-0.8,5.2-0.8c1-0.1,1.9-0.2,2.8-0.2c1.6,0,3,0.2,4.3,0.4c2.1,0.3,3.9,1.2,5.4,2.6
			c1.1,1.4,2.1,3.2,2.8,5.2C342.8,279.7,343.3,282,343.5,284.6z"/>
		<path d="M381,351.3c-2-0.1-3.9-0.6-5.8-1.3c-1.7-0.6-3.4-1.1-5.1-1.5c-1.9-0.6-3.6-1.4-5.1-2.4c-1.6-1-3.1-2-4.7-3
			c-1.9-1.2-3.6-1.6-5.4-1.3c-1.7,0.1-3.5,0.7-5.4,1.7c-0.4,0.3-1,0.6-1.7,0.9c-0.9,0.3-1.5,0.5-1.9,0.6c-1.7,0.6-3.4,1-4.9,1.3
			c-1.7,0.1-3.1-0.4-4.3-1.7c-1.1-1.1-1.8-2.6-1.9-4.3c0-0.4,0-0.8,0-1.1c0-1.4,0.3-2.7,0.9-3.9c1-1.7,2.2-3.2,3.7-4.5
			c1.4-1.4,2.8-2.9,4.1-4.5c1.3-1.4,2.7-3,4.1-4.7c1.3-1.6,2.7-3.1,4.1-4.7c1.3-1.4,2.4-3.1,3.5-5.1c0.9-1.9,2-3.6,3.5-5.4
			c1.4-1.6,2.9-3.1,4.3-4.5c1.4-1.6,2.8-3.1,4.1-4.7c1.4-1.6,2.9-3,4.5-4.3c1.7-1.3,3.2-2.8,4.5-4.5c1.3-1.6,2.7-3.2,4.1-4.9
			c1.3-1.6,2.6-3.1,3.9-4.7c1.6-1.7,3.1-3.5,4.5-5.4c1.6-1.9,3.2-3.6,4.7-5.4c0.9-0.7,1.6-1.5,2.4-2.4c0.9-0.7,1.8-1.4,2.8-1.9
			c1.4-0.9,3-1.3,4.7-1.5c0.3-0.1,0.6-0.2,0.9-0.2c1.3,0.1,2.5,0.7,3.6,1.5c1.3,1,2.1,2.4,2.6,4.1c0.4,1.6,0.5,3.2,0.2,4.7
			c-0.1,0.4-0.4,0.8-0.6,1.1c-0.3,0.3-0.5,0.6-0.6,1.1c-0.9,1.4-1.6,3.1-2.2,4.9c-0.4,1.7-0.7,3.5-0.9,5.4c-0.3,1.9-0.7,3.7-1.1,5.6
			c-0.4,1.9-0.7,3.7-0.7,5.6c0.1,2.6,0.3,5.2,0.6,7.7c0.1,2.6,0.2,5.2,0.2,7.9c0,0.9,0,1.7,0,2.6c0,0.9,0,1.7,0,2.6
			c0.4,2.1,1.1,3.3,2.1,3.4c1,0.1,2.4-0.3,4.1-1.5c0.9-0.4,1.6-0.9,2.2-1.3c0.6-0.4,1.2-1,1.9-1.7c1.7-1.9,3.7-3.6,5.8-5.1
			c2.2-1.6,4.1-3.3,5.8-5.3c0.9-0.9,1.6-1.9,2.4-3c0.6-1,1.4-1.9,2.4-2.6c1.6-1,3.3-1.6,5.2-1.9c1.7-0.1,3.2,0.3,4.5,1.3
			c1.4,1.2,2.2,2.6,2.3,4.3c0,0.3,0,0.5,0,0.6c0,1.6-0.2,3.1-0.7,4.5c-0.4,0.9-0.8,1.8-1.1,2.8c-0.4,1-0.9,1.9-1.5,2.6
			c-1.4,2-3,3.9-4.7,5.8c-1.6,1.9-3.2,3.6-5,5.4c-1.7,1.7-3.5,3.4-5.4,5.1c-1.7,1.6-3.7,3.1-5.8,4.7c-2,1.6-3.9,3.2-5.6,4.9
			c-1.9,1.9-4,3.4-6.2,4.5c-2.2,1.1-4.3,2.1-6.5,3c-2.2,0.9-4.4,1.6-6.7,2.1c-2,0.6-4.2,1-6.7,1.3C385.6,351,383.3,351.2,381,351.3z
			 M388.4,314.2c-0.1,0-0.1,0,0.2,0l0.4,0c0-1,0.1-2,0.4-3c0.3-1,0.4-2,0.4-3c0-0.1-0.4-0.3-1.1-0.4c-0.7-0.3-1.1-0.6-1.1-0.9
			c-0.4-1.6-1.1-2.7-1.9-3.4c-0.3-0.3-0.6-0.4-0.9-0.4c-0.6,0-1.3,0.4-2.2,1.3c-1.4,1.4-2.6,3.1-3.5,4.9c-0.9,1.7-2,3.4-3.5,4.9
			c-1.3,1.6-2.7,3-4.1,4.3c-1.3,1.4-2.6,2.9-3.9,4.5c-0.4,0.6-0.8,1.5-1.1,2.8c-0.1,0.6-0.2,1.1-0.2,1.5c0,0.4,0.1,0.9,0.2,1.3
			c1.4,1.9,3.3,3.2,5.6,3.9c2.4,0.7,4.8,1.1,7.1,1.1c2.1-0.1,3.7-1,4.7-2.6c1-1.6,1.7-3.4,2.2-5.4c0.6-1.9,0.9-3.7,1.1-5.6
			C387.7,318,388,316,388.4,314.2z"/>
		<path d="M518.1,211.1c-0.9,2.4-1.3,4.9-1.3,7.5c-0.2,2.6-0.8,4.9-2,7.1c-1.2,2.3-2.7,4.4-4.5,6.4c-2,1.9-3.7,3.9-5.2,6
			c-1.4,2.3-2.7,4.6-3.7,7.1c-1.2,2.3-2.6,4.5-4.3,6.6c-1.6,2-3.4,3.9-5.4,5.8c-1.9,1.7-3.7,3.6-5.4,5.6c-0.9,1.1-1.7,2.3-2.4,3.4
			c-0.7,1.1-1.4,2.3-2.2,3.4c-0.9,1.1-1,1.9-0.4,2.4c0.4,0.6,1.3,0.9,2.6,1.1c1,0.3,2,0.5,3,0.7c0.9,0.3,1.8,0.5,2.8,0.7
			c2.3,0.4,4.5,1.2,6.6,2.2c2.1,1,3.9,2.3,5.1,3.9c1.4,1.7,2.5,3.7,3.2,5.8c0.9,2.2,1.2,4.4,1,6.9c0,2.4-0.6,4.7-1.7,6.9
			c-1.2,2.3-2,4.5-2.6,6.6c-1,2.9-1.9,5.7-2.6,8.6c-0.6,3-1.5,5.9-2.8,8.6c-0.3,0.7-0.6,1.4-1.1,2.1c-0.3,0.7-0.6,1.5-0.9,2.4
			c-0.1,0.9-0.2,1.5-0.2,1.9c0,0.4,0.1,1.1,0.2,1.9c0.7-0.3,1.2-0.5,1.5-0.6c0.3-0.1,0.6-0.4,1.1-0.9c1.7-1.7,3.4-3.4,5.2-5.1
			c1.7-1.6,3.3-3.3,4.7-5.1c1.4-1.4,2.7-3,3.9-4.7c1.2-1.6,2.4-3.1,3.9-4.5c1.9-1.9,4.1-2.8,6.7-3c2.4-0.1,4.4,0.4,6,1.7
			c1.4,1.2,2.1,2.7,1.9,4.5c0,0.1,0,0.3,0,0.4c-0.2,2-0.7,4.2-1.7,6.6c-0.3,0.4-0.4,0.9-0.2,1.5c0,0.7-0.1,1.3-0.4,1.7
			c-1.4,1.6-3,2.9-4.7,4.1c-1.7,1.3-3.2,2.7-4.5,4.3c-1.4,1.6-2.9,3.1-4.3,4.5c-1.4,1.4-2.9,2.9-4.3,4.5c-1.4,1.6-2.9,3.1-4.3,4.5
			c-1.4,1.6-2.9,3.1-4.3,4.5c-1.3,1.3-2.7,2.6-4.1,3.9c-1.4,1.4-2.9,2.5-4.5,3.2c-2.4,0.8-4.9,1.2-7.5,1c-2.6-0.2-4.8-0.8-6.6-2
			c-1.7-1-3-2.7-3.8-5c-0.9-2.3-1.3-4.8-1.3-7.5c-0.1-2-0.1-3.9,0.2-5.8c0.3-2,0.8-3.9,1.5-5.6c0.6-1.9,1-3.8,1.3-5.8
			c0.3-2,0.8-3.9,1.5-5.8c0.9-2,1.7-3.9,2.4-5.6c0.9-1.9,1.7-3.7,2.6-5.6c0.7-1.9,1.7-3.7,3-5.6c1.2-1.9,2-3.8,2.6-5.8
			c0.3-0.7,0.3-1.8,0-3.2c-0.1-1.4-0.5-2.4-1.1-2.8c-0.6-0.4-1.6-0.6-3-0.4c-1.4,0-2.5,0.2-3.2,0.6c-1.9,1.1-3.5,2.5-5,4.1
			c-1.6,1.6-3.2,3.1-4.7,4.5c-1.6,1.7-3,3.5-4.3,5.4c-1.3,1.9-2.7,3.6-4.1,5.4c-1.4,1.7-3,3.4-4.7,4.9c-1.7,1.6-3.2,3.3-4.3,5.1
			c-1.3,1.9-2.6,3.7-3.9,5.6c-1.3,1.9-2.4,3.9-3.5,6c-1,2-1.9,4-2.8,6c-1,2.1-1.9,4.3-2.8,6.4c-0.6,1.4-1,2.9-1.3,4.5
			c-0.3,1.6-0.8,2.9-1.5,4.1c-1.3,2-2.9,3.5-4.7,4.5c-1.3,0.6-2.5,0.9-3.7,0.8c-0.7,0-1.4-0.1-1.9-0.2c-1.9-0.7-3.2-2.1-4.1-4.1
			c-0.9-2-1.1-4.2-0.6-6.7c0.3-1.4,0.7-2.7,1.3-3.9c0.6-1.3,1.2-2.6,1.7-3.9c0.6-1.9,1.2-3.6,1.7-5.4c0.4-1.9,1-3.6,1.7-5.1
			c0.7-1.7,0.9-3.2,0.4-4.5c-0.4-1.3-1.3-2.6-2.6-3.9c-3-3.2-4.6-5.8-4.7-8c0-0.1,0-0.3,0-0.4c0-2.1,1.3-4.8,3.9-7.9
			c2-2.6,4.4-5,7.1-7.3c2.6-2.1,5-4.4,7.3-6.8c1.7-1.7,3.4-3.6,5-5.6c1.4-2,2.7-4.1,3.9-6.2c1.3-2,2.3-4.2,3-6.6
			c0.9-2.3,1.8-4.5,2.8-6.6c0.9-2.1,1.9-4.2,3.2-6.2c1.3-2,2.4-4.1,3.2-6.2c1-2,1.9-4.1,2.6-6.4c0.6-2.4,1.4-4.6,2.4-6.6
			c1-2.1,2-4.2,3-6.2c1.2-2.1,2.2-4.3,3.2-6.4c1-2,2.1-4,3.2-6c1-2.1,2-4.3,3-6.4c1-2,2.1-3.9,3.2-5.8c1-2,2.2-3.9,3.5-5.8
			c1.3-1.6,2.5-3.1,3.7-4.7c1.3-1.6,2.7-2.9,4.3-4.1c2.6-1.8,5.4-3.1,8.4-3.6c0.7,0,1.4,0,2.1,0c2.3-0.1,4.6,0.4,6.9,1.7
			c2.6,1.4,4.3,3.5,5.1,6.2C516.9,204.2,517.7,207.4,518.1,211.1z"/>
		<path d="M562.7,278.7c-0.3,0.9-0.7,1.9-1.1,3c-0.4,1.1-0.9,2.4-1.5,3.6c-1,2.1-2,4.4-3,6.6c-0.9,2.3-1.8,4.5-2.8,6.6
			c-1.2,2.3-2.3,4.4-3.5,6.4c-1.3,2-2.5,4.1-3.5,6.4c-0.6,1.4-1.1,2.9-1.5,4.5c-0.4,1.6-0.9,3.1-1.3,4.7c-0.3,1-0.7,2.1-1.3,3.4
			c-0.4,1.1-0.4,1.9,0.2,2.4c1,1,2,1.1,3,0.2c1-0.9,1.9-1.7,2.6-2.6c1.6-1.6,3.2-3.1,4.7-4.5c1.4-1.4,2.9-2.9,4.3-4.5
			c1.1-1.1,2.2-2.4,3.2-3.6c0.9-1.3,1.9-2.6,3-3.9c0.7-0.7,1.4-1.4,2.2-2.1c0.7-0.6,1.5-1.1,2.4-1.7c1.7-1.1,3.4-1.7,4.9-1.7
			c1.6,0,3.1,0.6,4.5,1.7c1.3,1.2,2,2.6,2.1,4.3c0.1,0.4,0.2,0.8,0.2,1.1c0,1.4-0.4,2.9-1.1,4.3c-0.3,0.4-0.6,0.9-0.9,1.3
			c-0.3,0.3-0.6,0.6-0.9,1.1c-1.6,1.9-3.2,3.6-4.7,5.1c-1.6,1.7-3.1,3.4-4.5,5.1c-1.6,1.9-3,3.8-4.3,5.8c-1.2,2-2.5,3.9-4.1,5.6
			c-1.7,1.6-3.5,3.1-5.4,4.5c-2,1.3-3.9,2.6-5.8,4.1c-1,0.7-2.2,1.4-3.4,1.9c-1.2,0.6-2.4,1.1-3.7,1.7c-2.7,1.1-5.2,1.8-7.5,2.1
			c-0.6,0-1.1,0-1.5,0c-1.7,0-3.2-0.4-4.5-1.3c-1.7-1.1-3.1-2.8-4.1-5c-1-2.2-1.5-4.7-1.5-7.5c-0.1-2,0-4,0.5-6
			c0.6-2,1.1-3.9,1.5-5.8c0.3-1.9,0.2-3.7-0.2-5.6c-0.4-1.7-1.3-3.4-2.8-5.2c-1.9-2.3-2.9-4.4-3.2-6.5c-0.1-0.1-0.2-0.4-0.2-0.6
			c0-1.7,0.9-3.6,2.6-5.8c1.4-1.7,2.9-3.5,4.3-5.4c1.4-1.9,2.9-3.6,4.3-5.4c1.6-1.9,3.2-3.6,4.7-5.1c1.6-1.7,3.1-3.4,4.5-4.9
			c1.6-1.9,3.3-3.4,5.2-4.7c1.9-1.4,3.5-2.9,5-4.5c1.7-2,3.4-3.3,5.2-4.1c0.9-0.3,1.7-0.4,2.6-0.4c0.9,0,1.7,0.2,2.6,0.7
			c1.1,0.9,2,2.2,2.6,4.1C562.4,274.6,562.7,276.6,562.7,278.7z M580.9,231.8c-0.2,3.1-1.2,5.9-3,8.4c-1.9,2.3-4.2,3.4-6.9,3.4
			c-0.1,0-0.3,0-0.4,0c-2.7,0-5.1-1.1-7.1-3.2c-1.9-2.2-2.8-4.6-2.8-7.3c0-3,1.2-5.7,3.7-8.1c2.4-2.3,5.1-3.4,8-3.4
			c0.1,0,0.3,0,0.4,0c2.6,0.2,4.6,1.2,6,3.2c1.4,1.9,2.1,4.1,2.1,6.7C580.9,231.5,580.9,231.6,580.9,231.8z"/>
		<path d="M669,285.8c-0.6,2.7-1.1,5.4-1.5,8.2c-0.3,2.7-1,5.4-2,7.9c-0.6,1.7-1.6,3.4-3,4.9c-1.3,1.4-2.4,3-3.2,4.7
			c-0.7,1.7-1.2,3.6-1.3,5.6c-0.2,1.9-0.6,3.6-1.3,5.4c-0.4,1.3-1,2.5-1.7,3.6c-0.9,1.3-0.5,2.4,1.1,3.4c1.4,0.9,2.7,0.9,3.9,0
			c1.3-0.7,2.4-1.6,3.2-2.6c1.1-1.3,2.3-2.6,3.5-4.1c1-1.4,2.1-2.8,3.2-4.1c1-1.3,2.1-2.6,3.2-4.1c1.1-1.4,2.2-2.8,3.2-4.1
			c1-1.1,2.1-2.1,3.2-3c1.1-0.9,2.3-1.8,3.4-2.8c1.7-1.3,3.4-2.1,5.2-2.3c1.7-0.4,3.2-0.1,4.5,0.9c1.3,1.2,2.1,2.7,2.3,4.5
			c0.1,0.4,0.2,0.9,0.2,1.5c0,1.3-0.3,2.6-0.9,4.1c-0.3,0.9-0.5,1.8-0.7,2.8c-0.1,1-0.4,1.9-0.9,2.6c-1.6,2.3-3.6,4.3-6,6
			c-2.3,1.9-4.4,3.8-6.2,6c-1.9,2.3-3.7,4.5-5.6,6.6c-1.7,2.3-3.7,4.4-6,6.2c-2.2,1.9-4.5,3.3-7.1,4.3c-2.4,1.1-5.2,1.9-8.2,2.3
			c-3.2,0.7-6.1,1.1-8.8,1c-2.7,0-4.9-0.8-6.6-2.4c-1.6-1.6-2.8-3.7-3.6-6.5c-0.7-2.7-0.8-5.7-0.4-8.8c0.3-2.3,1.1-4.4,2.4-6.4
			c1.3-2,2.3-4.1,3-6.2c0.7-1.6,1.2-3.3,1.5-5.1c0.1-1.7,0.7-3.4,1.5-4.9c0.6-1.6,1.2-3.1,1.9-4.7c0.7-1.6,1.4-3.2,2.2-4.9
			c0.4-1.1,1-2.2,1.7-3.2c0.7-1.1,1.2-2.4,1.5-3.6c0.3-0.7,0.4-1.6,0.2-2.8c-0.1-1.1-0.3-2.1-0.4-2.8c-0.9,0-1.9,0.1-3.2,0.2
			c-1.1,0.1-2,0.5-2.6,1.1c-1.3,1.1-2.6,2.4-3.9,3.9c-1.2,1.3-2.4,2.6-3.7,3.9c-1.3,1.1-2.7,2.3-4.1,3.4c-1.4,1-2.7,2.2-3.7,3.6
			c-1.3,1.9-2.7,3.6-4.1,5.1c-1.4,1.6-2.8,3.3-4.1,5.1c-1.2,1.7-2.3,3.5-3.5,5.4c-1,1.9-2.2,3.7-3.5,5.6c-1.2,1.7-2.2,3.5-3.2,5.4
			c-1.2,2-2.3,3.9-3.5,5.6c-1,1.4-2,2.9-3,4.3c-0.9,1.4-1.9,2.9-3,4.3c-0.7,1-1.5,2.1-2.4,3.2c-0.7,1.1-1.6,1.9-2.6,2.4
			c-1.3,0.6-2.5,0.8-3.7,0.8c-1.6,0-3.1-0.5-4.7-1.5c-2.7-1.9-4-4.2-3.8-7.1c0.1-1.7,0.9-3.3,2.2-4.7c1.2-1.6,2.2-3.1,3-4.7
			c1-2.6,2.2-5.1,3.5-7.7c1.3-2.4,2.6-4.9,3.9-7.5c1.2-2.6,2.1-5.2,2.8-7.9c0.7-2.7,1.7-5.4,2.8-7.9c0.6-1,1.1-2.1,1.5-3.4
			c0.6-1.1,0.9-2.4,0.9-3.6c0.1-1-0.3-1.8-1.3-2.4c-1-0.7-1.9-0.8-2.8-0.2c-0.7,0.4-1.5,0.9-2.4,1.5c-0.9,0.4-1.6,0.9-2.2,1.5
			c-2,2.3-3.9,4.6-5.6,7.1c-1.7,2.4-3.6,4.7-5.6,6.9c-1,1.1-2,2.3-3,3.4c-1,1.1-2.1,2.1-3.2,3c-1.3,0.9-2.5,1.1-3.7,0.8
			c-1.3-0.1-2.6-0.6-3.9-1.3c-1.4-1-2.4-2-3-3c-0.4-0.7-0.6-1.5-0.4-2.4c0-0.6,0-1.1,0-1.7c0.3-1.3,0.7-2.4,1.3-3.4
			c0.6-1,1.2-2,1.9-3c1.4-2.3,2.9-4.6,4.5-7.1c1.4-2.4,3.2-4.6,5.2-6.6c1.9-2.1,3.8-4.2,5.8-6.2c2-1.9,4.1-3.7,6.2-5.6
			c1.3-1,2.8-1.8,4.5-2.6c1.7-0.7,3.4-1.3,4.9-1.9c1.9-0.9,3.7-1.5,5.4-1.9c1.6-0.4,3.1-0.4,4.7,0c1.6,0.3,3,1,4.3,2.2
			c1.3,1.3,2.6,2.7,3.8,4.1c2.6,2.9,4.4,4.5,5.6,4.7c1.3,0.1,3.5-0.8,6.7-2.8c1.7-1.1,3.4-2.2,5.2-3.2c1.7-1,3.5-1.8,5.4-2.6
			c1.4-0.7,2.9-1.3,4.5-1.7c1.6-0.6,3.3-0.8,5.2-0.8c1-0.1,1.9-0.2,2.8-0.2c1.6,0,3,0.2,4.3,0.4c2.1,0.3,3.9,1.2,5.4,2.6
			c1.1,1.4,2.1,3.2,2.8,5.2C668.3,280.8,668.8,283.2,669,285.8z"/>
		<path d="M681.3,323.2c0.2-2.4,0.3-5,0.5-7.7c0.3-2.7,0.9-5.3,1.7-7.7c0.9-2.4,2-4.8,3.5-7.1c1.4-2.3,2.9-4.6,4.3-6.9
			c1.3-2.1,2.6-4.4,3.9-6.9c1.2-2.3,2.7-4.4,4.7-6.4c1.9-2.1,4.2-3.9,7.1-5.1c2.9-1.3,5.5-2.7,8-4.3c2.4-1.6,4.9-2.7,7.5-3.4
			c1.4-0.4,2.9-0.6,4.5-0.6c1.1,0,2.3,0.1,3.4,0.2c2,0.4,4,1.1,6,2c2,0.9,3.6,2,4.7,3.5c1.1,1.4,1.9,3.2,2.3,5.2
			c0.4,2.1,0.6,4.3,0.6,6.4c0,3.2-0.7,6-2.2,8.6c-1.4,2.4-3.1,4.8-5,7.1c-1.7,1.9-3.6,3.5-5.6,4.9c-2,1.3-4.1,2.6-6.2,3.8
			c-2,1.1-4.2,2.1-6.7,3c-2.3,0.7-4.5,1.5-6.7,2.3c-1.6,0.6-3.1,1.3-4.5,2.1c-1.4,0.7-2.9,1.4-4.3,1.9c-1.9,0.7-3.3,1.7-4.3,3
			c-0.9,1.4-1.4,3.1-1.5,4.9c-0.2,2.9,0.6,5.2,2.1,6.9c1.7,1.7,3.9,2.3,6.6,1.7c2.3-0.6,4.4-1.5,6.5-2.8c2-1.3,3.9-2.6,5.8-4.1
			c1.4-1.3,2.9-2.5,4.5-3.6c1.7-1.1,3.3-2.4,4.7-3.8c1.4-1.3,2.9-2.5,4.5-3.6c1.7-1.3,3.3-2.6,4.7-3.8c0.9-0.9,1.7-1.7,2.6-2.6
			c0.9-0.9,1.7-1.7,2.6-2.6c2.3-2.4,4.5-3.9,6.7-4.5c2.1-0.6,4.2-0.1,6,1.3c1.6,1.4,2.3,3.2,2.3,5.4c0,0.1,0,0.3,0,0.4
			c-0.2,2.3-1.3,4.8-3.5,7.5c-1.3,1.7-2.6,3.5-3.9,5.4c-1.4,1.9-3,3.5-4.7,4.9c-1.6,1.4-3.4,2.7-5.4,3.8c-1.9,1.3-3.7,2.6-5.6,4.1
			c-1.7,1.4-3.4,2.9-5,4.5c-1.6,1.7-3.2,3.2-5,4.5c-1.9,1.3-3.9,2.4-6,3.4c-2.3,1-4.6,1.7-6.9,2.1c-2.3,0.6-4.4,1.1-6.4,1.5
			c-1.4,0.3-2.8,0.4-4.1,0.4c-0.6,0-1.2,0-1.9,0c-2-0.4-3.9-1.2-5.6-2.4c-1.9-1.3-3.5-2.7-4.9-4.1c-1.1-1.4-2.1-3.1-2.8-4.9
			c-0.9-1.7-1.6-3.7-2.1-5.8c-0.6-1.9-1.1-3.7-1.5-5.6C681.4,327.7,681.3,325.6,681.3,323.2z M715.6,290c0.3,0.4,0.6,0.7,0.9,0.9
			c0.3,0.1,0.4,0.4,0.4,0.6c0.7-0.4,1.5-0.7,2.4-0.9c0.7-0.1,1.4-0.4,2.2-0.9l-0.4-0.4c-0.1-0.1-0.3-0.4-0.4-0.6
			c-0.9,0.4-1.7,0.6-2.6,0.6C717.1,289.4,716.3,289.6,715.6,290z"/>
		<g>
			<path d="M91,358.9c-2.4-0.2-4.7-0.7-6.9-1.6c-2.1-0.7-4.1-1.3-6.2-1.8c-2.2-0.7-4.3-1.7-6.2-2.9c-1.9-1.2-3.8-2.4-5.6-3.6
				c-2.2-1.4-4.4-1.9-6.4-1.6c-2.1,0.2-4.2,0.8-6.4,2c-0.5,0.3-1.2,0.7-2.1,1c-1,0.3-1.8,0.6-2.3,0.8c-2.1,0.7-4,1.2-5.9,1.5
				c-2.1,0.2-3.8-0.5-5.1-2.1c-1.4-1.4-2.1-3.1-2.3-5.2c0-0.5,0-0.9,0-1.3c0-1.7,0.4-3.3,1.1-4.6c1.2-2.1,2.7-3.8,4.4-5.4
				c1.7-1.7,3.4-3.5,4.9-5.4c1.6-1.7,3.2-3.6,4.9-5.6c1.6-1.9,3.2-3.8,4.9-5.6c1.6-1.7,2.9-3.8,4.2-6.1c1-2.2,2.4-4.4,4.2-6.4
				c1.7-1.9,3.5-3.7,5.2-5.4c1.7-1.9,3.4-3.7,4.9-5.6c1.7-1.9,3.5-3.6,5.4-5.1c2.1-1.5,3.9-3.3,5.4-5.4c1.6-1.9,3.2-3.8,4.9-5.9
				c1.6-1.9,3.1-3.8,4.7-5.6c1.9-2,3.7-4.2,5.4-6.4c1.9-2.2,3.8-4.3,5.7-6.4c1-0.8,2-1.8,2.8-2.8c1-0.8,2.2-1.6,3.4-2.3
				c1.7-1,3.6-1.6,5.7-1.8c0.3-0.2,0.7-0.3,1-0.3c1.5,0.2,3,0.8,4.4,1.8c1.5,1.2,2.6,2.8,3.1,4.9c0.5,1.9,0.6,3.8,0.2,5.7
				c-0.2,0.5-0.4,0.9-0.8,1.3c-0.3,0.3-0.6,0.8-0.8,1.3c-1,1.7-1.9,3.7-2.6,5.9c-0.5,2.1-0.9,4.2-1.1,6.4c-0.4,2.2-0.8,4.5-1.3,6.7
				c-0.5,2.2-0.8,4.5-0.8,6.7c0.1,3.1,0.4,6.2,0.7,9.3c0.1,3.1,0.2,6.3,0.2,9.5c0,1,0,2.1,0,3.1c0,1,0,2.1,0,3.1
				c0.5,2.6,1.3,4,2.5,4.1c1.2,0.2,2.8-0.4,4.9-1.8c1-0.5,1.9-1,2.6-1.5c0.7-0.5,1.5-1.2,2.3-2c2.1-2.2,4.4-4.3,7-6.1
				c2.6-1.9,4.9-4,7-6.4c1-1,2-2.2,2.9-3.6c0.7-1.2,1.6-2.2,2.9-3.1c1.9-1.2,4-1.9,6.2-2.3c2.1-0.2,3.9,0.4,5.4,1.6
				c1.7,1.4,2.6,3.1,2.8,5.2c0,0.3,0,0.6,0,0.8c0,1.9-0.3,3.7-0.8,5.4c-0.5,1-1,2.1-1.3,3.3c-0.5,1.2-1.1,2.2-1.8,3.1
				c-1.7,2.4-3.6,4.7-5.7,6.9c-1.9,2.2-3.9,4.3-6,6.4s-4.2,4.1-6.5,6.1c-2.1,1.9-4.4,3.7-7,5.6c-2.4,1.9-4.7,3.8-6.7,5.9
				c-2.2,2.2-4.7,4-7.5,5.4c-2.6,1.4-5.2,2.5-7.7,3.6c-2.6,1-5.2,1.9-8,2.5c-2.4,0.7-5.1,1.2-8,1.5C96.5,358.5,93.8,358.7,91,358.9z
				 M100.1,314.4c-0.2,0-0.1,0,0.3,0l0.5,0c0-1.2,0.2-2.4,0.5-3.6c0.3-1.2,0.5-2.4,0.5-3.6c0-0.2-0.4-0.3-1.3-0.5
				c-0.9-0.3-1.3-0.7-1.3-1c-0.5-1.9-1.3-3.3-2.3-4.1c-0.3-0.3-0.7-0.5-1-0.5c-0.7,0-1.5,0.5-2.6,1.5c-1.7,1.7-3.1,3.7-4.2,5.9
				c-1,2.1-2.4,4-4.2,5.9c-1.6,1.9-3.2,3.6-4.9,5.1c-1.6,1.7-3.1,3.5-4.7,5.4c-0.5,0.7-1,1.8-1.3,3.3c-0.2,0.7-0.3,1.3-0.3,1.8
				c0,0.5,0.1,1,0.2,1.5c1.7,2.2,3.9,3.8,6.7,4.7c2.9,0.9,5.7,1.3,8.5,1.3c2.6-0.2,4.5-1.2,5.7-3.1c1.2-1.9,2.1-4,2.6-6.4
				c0.7-2.2,1.1-4.5,1.3-6.7C99.2,319,99.5,316.6,100.1,314.4z"/>
		</g>
	</g>
</g>
</svg>
