<?xml version="1.0" encoding="utf-8"?>
<!-- Generator: Adobe Illustrator 20.1.0, SVG Export Plug-In . SVG Version: 6.00 Build 0)  -->
<svg version="1.1" id="Layer_1" xmlns="http://www.w3.org/2000/svg" xmlns:xlink="http://www.w3.org/1999/xlink" x="0px" y="0px"
	 viewBox="0 0 360 360" style="enable-background:new 0 0 360 360;" xml:space="preserve">
<style type="text/css">
	.st0{fill:#FFF200;}
</style>
<ellipse transform="matrix(0.995 -9.967641e-02 9.967641e-02 0.995 -16.5809 18.8426)" class="st0" cx="180.3" cy="175.4" rx="144" ry="144"/>
<path d="M72.5,58.2c-2.7,2.4-0.8,1.7-1,2.5c-2.9,3.1-1.8,1-3.1,1.7c-1.7,2.1-2.7,3.9-4,5.4c-0.2,0-0.5,0.3-0.3-0.2
	c-1.4,2.5-5.5,6.3-6.7,9.5c-0.2,0.2-0.3,0.2-0.4,0.2c0.6-0.2,1,0,1.1,0.2c-0.9,1.3-1.4,2.6-2.1,2.8c0.6-0.8,0.5-0.9,0.6-1.4
	l-0.8,1.5c-1.5,0.8,1.1-2,0.7-2.3c-1.8,2.7-3.2,6.3-4.7,8.3c-0.9,0.1,2.9-5,0.6-2.6l2.3-3.1c-2.5,1.9,1.3-1.9-1.1-0.3
	c-2.9,4.2-2.9,4.9-5.4,9.4c-0.2,1.2,0.7-0.1,0.5,1.1c-1.4,3.3-2.3,4.4-3.2,5.3c-0.9,0.9-1.6,1.6-2.2,4.3c-0.1,1.5,0.5,2.3-1.2,5.6
	l-0.3-1.5c-1.7,4.7,0.1,3-1.9,7.8c0-1,0.9-3.8,0.6-3.1c-1.6,3-0.3,2.4-0.9,4.8l-0.8,0.3c-1.3,5.1-1.9,10.8-2.6,16.6
	c-0.2-0.3-0.2-1.4-0.6-0.1c-0.7,7.3-1.7,15.5-2.3,22.5l0.6,2.7c0,0.6-0.3,1.2-0.4,0.5c-0.2,2.7,0.4,0.1,0.6,1.5
	c0,1.6-0.3,2.1-0.5,1.1c0.5,4.8,1.5,13.7,1.3,18.8l-0.3-1c0.1,4,1.7,4.3,1.5,8l-0.2-0.7c0.8,8.6,3.2,17.7,4,24.3
	c0.6,0.5,1.1,2.6,1.5,4.6c0.6,2,1.2,3.8,1.8,3.9c0.9,4.9,0.4,3.6,2.4,10.2c0.7,1.7,1.8,2.2,2.9,4.3l-0.6,0.3c0,0,0.5,0.6,0.9,1.3
	c0.4,0.6,1,1.3,1,1.3l0.1,1.8l1.1,1.8c-0.4-0.8-0.6-1.8-0.4-1.7c1.7,2.9,3.6,7.4,3.3,7.6c0,0,0.3,0.4,0.7,1c0.4,0.6,1,1.5,1.6,2.2
	c1.2,1.6,2.5,3.1,2.5,3.1c-0.3,0-1.1-1.1-1.9-1.8c2.9,3.2-0.1,1,2.6,3.9c-0.2-0.5,0.5,0,0.6,0c1,1.7,3.5,5.4,6,7.6l-0.8-0.2
	c1,1.1,2,2.2,3.1,3.4c1.1,1.1,2.3,2.2,3.5,3.3c2.4,2.2,5,4.3,7.6,6.3c-1.8-1.6-0.9-1.9,0.7-0.8l0.2,1c1.3,0.4-1.5-1.4,0.9-0.3
	c1.9,1.5,0.9,1.6-0.4,0.9c0,0,0.6,0.4,1.3,0.8c0.6,0.4,1.3,0.8,1.3,0.8c0,0.3-0.6,0-0.9,0.1c1.3,0.3,4,3.5,6,3.8l0,0.3
	c5.8,3.4,8.6,4.5,13.6,6.6c0.3-0.5,2.2,0.4,3.9,0.6c3.6,1.6,7.7,3.4,12.3,4.6c3.3,0.6,1.1-0.2,2.6-0.2c0.1,0.6,4.8,1.5,2.3,1.4
	c2.8,0.6,4.6,0.9,6.6,1.2c2,0.3,4.2,0.5,7.8,0.7c-0.8-0.3-1.6-0.5-1.1-0.6c1.3,0.1,2.9,0.5,2.7,0.8l-0.3,0
	c8.1,0.1,18.7,2.5,25.1,0.9l-0.4,0.1c0,0,1.7-0.3,3.3-0.5c1.7-0.3,3.3-0.6,3.3-0.6c3.1-0.2-1.8,0.6,0.5,0.7
	c7.1-1.6,11.3-1.3,17.1-3.1c4.9,0.7,15.9-3.7,22-4.6l-0.4-0.3c1.4-0.8,1.9-0.4,3.1-0.6c-0.2-0.2-1.8,0.2-0.9-0.3
	c12.8-4.4,26.5-8.7,39.3-14.2c4.7-2,1.8-2.9,7.9-4.9l-1.3,1.4c8.8-5.2,18.6-9.9,26.5-16.2c-0.4,0.5-0.3,0.6-1.1,1.2
	c2.1-0.7,6.4-4.6,6.2-4.9c1.3-0.9,0.5,0.1,1.4-0.3c1.9-1.1,3.8-3.8,5-4.2c0.2-0.1-0.3,0.5-0.6,0.8c0.9-1.1,5-4.2,3.6-3.7
	c3-2.3,5.2-5,7.5-7c1-1.8,4.7-4.5,4.4-5.6c0.2,0.4,1.5-0.7,2.8-2.2c1.3-1.6,2.6-3.5,3.2-4.5c-0.2,0.8,1.5-1.5,1.2-0.5
	c1.6-2.3,2.9-4.4,2.3-4.3c1.8-1.8,3.1-4.1,4-6.2c0.9-2.1,1.8-3.9,3.1-4.8c3.3-7.5,5.5-14.8,7.1-21.9c0.4,0.2-0.1,2.2-0.6,4.1
	c-0.5,1.9-1.1,3.7-0.6,3.7c1.8-6.8,2-10.9,3.2-17.6c0.4-1.8,0.3,1.1,0.3,1.7c0.7-6.9,1.4-13.5,0.5-19.7c0.1,0,0.2,0.7,0.4,1.3
	c-0.1-1.2-0.1-2.9-0.5-2.7l0.2,1.2c-0.5,2-1.6-4.7-2.1-4.9c1.5,1.9-0.7-6,1.4-3.1c-0.2-0.8-0.6-1.7-0.8-1.5c-0.1-1.2,0-1.6,0.5-0.5
	c-1.2-4.3-1.3-2.6-2.3-6.5c0.2,0,0.5,0.7,0.8,1c-0.9-1.9-2-3.6-2.9-6.8c0.2,0.1,0.2-0.3,0.5,0.7c-2.2-5.4-4.9-8.5-8-13.9
	c1.8,1-1-1.9-0.5-2.7c0,0-0.5-0.7-1.1-1.3c-0.6-0.6-1.2-1.3-1.2-1.3l0.6,1.3c-1.9-2.3-3.9-4.1-5.5-6c0,0,1.8,1.3,1.7,1.4
	c0,0-0.2-0.3-0.6-0.6c-0.4-0.4-0.9-0.9-1.4-1.3c-1-1-2-1.9-2-1.9l2,2.5c-2.4-1.9-0.5,0.9-3-2c0.3,0.3-0.2-0.3-0.9-1
	c-0.7-0.7-1.6-1.7-2.1-2.3l0,0c-1.3-0.8-2.5-1.6-4.1-3c-0.3-0.5,0.9-0.4,0.7-0.7c-0.8-0.2-2.2-1.2-3.6-2.2c-1.5-1-3-1.9-4-2.1
	c0.6,0.2,0.8-0.1,0.7-0.3l-1.3-0.2c-1-0.9-1.2-1.1-0.8-1.2c-3.5-2.2,0.6,1.5-3.3-1.4c0.3,0.2,0.2,0,1,0.3c-4.1-2.7-8.4-4.3-12.3-6.4
	c-0.9-1.3,3.6,1.5,2.5,0.2c-5.9-2.7-12.6-4.6-18.4-6.8l1.1,0.5c-1.2,0.7-4.2-2-7.4-2.5c0.8,0.2,1.1-0.3,0.9-0.2
	c-4-1.5-8.4-2.3-14.8-3.5l0.8-0.1c-2.4-0.8-6.4-1.7-9-2.4c-0.8,0.1-2.4-0.3-1.5,0.3c-7.9-3.3-15.8-2.2-22.9-4.7
	c0.9,0.1,2.1,0.1,1.4,0l-6.3-0.7c0.4,0.5,0.8,0.4,2,1c-0.8,0.2-2.6,0.1-4.2-0.1c2.8,0.1,0.1-0.8-1.1-1.2c0.2,0.2-0.3,0.3-0.2,0.4
	c-3.2-1.3-0.7,0.9-5.1-0.3l0.3-0.2c-1.7-0.1-3.3,0.1-5.1-0.2c-0.7-0.6,1.8-0.1,2-0.5c-2.5-0.2-5.1,0.5-7.3-0.3
	c1.1,0,2.6,0.1,3.7,0.1c-2.4-0.9-2.7-0.8-4.6-1.1l0.2,0l-4.3-0.7l1.1,0.3c-3.3,1.1-6.5-0.3-10.8,0.4c4.2-0.6,0.7-0.5,1.1-1.1
	c-1.1-0.2-2.7-0.6-2.3-0.7c-2.1,0.4-3.4-0.6-6.3,0c-0.1-0.2-2.2-0.1-1.7-0.6c-2.7,0,0.6,0.4,0.4,0.6c-4.1,0.5-9.6-1.2-15.4-0.3
	c-5.1,0.3-6,1.1-10.7,1.4c-1.6-0.3,1.3-0.7,1.3-0.7c-2.6-0.3-4.5-0.1-6.9,0.1c0.5-0.2,0-0.3-0.8-0.5c-1.9,0.1-1.3,0.7-3.8,0.6
	c0.4-0.2,1-0.6,1.9-0.9c-2.3,0.3-4.5,0.8-6.8,1.1c-0.6-0.3,1.4-0.6,2.2-0.9c-2.6,0.3-6.8,0.7-7.6,1.3l1.7,0.1
	c-1,0.1-0.5-0.4,0.2-0.6c2.2-0.6,3.3,0,3.4,0.2l-1.7,0.2c1.8,1.1,6.7-0.5,10.1-0.6l-1.4,0.9l3.4-0.8c0.7,0.2,1.3,0.7-0.4,0.8
	c2.4,0.4,2.1-0.4,4.2,0.1c0.2,0.1,0.1,0.1-0.1,0.2l2.4-0.3c-0.5,0.2,0.4,0.6-1,0.5c4.2,0.5,6.8-0.7,8.4,0l-0.4,0
	c5.9-0.2,0.6-0.6,5-1.3l2.9,1.6l0.6-0.6c0.6,0,1.8,0.1,1.6,0.4c2.3-0.4-0.4-0.3,0.9-0.7c2.9,0.6,8,0,8.7,1.1
	c1.1-0.4-2.8-0.5,0.4-0.7c0.8,1.1,3.6,0,6.2,0.7c-0.9,0.5-3.3,0-0.7,0.7c1.7-0.8,5.2,0.6,7.4,0.5c0.2-0.7,4.9,0.1,8.7,0.2
	c-0.3,0.2,7,1.1,10.4,1.9l-0.1,0.1c0.8-0.7,4.3-0.1,7,0.1c-0.2,0.4-0.7,0.5-2.1,0.5l2.4,0.3c0.6-0.2,1.4-0.2,3,0l-0.7,0.5
	c3.3,0.4,6.6,0.4,10.8,1.4c0.3-0.5-3.1-2,1.4-1.6c0.1,0.3,0.2,0.8-1,0.7c0.4,0,1.4,0,2.1,0.3l-1.8,0.2c1.9,0.5,1.1-0.2,2.6,0.1
	c-0.1,0.4,1.1,0.5,0.8,0.8c-0.4,0-1.3-0.4-1.9-0.4c1.7,0.4,3.7,1,4.3,1.4c-0.1-0.3,0.1-0.5,1.4-0.4c3.2,0.6,1,0.7,2.8,1.3
	c0.8-0.1,2.8,0.6,3,0c0.9,0.2,1.1,0.5,1.4,0.8c1.7,0,7.8,1.7,6,0.6l-0.4-0.1c0.1,0,0.2,0,0.3,0c0,0,0,0,0,0l0,0
	c5.6,0.6,11.1,3.2,16.5,4.5l-0.1,0.2c3.2,0.8,7,2.1,9.4,2.5c0.9,0.3,2,1.1,1.6,1.2c2.4,0.7,2.8,0.7,6,2.3c-2.5-0.6,0.7,0.6-2.5-0.7
	c3,1.4,3.5,1.9,6.9,2.9c-1.3,0,2,1.6,3.4,2.1l-1.9-1.3c1.6,0.6,3,1.4,4.3,2.1l-1.1,0.2c1.4,0.9,2.8,1.7,4.1,2.3
	c1.3,0.7,2.7,1.3,3.9,1.9c2.6,1.1,4.8,2.5,6.5,4.4c1.7,0.6-2.8-2.3-1.2-1.9c2.6,1.7,4.4,4.5,5.2,5.1c3,2.8,3.6,1.7,6.7,4.8
	c-0.3-0.5-0.1-1.5,2.3,0.8c2.1,2.3,1.9,3.4,0.4,2.2c-0.5-0.5-0.7-0.8-0.6-0.9c-0.7-0.6-1.7-1.5-1.1-0.4l0.4,0.1
	c0.9,1.2,3.8,4.2,2.8,3.8c1.6,1.6,0.9,0.5-0.1-0.9c2.2,3.2,4,4.6,6,8.1c-0.2-0.6-0.3-1.2,0-0.7c3.1,5,1.9,1.9,4,5.3
	c0.8,2.2-1.2-0.3,1.1,3.1c0.8,2.3-0.3,0.7-1,0c2,3,2.6,6.2,3.1,8.2l-0.8-1.7c0.5,1,0.8,1.9,1.1,2.8l0.1-1.2c0.3,1.1,0.6,2,0.4,2
	c0.7,1,0.5-1.1,1.7,1c0.1,1.5,1.4,4.4,0.9,5c-0.9-4.6-0.5,0.6-1.6-3.2c0.3,0.7,0.5,1.6,0.7,2.7c0,0.2-0.2-0.1-0.3-0.4
	c0.5,4.4,1.1,1.8,2,6.4c-0.5-0.5-0.5,1.1-0.4,1.9c-0.2-1.9,0.5-1,1,0.7c0,3,0.5,3.2,0.5,4.8c0,0,0-1.8,0-1.8
	c0.5,0.6,0.4,2.1,0.6,4.2c-0.3,0.2-0.2-1.9-0.3-1.2c0.3,1.2,0.2,2.5,0,3.9c-0.3,1.4-0.6,3-0.5,4.6c-0.3,1.5-0.7,0.1-0.9,1.4
	c-0.1,3.6-0.9,3.8-1.2,7.6c0.7-1,0.6-1.2,0.6,1.5c0,0,0.2-1.6,0.4-3.1c0.1-1.6,0.2-3.1,0.2-3.1s0,1,0.1,2.1c0.1,1,0,2.1,0,2.1
	c0.4-1.9,0.3-4,0.5-5.1c0.1,2,0,1.8,0.6,0.9c-1,2.5-0.3,5.2-1.5,8.1l-1.2-0.4c-1.5,4.2-1.3,7.9-3.6,13.4c0,0,0.2-0.4,0.4-0.8
	c0.2-0.4,0.4-0.9,0.4-0.9c0.3,0.9-1.2,3.4-1.8,5.3c-0.3-0.3-0.9,0.7-1.4,1.4c0.3,0-1.9,3.9-1.4,4.7c0,0-0.4,0.5-0.8,1.1
	c-0.4,0.5-0.9,1-0.9,1c-2.4,4.1-1.6,5.3-4.2,9.1c0.4-1.4-1,0.2,0.4-2.6c-0.8,1.3-1.6,2.4-1.4,2.6c-0.7,0.6-2,3.8-3.1,4.7
	c-0.2,0.6,0,1.1-1.1,2.4c-0.2,0.1-0.2-0.1-0.2-0.1c0.2,0.1-1.5,2.3-0.2,1.4c-1.9,1.5-4.1,3.9-6.3,6.4c-2.2,2.3-4.4,4.7-6.3,5.7
	c-2.3,2.4-5.3,5.1-7.7,7.1c0.1-0.2-0.1-0.2,0.4-0.5c-3.6,2.3-1.3,2.6-5.4,5.1c-2.4,0.9,1.8-1.8,0.5-1.1c-1.3-0.7-4.5,3.6-7.7,4.7
	l0.6-0.5c-2.3,1-4.7,3.7-8.2,5.8c0,0,0.1-0.2-0.1-0.2c-1,1-2.6,2.2-4.4,3.4c-1.8,1.2-3.7,2.4-5.4,3.4c0.8-1,1.4-1.1,0.5-1.2
	c-1.5,0.9,0.9,0.5-2.2,2.3c-1.1,0.3-3.5,1.2-4,0.8l2.9-1.5c-1.8,0.1-3.8,2-5.4,2.6l0.1-0.4c-4.5,2.3-4.2,3-9.1,5.2l0.6,0
	c-2.4,1.9-2.5,0.6-4.9,2.3l-1.1-0.4c-1.7,0.9-6,3.3-9.2,4.7c1.6-1.3,5.3-3.1,7.5-4.4c-1.8,0.7-6.1,2.5-6.8,3.2
	c0.7-0.4,1.5-0.9,2.3-1.1c-2,1.5-4.8,2.9-8.4,4.2c0.1-1.7-9.6,3-12.6,2.6c-6.3,2.6-13,3.6-20.6,5.4c3,0.6-2.2,0.5-1.5,1.7
	c-1.8,0.5-2.5,0.6-2.7,0.5c0,0-1.4,0.1-2.8,0.2c-1.4,0.1-2.8,0.1-2.8,0.1c-1.4-0.1,1.7-0.6,1.5-0.8c-4,0.6-1.7-0.2-4.4-0.1
	c0.6,0.4-1.3,0.8-3.6,1l3.3,0.1c-5.5,1.4-4.9-0.4-10.4,0.9l1.7-0.6c-2.9,0.6-10.6,0.8-13.4,1.8c-0.5-0.1-1.2-0.5,0.1-0.6
	c-6.9,0-15.4,0.7-20.7-0.7l0.6-0.2c-1.3-0.1-2.3,0.3-3.9-0.3c0.1-0.1,0.6-0.2,0-0.3c-0.7,0-3.5,0-5.1-0.5l1.5-0.1
	c-6.5-1.7-10.3-1.4-15.7-2.9c0.3-0.8-4.6-2.8-7-4l0.1-0.1c-7.1-3-12.3-4.8-18.6-8.4c-1.6-1.6-4.7-3.9-7.8-6.5
	c-0.8-0.7-1.6-1.3-2.4-2c-0.8-0.7-1.5-1.5-2.3-2.2c-1.5-1.5-2.9-2.9-4-4.3c0.6,0.9-0.6,0.4-1.6-0.5c-1-1.3-3.6-3.1-2.7-3.4l0.4,0.5
	c-0.1-1.5-2.5-4-4.1-6.3l-1.1,0.3c-0.7-1.7-1.7-3.5-2.8-5.3c-1-1.9-2.3-3.7-3.4-5.5c-2.1-3.7-4-7.1-4.1-9.2
	c-0.9-1.5-1.8-3.4-2.7-4.9l0.6-0.1c-1.6-4.5-2.3-6.7-4.2-12.3l0.7,1c-0.9-3.2-2.7-3.6-3.6-6.6l0.6-1.1c-1.3-5.7-1.8-11.6-3.3-17.1
	c0.1,0.1,0.4,0.2,0.6,1.1c-0.5-2.7-0.7-10.6-1.8-9.5c0.7-0.1-0.4-6-1-9.1l0.6,0.5c-0.9-2.6-1-2.7-1.4-6.4c0-0.9,0.4-0.8,0.3,0.4
	c0.2-2.9-0.6-2.3-0.3-5.9l0.4,1.3c0-3-0.1-2.8-0.6-4.5c-0.2-1.9,0.3-5.8,0.8-6.2c-0.3-0.4-0.7-2.1-0.4-3.9c0.2-0.2,0.3,0.4,0.3,0.8
	c0.7-5-0.1-7.6,0.9-11c0.2,0,0.3-0.3,0.4-0.5c-0.5,4-0.8,7.2-0.8,6.9c0.5,0,0.9-3.2,1.4-0.5c-0.2-2.6-0.6-7.1,0.2-10.2
	c0.1-0.1,0.1-0.3,0.2-0.4l0,0.3c0.2-0.7,0.2-1.4,0.2-2c0.2-1,0.4-1.6,0.6-2.5c0.5-0.3,0.9-3.6,1.3-5.1c-0.6,0,0-2-0.9-0.2
	c0.1-0.2,0,0.3-0.2,1.4c0,0.2-0.1,0.5-0.1,0.7c0,0,0-0.1,0-0.1c-0.2,1-0.5,2.4-0.7,3.9c-0.1-1.3-0.1-2.7,0.6-4.3
	c-0.2-0.9-0.4-1.9-0.4-2.4c1.3-2,2.8-6,3.4-6.4c1-4.8,3.4-11,3.8-14.2c0.4-1.3,0.9-1.3,1.3-1.8c-0.2,0.8-0.6,1.7-0.7,2.1
	c0.5-1.3,1.2-3.2,1.9-4.9c0.8-1.6,1.4-3,1.2-3.5c2-2.9-0.3,2.1,1.9-2.2l-0.1,0.7c1.4-2,2.7-3.7,3.6-5.5c1-1.8,2-3.5,3-5.3
	c2-3.5,4.4-7,8.5-10.4c-0.6,0.5-0.9,0.7-1.1,0.7C75.8,61,85.3,52,96.3,47.1c3-1.5,3.2-2,4.9-3.3l0.9,0.2l2.9-2.2
	c4.5-2.5,8.6-1.9,14.3-4.7l-0.9-0.1c2.2-0.8,6.9-2,6.7-1.5c0.2-0.1,0.6-0.6,1.5-0.6l0.1,0.3c0-0.1,5.4-1.6,5.4-1.6
	c4.3-0.4-0.5,1.2,5.8,0.6c2.3-0.3,6.6-1.6,5.7-1.7c-0.9,0.1-2.4,0-2.5-0.3l2.1-0.4c0.3-1,2-2.1-3.5-2.3l-3.7,0.9
	c0,0-0.3-0.1-0.6-0.2c-0.3-0.1-0.6-0.1-0.6-0.1c0-0.1,3.2-0.4,3.2-0.4c-1.9-0.3-3,0.2-4.2,0.7c-0.3-0.2-0.9-0.3-1.6-0.2l-3.5,1.5
	c-0.5-0.3,1.5-1-1-0.8c-1.6,0.8,1.8,0.5-1,1.4c-1.8,0-1.4-0.5-3.4,0.4c-0.4-0.2,0-0.4,0.8-0.7c-1.8,0.8-4.9,1.3-5.6,2.1
	c-2,0.1-6,2.1-6.2,1.2c-0.5,0.3-2.9,1.9-4.5,2.6c2.5-2.2-6.1,2.4-5.7,1.1c-0.9,1-2.7,2-4.8,3.1c-2,1.2-4.3,2.5-5.9,3.7
	c0.2-0.2,0.5-0.5,0.8-0.7c-2.1,1.1-2.8,1.2-4.2,1.9c0.2,0.8-2.8,3-4.1,4.5c-2.8,1,0.9-1.8-0.3-1.9c0.4,0.4-3.6,3.5-2.5,3.4
	c-2,1-1.6,1-3,1.1c0.3,1-1.6,1.3-2.5,3.1c-2.7,1.7-1.2-0.2-3.7,2.4C70.4,60.5,72.5,58.2,72.5,58.2z M36.1,131.1L36.1,131.1
	c0.1-0.7,0.2-1.3,0.2-1.7C36.3,129.8,36.2,130.2,36.1,131.1z M35.3,138c0.1-0.8,0.2-1.9,0.3-3c0.2-0.2,0.4,0.1,0.3,0.8
	C35.9,135.4,35.6,137,35.3,138z M41.4,124.3c-0.1,1.1-0.3,1.4-0.4,1.5c0.1-0.5,0.2-1.1,0.3-1.8c0,0,0-0.1,0-0.1
	C41.3,123.9,41.3,124,41.4,124.3z"/>
<g>
	<path d="M229.3,218.5c0,22.8-19.2,41.1-51.2,41.1c-13.1,0-26.2-3.3-36.5-10.7c-1.8-1.2-2.4-3-2.7-6.1l-3-29.5
		c-0.3-1.8,3-2.1,3.7-0.9c5.5,22.8,23.4,42.3,45.1,42.3c12.2,0,26.2-6.4,26.2-25.6c0-42.6-71.9-39-71.9-82.5
		c0-24.1,21.9-36.8,46-36.8c9.1,0,19.8,2.1,30.5,7c3.7,1.5,4.3,2.4,4.6,5.2l2.1,26.5c0,1.8-3.3,2.1-3.7,0.6
		c-2.7-14.3-17.7-34.7-38.7-34.7c-15.2,0-23.1,10.4-23.1,23.8C156.5,178.6,229.3,174.4,229.3,218.5z"/>
</g>
</svg>
