<svg id="Layer_1" data-name="Layer 1" xmlns="http://www.w3.org/2000/svg" viewBox="0 0 792 612"><defs><style>.cls-1{fill:#231f20;}</style></defs><title>WholesomeMarket</title><g id="Wholesome_Market" data-name="Wholesome Market"><path class="cls-1" d="M276,245.27a7.47,7.47,0,0,1-.08,5,17.46,17.46,0,0,1-2.11,3.75c-.84,1.14-1.65,2.26-2.49,3.35a6.32,6.32,0,0,0-1.24,4q-6.09,7.46-11.85,15.88t-10.3,16.06a24.47,24.47,0,0,1-3.88,6,28.67,28.67,0,0,0-4.06,6,22.26,22.26,0,0,0-2.49,4.44c-.63,1.52-1.24,3-1.88,4.54a48.84,48.84,0,0,1-2.18,4.51,20.48,20.48,0,0,1-3.42,4.44,11,11,0,0,1-1,4.59,48.62,48.62,0,0,1-2.26,4.44c-.84,1.47-1.72,2.94-2.66,4.44a17.47,17.47,0,0,0-2,4.62,9.16,9.16,0,0,0-1.88.23L218,342a8,8,0,0,1-2.18.15,2.31,2.31,0,0,1-1.72-.84c-1.14,0-2-.76-2.64-2.28a3.33,3.33,0,0,1,.46-3.8,3.8,3.8,0,0,0,2.89-1.24,4,4,0,0,0,1.17-2.82,4.11,4.11,0,0,1,.94-2.71,17.51,17.51,0,0,1,2.11-2.26,25.21,25.21,0,0,0,2.11-2.28,4.25,4.25,0,0,0,.94-2.71l4-3.91a10.19,10.19,0,0,1,.63-3.88,30.8,30.8,0,0,1,1.32-2.89c.46-.89.91-1.7,1.32-2.49a5.6,5.6,0,0,0,.63-2.74,4.92,4.92,0,0,0,2.11-.3,1.37,1.37,0,0,0,.68-.79,5.65,5.65,0,0,1,.33-.76c.1-.23.41-.33.94-.33v-3.88a1.15,1.15,0,0,1,1,.38,3.71,3.71,0,0,0,.53.71l.3.94c.53,0,.84-.1.94-.25a1.08,1.08,0,0,0,.15-.61,3,3,0,0,1,.08-.71c.05-.2.25-.36.56-.46h-1.72a1.74,1.74,0,0,1,.33-1.09,3.51,3.51,0,0,1,.76-.86,3.57,3.57,0,0,0,.79-.86,2.25,2.25,0,0,0,.3-1.24,4.84,4.84,0,0,0,2.26-2,17,17,0,0,0,1.42-2.89c.36-1,.66-1.9.94-2.79a4.57,4.57,0,0,1,1.17-2.11v-4.06a4.91,4.91,0,0,0,3-2.11,12.18,12.18,0,0,0,1.09-2.87,14.89,14.89,0,0,1,1.12-3,4.72,4.72,0,0,1,2.87-2.18,5.07,5.07,0,0,1,1-2.89,5.27,5.27,0,0,0,1-3,28,28,0,0,1,3.91-5.91,31.63,31.63,0,0,0,4-6.09,2.52,2.52,0,0,0,.86-1.47,5,5,0,0,0-.08-1.5,9.64,9.64,0,0,0-.46-1.55,3.78,3.78,0,0,1-.33-1.55,9.19,9.19,0,0,0,2.26-2.89c.48-1,1.7-2,3.68-3a3.1,3.1,0,0,0,1.88.94l2.26.3a6.68,6.68,0,0,1,2.18.71A4.58,4.58,0,0,1,276,245.27Z"/><path class="cls-1" d="M356.56,245.27a7.47,7.47,0,0,1-.08,5,17.46,17.46,0,0,1-2.11,3.75c-.84,1.14-1.65,2.26-2.49,3.35a6.32,6.32,0,0,0-1.24,4q-6.09,7.46-11.85,15.88t-10.3,16.06a24.47,24.47,0,0,1-3.88,6,28.67,28.67,0,0,0-4.06,6,22.26,22.26,0,0,0-2.49,4.44c-.63,1.52-1.24,3-1.88,4.54a48.84,48.84,0,0,1-2.18,4.51,20.48,20.48,0,0,1-3.42,4.44,11,11,0,0,1-1,4.59,48.62,48.62,0,0,1-2.26,4.44c-.84,1.47-1.72,2.94-2.66,4.44a17.47,17.47,0,0,0-2,4.62,9.16,9.16,0,0,0-1.88.23l-2.18.46a8,8,0,0,1-2.18.15,2.31,2.31,0,0,1-1.72-.84c-1.14,0-2-.76-2.64-2.28a3.33,3.33,0,0,1,.46-3.8,3.8,3.8,0,0,0,2.89-1.24,4,4,0,0,0,1.17-2.82,4.11,4.11,0,0,1,.94-2.71,17.51,17.51,0,0,1,2.11-2.26,25.21,25.21,0,0,0,2.11-2.28,4.25,4.25,0,0,0,.94-2.71l4-3.91a10.19,10.19,0,0,1,.63-3.88,30.8,30.8,0,0,1,1.32-2.89c.46-.89.91-1.7,1.32-2.49a5.6,5.6,0,0,0,.63-2.74,4.92,4.92,0,0,0,2.11-.3,1.37,1.37,0,0,0,.68-.79,5.65,5.65,0,0,1,.33-.76c.1-.23.41-.33.94-.33v-3.88a1.15,1.15,0,0,1,1,.38,3.71,3.71,0,0,0,.53.71l.3.94c.53,0,.84-.1.94-.25a1.08,1.08,0,0,0,.15-.61,3,3,0,0,1,.08-.71c.05-.2.25-.36.56-.46h-1.72a1.74,1.74,0,0,1,.33-1.09,3.51,3.51,0,0,1,.76-.86,3.57,3.57,0,0,0,.79-.86,2.25,2.25,0,0,0,.3-1.24,4.84,4.84,0,0,0,2.26-2,17,17,0,0,0,1.42-2.89c.36-1,.66-1.9.94-2.79a4.57,4.57,0,0,1,1.17-2.11v-4.06a4.91,4.91,0,0,0,3-2.11,12.18,12.18,0,0,0,1.09-2.87,14.89,14.89,0,0,1,1.12-3,4.72,4.72,0,0,1,2.87-2.18,5.07,5.07,0,0,1,1-2.89,5.27,5.27,0,0,0,1-3,28,28,0,0,1,3.91-5.91,31.63,31.63,0,0,0,4-6.09,2.52,2.52,0,0,0,.86-1.47,5,5,0,0,0-.08-1.5,9.64,9.64,0,0,0-.46-1.55,3.78,3.78,0,0,1-.33-1.55,9.19,9.19,0,0,0,2.26-2.89c.48-1,1.7-2,3.68-3a3.1,3.1,0,0,0,1.88.94l2.26.3a6.68,6.68,0,0,1,2.18.71A4.58,4.58,0,0,1,356.56,245.27Z"/><path class="cls-1" d="M67.67,135c0,.84-.66,1.7-2,2.56a28.71,28.71,0,0,0-3.58,2.89A4.83,4.83,0,0,0,60.49,144c0,1.37,1.24,2.87,3.75,4.51a9,9,0,0,0-.86,5.23,32,32,0,0,0,1.32,5.45c.63,1.93,1.27,4,2,6.09a23.84,23.84,0,0,1,1,7.08,9.86,9.86,0,0,1,1,5.15c-.15,1.67-.23,3.25-.23,4.77a7.91,7.91,0,0,0,1.09,4.11c.71,1.27,2.38,2.31,5,3.12.84,0,1.29-.2,1.4-.61a3,3,0,0,0-.15-1.57c-.2-.61-.46-1.34-.76-2.18a6.57,6.57,0,0,1-.48-2.49,32.65,32.65,0,0,0,3.12-11.06c.41-4,.94-7.63,1.55-11.06a20.53,20.53,0,0,1,3.45-8.57c1.65-2.28,4.62-3.45,8.88-3.45.61.74,1.19,1.47,1.7,2.18a13.53,13.53,0,0,1,1.17,2.18,6,6,0,0,1,.56,2.51A77.56,77.56,0,0,1,97,162.93c.56,2.54,1.17,5.12,1.8,7.71a65.56,65.56,0,0,0,2.33,7.71,36.36,36.36,0,0,0,4,7.71v3.42a8.87,8.87,0,0,0,2-3.12c.53-1.24,1-2.49,1.42-3.73s.84-2.49,1.32-3.73a8.09,8.09,0,0,1,2-3.12,30.09,30.09,0,0,1-.86-9.66,65,65,0,0,1,1.32-8.65c.63-2.76,1.27-5.43,2-8a30.25,30.25,0,0,0,1-7.79,43,43,0,0,1-4.67-5.07,8.24,8.24,0,0,1-2-5.2,5.32,5.32,0,0,1,3.58-1.42c1.55-.1,3.2-.15,4.92-.15s3.35-.08,4.9-.23a5.73,5.73,0,0,0,3.58-1.47c1.67-1.67,3.35-2,5.07-.86a34.75,34.75,0,0,1,5.23,4.13,21.85,21.85,0,0,1-.48,4.82c-.3,1.45-1.34,2.18-3.09,2.18a6.6,6.6,0,0,0-4.62,2,6.34,6.34,0,0,0-2.11,4.67,52.18,52.18,0,0,1-2.11,15,77.42,77.42,0,0,1-4.59,12.3,17,17,0,0,1,.86,7.18,35.9,35.9,0,0,1-1.4,6.47c-.68,2.13-1.37,4.31-2,6.54a24,24,0,0,0-1,7.1c0,.94,0,1.65-.08,2.18a3.57,3.57,0,0,1-.41,1.4,4.85,4.85,0,0,1-1,1.32c-.46.48-1.12,1.12-1.93,2H101.78c-2.59-.84-4.06-1.88-4.44-3.12a10.07,10.07,0,0,1-.23-4.13,35.5,35.5,0,0,0,.3-4.74,7.25,7.25,0,0,0-2.49-5,15.65,15.65,0,0,1-1.55-5.61c-.23-2.08-.43-4.08-.63-6a22.29,22.29,0,0,0-1.17-5.23,6.53,6.53,0,0,0-3.35-3.6,9.36,9.36,0,0,0-2,3.12,33,33,0,0,0-1.4,4.06c-.43,1.45-.89,3-1.42,4.74a23.93,23.93,0,0,1-2.18,5.07,3.7,3.7,0,0,0,.48,2c.3.53.58,1,.86,1.4a2,2,0,0,1,.23,1.42,4.47,4.47,0,0,1-1.57,2,17.67,17.67,0,0,0,.48,3.53,22.72,22.72,0,0,1,.46,4.51,8.12,8.12,0,0,1-.86,3.88c-.56,1.09-1.67,1.65-3.35,1.65a9.17,9.17,0,0,1-6.85,2.64,9.17,9.17,0,0,1-6.85-2.64c-.84-4.26-1.52-8.52-2-12.78s-1-8.52-1.42-12.78-.86-8.5-1.4-12.76-1.19-8.52-2-12.78A4.57,4.57,0,0,1,55,153a18.87,18.87,0,0,1-1.09-3.45c-.25-1.19-.48-2.36-.71-3.5a6.79,6.79,0,0,0-1.24-3,4.79,4.79,0,0,0-2.79-1.7,12.37,12.37,0,0,0-5.3.3,12.24,12.24,0,0,1-1.42-4.44,12.64,12.64,0,0,1,.18-3.58,21,21,0,0,1,.76-3,7.35,7.35,0,0,0,.48-2.56,13.17,13.17,0,0,0,7.63,2.56q3.73-.08,6.85-.38a16.83,16.83,0,0,1,5.61.23C65.59,130.87,66.83,132.37,67.67,135Z"/><path class="cls-1" d="M181.12,106.44c0,3.42-.15,7-.46,10.83s-.58,7.63-.79,11.52-.25,7.76-.15,11.62a51.5,51.5,0,0,0,1.4,10.91,44.39,44.39,0,0,0,7.86-6.54,61.22,61.22,0,0,1,8.57-7.25,31.5,31.5,0,0,1,9.82-4.59c3.5-.94,7.41-.56,11.77,1.09a12.29,12.29,0,0,1,6.62,1.55,10.14,10.14,0,0,1,3.68,4.13,18.87,18.87,0,0,1,1.62,5.94c.25,2.23.43,4.49.48,6.77s.15,4.51.3,6.7a27.29,27.29,0,0,0,1,5.94,30.52,30.52,0,0,0-1.47,8.17c-.18,3-.25,6-.25,9.06s-.08,6.06-.23,9a33.78,33.78,0,0,1-1.47,8.35,6.18,6.18,0,0,0,4.13,1.85,22.05,22.05,0,0,0,5-.23c1.72-.25,3.37-.56,5-.94a13.82,13.82,0,0,1,4.13-.38,2.82,2.82,0,0,1,2.41,1.55c.46.94.43,2.56-.08,4.84a16.07,16.07,0,0,1-5.71,1.47c-2,.15-4.11.23-6.29.23s-4.31.1-6.39.25a14.64,14.64,0,0,0-5.61,1.47,11.19,11.19,0,0,0-5.71-1c-2,.15-3.88.23-5.61.23a8.19,8.19,0,0,1-4.36-1.09c-1.19-.71-1.8-2.38-1.8-5a12.92,12.92,0,0,1,4.62-1.42q2.09-.15,4.11-.15a35.94,35.94,0,0,0,4.06-.23,16.07,16.07,0,0,0,4.69-1.47,101.57,101.57,0,0,1-1.65-14.43c-.15-4.41-.23-8.67-.23-12.76s-.05-8.17-.15-12.18a68,68,0,0,0-1.57-12.53,8,8,0,0,0-2.11-5.07,57.23,57.23,0,0,0-4.9-5.23,23.26,23.26,0,0,0-10.15,2.41,45.69,45.69,0,0,0-9.49,6.24,56.3,56.3,0,0,0-8.35,8.8A59.09,59.09,0,0,0,181.12,165v34.6a5.35,5.35,0,0,0,4.21.94,46.81,46.81,0,0,1,5.68-.33,11.48,11.48,0,0,1,5.07,1.09c1.45.74,2.18,2.41,2.18,5A52.85,52.85,0,0,1,188,207.8q-5.06.23-10.2.23c-3.42,0-6.87.1-10.37.25a56,56,0,0,0-10.5,1.47v-6.85q1.22-2.66,3.12-3a10.25,10.25,0,0,1,4.21.3,43.47,43.47,0,0,1,4.82,1.65,13.8,13.8,0,0,0,5.15,1,31.69,31.69,0,0,1-.94-9.66c.2-3,.41-5.94.61-8.73a44.08,44.08,0,0,0-.08-8.19,18.83,18.83,0,0,0-2.87-8,24.36,24.36,0,0,0,.94-8.8c-.23-3.27-.43-6.65-.63-10.07a82.93,82.93,0,0,1,0-10,16.32,16.32,0,0,1,3-8.65,14.25,14.25,0,0,1-1.42-5.3,27.64,27.64,0,0,1,.18-5.23c.2-1.7.46-3.45.76-5.23a28.55,28.55,0,0,0,.48-5.28,6.2,6.2,0,0,0-3.68-2,13,13,0,0,0-4,.15,39.63,39.63,0,0,0-4,.94,10.62,10.62,0,0,1-3.73.38,4.91,4.91,0,0,1-3.2-1.55,9.92,9.92,0,0,1-2.18-4.84,9.45,9.45,0,0,1,5.61-2.87,26.88,26.88,0,0,1,6.39-.08q3.27.3,6.47.53a10.72,10.72,0,0,0,5.68-1Z"/><path class="cls-1" d="M342.11,147a61.55,61.55,0,0,1,4.59,24.93q-.38,12.48-7.86,24.93a29.64,29.64,0,0,1-7.1,4.92c-3.07,1.6-6.27,3.25-9.59,4.9L315.23,209a29,29,0,0,1-6.32,1.42,18.46,18.46,0,0,1-6.32-.48,21.68,21.68,0,0,1-6.92-3.27H292.4A27.77,27.77,0,0,1,282.25,200a38.31,38.31,0,0,1-6.39-9.11,58.29,58.29,0,0,1-4-10.37c-1-3.58-1.9-7-2.74-10.37a9.46,9.46,0,0,1,1-4.44,33.32,33.32,0,0,1,2.33-3.8,28.63,28.63,0,0,0,2.33-3.83,9.31,9.31,0,0,0,1-4.44,23.36,23.36,0,0,1,4.13-8.73,35.16,35.16,0,0,1,6.62-6.54,47,47,0,0,1,7.79-4.74,68.68,68.68,0,0,1,7.81-3.2c2.49,0,5,0,7.48.08a53.63,53.63,0,0,1,7.48.68,40.76,40.76,0,0,1,7.46,2,35.87,35.87,0,0,1,7.48,3.91Zm-10,10a11.57,11.57,0,0,1-3.88-3q-1.41-1.71-2.66-3.27a17.28,17.28,0,0,0-2.64-2.64A6.17,6.17,0,0,0,319,147c-2.49-.84-5-1.57-7.48-2.26a28,28,0,0,0-7.48-1,20,20,0,0,0-7.46,1.47,22.49,22.49,0,0,0-7.48,5.23,13.1,13.1,0,0,0-3.35,5,15.81,15.81,0,0,0-.86,5.3,50.91,50.91,0,0,0,.38,6,58.88,58.88,0,0,1,.38,6.95,23.2,23.2,0,0,0,1.19,7.31,31.59,31.59,0,0,0,3,6.72,29.22,29.22,0,0,0,4.29,5.53,19.59,19.59,0,0,0,4.92,3.65,37.52,37.52,0,0,0,14.48,2,18.09,18.09,0,0,0,12-5.45,25.72,25.72,0,0,0,5.71-8.5,37.85,37.85,0,0,0,2.56-9.74,42.61,42.61,0,0,0-1.72-18.24Z"/><path class="cls-1" d="M408.19,105a4,4,0,0,1,2.41-1.32,3.35,3.35,0,0,1,2,.46,4,4,0,0,1,1.4,1.72,5.19,5.19,0,0,1,.56,2.26v83.68c-.84,0-1.27.2-1.32.56a3.6,3.6,0,0,0,.15,1.47,15.46,15.46,0,0,0,.68,2.11,6.22,6.22,0,0,1,.48,2.44h29.14a5.51,5.51,0,0,1,2.26.53,3.63,3.63,0,0,1,1.7,1.47,3.55,3.55,0,0,1,.48,2.11,3.38,3.38,0,0,1-1.32,2.26A7.22,7.22,0,0,1,444,208a7.3,7.3,0,0,1-3.5.86,16.68,16.68,0,0,1-3.6-.38,14.18,14.18,0,0,0-2.94-.41,61.62,61.62,0,0,1-11.54,1.34c-3.63.05-7.15,0-10.53-.15s-6.7-.41-10-.71-6.52-.48-9.74-.48a35.76,35.76,0,0,0-6.16.48c-1.7.3-3.27.53-4.67.71a27.66,27.66,0,0,1-4.06.15,11.18,11.18,0,0,1-4.44-1.34,6,6,0,0,1-3.2-.61,2.15,2.15,0,0,1-.86-1.8,16.52,16.52,0,0,1,.41-3,21,21,0,0,0,.38-4.19,11.66,11.66,0,0,1,6.95-2.36,29.5,29.5,0,0,1,6.47,1.09c2.18.63,4.54,1.19,7.08,1.72a19.68,19.68,0,0,0,8.65-.46c0,.81.15,1.29.48,1.4a1.46,1.46,0,0,0,1.09-.15l1.55-1.24a10.44,10.44,0,0,0,2.89-5,29.19,29.19,0,0,0,.38-4.67,70.66,70.66,0,0,1-.94-15c.2-5.2.51-10.42.86-15.68s.63-10.42.86-15.57a79.73,79.73,0,0,0-.79-15V118a6,6,0,0,0-4.82-2.79,35.21,35.21,0,0,0-7.1.08c-2.54.25-5.15.56-7.79.94a23.2,23.2,0,0,1-7,0,6.87,6.87,0,0,1-4.67-3c-1.09-1.67-1.37-4.36-.86-8.12Z"/><path class="cls-1" d="M540,155a33.88,33.88,0,0,0,.41,5.15,31.26,31.26,0,0,1,.38,4.69,9.36,9.36,0,0,1-.86,4,6.75,6.75,0,0,1-3.35,3.12,45.33,45.33,0,0,0-30.08,0,25.6,25.6,0,0,0-6.92-1.4,38.4,38.4,0,0,0-6,.15c-1.88.2-3.7.46-5.48.79A30,30,0,0,1,483,172c-1.67,1.67-2.44,3.15-2.26,4.44a8.53,8.53,0,0,0,1.47,3.83q1.26,1.86,2.74,3.88a7.7,7.7,0,0,1,1.47,4.54,11.4,11.4,0,0,0,3,3.88,20.57,20.57,0,0,0,3.65,2.33c1.24.63,2.46,1.19,3.65,1.72a9.27,9.27,0,0,1,3,2,33.25,33.25,0,0,0,17.63-4.59A40.17,40.17,0,0,0,529.86,182a6.94,6.94,0,0,1,6.7,6.72,8.81,8.81,0,0,1-1.17,4.51,18.42,18.42,0,0,1-3,3.88c-1.24,1.27-2.64,2.56-4.21,3.91s-3.17,2.87-4.82,4.51a67.12,67.12,0,0,1-9.11,2.26,59.08,59.08,0,0,1-11.08,1,41.37,41.37,0,0,1-11.06-1.47,20.3,20.3,0,0,1-9.11-5.23,74.24,74.24,0,0,0-5.45-7.1c-2-2.23-3.8-4.49-5.45-6.77a35.36,35.36,0,0,1-4.13-7.33,22.71,22.71,0,0,1-1.65-8.88,6.41,6.41,0,0,1,.56-2.56c.36-.89.74-1.88,1.17-3s.81-2.28,1.17-3.58a16.9,16.9,0,0,0,.53-4.44,47.59,47.59,0,0,1,3.68-9.82,46.59,46.59,0,0,1,5.83-9,38.13,38.13,0,0,1,7.79-7.08,29.3,29.3,0,0,1,9.36-4.21,55.34,55.34,0,0,1,14.33,1.8,47.28,47.28,0,0,1,12.56,5.2,41.28,41.28,0,0,1,10,8.42A39.39,39.39,0,0,1,540,155Zm-13.39,3.45a10.22,10.22,0,0,0-.53-3,15.87,15.87,0,0,0-1.5-3.27,10.76,10.76,0,0,0-2.18-2.66,3.88,3.88,0,0,0-2.49-1.09c-1.67-.81-3.5-1.78-5.53-2.87a33.1,33.1,0,0,0-6.24-2.59,17.75,17.75,0,0,0-6.24-.68,8.7,8.7,0,0,0-5.53,2.71,9.86,9.86,0,0,1-3.5,4.13c-1.52,1-3,2-4.44,3.12a19.79,19.79,0,0,0-3.83,3.73,9.4,9.4,0,0,0-1.62,5.86c3.32,0,6.85,0,10.6-.08s7.46-.18,11.21-.41,7.48-.53,11.21-1A90.78,90.78,0,0,0,526.59,158.49Z"/><path class="cls-1" d="M414,254a5.29,5.29,0,0,1,5,0,47,47,0,0,0,5.07,2.18,8,8,0,0,0,5,.23c1.67-.46,3.37-2.36,5.15-5.68a2.92,2.92,0,0,1,1.8.53l1.32,1.09a12.68,12.68,0,0,0,1.4,1.09,3.37,3.37,0,0,0,2,.56,36.16,36.16,0,0,0,.46,5.45c.33,2,.58,3.93.79,5.83a31,31,0,0,1,.15,5.23,6,6,0,0,1-1.4,3.75c-1.67.81-3,1.09-3.91.76a4.64,4.64,0,0,1-2.33-1.78,20.66,20.66,0,0,1-1.7-3,10.61,10.61,0,0,0-2-2.89,4.51,4.51,0,0,0-2.51-1.4,20.76,20.76,0,0,0-2.56-.15,14,14,0,0,1-2.56-.23,5.1,5.1,0,0,1-2.51-1.5c-2.49-.81-5.33-1.6-8.47-2.33a43,43,0,0,0-9.74-1.09,34.14,34.14,0,0,0-9.84,1.47,20.46,20.46,0,0,0-8.55,5.23,3.52,3.52,0,0,1-.48,2c-.3.48-.56.91-.79,1.32a2.23,2.23,0,0,0-.15,1.42,5.72,5.72,0,0,0,1.42,2.18l6.7,6.54a135.56,135.56,0,0,0,14.89,1.62,111.27,111.27,0,0,1,14.26,1.65A52.26,52.26,0,0,1,433,288.28a31.66,31.66,0,0,1,11.21,9.18,11.84,11.84,0,0,1,1.32,5,18.44,18.44,0,0,1-.53,5,28.2,28.2,0,0,1-1.8,5c-.76,1.65-1.57,3.32-2.41,5a11.45,11.45,0,0,1-4.13,5.86,19.67,19.67,0,0,1-6.32,3,32.09,32.09,0,0,1-6.85,1.09c-2.28.1-4.26.15-5.91.15a66,66,0,0,1-9.92,1.7,38,38,0,0,1-9.33-.15,24.16,24.16,0,0,1-8.12-2.56,16.81,16.81,0,0,1-6.14-5.68,6.18,6.18,0,0,0-4.46,1.93c-1.29,1.32-2.59,2.59-3.88,3.83a12.21,12.21,0,0,1-3.91,2.64c-1.29.53-2.76-.05-4.44-1.7a16.88,16.88,0,0,1,1.5-7c1-2.18,1.88-4.34,2.71-6.47a21.61,21.61,0,0,0,1.47-6.39,11,11,0,0,0-2.26-6.92,6.56,6.56,0,0,0-.46-2.41c-.3-.79-.58-1.5-.79-2.11a3,3,0,0,1-.15-1.57c.1-.41.58-.61,1.4-.61a3.43,3.43,0,0,1,2.33-1.32,5.4,5.4,0,0,1,2.59.53,9.11,9.11,0,0,1,2.49,1.8c.79.79,1.6,1.57,2.41,2.41,0,1.67.05,3.47.18,5.45a21,21,0,0,0,1.09,5.76,14.21,14.21,0,0,0,3,5.15,13.08,13.08,0,0,0,5.86,3.58,21.78,21.78,0,0,0,9,3.3,43.47,43.47,0,0,0,10.91.15,52.48,52.48,0,0,0,11-2.44,37.74,37.74,0,0,0,9.13-4.29,11.2,11.2,0,0,0,3-7.15q.38-4.53.38-9.51a19.05,19.05,0,0,0-7.48-5.53,38.49,38.49,0,0,0-9.44-2.49,81.4,81.4,0,0,0-10.35-.79c-3.55-.05-7-.18-10.3-.38a59.61,59.61,0,0,1-9.41-1.34,17.46,17.46,0,0,1-7.56-3.58,16,16,0,0,1-4.77-7.18c-1.09-3-1.42-7.08-1-12.07a18.09,18.09,0,0,0,2.74-3,32.53,32.53,0,0,1,2.79-3.35,14.67,14.67,0,0,1,3.42-2.64,9,9,0,0,1,4.46-1.09,4.61,4.61,0,0,1,3-1.4c1.19-.1,2.44-.18,3.68-.18a28.82,28.82,0,0,0,3.65-.23,5.08,5.08,0,0,0,3-1.47c.84,1.65,1.85,2.46,3,2.41a12.75,12.75,0,0,0,3.65-.71,16.15,16.15,0,0,1,3.58-.76C412.17,251.55,413.13,252.31,414,254Z"/><path class="cls-1" d="M538.66,268.16a61.55,61.55,0,0,1,4.59,24.93q-.38,12.48-7.86,24.93a29.64,29.64,0,0,1-7.1,4.92c-3.07,1.6-6.27,3.25-9.59,4.9l-6.92,2.33a29,29,0,0,1-6.32,1.42,18.46,18.46,0,0,1-6.32-.48,21.68,21.68,0,0,1-6.92-3.27h-3.27a27.77,27.77,0,0,1-10.15-6.62,38.31,38.31,0,0,1-6.39-9.11,58.29,58.29,0,0,1-4-10.37c-1-3.58-1.9-7-2.74-10.37a9.46,9.46,0,0,1,1-4.44,33.32,33.32,0,0,1,2.33-3.8,28.63,28.63,0,0,0,2.33-3.83,9.31,9.31,0,0,0,1-4.44,23.36,23.36,0,0,1,4.13-8.73,35.16,35.16,0,0,1,6.62-6.54,47,47,0,0,1,7.79-4.74,68.68,68.68,0,0,1,7.81-3.2c2.49,0,5,0,7.48.08a53.63,53.63,0,0,1,7.48.68,40.76,40.76,0,0,1,7.46,2,35.87,35.87,0,0,1,7.48,3.91Zm-10,10a11.57,11.57,0,0,1-3.88-3q-1.41-1.71-2.66-3.27a17.28,17.28,0,0,0-2.64-2.64,6.17,6.17,0,0,0-3.91-1.09c-2.49-.84-5-1.57-7.48-2.26a28,28,0,0,0-7.48-1,20,20,0,0,0-7.46,1.47,22.49,22.49,0,0,0-7.48,5.23,13.1,13.1,0,0,0-3.35,5,15.81,15.81,0,0,0-.86,5.3,50.91,50.91,0,0,0,.38,6,58.88,58.88,0,0,1,.38,6.95,23.2,23.2,0,0,0,1.19,7.31,31.59,31.59,0,0,0,3,6.72,29.22,29.22,0,0,0,4.29,5.53,19.59,19.59,0,0,0,4.92,3.65,37.52,37.52,0,0,0,14.48,2,18.09,18.09,0,0,0,12-5.45,25.72,25.72,0,0,0,5.71-8.5,37.85,37.85,0,0,0,2.56-9.74,42.61,42.61,0,0,0-1.72-18.24Z"/><path class="cls-1" d="M646.67,260.83a106.67,106.67,0,0,0-1.5,14.74c-.15,4.92-.23,9.77-.23,14.48s-.05,9.36-.15,13.87a76.85,76.85,0,0,1-1.4,13,5.35,5.35,0,0,0,3.42,1.47c1.45.18,2.79.36,4.06.56a5.37,5.37,0,0,1,2.79,1.17q1,.88-.3,3.35c.84,1.57,1.12,2.64.86,3.2a2.13,2.13,0,0,1-1.34,1.17c-.61.2-1.27.41-1.93.56s-1,.63-1,1.47a9.29,9.29,0,0,0-4.21-.71c-1.67.05-3.4.18-5.23.41s-3.58.33-5.3.38a9,9,0,0,1-4.21-.71,3.65,3.65,0,0,1-2-2.87c-.25-1.42.18-3.45,1.34-6.16h3.27a8.8,8.8,0,0,0,2.79-4.51,16.63,16.63,0,0,0,.08-4.21c-.15-1.45-.3-3-.46-4.74a15.92,15.92,0,0,1,1-6.32,19.64,19.64,0,0,1-1-7.48l.46-7.48a51.49,51.49,0,0,0-.08-7.41,16,16,0,0,0-2.79-7.41,4.66,4.66,0,0,0,1.4-2.94,14.5,14.5,0,0,0-.15-3.6c-.23-1.24-.48-2.44-.79-3.58a11.77,11.77,0,0,1-.46-3,63.19,63.19,0,0,1-4.92,4.44c-1.62,1.32-3.15,2.59-4.59,3.83a44.09,44.09,0,0,0-4,3.8,20.23,20.23,0,0,0-3,4.44,10.22,10.22,0,0,1-.53,3c-.38,1.14-.74,2.33-1.09,3.6s-.74,2.44-1.09,3.58a9.55,9.55,0,0,0-.56,3v29.75a14,14,0,0,0,2.41,2c.79.46,1.5.91,2.11,1.32a9.38,9.38,0,0,1,1.57,1.32,2.9,2.9,0,0,1,.61,2,6.21,6.21,0,0,1,1.27,1.88,1.33,1.33,0,0,1-.48,1.24,9.46,9.46,0,0,1-1.78,1.32,13.24,13.24,0,0,0-2.44,2,12.82,12.82,0,0,1-3-.46,31.19,31.19,0,0,0-4-.79,22.86,22.86,0,0,0-4.59-.15,12.56,12.56,0,0,0-4.92,1.4,10,10,0,0,1-2.74-4.82,30.23,30.23,0,0,1-.38-4.84,24.73,24.73,0,0,0,4.44-.38c1.42-.25,2.11-1.22,2.11-2.89,0-4.16.15-8.32.48-12.45s.56-8.4.76-12.71.28-8.75.15-13.34A100.17,100.17,0,0,0,604,264.1a4.78,4.78,0,0,0-.61-2.33,4.86,4.86,0,0,0-1.57-1.7,3.19,3.19,0,0,0-2.11-.56,3.34,3.34,0,0,0-2.26,1.32,28.66,28.66,0,0,0-9.66,9.13,38.1,38.1,0,0,0-5,11.85,67.37,67.37,0,0,0-1.8,13.7c-.15,4.84-.23,9.74-.23,14.74.81,0,1.19.68,1.09,2s-.15,2.74-.15,4.21a5.91,5.91,0,0,0,1,3.58c.66.94,2.26,1,4.74.15,1.65,0,2.61.68,2.89,2a23.68,23.68,0,0,1,.38,4.36,27.88,27.88,0,0,1-10.3,2.89c-3.53.25-7.79.38-12.76.38l-3.27-3.27a23.68,23.68,0,0,1,.38-4.36c.25-1.34,1.22-2,2.89-2,.81,0,1.5,0,2-.08a4.19,4.19,0,0,0,1.42-.38,7.57,7.57,0,0,0,1.32-.94c.46-.43,1.12-1,2-1.88a71.72,71.72,0,0,1-1.4-12.38q-.19-6.16.15-12.4c.2-4.16.46-8.27.76-12.38s.48-8.24.48-12.4a5.17,5.17,0,0,0-3-1.47c-1.14-.15-2.23-.33-3.27-.56a5.84,5.84,0,0,1-2.64-1.17c-.74-.56-1.09-1.67-1.09-3.35a24.59,24.59,0,0,1,.38-4.51c.25-1.34,1.22-2,2.89-2a7.17,7.17,0,0,0,3.8,2.11,22.82,22.82,0,0,0,4.06.38c1.29,0,2.51,0,3.65-.08a5,5,0,0,1,2.66.48,2,2,0,0,1,.76,2.11,15.25,15.25,0,0,1-1.85,4.82H584c1.75-1.65,4.16-3.83,7.15-6.54a46,46,0,0,1,9.36-6.54c1.78,0,4,.81,6.7,2.41a17.26,17.26,0,0,1,6.54,7.41v3.27a15.32,15.32,0,0,0,4.51-3.42c1.37-1.45,2.74-2.92,4.13-4.36a22.78,22.78,0,0,1,4.77-3.73,12.31,12.31,0,0,1,6.39-1.57,9.16,9.16,0,0,0,3,2c1.19.53,2.41,1.09,3.6,1.72a22.12,22.12,0,0,1,3.5,2.26A11.05,11.05,0,0,1,646.67,260.83Z"/><path class="cls-1" d="M748.86,276.25a33.88,33.88,0,0,0,.41,5.15,31.26,31.26,0,0,1,.38,4.69,9.36,9.36,0,0,1-.86,4,6.75,6.75,0,0,1-3.35,3.12,45.33,45.33,0,0,0-30.08,0,25.6,25.6,0,0,0-6.92-1.4,38.4,38.4,0,0,0-6,.15c-1.88.2-3.7.46-5.48.79a30,30,0,0,1-5.12.46c-1.67,1.67-2.44,3.15-2.26,4.44a8.53,8.53,0,0,0,1.47,3.83q1.26,1.86,2.74,3.88a7.7,7.7,0,0,1,1.47,4.54,11.4,11.4,0,0,0,3,3.88,20.57,20.57,0,0,0,3.65,2.33c1.24.63,2.46,1.19,3.65,1.72a9.27,9.27,0,0,1,3,2,33.25,33.25,0,0,0,17.63-4.59,40.17,40.17,0,0,0,12.45-12.1,6.94,6.94,0,0,1,6.7,6.72,8.81,8.81,0,0,1-1.17,4.51,18.42,18.42,0,0,1-3,3.88c-1.24,1.27-2.64,2.56-4.21,3.91s-3.17,2.87-4.82,4.51a67.12,67.12,0,0,1-9.11,2.26A59.08,59.08,0,0,1,712,330a41.37,41.37,0,0,1-11.06-1.47,20.3,20.3,0,0,1-9.11-5.23,74.24,74.24,0,0,0-5.45-7.1c-2-2.23-3.8-4.49-5.45-6.77a35.36,35.36,0,0,1-4.13-7.33,22.71,22.71,0,0,1-1.65-8.88,6.41,6.41,0,0,1,.56-2.56c.36-.89.74-1.88,1.17-3s.81-2.28,1.17-3.58a16.9,16.9,0,0,0,.53-4.44,47.59,47.59,0,0,1,3.68-9.82,46.59,46.59,0,0,1,5.83-9,38.13,38.13,0,0,1,7.79-7.08,29.3,29.3,0,0,1,9.36-4.21,55.34,55.34,0,0,1,14.33,1.8,47.28,47.28,0,0,1,12.56,5.2,41.28,41.28,0,0,1,10,8.42A39.39,39.39,0,0,1,748.86,276.25Zm-13.39,3.45a10.22,10.22,0,0,0-.53-3,15.87,15.87,0,0,0-1.5-3.27,10.76,10.76,0,0,0-2.18-2.66,3.88,3.88,0,0,0-2.49-1.09c-1.67-.81-3.5-1.78-5.53-2.87a33.1,33.1,0,0,0-6.24-2.59,17.75,17.75,0,0,0-6.24-.68,8.7,8.7,0,0,0-5.53,2.71,9.86,9.86,0,0,1-3.5,4.13c-1.52,1-3,2-4.44,3.12a19.79,19.79,0,0,0-3.83,3.73,9.4,9.4,0,0,0-1.62,5.86c3.32,0,6.85,0,10.6-.08s7.46-.18,11.21-.41,7.48-.53,11.21-1A90.78,90.78,0,0,0,735.47,279.7Z"/><path class="cls-1" d="M134.59,411.8a106.67,106.67,0,0,0-1.5,14.74c-.15,4.92-.23,9.77-.23,14.48s-.05,9.36-.15,13.87a76.85,76.85,0,0,1-1.4,13,5.35,5.35,0,0,0,3.42,1.47c1.45.18,2.79.36,4.06.56a5.37,5.37,0,0,1,2.79,1.17q1,.88-.3,3.35c.84,1.57,1.12,2.64.86,3.2a2.13,2.13,0,0,1-1.34,1.17c-.61.2-1.27.41-1.93.56s-1,.63-1,1.47a9.29,9.29,0,0,0-4.21-.71c-1.67.05-3.4.18-5.23.41s-3.58.33-5.3.38a9,9,0,0,1-4.21-.71,3.65,3.65,0,0,1-2-2.87c-.25-1.42.18-3.45,1.34-6.16h3.27a8.8,8.8,0,0,0,2.79-4.51,16.63,16.63,0,0,0,.08-4.21c-.15-1.45-.3-3-.46-4.74a15.92,15.92,0,0,1,1-6.32,19.64,19.64,0,0,1-1-7.48l.46-7.48a51.49,51.49,0,0,0-.08-7.41,16,16,0,0,0-2.79-7.41,4.66,4.66,0,0,0,1.4-2.94,14.5,14.5,0,0,0-.15-3.6c-.23-1.24-.48-2.44-.79-3.58a11.77,11.77,0,0,1-.46-3,63.19,63.19,0,0,1-4.92,4.44c-1.62,1.32-3.15,2.59-4.59,3.83a44.09,44.09,0,0,0-4,3.8,20.23,20.23,0,0,0-3,4.44,10.22,10.22,0,0,1-.53,3c-.38,1.14-.74,2.33-1.09,3.6s-.74,2.44-1.09,3.58a9.55,9.55,0,0,0-.56,3v29.75a14,14,0,0,0,2.41,2c.79.46,1.5.91,2.11,1.32a9.38,9.38,0,0,1,1.57,1.32,2.9,2.9,0,0,1,.61,2,6.21,6.21,0,0,1,1.27,1.88,1.33,1.33,0,0,1-.48,1.24,9.46,9.46,0,0,1-1.78,1.32,13.24,13.24,0,0,0-2.44,2,12.82,12.82,0,0,1-3-.46,31.19,31.19,0,0,0-4-.79,22.86,22.86,0,0,0-4.59-.15,12.56,12.56,0,0,0-4.92,1.4A10,10,0,0,1,85.71,476a30.23,30.23,0,0,1-.38-4.84,24.73,24.73,0,0,0,4.44-.38c1.42-.25,2.11-1.22,2.11-2.89,0-4.16.15-8.32.48-12.45s.56-8.4.76-12.71.28-8.75.15-13.34a100.17,100.17,0,0,0-1.4-14.33,4.78,4.78,0,0,0-.61-2.33,4.86,4.86,0,0,0-1.57-1.7,3.19,3.19,0,0,0-2.11-.56,3.34,3.34,0,0,0-2.26,1.32,28.66,28.66,0,0,0-9.66,9.13,38.1,38.1,0,0,0-5,11.85,67.37,67.37,0,0,0-1.8,13.7c-.15,4.84-.23,9.74-.23,14.74.81,0,1.19.68,1.09,2s-.15,2.74-.15,4.21a5.91,5.91,0,0,0,1,3.58c.66.94,2.26,1,4.74.15,1.65,0,2.61.68,2.89,2a23.68,23.68,0,0,1,.38,4.36,27.88,27.88,0,0,1-10.3,2.89c-3.53.25-7.79.38-12.76.38l-3.27-3.27a23.68,23.68,0,0,1,.38-4.36c.25-1.34,1.22-2,2.89-2,.81,0,1.5,0,2-.08a4.19,4.19,0,0,0,1.42-.38,7.57,7.57,0,0,0,1.32-.94c.46-.43,1.12-1,2-1.88a71.72,71.72,0,0,1-1.4-12.38q-.19-6.16.15-12.4c.2-4.16.46-8.27.76-12.38s.48-8.24.48-12.4a5.17,5.17,0,0,0-3-1.47c-1.14-.15-2.23-.33-3.27-.56a5.84,5.84,0,0,1-2.64-1.17c-.74-.56-1.09-1.67-1.09-3.35a24.59,24.59,0,0,1,.38-4.51c.25-1.34,1.22-2,2.89-2a7.17,7.17,0,0,0,3.8,2.11,22.82,22.82,0,0,0,4.06.38c1.29,0,2.51,0,3.65-.08a5,5,0,0,1,2.66.48,2,2,0,0,1,.76,2.11,15.25,15.25,0,0,1-1.85,4.82h3.27c1.75-1.65,4.16-3.83,7.15-6.54A46,46,0,0,1,88.45,402c1.78,0,4,.81,6.7,2.41a17.26,17.26,0,0,1,6.54,7.41v3.27a15.32,15.32,0,0,0,4.51-3.42c1.37-1.45,2.74-2.92,4.13-4.36a22.78,22.78,0,0,1,4.77-3.73A12.31,12.31,0,0,1,121.5,402a9.16,9.16,0,0,0,3,2c1.19.53,2.41,1.09,3.6,1.72a22.12,22.12,0,0,1,3.5,2.26A11.05,11.05,0,0,1,134.59,411.8Z"/><path class="cls-1" d="M234.17,413.37a74.93,74.93,0,0,1,1.55,13.85c.1,4.79,0,9.51-.23,14.2s-.53,9.18-.86,13.54-.46,8.32-.46,11.85a7.85,7.85,0,0,0,3.27,3.58,15.31,15.31,0,0,0,3.83,1.34q1.94.38,3.8.61a5.49,5.49,0,0,1,3.27,1.65h7.18a5.89,5.89,0,0,1-.56,2.49,12.32,12.32,0,0,1-1.32,2.33,17.91,17.91,0,0,1-1.72,2.33,34.16,34.16,0,0,0-5.3.41,37.44,37.44,0,0,1-5.35.38,14.8,14.8,0,0,1-10.83-4.51,37.3,37.3,0,0,0-.41-5.3,9.61,9.61,0,0,0-3-5.3,43,43,0,0,1-11.36,8.35,52.89,52.89,0,0,1-12.23,4.21,77.71,77.71,0,0,1-12.94,1.55c-4.44.15-8.88.23-13.34.23q-16.06-10.73-10.6-32.09a25.38,25.38,0,0,1,8.19-8,33.84,33.84,0,0,1,9.82-3.73,60.24,60.24,0,0,1,10.83-1.24c3.75-.1,7.46-.2,11.14-.33a72.21,72.21,0,0,0,10.83-1.09,27,27,0,0,0,9.66-3.58c0-1.78,0-3.68-.08-5.76a25.71,25.71,0,0,0-.76-5.78,12.88,12.88,0,0,0-2.11-4.44,4.87,4.87,0,0,0-4.06-1.78,51.11,51.11,0,0,0-32.11,0,17.91,17.91,0,0,1,1.72,2.33,13.16,13.16,0,0,1,1.32,2.33,6.74,6.74,0,0,1,.56,2.64,3.79,3.79,0,0,0-2.18.56c-.53.36-1.14.76-1.8,1.17a13.91,13.91,0,0,1-2.59,1.17,13.23,13.23,0,0,1-4.19.56,12.76,12.76,0,0,1-3.6-.48,7.34,7.34,0,0,1-2.33-1,2.17,2.17,0,0,1-1.09-2c-1.88,0-3-.76-3.27-2.33a25.87,25.87,0,0,1-.46-5,27,27,0,0,1,9.82-8.12,42.12,42.12,0,0,1,12.07-3.8,54.64,54.64,0,0,1,12.71-.56,62.71,62.71,0,0,1,11.67,1.88,21.24,21.24,0,0,1,10.3,2.64A18.85,18.85,0,0,1,234.17,413.37ZM220,459.64c2.49,0,4.11-.71,4.82-2.18a9.88,9.88,0,0,0,.86-5.28,37.08,37.08,0,0,0-1.17-6.72,31.82,31.82,0,0,1-1.09-6.21,2.58,2.58,0,0,1-2.41,2.33,33.5,33.5,0,0,1-4.77.3,19,19,0,0,1-7.86,2.11c-2.87.15-5.76.18-8.73.08l-8.73-.3a24.47,24.47,0,0,0-7.79.86,13.46,13.46,0,0,0-6.09,3.65c-1.7,1.78-2.82,4.41-3.35,7.94a27.16,27.16,0,0,0,7,17.78,42.29,42.29,0,0,0,12.15.68A33.72,33.72,0,0,0,203,472.12a40.29,40.29,0,0,0,8.8-5.23A84.89,84.89,0,0,0,220,459.64Z"/><path class="cls-1" d="M309.91,417.74c2.61-2.51,5.23-4.95,7.89-7.33a38.75,38.75,0,0,1,8.4-5.83,24.93,24.93,0,0,1,9.66-2.66A27,27,0,0,1,347.48,404,3.7,3.7,0,0,1,350,405.1a22.83,22.83,0,0,1,2.59,2.74c.89,1.09,1.72,2.23,2.56,3.42a23,23,0,0,0,2.51,3V428a10,10,0,0,1-5.07,2.89,32.67,32.67,0,0,1-5.07.38,34.68,34.68,0,0,1-4.74-5.45c-1.42-2-2.11-4.67-2.11-8.09a2.28,2.28,0,0,1,1.47-2c1-.53,1.93-1,2.82-1.4s1.37-.89,1.47-1.42-.68-1.19-2.33-2a8.3,8.3,0,0,0-5.15-.76,14.22,14.22,0,0,0-5,2.11,34.4,34.4,0,0,0-5.15,4c-1.72,1.62-3.4,3.25-5.07,4.92a13.69,13.69,0,0,1-3.65,4.67c-1.62,1.34-3.27,2.79-5,4.29a56,56,0,0,0-4.9,4.92,17.71,17.71,0,0,0-3.6,6.54q5.29,5.14,5.71,10.27A18.37,18.37,0,0,1,309.91,462a22.38,22.38,0,0,0,.48,4.74c.3,1.4,1.34,2.11,3.12,2.11a9,9,0,0,0,5,1c1.67-.15,3.22-.33,4.69-.56a11.85,11.85,0,0,1,4,.08,5.22,5.22,0,0,1,3.27,2.89,3.49,3.49,0,0,0,.56,2,9.18,9.18,0,0,0,1.17,1.4c.41.43.81.86,1.17,1.32a3.24,3.24,0,0,1,.56,2,15.55,15.55,0,0,1-5.23,1.5c-1.72.15-3.42.23-5.15.23s-3.4.08-5.07.23a14.28,14.28,0,0,0-5,1.47,15.53,15.53,0,0,1-5.23-.91,44.29,44.29,0,0,0-5.15-1.57,14.67,14.67,0,0,0-5.15-.3,8.78,8.78,0,0,0-5,2.79,3,3,0,0,0-.56-1.93,3.3,3.3,0,0,0-1.17-1,3.08,3.08,0,0,0-1.7-.48,9,9,0,0,1-5.07,3,35.69,35.69,0,0,1-5.23.38c-.84-.81-1.62-1.67-2.41-2.56a10.2,10.2,0,0,1-1.8-2.89,7.79,7.79,0,0,1-.46-3.5,13.57,13.57,0,0,1,1.4-4.59h23.84V414.31a5.82,5.82,0,0,0-3.65-1.88,13.91,13.91,0,0,0-4.06.3,43.41,43.41,0,0,0-4.21,1.17,19.33,19.33,0,0,1-4.21.94,7.75,7.75,0,0,1-4.06-.63,8.94,8.94,0,0,1-3.65-3.35,6.68,6.68,0,0,1,2.11-4.67A6.48,6.48,0,0,1,282.8,404c3.32,0,6.72-.13,10.15-.38a28.5,28.5,0,0,0,10.27-2.89,6.39,6.39,0,0,1,3.35,3.58,21.11,21.11,0,0,1,1.17,4.92c.23,1.7.43,3.35.63,4.9A6.15,6.15,0,0,0,309.91,417.74Z"/><path class="cls-1" d="M401.68,373.93c0,5.94-.15,11.85-.46,17.78s-.58,11.74-.79,17.45-.25,11.29-.15,16.74a110.28,110.28,0,0,0,1.4,15.83c2.49-1.67,5.2-3.55,8.12-5.68s5.83-4.36,8.8-6.72,5.86-4.74,8.73-7.23,5.58-5,8.17-7.48c0-.84-.66-1.55-2-2.11s-2.66-1.17-4-1.8a5.91,5.91,0,0,1-2.74-2.33c-.51-.94.1-2.23,1.88-3.91q5,0,10-.38t9.82-.38a47.64,47.64,0,0,1,9.21.86,21.6,21.6,0,0,1,8.17,3.35c0,2.28-.33,3.86-1,4.74a3.56,3.56,0,0,1-2.64,1.47,9.48,9.48,0,0,1-3.58-.38c-1.32-.36-2.61-.68-3.91-.94a10.41,10.41,0,0,0-3.5-.15,3,3,0,0,0-2.33,2,67.24,67.24,0,0,1-6.16,5c-2.33,1.72-4.67,3.42-7,5.07a68.6,68.6,0,0,0-6.39,5.07,17.26,17.26,0,0,0-4.13,5.07c2.59,3.32,5.15,6.49,7.63,9.49s4.9,6,7.25,9,4.51,6,6.54,9a90.57,90.57,0,0,1,5.53,9.74,18.7,18.7,0,0,0,5.53-.94,33.61,33.61,0,0,1,5.53-1.24,6.49,6.49,0,0,1,4.21.71c1.14.66,1.7,2.26,1.7,4.74q0,2.66-.38,3t-2.89.38a13.87,13.87,0,0,0-5.12-1.4,28.42,28.42,0,0,0-5.07.15c-1.72.2-3.4.46-5.07.79a27.47,27.47,0,0,1-5,.46,19.09,19.09,0,0,0-3.75.48,25.45,25.45,0,0,1-4.9.46,13.35,13.35,0,0,1-4.84-.86,6.38,6.38,0,0,1-3.5-3.5,9,9,0,0,1,2-1.55,13.37,13.37,0,0,1,2.18-1.19,6.63,6.63,0,0,1,2.64-.53,4.87,4.87,0,0,1,2.44-1.47,9.31,9.31,0,0,1,2.11-.25,4,4,0,0,0,1.47-.23c.36-.15.53-.63.53-1.47a47.69,47.69,0,0,1-5-6.16c-1.72-2.44-3.53-5-5.38-7.79s-3.91-5.55-6.09-8.42a81.65,81.65,0,0,0-7-8,20.6,20.6,0,0,0-4.54,3q-2,1.79-3.88,3.65c-1.24,1.24-2.56,2.46-3.91,3.65a25.72,25.72,0,0,1-4.51,3.2,8.62,8.62,0,0,1,.94,5,47.8,47.8,0,0,1-.94,5.07,45.35,45.35,0,0,0-.94,5.12,8.79,8.79,0,0,0,.94,5.07,27.74,27.74,0,0,0,5-.46c1.65-.33,3.22-.58,4.67-.79a18.57,18.57,0,0,1,4.06-.15,4.81,4.81,0,0,1,3.12,1.4c0,3.32-.58,5.4-1.72,6.24a5.55,5.55,0,0,1-4.21.86c-1.65-.28-3.47-.61-5.45-1a8,8,0,0,0-5.45.61,15.93,15.93,0,0,1-5.15,1.5c-1.65.15-3.35.23-5,.23s-3.42.08-5.07.23a13.88,13.88,0,0,0-5,1.47q-5.44-5.14,0-10.12c.84-2.49,1.67-3.75,2.51-3.83a5.1,5.1,0,0,1,2.79.86,14.56,14.56,0,0,0,3.5,1.5c1.32.36,2.84-.3,4.62-2l-3.27-74.34a13.56,13.56,0,0,1,.46-3.12c.3-1.24.58-2.49.79-3.73a15,15,0,0,0,.15-3.68,4.73,4.73,0,0,0-1.4-3,15.54,15.54,0,0,0-3.2.38,17.57,17.57,0,0,1-3.68.38,9.25,9.25,0,0,1-3.65-.76,7.36,7.36,0,0,1-3.2-3.27c-.84-1.67-.94-2.82-.3-3.45a5.2,5.2,0,0,1,2.49-1.32q1.56-.38,3.12-.61c1-.18,1.55-.66,1.55-1.5a14.46,14.46,0,0,0,5,1.5c1.65.15,3.25.23,4.74.23s2.89.05,4.13.15A4.81,4.81,0,0,1,401.68,373.93Z"/><path class="cls-1" d="M558.77,427.22a33.88,33.88,0,0,0,.41,5.15,31.26,31.26,0,0,1,.38,4.69,9.36,9.36,0,0,1-.86,4,6.75,6.75,0,0,1-3.35,3.12,45.33,45.33,0,0,0-30.08,0,25.6,25.6,0,0,0-6.92-1.4,38.4,38.4,0,0,0-6,.15c-1.88.2-3.7.46-5.48.79a30,30,0,0,1-5.12.46c-1.67,1.67-2.44,3.15-2.26,4.44a8.53,8.53,0,0,0,1.47,3.83q1.26,1.86,2.74,3.88a7.7,7.7,0,0,1,1.47,4.54,11.4,11.4,0,0,0,3,3.88,20.57,20.57,0,0,0,3.65,2.33c1.24.63,2.46,1.19,3.65,1.72a9.27,9.27,0,0,1,3,2,33.25,33.25,0,0,0,17.63-4.59,40.17,40.17,0,0,0,12.45-12.1,6.94,6.94,0,0,1,6.7,6.72,8.81,8.81,0,0,1-1.17,4.51,18.42,18.42,0,0,1-3,3.88c-1.24,1.27-2.64,2.56-4.21,3.91s-3.17,2.87-4.82,4.51A67.12,67.12,0,0,1,533,480a59.08,59.08,0,0,1-11.08,1,41.37,41.37,0,0,1-11.06-1.47,20.3,20.3,0,0,1-9.11-5.23,74.24,74.24,0,0,0-5.45-7.1c-2-2.23-3.8-4.49-5.45-6.77a35.36,35.36,0,0,1-4.13-7.33,22.71,22.71,0,0,1-1.65-8.88,6.41,6.41,0,0,1,.56-2.56c.36-.89.74-1.88,1.17-3s.81-2.28,1.17-3.58a16.9,16.9,0,0,0,.53-4.44,47.59,47.59,0,0,1,3.68-9.82,46.59,46.59,0,0,1,5.83-9,38.13,38.13,0,0,1,7.79-7.08,29.3,29.3,0,0,1,9.36-4.21,55.34,55.34,0,0,1,14.33,1.8,47.28,47.28,0,0,1,12.56,5.2A41.28,41.28,0,0,1,552,416,39.39,39.39,0,0,1,558.77,427.22Zm-13.39,3.45a10.22,10.22,0,0,0-.53-3,15.87,15.87,0,0,0-1.5-3.27,10.76,10.76,0,0,0-2.18-2.66,3.88,3.88,0,0,0-2.49-1.09c-1.67-.81-3.5-1.78-5.53-2.87a33.1,33.1,0,0,0-6.24-2.59,17.75,17.75,0,0,0-6.24-.68,8.7,8.7,0,0,0-5.53,2.71,9.86,9.86,0,0,1-3.5,4.13c-1.52,1-3,2-4.44,3.12a19.79,19.79,0,0,0-3.83,3.73,9.4,9.4,0,0,0-1.62,5.86c3.32,0,6.85,0,10.6-.08s7.46-.18,11.21-.41,7.48-.53,11.21-1A90.78,90.78,0,0,0,545.37,430.67Z"/><path class="cls-1" d="M612.69,371.9a47.65,47.65,0,0,1-.53,7.33c-.36,2.28-.76,4.51-1.17,6.7s-.81,4.39-1.17,6.62a43.64,43.64,0,0,0-.56,7.25l3.42,3.42a24.89,24.89,0,0,0,10.3.63c3.42-.53,6.65-1,9.66-1.4a28.85,28.85,0,0,1,8.35-.08,9.35,9.35,0,0,1,6.47,4.44,6.48,6.48,0,0,1-2.18,4.74,6.89,6.89,0,0,1-4.84,2.11,16.32,16.32,0,0,0-6.32-1.4,63.39,63.39,0,0,0-7.56.15c-2.59.2-5.15.46-7.63.79a52.92,52.92,0,0,1-6.24.46,58.08,58.08,0,0,0-1.47,10.53q-.23,5.21-.23,10.42c0,3.5-.08,6.95-.23,10.37a55.17,55.17,0,0,1-1.5,10.27,17.8,17.8,0,0,1,1.57,5.15c.2,1.67.41,3.17.61,4.51a6.6,6.6,0,0,0,1.24,3.2c.63.79,1.83,1.17,3.6,1.17.81,1.78,1.65,2.76,2.49,3a5.15,5.15,0,0,0,2.49,0q1.26-.3,2.59-.53a3.17,3.17,0,0,1,2.71,1,11.65,11.65,0,0,0,6.24-4.69c1.55-2.28,3.09-4.62,4.59-7a32.31,32.31,0,0,1,5.3-6.39,11.6,11.6,0,0,1,8.19-2.82,5.52,5.52,0,0,0,.46,2.18,14.71,14.71,0,0,0,1,2.26,10.52,10.52,0,0,0,2,2.59,25.74,25.74,0,0,0-6.77,6.7c-1.93,2.69-3.88,5.25-5.86,7.63a25.43,25.43,0,0,1-6.47,5.68c-2.33,1.42-5.23,1.7-8.65.86a40.15,40.15,0,0,1-7.63-.71,41.59,41.59,0,0,1-7-1.93,22.67,22.67,0,0,1-5.78-3.2,14.63,14.63,0,0,1-3.88-4.62,10.53,10.53,0,0,0-1-4.67c-.68-1.34-1.32-2.56-2-3.65a13.22,13.22,0,0,1-1.32-3,2.85,2.85,0,0,1,.86-2.74,56.62,56.62,0,0,0,1.47-10.83c.15-3.78.23-7.53.23-11.21s.08-7.23.23-10.6a35.25,35.25,0,0,1,1.5-9,29.87,29.87,0,0,1-5.23-.46c-1.72-.33-3.42-.58-5.15-.79a29.78,29.78,0,0,0-5.23-.15,14.33,14.33,0,0,0-5.3,1.4c-1.75,0-2.76-.71-3-2.11a24.5,24.5,0,0,1-.41-4.74,13.72,13.72,0,0,1,5.3-3.53,18.25,18.25,0,0,1,5.53-.84,55.48,55.48,0,0,1,6.24.38,64.34,64.34,0,0,0,7.25.38,15.81,15.81,0,0,0,.61-8.32c-.51-3-1-6-1.4-9.06a35.9,35.9,0,0,1-.08-9,14.29,14.29,0,0,1,4.44-8.35,3.37,3.37,0,0,1,2,.56,9,9,0,0,1,1.4,1.17,10.89,10.89,0,0,0,1.42,1.17A3.46,3.46,0,0,0,612.69,371.9Z"/></g></svg>